G04 #@! TF.GenerationSoftware,KiCad,Pcbnew,(6.0.4)*
G04 #@! TF.CreationDate,2023-12-01T10:37:55+09:00*
G04 #@! TF.ProjectId,ftr105,66747231-3035-42e6-9b69-6361645f7063,Ver.1.1*
G04 #@! TF.SameCoordinates,PX55d4a80PY5f5e100*
G04 #@! TF.FileFunction,Legend,Bot*
G04 #@! TF.FilePolarity,Positive*
%FSLAX46Y46*%
G04 Gerber Fmt 4.6, Leading zero omitted, Abs format (unit mm)*
G04 Created by KiCad (PCBNEW (6.0.4)) date 2023-12-01 10:37:55*
%MOMM*%
%LPD*%
G01*
G04 APERTURE LIST*
%ADD10C,0.300000*%
G04 APERTURE END LIST*
D10*
X27005714Y44102143D02*
X27505714Y44102143D01*
X27505714Y43316429D02*
X27505714Y44816429D01*
X26791428Y44816429D01*
X26434285Y44816429D02*
X25577142Y44816429D01*
X26005714Y43316429D02*
X26005714Y44816429D01*
X24220000Y43316429D02*
X24720000Y44030715D01*
X25077142Y43316429D02*
X25077142Y44816429D01*
X24505714Y44816429D01*
X24362857Y44745000D01*
X24291428Y44673572D01*
X24220000Y44530715D01*
X24220000Y44316429D01*
X24291428Y44173572D01*
X24362857Y44102143D01*
X24505714Y44030715D01*
X25077142Y44030715D01*
X22791428Y43316429D02*
X23648571Y43316429D01*
X23220000Y43316429D02*
X23220000Y44816429D01*
X23362857Y44602143D01*
X23505714Y44459286D01*
X23648571Y44387858D01*
X21862857Y44816429D02*
X21720000Y44816429D01*
X21577142Y44745000D01*
X21505714Y44673572D01*
X21434285Y44530715D01*
X21362857Y44245000D01*
X21362857Y43887858D01*
X21434285Y43602143D01*
X21505714Y43459286D01*
X21577142Y43387858D01*
X21720000Y43316429D01*
X21862857Y43316429D01*
X22005714Y43387858D01*
X22077142Y43459286D01*
X22148571Y43602143D01*
X22220000Y43887858D01*
X22220000Y44245000D01*
X22148571Y44530715D01*
X22077142Y44673572D01*
X22005714Y44745000D01*
X21862857Y44816429D01*
X20005714Y44816429D02*
X20720000Y44816429D01*
X20791428Y44102143D01*
X20720000Y44173572D01*
X20577142Y44245000D01*
X20220000Y44245000D01*
X20077142Y44173572D01*
X20005714Y44102143D01*
X19934285Y43959286D01*
X19934285Y43602143D01*
X20005714Y43459286D01*
X20077142Y43387858D01*
X20220000Y43316429D01*
X20577142Y43316429D01*
X20720000Y43387858D01*
X20791428Y43459286D01*
X17862857Y44816429D02*
X17577142Y44816429D01*
X17434285Y44745000D01*
X17291428Y44602143D01*
X17220000Y44316429D01*
X17220000Y43816429D01*
X17291428Y43530715D01*
X17434285Y43387858D01*
X17577142Y43316429D01*
X17862857Y43316429D01*
X18005714Y43387858D01*
X18148571Y43530715D01*
X18220000Y43816429D01*
X18220000Y44316429D01*
X18148571Y44602143D01*
X18005714Y44745000D01*
X17862857Y44816429D01*
X16577142Y44316429D02*
X16577142Y42816429D01*
X16577142Y44245000D02*
X16434285Y44316429D01*
X16148571Y44316429D01*
X16005714Y44245000D01*
X15934285Y44173572D01*
X15862857Y44030715D01*
X15862857Y43602143D01*
X15934285Y43459286D01*
X16005714Y43387858D01*
X16148571Y43316429D01*
X16434285Y43316429D01*
X16577142Y43387858D01*
X15434285Y44316429D02*
X14862857Y44316429D01*
X15220000Y44816429D02*
X15220000Y43530715D01*
X15148571Y43387858D01*
X15005714Y43316429D01*
X14862857Y43316429D01*
X14362857Y43316429D02*
X14362857Y44316429D01*
X14362857Y44816429D02*
X14434285Y44745000D01*
X14362857Y44673572D01*
X14291428Y44745000D01*
X14362857Y44816429D01*
X14362857Y44673572D01*
X13005714Y43387858D02*
X13148571Y43316429D01*
X13434285Y43316429D01*
X13577142Y43387858D01*
X13648571Y43459286D01*
X13720000Y43602143D01*
X13720000Y44030715D01*
X13648571Y44173572D01*
X13577142Y44245000D01*
X13434285Y44316429D01*
X13148571Y44316429D01*
X13005714Y44245000D01*
X11720000Y43316429D02*
X11720000Y44102143D01*
X11791428Y44245000D01*
X11934285Y44316429D01*
X12220000Y44316429D01*
X12362857Y44245000D01*
X11720000Y43387858D02*
X11862857Y43316429D01*
X12220000Y43316429D01*
X12362857Y43387858D01*
X12434285Y43530715D01*
X12434285Y43673572D01*
X12362857Y43816429D01*
X12220000Y43887858D01*
X11862857Y43887858D01*
X11720000Y43959286D01*
X10791428Y43316429D02*
X10934285Y43387858D01*
X11005714Y43530715D01*
X11005714Y44816429D01*
X31577142Y40901429D02*
X31577142Y42401429D01*
X31005714Y42401429D01*
X30862857Y42330000D01*
X30791428Y42258572D01*
X30720000Y42115715D01*
X30720000Y41901429D01*
X30791428Y41758572D01*
X30862857Y41687143D01*
X31005714Y41615715D01*
X31577142Y41615715D01*
X30077142Y40901429D02*
X30077142Y42401429D01*
X29434285Y40901429D02*
X29434285Y41687143D01*
X29505714Y41830000D01*
X29648571Y41901429D01*
X29862857Y41901429D01*
X30005714Y41830000D01*
X30077142Y41758572D01*
X28505714Y40901429D02*
X28648571Y40972858D01*
X28720000Y41044286D01*
X28791428Y41187143D01*
X28791428Y41615715D01*
X28720000Y41758572D01*
X28648571Y41830000D01*
X28505714Y41901429D01*
X28291428Y41901429D01*
X28148571Y41830000D01*
X28077142Y41758572D01*
X28005714Y41615715D01*
X28005714Y41187143D01*
X28077142Y41044286D01*
X28148571Y40972858D01*
X28291428Y40901429D01*
X28505714Y40901429D01*
X27362857Y41901429D02*
X27362857Y40901429D01*
X27362857Y41758572D02*
X27291428Y41830000D01*
X27148571Y41901429D01*
X26934285Y41901429D01*
X26791428Y41830000D01*
X26720000Y41687143D01*
X26720000Y40901429D01*
X25434285Y40972858D02*
X25577142Y40901429D01*
X25862857Y40901429D01*
X26005714Y40972858D01*
X26077142Y41115715D01*
X26077142Y41687143D01*
X26005714Y41830000D01*
X25862857Y41901429D01*
X25577142Y41901429D01*
X25434285Y41830000D01*
X25362857Y41687143D01*
X25362857Y41544286D01*
X26077142Y41401429D01*
X23648571Y42472858D02*
X24934285Y40544286D01*
X22291428Y41044286D02*
X22362857Y40972858D01*
X22577142Y40901429D01*
X22720000Y40901429D01*
X22934285Y40972858D01*
X23077142Y41115715D01*
X23148571Y41258572D01*
X23220000Y41544286D01*
X23220000Y41758572D01*
X23148571Y42044286D01*
X23077142Y42187143D01*
X22934285Y42330000D01*
X22720000Y42401429D01*
X22577142Y42401429D01*
X22362857Y42330000D01*
X22291428Y42258572D01*
X21791428Y42401429D02*
X21434285Y40901429D01*
X21148571Y41972858D01*
X20862857Y40901429D01*
X20505714Y42401429D01*
X19005714Y42401429D02*
X18148571Y42401429D01*
X18577142Y40901429D02*
X18577142Y42401429D01*
X17648571Y40901429D02*
X17648571Y41901429D01*
X17648571Y41615715D02*
X17577142Y41758572D01*
X17505714Y41830000D01*
X17362857Y41901429D01*
X17220000Y41901429D01*
X16077142Y40901429D02*
X16077142Y41687143D01*
X16148571Y41830000D01*
X16291428Y41901429D01*
X16577142Y41901429D01*
X16720000Y41830000D01*
X16077142Y40972858D02*
X16220000Y40901429D01*
X16577142Y40901429D01*
X16720000Y40972858D01*
X16791428Y41115715D01*
X16791428Y41258572D01*
X16720000Y41401429D01*
X16577142Y41472858D01*
X16220000Y41472858D01*
X16077142Y41544286D01*
X15362857Y41901429D02*
X15362857Y40901429D01*
X15362857Y41758572D02*
X15291428Y41830000D01*
X15148571Y41901429D01*
X14934285Y41901429D01*
X14791428Y41830000D01*
X14720000Y41687143D01*
X14720000Y40901429D01*
X14077142Y40972858D02*
X13934285Y40901429D01*
X13648571Y40901429D01*
X13505714Y40972858D01*
X13434285Y41115715D01*
X13434285Y41187143D01*
X13505714Y41330000D01*
X13648571Y41401429D01*
X13862857Y41401429D01*
X14005714Y41472858D01*
X14077142Y41615715D01*
X14077142Y41687143D01*
X14005714Y41830000D01*
X13862857Y41901429D01*
X13648571Y41901429D01*
X13505714Y41830000D01*
X12148571Y40972858D02*
X12291428Y40901429D01*
X12577142Y40901429D01*
X12720000Y40972858D01*
X12791428Y41044286D01*
X12862857Y41187143D01*
X12862857Y41615715D01*
X12791428Y41758572D01*
X12720000Y41830000D01*
X12577142Y41901429D01*
X12291428Y41901429D01*
X12148571Y41830000D01*
X10934285Y40972858D02*
X11077142Y40901429D01*
X11362857Y40901429D01*
X11505714Y40972858D01*
X11577142Y41115715D01*
X11577142Y41687143D01*
X11505714Y41830000D01*
X11362857Y41901429D01*
X11077142Y41901429D01*
X10934285Y41830000D01*
X10862857Y41687143D01*
X10862857Y41544286D01*
X11577142Y41401429D01*
X10220000Y40901429D02*
X10220000Y41901429D01*
X10220000Y42401429D02*
X10291428Y42330000D01*
X10220000Y42258572D01*
X10148571Y42330000D01*
X10220000Y42401429D01*
X10220000Y42258572D01*
X9648571Y41901429D02*
X9291428Y40901429D01*
X8934285Y41901429D01*
X7791428Y40972858D02*
X7934285Y40901429D01*
X8220000Y40901429D01*
X8362857Y40972858D01*
X8434285Y41115715D01*
X8434285Y41687143D01*
X8362857Y41830000D01*
X8220000Y41901429D01*
X7934285Y41901429D01*
X7791428Y41830000D01*
X7720000Y41687143D01*
X7720000Y41544286D01*
X8434285Y41401429D01*
X7077142Y40901429D02*
X7077142Y41901429D01*
X7077142Y41615715D02*
X7005714Y41758572D01*
X6934285Y41830000D01*
X6791428Y41901429D01*
X6648571Y41901429D01*
X29862857Y38486429D02*
X29862857Y39986429D01*
X29505714Y39986429D01*
X29291428Y39915000D01*
X29148571Y39772143D01*
X29077142Y39629286D01*
X29005714Y39343572D01*
X29005714Y39129286D01*
X29077142Y38843572D01*
X29148571Y38700715D01*
X29291428Y38557858D01*
X29505714Y38486429D01*
X29862857Y38486429D01*
X27791428Y38557858D02*
X27934285Y38486429D01*
X28220000Y38486429D01*
X28362857Y38557858D01*
X28434285Y38700715D01*
X28434285Y39272143D01*
X28362857Y39415000D01*
X28220000Y39486429D01*
X27934285Y39486429D01*
X27791428Y39415000D01*
X27720000Y39272143D01*
X27720000Y39129286D01*
X28434285Y38986429D01*
X27148571Y38557858D02*
X27005714Y38486429D01*
X26720000Y38486429D01*
X26577142Y38557858D01*
X26505714Y38700715D01*
X26505714Y38772143D01*
X26577142Y38915000D01*
X26720000Y38986429D01*
X26934285Y38986429D01*
X27077142Y39057858D01*
X27148571Y39200715D01*
X27148571Y39272143D01*
X27077142Y39415000D01*
X26934285Y39486429D01*
X26720000Y39486429D01*
X26577142Y39415000D01*
X25862857Y38486429D02*
X25862857Y39486429D01*
X25862857Y39986429D02*
X25934285Y39915000D01*
X25862857Y39843572D01*
X25791428Y39915000D01*
X25862857Y39986429D01*
X25862857Y39843572D01*
X24505714Y39486429D02*
X24505714Y38272143D01*
X24577142Y38129286D01*
X24648571Y38057858D01*
X24791428Y37986429D01*
X25005714Y37986429D01*
X25148571Y38057858D01*
X24505714Y38557858D02*
X24648571Y38486429D01*
X24934285Y38486429D01*
X25077142Y38557858D01*
X25148571Y38629286D01*
X25220000Y38772143D01*
X25220000Y39200715D01*
X25148571Y39343572D01*
X25077142Y39415000D01*
X24934285Y39486429D01*
X24648571Y39486429D01*
X24505714Y39415000D01*
X23791428Y39486429D02*
X23791428Y38486429D01*
X23791428Y39343572D02*
X23720000Y39415000D01*
X23577142Y39486429D01*
X23362857Y39486429D01*
X23220000Y39415000D01*
X23148571Y39272143D01*
X23148571Y38486429D01*
X21862857Y38557858D02*
X22005714Y38486429D01*
X22291428Y38486429D01*
X22434285Y38557858D01*
X22505714Y38700715D01*
X22505714Y39272143D01*
X22434285Y39415000D01*
X22291428Y39486429D01*
X22005714Y39486429D01*
X21862857Y39415000D01*
X21791428Y39272143D01*
X21791428Y39129286D01*
X22505714Y38986429D01*
X20505714Y38486429D02*
X20505714Y39986429D01*
X20505714Y38557858D02*
X20648571Y38486429D01*
X20934285Y38486429D01*
X21077142Y38557858D01*
X21148571Y38629286D01*
X21220000Y38772143D01*
X21220000Y39200715D01*
X21148571Y39343572D01*
X21077142Y39415000D01*
X20934285Y39486429D01*
X20648571Y39486429D01*
X20505714Y39415000D01*
X18648571Y38486429D02*
X18648571Y39986429D01*
X18648571Y39415000D02*
X18505714Y39486429D01*
X18220000Y39486429D01*
X18077142Y39415000D01*
X18005714Y39343572D01*
X17934285Y39200715D01*
X17934285Y38772143D01*
X18005714Y38629286D01*
X18077142Y38557858D01*
X18220000Y38486429D01*
X18505714Y38486429D01*
X18648571Y38557858D01*
X17434285Y39486429D02*
X17077142Y38486429D01*
X16720000Y39486429D02*
X17077142Y38486429D01*
X17220000Y38129286D01*
X17291428Y38057858D01*
X17434285Y37986429D01*
X14148571Y38486429D02*
X14648571Y39200715D01*
X15005714Y38486429D02*
X15005714Y39986429D01*
X14434285Y39986429D01*
X14291428Y39915000D01*
X14220000Y39843572D01*
X14148571Y39700715D01*
X14148571Y39486429D01*
X14220000Y39343572D01*
X14291428Y39272143D01*
X14434285Y39200715D01*
X15005714Y39200715D01*
X12720000Y38486429D02*
X13577142Y38486429D01*
X13148571Y38486429D02*
X13148571Y39986429D01*
X13291428Y39772143D01*
X13434285Y39629286D01*
X13577142Y39557858D01*
X11434285Y39986429D02*
X11720000Y39986429D01*
X11862857Y39915000D01*
X11934285Y39843572D01*
X12077142Y39629286D01*
X12148571Y39343572D01*
X12148571Y38772143D01*
X12077142Y38629286D01*
X12005714Y38557858D01*
X11862857Y38486429D01*
X11577142Y38486429D01*
X11434285Y38557858D01*
X11362857Y38629286D01*
X11291428Y38772143D01*
X11291428Y39129286D01*
X11362857Y39272143D01*
X11434285Y39343572D01*
X11577142Y39415000D01*
X11862857Y39415000D01*
X12005714Y39343572D01*
X12077142Y39272143D01*
X12148571Y39129286D01*
X10148571Y39272143D02*
X10648571Y39272143D01*
X10648571Y38486429D02*
X10648571Y39986429D01*
X9934285Y39986429D01*
X8505714Y38486429D02*
X9005714Y39200715D01*
X9362857Y38486429D02*
X9362857Y39986429D01*
X8791428Y39986429D01*
X8648571Y39915000D01*
X8577142Y39843572D01*
X8505714Y39700715D01*
X8505714Y39486429D01*
X8577142Y39343572D01*
X8648571Y39272143D01*
X8791428Y39200715D01*
X9362857Y39200715D01*
X37065714Y2888572D02*
X36994285Y2960000D01*
X36851428Y3031429D01*
X36494285Y3031429D01*
X36351428Y2960000D01*
X36280000Y2888572D01*
X36208571Y2745715D01*
X36208571Y2602858D01*
X36280000Y2388572D01*
X37137142Y1531429D01*
X36208571Y1531429D01*
X35280000Y3031429D02*
X35137142Y3031429D01*
X34994285Y2960000D01*
X34922857Y2888572D01*
X34851428Y2745715D01*
X34780000Y2460000D01*
X34780000Y2102858D01*
X34851428Y1817143D01*
X34922857Y1674286D01*
X34994285Y1602858D01*
X35137142Y1531429D01*
X35280000Y1531429D01*
X35422857Y1602858D01*
X35494285Y1674286D01*
X35565714Y1817143D01*
X35637142Y2102858D01*
X35637142Y2460000D01*
X35565714Y2745715D01*
X35494285Y2888572D01*
X35422857Y2960000D01*
X35280000Y3031429D01*
X34208571Y2888572D02*
X34137142Y2960000D01*
X33994285Y3031429D01*
X33637142Y3031429D01*
X33494285Y2960000D01*
X33422857Y2888572D01*
X33351428Y2745715D01*
X33351428Y2602858D01*
X33422857Y2388572D01*
X34280000Y1531429D01*
X33351428Y1531429D01*
X32851428Y3031429D02*
X31922857Y3031429D01*
X32422857Y2460000D01*
X32208571Y2460000D01*
X32065714Y2388572D01*
X31994285Y2317143D01*
X31922857Y2174286D01*
X31922857Y1817143D01*
X31994285Y1674286D01*
X32065714Y1602858D01*
X32208571Y1531429D01*
X32637142Y1531429D01*
X32780000Y1602858D01*
X32851428Y1674286D01*
X30494285Y1531429D02*
X31351428Y1531429D01*
X30922857Y1531429D02*
X30922857Y3031429D01*
X31065714Y2817143D01*
X31208571Y2674286D01*
X31351428Y2602858D01*
X29922857Y2888572D02*
X29851428Y2960000D01*
X29708571Y3031429D01*
X29351428Y3031429D01*
X29208571Y2960000D01*
X29137142Y2888572D01*
X29065714Y2745715D01*
X29065714Y2602858D01*
X29137142Y2388572D01*
X29994285Y1531429D01*
X29065714Y1531429D01*
X27494285Y3031429D02*
X26994285Y1531429D01*
X26494285Y3031429D01*
X25422857Y1602858D02*
X25565714Y1531429D01*
X25851428Y1531429D01*
X25994285Y1602858D01*
X26065714Y1745715D01*
X26065714Y2317143D01*
X25994285Y2460000D01*
X25851428Y2531429D01*
X25565714Y2531429D01*
X25422857Y2460000D01*
X25351428Y2317143D01*
X25351428Y2174286D01*
X26065714Y2031429D01*
X24708571Y1531429D02*
X24708571Y2531429D01*
X24708571Y2245715D02*
X24637142Y2388572D01*
X24565714Y2460000D01*
X24422857Y2531429D01*
X24280000Y2531429D01*
X23780000Y1674286D02*
X23708571Y1602858D01*
X23780000Y1531429D01*
X23851428Y1602858D01*
X23780000Y1674286D01*
X23780000Y1531429D01*
X22280000Y1531429D02*
X23137142Y1531429D01*
X22708571Y1531429D02*
X22708571Y3031429D01*
X22851428Y2817143D01*
X22994285Y2674286D01*
X23137142Y2602858D01*
X21637142Y1674286D02*
X21565714Y1602858D01*
X21637142Y1531429D01*
X21708571Y1602858D01*
X21637142Y1674286D01*
X21637142Y1531429D01*
X20137142Y1531429D02*
X20994285Y1531429D01*
X20565714Y1531429D02*
X20565714Y3031429D01*
X20708571Y2817143D01*
X20851428Y2674286D01*
X20994285Y2602858D01*
X18065714Y3031429D02*
X17780000Y3031429D01*
X17637142Y2960000D01*
X17494285Y2817143D01*
X17422857Y2531429D01*
X17422857Y2031429D01*
X17494285Y1745715D01*
X17637142Y1602858D01*
X17780000Y1531429D01*
X18065714Y1531429D01*
X18208571Y1602858D01*
X18351428Y1745715D01*
X18422857Y2031429D01*
X18422857Y2531429D01*
X18351428Y2817143D01*
X18208571Y2960000D01*
X18065714Y3031429D01*
X16780000Y1531429D02*
X16780000Y3031429D01*
X16137142Y1531429D02*
X16137142Y2317143D01*
X16208571Y2460000D01*
X16351428Y2531429D01*
X16565714Y2531429D01*
X16708571Y2460000D01*
X16780000Y2388572D01*
X14851428Y1602858D02*
X14994285Y1531429D01*
X15280000Y1531429D01*
X15422857Y1602858D01*
X15494285Y1745715D01*
X15494285Y2317143D01*
X15422857Y2460000D01*
X15280000Y2531429D01*
X14994285Y2531429D01*
X14851428Y2460000D01*
X14780000Y2317143D01*
X14780000Y2174286D01*
X15494285Y2031429D01*
X12994285Y1531429D02*
X12994285Y3031429D01*
X12494285Y1960000D01*
X11994285Y3031429D01*
X11994285Y1531429D01*
X11494285Y2531429D02*
X10922857Y2531429D01*
X11280000Y1531429D02*
X11280000Y2817143D01*
X11208571Y2960000D01*
X11065714Y3031429D01*
X10922857Y3031429D01*
X9780000Y2531429D02*
X9780000Y1317143D01*
X9851428Y1174286D01*
X9922857Y1102858D01*
X10065714Y1031429D01*
X10280000Y1031429D01*
X10422857Y1102858D01*
X9780000Y1602858D02*
X9922857Y1531429D01*
X10208571Y1531429D01*
X10351428Y1602858D01*
X10422857Y1674286D01*
X10494285Y1817143D01*
X10494285Y2245715D01*
X10422857Y2388572D01*
X10351428Y2460000D01*
X10208571Y2531429D01*
X9922857Y2531429D01*
X9780000Y2460000D01*
X9065714Y1674286D02*
X8994285Y1602858D01*
X9065714Y1531429D01*
X9137142Y1602858D01*
X9065714Y1674286D01*
X9065714Y1531429D01*
M02*
