G04 #@! TF.GenerationSoftware,KiCad,Pcbnew,(6.0.4)*
G04 #@! TF.CreationDate,2023-12-01T10:37:55+09:00*
G04 #@! TF.ProjectId,ftr105,66747231-3035-42e6-9b69-6361645f7063,Ver.1.1*
G04 #@! TF.SameCoordinates,PX55d4a80PY5f5e100*
G04 #@! TF.FileFunction,Legend,Top*
G04 #@! TF.FilePolarity,Positive*
%FSLAX46Y46*%
G04 Gerber Fmt 4.6, Leading zero omitted, Abs format (unit mm)*
G04 Created by KiCad (PCBNEW (6.0.4)) date 2023-12-01 10:37:55*
%MOMM*%
%LPD*%
G01*
G04 APERTURE LIST*
%ADD10C,0.150000*%
%ADD11C,0.300000*%
%ADD12C,0.120000*%
G04 APERTURE END LIST*
D10*
X15402095Y36047620D02*
X15402095Y37047620D01*
X15973523Y36047620D02*
X15544952Y36619048D01*
X15973523Y37047620D02*
X15402095Y36476191D01*
X70726428Y16434048D02*
X70726428Y17195953D01*
X64122380Y17434286D02*
X63122380Y17434286D01*
X63122380Y17672381D01*
X63170000Y17815239D01*
X63265238Y17910477D01*
X63360476Y17958096D01*
X63550952Y18005715D01*
X63693809Y18005715D01*
X63884285Y17958096D01*
X63979523Y17910477D01*
X64074761Y17815239D01*
X64122380Y17672381D01*
X64122380Y17434286D01*
X64122380Y18434286D02*
X63122380Y18434286D01*
X64122380Y19005715D01*
X63122380Y19005715D01*
X64122380Y19481905D02*
X63122380Y19481905D01*
X63122380Y19862858D01*
X63170000Y19958096D01*
X63217619Y20005715D01*
X63312857Y20053334D01*
X63455714Y20053334D01*
X63550952Y20005715D01*
X63598571Y19958096D01*
X63646190Y19862858D01*
X63646190Y19481905D01*
D11*
X28698571Y44883572D02*
X28098571Y44883572D01*
X28098571Y43940715D02*
X28098571Y45740715D01*
X28955714Y45740715D01*
X29384285Y45740715D02*
X30412857Y45740715D01*
X29898571Y43940715D02*
X29898571Y45740715D01*
X32041428Y43940715D02*
X31441428Y44797858D01*
X31012857Y43940715D02*
X31012857Y45740715D01*
X31698571Y45740715D01*
X31870000Y45655000D01*
X31955714Y45569286D01*
X32041428Y45397858D01*
X32041428Y45140715D01*
X31955714Y44969286D01*
X31870000Y44883572D01*
X31698571Y44797858D01*
X31012857Y44797858D01*
X33755714Y43940715D02*
X32727142Y43940715D01*
X33241428Y43940715D02*
X33241428Y45740715D01*
X33070000Y45483572D01*
X32898571Y45312143D01*
X32727142Y45226429D01*
X34870000Y45740715D02*
X35041428Y45740715D01*
X35212857Y45655000D01*
X35298571Y45569286D01*
X35384285Y45397858D01*
X35470000Y45055000D01*
X35470000Y44626429D01*
X35384285Y44283572D01*
X35298571Y44112143D01*
X35212857Y44026429D01*
X35041428Y43940715D01*
X34870000Y43940715D01*
X34698571Y44026429D01*
X34612857Y44112143D01*
X34527142Y44283572D01*
X34441428Y44626429D01*
X34441428Y45055000D01*
X34527142Y45397858D01*
X34612857Y45569286D01*
X34698571Y45655000D01*
X34870000Y45740715D01*
X37098571Y45740715D02*
X36241428Y45740715D01*
X36155714Y44883572D01*
X36241428Y44969286D01*
X36412857Y45055000D01*
X36841428Y45055000D01*
X37012857Y44969286D01*
X37098571Y44883572D01*
X37184285Y44712143D01*
X37184285Y44283572D01*
X37098571Y44112143D01*
X37012857Y44026429D01*
X36841428Y43940715D01*
X36412857Y43940715D01*
X36241428Y44026429D01*
X36155714Y44112143D01*
D10*
X70726428Y8814048D02*
X70726428Y9575953D01*
X41571428Y43556429D02*
X41714285Y43508810D01*
X41761904Y43461191D01*
X41809523Y43365953D01*
X41809523Y43223096D01*
X41761904Y43127858D01*
X41714285Y43080239D01*
X41619047Y43032620D01*
X41238095Y43032620D01*
X41238095Y44032620D01*
X41571428Y44032620D01*
X41666666Y43985000D01*
X41714285Y43937381D01*
X41761904Y43842143D01*
X41761904Y43746905D01*
X41714285Y43651667D01*
X41666666Y43604048D01*
X41571428Y43556429D01*
X41238095Y43556429D01*
X70274047Y23093572D02*
X71035952Y23093572D01*
X70655000Y22712620D02*
X70655000Y23474524D01*
X1797142Y38143096D02*
X1844761Y38095477D01*
X1892380Y37952620D01*
X1892380Y37857381D01*
X1844761Y37714524D01*
X1749523Y37619286D01*
X1654285Y37571667D01*
X1463809Y37524048D01*
X1320952Y37524048D01*
X1130476Y37571667D01*
X1035238Y37619286D01*
X940000Y37714524D01*
X892380Y37857381D01*
X892380Y37952620D01*
X940000Y38095477D01*
X987619Y38143096D01*
X892380Y38476429D02*
X1892380Y38714524D01*
X1178095Y38905000D01*
X1892380Y39095477D01*
X892380Y39333572D01*
X11191904Y36333334D02*
X11668095Y36333334D01*
X11096666Y36047620D02*
X11430000Y37047620D01*
X11763333Y36047620D01*
X67380952Y25617620D02*
X67571428Y25617620D01*
X67666666Y25570000D01*
X67761904Y25474762D01*
X67809523Y25284286D01*
X67809523Y24950953D01*
X67761904Y24760477D01*
X67666666Y24665239D01*
X67571428Y24617620D01*
X67380952Y24617620D01*
X67285714Y24665239D01*
X67190476Y24760477D01*
X67142857Y24950953D01*
X67142857Y25284286D01*
X67190476Y25474762D01*
X67285714Y25570000D01*
X67380952Y25617620D01*
X68238095Y24617620D02*
X68238095Y25617620D01*
X68809523Y24617620D01*
X68809523Y25617620D01*
X67047619Y37047620D02*
X67238095Y37047620D01*
X67333333Y37000000D01*
X67428571Y36904762D01*
X67476190Y36714286D01*
X67476190Y36380953D01*
X67428571Y36190477D01*
X67333333Y36095239D01*
X67238095Y36047620D01*
X67047619Y36047620D01*
X66952380Y36095239D01*
X66857142Y36190477D01*
X66809523Y36380953D01*
X66809523Y36714286D01*
X66857142Y36904762D01*
X66952380Y37000000D01*
X67047619Y37047620D01*
X68238095Y36571429D02*
X67904761Y36571429D01*
X67904761Y36047620D02*
X67904761Y37047620D01*
X68380952Y37047620D01*
X69095238Y36571429D02*
X68761904Y36571429D01*
X68761904Y36047620D02*
X68761904Y37047620D01*
X69238095Y37047620D01*
X24238095Y43047620D02*
X24238095Y44047620D01*
X24809523Y43047620D02*
X24380952Y43619048D01*
X24809523Y44047620D02*
X24238095Y43476191D01*
X1765428Y8123429D02*
X1908285Y8075810D01*
X1955904Y8028191D01*
X2003523Y7932953D01*
X2003523Y7790096D01*
X1955904Y7694858D01*
X1908285Y7647239D01*
X1813047Y7599620D01*
X1432095Y7599620D01*
X1432095Y8599620D01*
X1765428Y8599620D01*
X1860666Y8552000D01*
X1908285Y8504381D01*
X1955904Y8409143D01*
X1955904Y8313905D01*
X1908285Y8218667D01*
X1860666Y8171048D01*
X1765428Y8123429D01*
X1432095Y8123429D01*
X54761904Y42833334D02*
X55238095Y42833334D01*
X54666666Y42547620D02*
X55000000Y43547620D01*
X55333333Y42547620D01*
X24261904Y40333334D02*
X24738095Y40333334D01*
X24166666Y40047620D02*
X24500000Y41047620D01*
X24833333Y40047620D01*
X1892380Y26832381D02*
X892380Y26832381D01*
X892380Y27213334D01*
X940000Y27308572D01*
X987619Y27356191D01*
X1082857Y27403810D01*
X1225714Y27403810D01*
X1320952Y27356191D01*
X1368571Y27308572D01*
X1416190Y27213334D01*
X1416190Y26832381D01*
X1892380Y27832381D02*
X892380Y27832381D01*
X1892380Y28260953D02*
X1368571Y28260953D01*
X1273333Y28213334D01*
X1225714Y28118096D01*
X1225714Y27975239D01*
X1273333Y27880000D01*
X1320952Y27832381D01*
X1892380Y28880000D02*
X1844761Y28784762D01*
X1797142Y28737143D01*
X1701904Y28689524D01*
X1416190Y28689524D01*
X1320952Y28737143D01*
X1273333Y28784762D01*
X1225714Y28880000D01*
X1225714Y29022858D01*
X1273333Y29118096D01*
X1320952Y29165715D01*
X1416190Y29213334D01*
X1701904Y29213334D01*
X1797142Y29165715D01*
X1844761Y29118096D01*
X1892380Y29022858D01*
X1892380Y28880000D01*
X1225714Y29641905D02*
X1892380Y29641905D01*
X1320952Y29641905D02*
X1273333Y29689524D01*
X1225714Y29784762D01*
X1225714Y29927620D01*
X1273333Y30022858D01*
X1368571Y30070477D01*
X1892380Y30070477D01*
X1844761Y30927620D02*
X1892380Y30832381D01*
X1892380Y30641905D01*
X1844761Y30546667D01*
X1749523Y30499048D01*
X1368571Y30499048D01*
X1273333Y30546667D01*
X1225714Y30641905D01*
X1225714Y30832381D01*
X1273333Y30927620D01*
X1368571Y30975239D01*
X1463809Y30975239D01*
X1559047Y30499048D01*
X5234285Y27792620D02*
X5234285Y28792620D01*
X5472380Y28792620D01*
X5615238Y28745000D01*
X5710476Y28649762D01*
X5758095Y28554524D01*
X5805714Y28364048D01*
X5805714Y28221191D01*
X5758095Y28030715D01*
X5710476Y27935477D01*
X5615238Y27840239D01*
X5472380Y27792620D01*
X5234285Y27792620D01*
X6234285Y27792620D02*
X6234285Y28792620D01*
X6805714Y27792620D01*
X6805714Y28792620D01*
X7281904Y27792620D02*
X7281904Y28792620D01*
X7662857Y28792620D01*
X7758095Y28745000D01*
X7805714Y28697381D01*
X7853333Y28602143D01*
X7853333Y28459286D01*
X7805714Y28364048D01*
X7758095Y28316429D01*
X7662857Y28268810D01*
X7281904Y28268810D01*
X70274047Y14203572D02*
X71035952Y14203572D01*
X70655000Y13822620D02*
X70655000Y14584524D01*
X61738095Y42547620D02*
X61738095Y43547620D01*
X62309523Y42547620D02*
X61880952Y43119048D01*
X62309523Y43547620D02*
X61738095Y42976191D01*
X26496666Y7255239D02*
X26639523Y7207620D01*
X26877619Y7207620D01*
X26972857Y7255239D01*
X27020476Y7302858D01*
X27068095Y7398096D01*
X27068095Y7493334D01*
X27020476Y7588572D01*
X26972857Y7636191D01*
X26877619Y7683810D01*
X26687142Y7731429D01*
X26591904Y7779048D01*
X26544285Y7826667D01*
X26496666Y7921905D01*
X26496666Y8017143D01*
X26544285Y8112381D01*
X26591904Y8160000D01*
X26687142Y8207620D01*
X26925238Y8207620D01*
X27068095Y8160000D01*
X27401428Y8207620D02*
X27639523Y7207620D01*
X27830000Y7921905D01*
X28020476Y7207620D01*
X28258571Y8207620D01*
X29163333Y7207620D02*
X28591904Y7207620D01*
X28877619Y7207620D02*
X28877619Y8207620D01*
X28782380Y8064762D01*
X28687142Y7969524D01*
X28591904Y7921905D01*
X25171428Y14347620D02*
X25171428Y15347620D01*
X25552380Y15347620D01*
X25647619Y15300000D01*
X25695238Y15252381D01*
X25742857Y15157143D01*
X25742857Y15014286D01*
X25695238Y14919048D01*
X25647619Y14871429D01*
X25552380Y14823810D01*
X25171428Y14823810D01*
X26028571Y15347620D02*
X26600000Y15347620D01*
X26314285Y14347620D02*
X26314285Y15347620D01*
X26790476Y15347620D02*
X27361904Y15347620D01*
X27076190Y14347620D02*
X27076190Y15347620D01*
X28409523Y15395239D02*
X27552380Y14109524D01*
X28742857Y14347620D02*
X28742857Y15347620D01*
X29314285Y14347620D02*
X28885714Y14919048D01*
X29314285Y15347620D02*
X28742857Y14776191D01*
X29742857Y14871429D02*
X30076190Y14871429D01*
X30219047Y14347620D02*
X29742857Y14347620D01*
X29742857Y15347620D01*
X30219047Y15347620D01*
X30838095Y14823810D02*
X30838095Y14347620D01*
X30504761Y15347620D02*
X30838095Y14823810D01*
X31171428Y15347620D01*
X54772142Y29792858D02*
X54724523Y29745239D01*
X54581666Y29697620D01*
X54486428Y29697620D01*
X54343571Y29745239D01*
X54248333Y29840477D01*
X54200714Y29935715D01*
X54153095Y30126191D01*
X54153095Y30269048D01*
X54200714Y30459524D01*
X54248333Y30554762D01*
X54343571Y30650000D01*
X54486428Y30697620D01*
X54581666Y30697620D01*
X54724523Y30650000D01*
X54772142Y30602381D01*
X55724523Y29697620D02*
X55153095Y29697620D01*
X55438809Y29697620D02*
X55438809Y30697620D01*
X55343571Y30554762D01*
X55248333Y30459524D01*
X55153095Y30411905D01*
X56343571Y30697620D02*
X56438809Y30697620D01*
X56534047Y30650000D01*
X56581666Y30602381D01*
X56629285Y30507143D01*
X56676904Y30316667D01*
X56676904Y30078572D01*
X56629285Y29888096D01*
X56581666Y29792858D01*
X56534047Y29745239D01*
X56438809Y29697620D01*
X56343571Y29697620D01*
X56248333Y29745239D01*
X56200714Y29792858D01*
X56153095Y29888096D01*
X56105476Y30078572D01*
X56105476Y30316667D01*
X56153095Y30507143D01*
X56200714Y30602381D01*
X56248333Y30650000D01*
X56343571Y30697620D01*
X17586904Y42397620D02*
X17586904Y43397620D01*
X17825000Y43397620D01*
X17967857Y43350000D01*
X18063095Y43254762D01*
X18110714Y43159524D01*
X18158333Y42969048D01*
X18158333Y42826191D01*
X18110714Y42635715D01*
X18063095Y42540477D01*
X17967857Y42445239D01*
X17825000Y42397620D01*
X17586904Y42397620D01*
X18491666Y43397620D02*
X19110714Y43397620D01*
X18777380Y43016667D01*
X18920238Y43016667D01*
X19015476Y42969048D01*
X19063095Y42921429D01*
X19110714Y42826191D01*
X19110714Y42588096D01*
X19063095Y42492858D01*
X19015476Y42445239D01*
X18920238Y42397620D01*
X18634523Y42397620D01*
X18539285Y42445239D01*
X18491666Y42492858D01*
X19190476Y45047620D02*
X19190476Y46047620D01*
X19571428Y46047620D01*
X19666666Y46000000D01*
X19714285Y45952381D01*
X19761904Y45857143D01*
X19761904Y45714286D01*
X19714285Y45619048D01*
X19666666Y45571429D01*
X19571428Y45523810D01*
X19190476Y45523810D01*
X20380952Y46047620D02*
X20571428Y46047620D01*
X20666666Y46000000D01*
X20761904Y45904762D01*
X20809523Y45714286D01*
X20809523Y45380953D01*
X20761904Y45190477D01*
X20666666Y45095239D01*
X20571428Y45047620D01*
X20380952Y45047620D01*
X20285714Y45095239D01*
X20190476Y45190477D01*
X20142857Y45380953D01*
X20142857Y45714286D01*
X20190476Y45904762D01*
X20285714Y46000000D01*
X20380952Y46047620D01*
X21142857Y46047620D02*
X21380952Y45047620D01*
X21571428Y45761905D01*
X21761904Y45047620D01*
X22000000Y46047620D01*
X22380952Y45571429D02*
X22714285Y45571429D01*
X22857142Y45047620D02*
X22380952Y45047620D01*
X22380952Y46047620D01*
X22857142Y46047620D01*
X23857142Y45047620D02*
X23523809Y45523810D01*
X23285714Y45047620D02*
X23285714Y46047620D01*
X23666666Y46047620D01*
X23761904Y46000000D01*
X23809523Y45952381D01*
X23857142Y45857143D01*
X23857142Y45714286D01*
X23809523Y45619048D01*
X23761904Y45571429D01*
X23666666Y45523810D01*
X23285714Y45523810D01*
X15283333Y31062858D02*
X15235714Y31015239D01*
X15092857Y30967620D01*
X14997619Y30967620D01*
X14854761Y31015239D01*
X14759523Y31110477D01*
X14711904Y31205715D01*
X14664285Y31396191D01*
X14664285Y31539048D01*
X14711904Y31729524D01*
X14759523Y31824762D01*
X14854761Y31920000D01*
X14997619Y31967620D01*
X15092857Y31967620D01*
X15235714Y31920000D01*
X15283333Y31872381D01*
X15664285Y31872381D02*
X15711904Y31920000D01*
X15807142Y31967620D01*
X16045238Y31967620D01*
X16140476Y31920000D01*
X16188095Y31872381D01*
X16235714Y31777143D01*
X16235714Y31681905D01*
X16188095Y31539048D01*
X15616666Y30967620D01*
X16235714Y30967620D01*
X28737142Y41127620D02*
X28403809Y41603810D01*
X28165714Y41127620D02*
X28165714Y42127620D01*
X28546666Y42127620D01*
X28641904Y42080000D01*
X28689523Y42032381D01*
X28737142Y41937143D01*
X28737142Y41794286D01*
X28689523Y41699048D01*
X28641904Y41651429D01*
X28546666Y41603810D01*
X28165714Y41603810D01*
X29689523Y41127620D02*
X29118095Y41127620D01*
X29403809Y41127620D02*
X29403809Y42127620D01*
X29308571Y41984762D01*
X29213333Y41889524D01*
X29118095Y41841905D01*
X30070476Y42032381D02*
X30118095Y42080000D01*
X30213333Y42127620D01*
X30451428Y42127620D01*
X30546666Y42080000D01*
X30594285Y42032381D01*
X30641904Y41937143D01*
X30641904Y41841905D01*
X30594285Y41699048D01*
X30022857Y41127620D01*
X30641904Y41127620D01*
X62868333Y39317858D02*
X62820714Y39270239D01*
X62677857Y39222620D01*
X62582619Y39222620D01*
X62439761Y39270239D01*
X62344523Y39365477D01*
X62296904Y39460715D01*
X62249285Y39651191D01*
X62249285Y39794048D01*
X62296904Y39984524D01*
X62344523Y40079762D01*
X62439761Y40175000D01*
X62582619Y40222620D01*
X62677857Y40222620D01*
X62820714Y40175000D01*
X62868333Y40127381D01*
X63201666Y40222620D02*
X63868333Y40222620D01*
X63439761Y39222620D01*
X28991142Y32332858D02*
X28943523Y32285239D01*
X28800666Y32237620D01*
X28705428Y32237620D01*
X28562571Y32285239D01*
X28467333Y32380477D01*
X28419714Y32475715D01*
X28372095Y32666191D01*
X28372095Y32809048D01*
X28419714Y32999524D01*
X28467333Y33094762D01*
X28562571Y33190000D01*
X28705428Y33237620D01*
X28800666Y33237620D01*
X28943523Y33190000D01*
X28991142Y33142381D01*
X29943523Y32237620D02*
X29372095Y32237620D01*
X29657809Y32237620D02*
X29657809Y33237620D01*
X29562571Y33094762D01*
X29467333Y32999524D01*
X29372095Y32951905D01*
X30848285Y33237620D02*
X30372095Y33237620D01*
X30324476Y32761429D01*
X30372095Y32809048D01*
X30467333Y32856667D01*
X30705428Y32856667D01*
X30800666Y32809048D01*
X30848285Y32761429D01*
X30895904Y32666191D01*
X30895904Y32428096D01*
X30848285Y32332858D01*
X30800666Y32285239D01*
X30705428Y32237620D01*
X30467333Y32237620D01*
X30372095Y32285239D01*
X30324476Y32332858D01*
X14807142Y28522858D02*
X14759523Y28475239D01*
X14616666Y28427620D01*
X14521428Y28427620D01*
X14378571Y28475239D01*
X14283333Y28570477D01*
X14235714Y28665715D01*
X14188095Y28856191D01*
X14188095Y28999048D01*
X14235714Y29189524D01*
X14283333Y29284762D01*
X14378571Y29380000D01*
X14521428Y29427620D01*
X14616666Y29427620D01*
X14759523Y29380000D01*
X14807142Y29332381D01*
X15759523Y28427620D02*
X15188095Y28427620D01*
X15473809Y28427620D02*
X15473809Y29427620D01*
X15378571Y29284762D01*
X15283333Y29189524D01*
X15188095Y29141905D01*
X16616666Y29427620D02*
X16426190Y29427620D01*
X16330952Y29380000D01*
X16283333Y29332381D01*
X16188095Y29189524D01*
X16140476Y28999048D01*
X16140476Y28618096D01*
X16188095Y28522858D01*
X16235714Y28475239D01*
X16330952Y28427620D01*
X16521428Y28427620D01*
X16616666Y28475239D01*
X16664285Y28522858D01*
X16711904Y28618096D01*
X16711904Y28856191D01*
X16664285Y28951429D01*
X16616666Y28999048D01*
X16521428Y29046667D01*
X16330952Y29046667D01*
X16235714Y28999048D01*
X16188095Y28951429D01*
X16140476Y28856191D01*
X6353333Y18267620D02*
X6020000Y18743810D01*
X5781904Y18267620D02*
X5781904Y19267620D01*
X6162857Y19267620D01*
X6258095Y19220000D01*
X6305714Y19172381D01*
X6353333Y19077143D01*
X6353333Y18934286D01*
X6305714Y18839048D01*
X6258095Y18791429D01*
X6162857Y18743810D01*
X5781904Y18743810D01*
X6734285Y19172381D02*
X6781904Y19220000D01*
X6877142Y19267620D01*
X7115238Y19267620D01*
X7210476Y19220000D01*
X7258095Y19172381D01*
X7305714Y19077143D01*
X7305714Y18981905D01*
X7258095Y18839048D01*
X6686666Y18267620D01*
X7305714Y18267620D01*
X49057142Y30967620D02*
X48723809Y31443810D01*
X48485714Y30967620D02*
X48485714Y31967620D01*
X48866666Y31967620D01*
X48961904Y31920000D01*
X49009523Y31872381D01*
X49057142Y31777143D01*
X49057142Y31634286D01*
X49009523Y31539048D01*
X48961904Y31491429D01*
X48866666Y31443810D01*
X48485714Y31443810D01*
X50009523Y30967620D02*
X49438095Y30967620D01*
X49723809Y30967620D02*
X49723809Y31967620D01*
X49628571Y31824762D01*
X49533333Y31729524D01*
X49438095Y31681905D01*
X50961904Y30967620D02*
X50390476Y30967620D01*
X50676190Y30967620D02*
X50676190Y31967620D01*
X50580952Y31824762D01*
X50485714Y31729524D01*
X50390476Y31681905D01*
X64904761Y30086667D02*
X64952380Y30229524D01*
X64952380Y30467620D01*
X64904761Y30562858D01*
X64857142Y30610477D01*
X64761904Y30658096D01*
X64666666Y30658096D01*
X64571428Y30610477D01*
X64523809Y30562858D01*
X64476190Y30467620D01*
X64428571Y30277143D01*
X64380952Y30181905D01*
X64333333Y30134286D01*
X64238095Y30086667D01*
X64142857Y30086667D01*
X64047619Y30134286D01*
X64000000Y30181905D01*
X63952380Y30277143D01*
X63952380Y30515239D01*
X64000000Y30658096D01*
X63952380Y30991429D02*
X64952380Y31229524D01*
X64238095Y31420000D01*
X64952380Y31610477D01*
X63952380Y31848572D01*
X64047619Y32181905D02*
X64000000Y32229524D01*
X63952380Y32324762D01*
X63952380Y32562858D01*
X64000000Y32658096D01*
X64047619Y32705715D01*
X64142857Y32753334D01*
X64238095Y32753334D01*
X64380952Y32705715D01*
X64952380Y32134286D01*
X64952380Y32753334D01*
X71742380Y28475477D02*
X70742380Y28475477D01*
X70742380Y28856429D01*
X70790000Y28951667D01*
X70837619Y28999286D01*
X70932857Y29046905D01*
X71075714Y29046905D01*
X71170952Y28999286D01*
X71218571Y28951667D01*
X71266190Y28856429D01*
X71266190Y28475477D01*
X70742380Y29665953D02*
X70742380Y29856429D01*
X70790000Y29951667D01*
X70885238Y30046905D01*
X71075714Y30094524D01*
X71409047Y30094524D01*
X71599523Y30046905D01*
X71694761Y29951667D01*
X71742380Y29856429D01*
X71742380Y29665953D01*
X71694761Y29570715D01*
X71599523Y29475477D01*
X71409047Y29427858D01*
X71075714Y29427858D01*
X70885238Y29475477D01*
X70790000Y29570715D01*
X70742380Y29665953D01*
X70742380Y30427858D02*
X71742380Y30665953D01*
X71028095Y30856429D01*
X71742380Y31046905D01*
X70742380Y31285000D01*
X71218571Y31665953D02*
X71218571Y31999286D01*
X71742380Y32142143D02*
X71742380Y31665953D01*
X70742380Y31665953D01*
X70742380Y32142143D01*
X71742380Y33142143D02*
X71266190Y32808810D01*
X71742380Y32570715D02*
X70742380Y32570715D01*
X70742380Y32951667D01*
X70790000Y33046905D01*
X70837619Y33094524D01*
X70932857Y33142143D01*
X71075714Y33142143D01*
X71170952Y33094524D01*
X71218571Y33046905D01*
X71266190Y32951667D01*
X71266190Y32570715D01*
X39373333Y22077620D02*
X39040000Y22553810D01*
X38801904Y22077620D02*
X38801904Y23077620D01*
X39182857Y23077620D01*
X39278095Y23030000D01*
X39325714Y22982381D01*
X39373333Y22887143D01*
X39373333Y22744286D01*
X39325714Y22649048D01*
X39278095Y22601429D01*
X39182857Y22553810D01*
X38801904Y22553810D01*
X39706666Y23077620D02*
X40373333Y23077620D01*
X39944761Y22077620D01*
X38937142Y457620D02*
X38937142Y1457620D01*
X39270476Y743334D01*
X39603809Y1457620D01*
X39603809Y457620D01*
X40080000Y457620D02*
X40080000Y1457620D01*
X41127619Y552858D02*
X41080000Y505239D01*
X40937142Y457620D01*
X40841904Y457620D01*
X40699047Y505239D01*
X40603809Y600477D01*
X40556190Y695715D01*
X40508571Y886191D01*
X40508571Y1029048D01*
X40556190Y1219524D01*
X40603809Y1314762D01*
X40699047Y1410000D01*
X40841904Y1457620D01*
X40937142Y1457620D01*
X41080000Y1410000D01*
X41127619Y1362381D01*
X41318095Y362381D02*
X42080000Y362381D01*
X42841904Y1410000D02*
X42746666Y1457620D01*
X42603809Y1457620D01*
X42460952Y1410000D01*
X42365714Y1314762D01*
X42318095Y1219524D01*
X42270476Y1029048D01*
X42270476Y886191D01*
X42318095Y695715D01*
X42365714Y600477D01*
X42460952Y505239D01*
X42603809Y457620D01*
X42699047Y457620D01*
X42841904Y505239D01*
X42889523Y552858D01*
X42889523Y886191D01*
X42699047Y886191D01*
X43270476Y743334D02*
X43746666Y743334D01*
X43175238Y457620D02*
X43508571Y1457620D01*
X43841904Y457620D01*
X44175238Y457620D02*
X44175238Y1457620D01*
X44651428Y457620D02*
X44651428Y1457620D01*
X45222857Y457620D01*
X45222857Y1457620D01*
X23387142Y21927143D02*
X23434761Y21879524D01*
X23482380Y21736667D01*
X23482380Y21641429D01*
X23434761Y21498572D01*
X23339523Y21403334D01*
X23244285Y21355715D01*
X23053809Y21308096D01*
X22910952Y21308096D01*
X22720476Y21355715D01*
X22625238Y21403334D01*
X22530000Y21498572D01*
X22482380Y21641429D01*
X22482380Y21736667D01*
X22530000Y21879524D01*
X22577619Y21927143D01*
X23482380Y22879524D02*
X23482380Y22308096D01*
X23482380Y22593810D02*
X22482380Y22593810D01*
X22625238Y22498572D01*
X22720476Y22403334D01*
X22768095Y22308096D01*
X22815714Y23736667D02*
X23482380Y23736667D01*
X22434761Y23498572D02*
X23149047Y23260477D01*
X23149047Y23879524D01*
X23657142Y30967620D02*
X23323809Y31443810D01*
X23085714Y30967620D02*
X23085714Y31967620D01*
X23466666Y31967620D01*
X23561904Y31920000D01*
X23609523Y31872381D01*
X23657142Y31777143D01*
X23657142Y31634286D01*
X23609523Y31539048D01*
X23561904Y31491429D01*
X23466666Y31443810D01*
X23085714Y31443810D01*
X24609523Y30967620D02*
X24038095Y30967620D01*
X24323809Y30967620D02*
X24323809Y31967620D01*
X24228571Y31824762D01*
X24133333Y31729524D01*
X24038095Y31681905D01*
X25228571Y31967620D02*
X25323809Y31967620D01*
X25419047Y31920000D01*
X25466666Y31872381D01*
X25514285Y31777143D01*
X25561904Y31586667D01*
X25561904Y31348572D01*
X25514285Y31158096D01*
X25466666Y31062858D01*
X25419047Y31015239D01*
X25323809Y30967620D01*
X25228571Y30967620D01*
X25133333Y31015239D01*
X25085714Y31062858D01*
X25038095Y31158096D01*
X24990476Y31348572D01*
X24990476Y31586667D01*
X25038095Y31777143D01*
X25085714Y31872381D01*
X25133333Y31920000D01*
X25228571Y31967620D01*
X6353333Y20807620D02*
X6020000Y21283810D01*
X5781904Y20807620D02*
X5781904Y21807620D01*
X6162857Y21807620D01*
X6258095Y21760000D01*
X6305714Y21712381D01*
X6353333Y21617143D01*
X6353333Y21474286D01*
X6305714Y21379048D01*
X6258095Y21331429D01*
X6162857Y21283810D01*
X5781904Y21283810D01*
X6686666Y21807620D02*
X7305714Y21807620D01*
X6972380Y21426667D01*
X7115238Y21426667D01*
X7210476Y21379048D01*
X7258095Y21331429D01*
X7305714Y21236191D01*
X7305714Y20998096D01*
X7258095Y20902858D01*
X7210476Y20855239D01*
X7115238Y20807620D01*
X6829523Y20807620D01*
X6734285Y20855239D01*
X6686666Y20902858D01*
X41437142Y12552620D02*
X41103809Y13028810D01*
X40865714Y12552620D02*
X40865714Y13552620D01*
X41246666Y13552620D01*
X41341904Y13505000D01*
X41389523Y13457381D01*
X41437142Y13362143D01*
X41437142Y13219286D01*
X41389523Y13124048D01*
X41341904Y13076429D01*
X41246666Y13028810D01*
X40865714Y13028810D01*
X42389523Y12552620D02*
X41818095Y12552620D01*
X42103809Y12552620D02*
X42103809Y13552620D01*
X42008571Y13409762D01*
X41913333Y13314524D01*
X41818095Y13266905D01*
X43246666Y13219286D02*
X43246666Y12552620D01*
X43008571Y13600239D02*
X42770476Y12885953D01*
X43389523Y12885953D01*
X35341142Y32332858D02*
X35293523Y32285239D01*
X35150666Y32237620D01*
X35055428Y32237620D01*
X34912571Y32285239D01*
X34817333Y32380477D01*
X34769714Y32475715D01*
X34722095Y32666191D01*
X34722095Y32809048D01*
X34769714Y32999524D01*
X34817333Y33094762D01*
X34912571Y33190000D01*
X35055428Y33237620D01*
X35150666Y33237620D01*
X35293523Y33190000D01*
X35341142Y33142381D01*
X36293523Y32237620D02*
X35722095Y32237620D01*
X36007809Y32237620D02*
X36007809Y33237620D01*
X35912571Y33094762D01*
X35817333Y32999524D01*
X35722095Y32951905D01*
X36626857Y33237620D02*
X37245904Y33237620D01*
X36912571Y32856667D01*
X37055428Y32856667D01*
X37150666Y32809048D01*
X37198285Y32761429D01*
X37245904Y32666191D01*
X37245904Y32428096D01*
X37198285Y32332858D01*
X37150666Y32285239D01*
X37055428Y32237620D01*
X36769714Y32237620D01*
X36674476Y32285239D01*
X36626857Y32332858D01*
X58582142Y16997620D02*
X58248809Y17473810D01*
X58010714Y16997620D02*
X58010714Y17997620D01*
X58391666Y17997620D01*
X58486904Y17950000D01*
X58534523Y17902381D01*
X58582142Y17807143D01*
X58582142Y17664286D01*
X58534523Y17569048D01*
X58486904Y17521429D01*
X58391666Y17473810D01*
X58010714Y17473810D01*
X59534523Y16997620D02*
X58963095Y16997620D01*
X59248809Y16997620D02*
X59248809Y17997620D01*
X59153571Y17854762D01*
X59058333Y17759524D01*
X58963095Y17711905D01*
X60391666Y17997620D02*
X60201190Y17997620D01*
X60105952Y17950000D01*
X60058333Y17902381D01*
X59963095Y17759524D01*
X59915476Y17569048D01*
X59915476Y17188096D01*
X59963095Y17092858D01*
X60010714Y17045239D01*
X60105952Y16997620D01*
X60296428Y16997620D01*
X60391666Y17045239D01*
X60439285Y17092858D01*
X60486904Y17188096D01*
X60486904Y17426191D01*
X60439285Y17521429D01*
X60391666Y17569048D01*
X60296428Y17616667D01*
X60105952Y17616667D01*
X60010714Y17569048D01*
X59963095Y17521429D01*
X59915476Y17426191D01*
X15908095Y21807620D02*
X15908095Y20998096D01*
X15955714Y20902858D01*
X16003333Y20855239D01*
X16098571Y20807620D01*
X16289047Y20807620D01*
X16384285Y20855239D01*
X16431904Y20902858D01*
X16479523Y20998096D01*
X16479523Y21807620D01*
X17479523Y20807620D02*
X16908095Y20807620D01*
X17193809Y20807620D02*
X17193809Y21807620D01*
X17098571Y21664762D01*
X17003333Y21569524D01*
X16908095Y21521905D01*
X14408095Y19267620D02*
X15074761Y18267620D01*
X15074761Y19267620D02*
X14408095Y18267620D01*
X15455714Y18267620D02*
X15455714Y19267620D01*
X15693809Y19267620D01*
X15836666Y19220000D01*
X15931904Y19124762D01*
X15979523Y19029524D01*
X16027142Y18839048D01*
X16027142Y18696191D01*
X15979523Y18505715D01*
X15931904Y18410477D01*
X15836666Y18315239D01*
X15693809Y18267620D01*
X15455714Y18267620D01*
X16931904Y19267620D02*
X16455714Y19267620D01*
X16408095Y18791429D01*
X16455714Y18839048D01*
X16550952Y18886667D01*
X16789047Y18886667D01*
X16884285Y18839048D01*
X16931904Y18791429D01*
X16979523Y18696191D01*
X16979523Y18458096D01*
X16931904Y18362858D01*
X16884285Y18315239D01*
X16789047Y18267620D01*
X16550952Y18267620D01*
X16455714Y18315239D01*
X16408095Y18362858D01*
X17884285Y19267620D02*
X17408095Y19267620D01*
X17360476Y18791429D01*
X17408095Y18839048D01*
X17503333Y18886667D01*
X17741428Y18886667D01*
X17836666Y18839048D01*
X17884285Y18791429D01*
X17931904Y18696191D01*
X17931904Y18458096D01*
X17884285Y18362858D01*
X17836666Y18315239D01*
X17741428Y18267620D01*
X17503333Y18267620D01*
X17408095Y18315239D01*
X17360476Y18362858D01*
X18836666Y19267620D02*
X18360476Y19267620D01*
X18312857Y18791429D01*
X18360476Y18839048D01*
X18455714Y18886667D01*
X18693809Y18886667D01*
X18789047Y18839048D01*
X18836666Y18791429D01*
X18884285Y18696191D01*
X18884285Y18458096D01*
X18836666Y18362858D01*
X18789047Y18315239D01*
X18693809Y18267620D01*
X18455714Y18267620D01*
X18360476Y18315239D01*
X18312857Y18362858D01*
X65027380Y11401667D02*
X65741666Y11401667D01*
X65884523Y11354048D01*
X65979761Y11258810D01*
X66027380Y11115953D01*
X66027380Y11020715D01*
X65122619Y11830239D02*
X65075000Y11877858D01*
X65027380Y11973096D01*
X65027380Y12211191D01*
X65075000Y12306429D01*
X65122619Y12354048D01*
X65217857Y12401667D01*
X65313095Y12401667D01*
X65455952Y12354048D01*
X66027380Y11782620D01*
X66027380Y12401667D01*
X71059761Y10714286D02*
X71107380Y10857143D01*
X71107380Y11095239D01*
X71059761Y11190477D01*
X71012142Y11238096D01*
X70916904Y11285715D01*
X70821666Y11285715D01*
X70726428Y11238096D01*
X70678809Y11190477D01*
X70631190Y11095239D01*
X70583571Y10904762D01*
X70535952Y10809524D01*
X70488333Y10761905D01*
X70393095Y10714286D01*
X70297857Y10714286D01*
X70202619Y10761905D01*
X70155000Y10809524D01*
X70107380Y10904762D01*
X70107380Y11142858D01*
X70155000Y11285715D01*
X71107380Y11714286D02*
X70107380Y11714286D01*
X70107380Y12095239D01*
X70155000Y12190477D01*
X70202619Y12238096D01*
X70297857Y12285715D01*
X70440714Y12285715D01*
X70535952Y12238096D01*
X70583571Y12190477D01*
X70631190Y12095239D01*
X70631190Y11714286D01*
X49533333Y38682858D02*
X49485714Y38635239D01*
X49342857Y38587620D01*
X49247619Y38587620D01*
X49104761Y38635239D01*
X49009523Y38730477D01*
X48961904Y38825715D01*
X48914285Y39016191D01*
X48914285Y39159048D01*
X48961904Y39349524D01*
X49009523Y39444762D01*
X49104761Y39540000D01*
X49247619Y39587620D01*
X49342857Y39587620D01*
X49485714Y39540000D01*
X49533333Y39492381D01*
X50390476Y39587620D02*
X50200000Y39587620D01*
X50104761Y39540000D01*
X50057142Y39492381D01*
X49961904Y39349524D01*
X49914285Y39159048D01*
X49914285Y38778096D01*
X49961904Y38682858D01*
X50009523Y38635239D01*
X50104761Y38587620D01*
X50295238Y38587620D01*
X50390476Y38635239D01*
X50438095Y38682858D01*
X50485714Y38778096D01*
X50485714Y39016191D01*
X50438095Y39111429D01*
X50390476Y39159048D01*
X50295238Y39206667D01*
X50104761Y39206667D01*
X50009523Y39159048D01*
X49961904Y39111429D01*
X49914285Y39016191D01*
X57956904Y45267620D02*
X57956904Y46267620D01*
X58195000Y46267620D01*
X58337857Y46220000D01*
X58433095Y46124762D01*
X58480714Y46029524D01*
X58528333Y45839048D01*
X58528333Y45696191D01*
X58480714Y45505715D01*
X58433095Y45410477D01*
X58337857Y45315239D01*
X58195000Y45267620D01*
X57956904Y45267620D01*
X58909285Y46172381D02*
X58956904Y46220000D01*
X59052142Y46267620D01*
X59290238Y46267620D01*
X59385476Y46220000D01*
X59433095Y46172381D01*
X59480714Y46077143D01*
X59480714Y45981905D01*
X59433095Y45839048D01*
X58861666Y45267620D01*
X59480714Y45267620D01*
X56464523Y40235239D02*
X56607380Y40187620D01*
X56845476Y40187620D01*
X56940714Y40235239D01*
X56988333Y40282858D01*
X57035952Y40378096D01*
X57035952Y40473334D01*
X56988333Y40568572D01*
X56940714Y40616191D01*
X56845476Y40663810D01*
X56655000Y40711429D01*
X56559761Y40759048D01*
X56512142Y40806667D01*
X56464523Y40901905D01*
X56464523Y40997143D01*
X56512142Y41092381D01*
X56559761Y41140000D01*
X56655000Y41187620D01*
X56893095Y41187620D01*
X57035952Y41140000D01*
X57369285Y41187620D02*
X58035952Y41187620D01*
X57607380Y40187620D01*
X58940714Y40187620D02*
X58369285Y40187620D01*
X58655000Y40187620D02*
X58655000Y41187620D01*
X58559761Y41044762D01*
X58464523Y40949524D01*
X58369285Y40901905D01*
X59512142Y40759048D02*
X59416904Y40806667D01*
X59369285Y40854286D01*
X59321666Y40949524D01*
X59321666Y40997143D01*
X59369285Y41092381D01*
X59416904Y41140000D01*
X59512142Y41187620D01*
X59702619Y41187620D01*
X59797857Y41140000D01*
X59845476Y41092381D01*
X59893095Y40997143D01*
X59893095Y40949524D01*
X59845476Y40854286D01*
X59797857Y40806667D01*
X59702619Y40759048D01*
X59512142Y40759048D01*
X59416904Y40711429D01*
X59369285Y40663810D01*
X59321666Y40568572D01*
X59321666Y40378096D01*
X59369285Y40282858D01*
X59416904Y40235239D01*
X59512142Y40187620D01*
X59702619Y40187620D01*
X59797857Y40235239D01*
X59845476Y40282858D01*
X59893095Y40378096D01*
X59893095Y40568572D01*
X59845476Y40663810D01*
X59797857Y40711429D01*
X59702619Y40759048D01*
X60226428Y41187620D02*
X60845476Y41187620D01*
X60512142Y40806667D01*
X60655000Y40806667D01*
X60750238Y40759048D01*
X60797857Y40711429D01*
X60845476Y40616191D01*
X60845476Y40378096D01*
X60797857Y40282858D01*
X60750238Y40235239D01*
X60655000Y40187620D01*
X60369285Y40187620D01*
X60274047Y40235239D01*
X60226428Y40282858D01*
X39373333Y16997620D02*
X39040000Y17473810D01*
X38801904Y16997620D02*
X38801904Y17997620D01*
X39182857Y17997620D01*
X39278095Y17950000D01*
X39325714Y17902381D01*
X39373333Y17807143D01*
X39373333Y17664286D01*
X39325714Y17569048D01*
X39278095Y17521429D01*
X39182857Y17473810D01*
X38801904Y17473810D01*
X40278095Y17997620D02*
X39801904Y17997620D01*
X39754285Y17521429D01*
X39801904Y17569048D01*
X39897142Y17616667D01*
X40135238Y17616667D01*
X40230476Y17569048D01*
X40278095Y17521429D01*
X40325714Y17426191D01*
X40325714Y17188096D01*
X40278095Y17092858D01*
X40230476Y17045239D01*
X40135238Y16997620D01*
X39897142Y16997620D01*
X39801904Y17045239D01*
X39754285Y17092858D01*
X22895142Y38428858D02*
X22847523Y38381239D01*
X22704666Y38333620D01*
X22609428Y38333620D01*
X22466571Y38381239D01*
X22371333Y38476477D01*
X22323714Y38571715D01*
X22276095Y38762191D01*
X22276095Y38905048D01*
X22323714Y39095524D01*
X22371333Y39190762D01*
X22466571Y39286000D01*
X22609428Y39333620D01*
X22704666Y39333620D01*
X22847523Y39286000D01*
X22895142Y39238381D01*
X23847523Y38333620D02*
X23276095Y38333620D01*
X23561809Y38333620D02*
X23561809Y39333620D01*
X23466571Y39190762D01*
X23371333Y39095524D01*
X23276095Y39047905D01*
X24228476Y39238381D02*
X24276095Y39286000D01*
X24371333Y39333620D01*
X24609428Y39333620D01*
X24704666Y39286000D01*
X24752285Y39238381D01*
X24799904Y39143143D01*
X24799904Y39047905D01*
X24752285Y38905048D01*
X24180857Y38333620D01*
X24799904Y38333620D01*
X24133333Y28427620D02*
X23800000Y28903810D01*
X23561904Y28427620D02*
X23561904Y29427620D01*
X23942857Y29427620D01*
X24038095Y29380000D01*
X24085714Y29332381D01*
X24133333Y29237143D01*
X24133333Y29094286D01*
X24085714Y28999048D01*
X24038095Y28951429D01*
X23942857Y28903810D01*
X23561904Y28903810D01*
X24609523Y28427620D02*
X24800000Y28427620D01*
X24895238Y28475239D01*
X24942857Y28522858D01*
X25038095Y28665715D01*
X25085714Y28856191D01*
X25085714Y29237143D01*
X25038095Y29332381D01*
X24990476Y29380000D01*
X24895238Y29427620D01*
X24704761Y29427620D01*
X24609523Y29380000D01*
X24561904Y29332381D01*
X24514285Y29237143D01*
X24514285Y28999048D01*
X24561904Y28903810D01*
X24609523Y28856191D01*
X24704761Y28808572D01*
X24895238Y28808572D01*
X24990476Y28856191D01*
X25038095Y28903810D01*
X25085714Y28999048D01*
X6353333Y23347620D02*
X6020000Y23823810D01*
X5781904Y23347620D02*
X5781904Y24347620D01*
X6162857Y24347620D01*
X6258095Y24300000D01*
X6305714Y24252381D01*
X6353333Y24157143D01*
X6353333Y24014286D01*
X6305714Y23919048D01*
X6258095Y23871429D01*
X6162857Y23823810D01*
X5781904Y23823810D01*
X7210476Y24014286D02*
X7210476Y23347620D01*
X6972380Y24395239D02*
X6734285Y23680953D01*
X7353333Y23680953D01*
X8599904Y44937620D02*
X8599904Y45937620D01*
X8838000Y45937620D01*
X8980857Y45890000D01*
X9076095Y45794762D01*
X9123714Y45699524D01*
X9171333Y45509048D01*
X9171333Y45366191D01*
X9123714Y45175715D01*
X9076095Y45080477D01*
X8980857Y44985239D01*
X8838000Y44937620D01*
X8599904Y44937620D01*
X10123714Y44937620D02*
X9552285Y44937620D01*
X9838000Y44937620D02*
X9838000Y45937620D01*
X9742761Y45794762D01*
X9647523Y45699524D01*
X9552285Y45651905D01*
X4678809Y40857620D02*
X4869285Y40857620D01*
X4964523Y40810000D01*
X5059761Y40714762D01*
X5107380Y40524286D01*
X5107380Y40190953D01*
X5059761Y40000477D01*
X4964523Y39905239D01*
X4869285Y39857620D01*
X4678809Y39857620D01*
X4583571Y39905239D01*
X4488333Y40000477D01*
X4440714Y40190953D01*
X4440714Y40524286D01*
X4488333Y40714762D01*
X4583571Y40810000D01*
X4678809Y40857620D01*
X5488333Y39905239D02*
X5631190Y39857620D01*
X5869285Y39857620D01*
X5964523Y39905239D01*
X6012142Y39952858D01*
X6059761Y40048096D01*
X6059761Y40143334D01*
X6012142Y40238572D01*
X5964523Y40286191D01*
X5869285Y40333810D01*
X5678809Y40381429D01*
X5583571Y40429048D01*
X5535952Y40476667D01*
X5488333Y40571905D01*
X5488333Y40667143D01*
X5535952Y40762381D01*
X5583571Y40810000D01*
X5678809Y40857620D01*
X5916904Y40857620D01*
X6059761Y40810000D01*
X6964523Y40857620D02*
X6488333Y40857620D01*
X6440714Y40381429D01*
X6488333Y40429048D01*
X6583571Y40476667D01*
X6821666Y40476667D01*
X6916904Y40429048D01*
X6964523Y40381429D01*
X7012142Y40286191D01*
X7012142Y40048096D01*
X6964523Y39952858D01*
X6916904Y39905239D01*
X6821666Y39857620D01*
X6583571Y39857620D01*
X6488333Y39905239D01*
X6440714Y39952858D01*
X8012142Y39857620D02*
X7678809Y40333810D01*
X7440714Y39857620D02*
X7440714Y40857620D01*
X7821666Y40857620D01*
X7916904Y40810000D01*
X7964523Y40762381D01*
X8012142Y40667143D01*
X8012142Y40524286D01*
X7964523Y40429048D01*
X7916904Y40381429D01*
X7821666Y40333810D01*
X7440714Y40333810D01*
X8440714Y39857620D02*
X8440714Y40857620D01*
X9012142Y39857620D02*
X8583571Y40429048D01*
X9012142Y40857620D02*
X8440714Y40286191D01*
X9393095Y40143334D02*
X9869285Y40143334D01*
X9297857Y39857620D02*
X9631190Y40857620D01*
X9964523Y39857620D01*
X49374904Y743334D02*
X49851095Y743334D01*
X49279666Y457620D02*
X49613000Y1457620D01*
X49946333Y457620D01*
X50613000Y981429D02*
X50279666Y981429D01*
X50279666Y457620D02*
X50279666Y1457620D01*
X50755857Y1457620D01*
X50898714Y362381D02*
X51660619Y362381D01*
X52422523Y1410000D02*
X52327285Y1457620D01*
X52184428Y1457620D01*
X52041571Y1410000D01*
X51946333Y1314762D01*
X51898714Y1219524D01*
X51851095Y1029048D01*
X51851095Y886191D01*
X51898714Y695715D01*
X51946333Y600477D01*
X52041571Y505239D01*
X52184428Y457620D01*
X52279666Y457620D01*
X52422523Y505239D01*
X52470142Y552858D01*
X52470142Y886191D01*
X52279666Y886191D01*
X52851095Y743334D02*
X53327285Y743334D01*
X52755857Y457620D02*
X53089190Y1457620D01*
X53422523Y457620D01*
X53755857Y457620D02*
X53755857Y1457620D01*
X54232047Y457620D02*
X54232047Y1457620D01*
X54803476Y457620D01*
X54803476Y1457620D01*
X62259580Y6956667D02*
X62973866Y6956667D01*
X63116723Y6909048D01*
X63211961Y6813810D01*
X63259580Y6670953D01*
X63259580Y6575715D01*
X62592914Y7861429D02*
X63259580Y7861429D01*
X62211961Y7623334D02*
X62926247Y7385239D01*
X62926247Y8004286D01*
X65392380Y1392858D02*
X64392380Y1392858D01*
X64868571Y1392858D02*
X64868571Y1964286D01*
X65392380Y1964286D02*
X64392380Y1964286D01*
X64868571Y2440477D02*
X64868571Y2773810D01*
X65392380Y2916667D02*
X65392380Y2440477D01*
X64392380Y2440477D01*
X64392380Y2916667D01*
X65106666Y3297620D02*
X65106666Y3773810D01*
X65392380Y3202381D02*
X64392380Y3535715D01*
X65392380Y3869048D01*
X65392380Y4202381D02*
X64392380Y4202381D01*
X64392380Y4440477D01*
X64440000Y4583334D01*
X64535238Y4678572D01*
X64630476Y4726191D01*
X64820952Y4773810D01*
X64963809Y4773810D01*
X65154285Y4726191D01*
X65249523Y4678572D01*
X65344761Y4583334D01*
X65392380Y4440477D01*
X65392380Y4202381D01*
X65487619Y4964286D02*
X65487619Y5726191D01*
X65344761Y5916667D02*
X65392380Y6059524D01*
X65392380Y6297620D01*
X65344761Y6392858D01*
X65297142Y6440477D01*
X65201904Y6488096D01*
X65106666Y6488096D01*
X65011428Y6440477D01*
X64963809Y6392858D01*
X64916190Y6297620D01*
X64868571Y6107143D01*
X64820952Y6011905D01*
X64773333Y5964286D01*
X64678095Y5916667D01*
X64582857Y5916667D01*
X64487619Y5964286D01*
X64440000Y6011905D01*
X64392380Y6107143D01*
X64392380Y6345239D01*
X64440000Y6488096D01*
X64868571Y6916667D02*
X64868571Y7250000D01*
X65392380Y7392858D02*
X65392380Y6916667D01*
X64392380Y6916667D01*
X64392380Y7392858D01*
X64392380Y7678572D02*
X64392380Y8250000D01*
X65392380Y7964286D02*
X64392380Y7964286D01*
X51597142Y12552620D02*
X51263809Y13028810D01*
X51025714Y12552620D02*
X51025714Y13552620D01*
X51406666Y13552620D01*
X51501904Y13505000D01*
X51549523Y13457381D01*
X51597142Y13362143D01*
X51597142Y13219286D01*
X51549523Y13124048D01*
X51501904Y13076429D01*
X51406666Y13028810D01*
X51025714Y13028810D01*
X52549523Y12552620D02*
X51978095Y12552620D01*
X52263809Y12552620D02*
X52263809Y13552620D01*
X52168571Y13409762D01*
X52073333Y13314524D01*
X51978095Y13266905D01*
X53454285Y13552620D02*
X52978095Y13552620D01*
X52930476Y13076429D01*
X52978095Y13124048D01*
X53073333Y13171667D01*
X53311428Y13171667D01*
X53406666Y13124048D01*
X53454285Y13076429D01*
X53501904Y12981191D01*
X53501904Y12743096D01*
X53454285Y12647858D01*
X53406666Y12600239D01*
X53311428Y12552620D01*
X53073333Y12552620D01*
X52978095Y12600239D01*
X52930476Y12647858D01*
X48928095Y21807620D02*
X48928095Y20998096D01*
X48975714Y20902858D01*
X49023333Y20855239D01*
X49118571Y20807620D01*
X49309047Y20807620D01*
X49404285Y20855239D01*
X49451904Y20902858D01*
X49499523Y20998096D01*
X49499523Y21807620D01*
X49880476Y21807620D02*
X50499523Y21807620D01*
X50166190Y21426667D01*
X50309047Y21426667D01*
X50404285Y21379048D01*
X50451904Y21331429D01*
X50499523Y21236191D01*
X50499523Y20998096D01*
X50451904Y20902858D01*
X50404285Y20855239D01*
X50309047Y20807620D01*
X50023333Y20807620D01*
X49928095Y20855239D01*
X49880476Y20902858D01*
X47485714Y19172381D02*
X47533333Y19220000D01*
X47628571Y19267620D01*
X47866666Y19267620D01*
X47961904Y19220000D01*
X48009523Y19172381D01*
X48057142Y19077143D01*
X48057142Y18981905D01*
X48009523Y18839048D01*
X47438095Y18267620D01*
X48057142Y18267620D01*
X48676190Y19267620D02*
X48771428Y19267620D01*
X48866666Y19220000D01*
X48914285Y19172381D01*
X48961904Y19077143D01*
X49009523Y18886667D01*
X49009523Y18648572D01*
X48961904Y18458096D01*
X48914285Y18362858D01*
X48866666Y18315239D01*
X48771428Y18267620D01*
X48676190Y18267620D01*
X48580952Y18315239D01*
X48533333Y18362858D01*
X48485714Y18458096D01*
X48438095Y18648572D01*
X48438095Y18886667D01*
X48485714Y19077143D01*
X48533333Y19172381D01*
X48580952Y19220000D01*
X48676190Y19267620D01*
X49342857Y19267620D02*
X50009523Y19267620D01*
X49580952Y18267620D01*
X50295238Y19267620D02*
X50914285Y19267620D01*
X50580952Y18886667D01*
X50723809Y18886667D01*
X50819047Y18839048D01*
X50866666Y18791429D01*
X50914285Y18696191D01*
X50914285Y18458096D01*
X50866666Y18362858D01*
X50819047Y18315239D01*
X50723809Y18267620D01*
X50438095Y18267620D01*
X50342857Y18315239D01*
X50295238Y18362858D01*
X51342857Y18267620D02*
X51342857Y19267620D01*
X51580952Y19267620D01*
X51723809Y19220000D01*
X51819047Y19124762D01*
X51866666Y19029524D01*
X51914285Y18839048D01*
X51914285Y18696191D01*
X51866666Y18505715D01*
X51819047Y18410477D01*
X51723809Y18315239D01*
X51580952Y18267620D01*
X51342857Y18267620D01*
X43183333Y38682858D02*
X43135714Y38635239D01*
X42992857Y38587620D01*
X42897619Y38587620D01*
X42754761Y38635239D01*
X42659523Y38730477D01*
X42611904Y38825715D01*
X42564285Y39016191D01*
X42564285Y39159048D01*
X42611904Y39349524D01*
X42659523Y39444762D01*
X42754761Y39540000D01*
X42897619Y39587620D01*
X42992857Y39587620D01*
X43135714Y39540000D01*
X43183333Y39492381D01*
X44040476Y39254286D02*
X44040476Y38587620D01*
X43802380Y39635239D02*
X43564285Y38920953D01*
X44183333Y38920953D01*
X50874761Y43572381D02*
X50779523Y43620000D01*
X50684285Y43715239D01*
X50541428Y43858096D01*
X50446190Y43905715D01*
X50350952Y43905715D01*
X50398571Y43667620D02*
X50303333Y43715239D01*
X50208095Y43810477D01*
X50160476Y44000953D01*
X50160476Y44334286D01*
X50208095Y44524762D01*
X50303333Y44620000D01*
X50398571Y44667620D01*
X50589047Y44667620D01*
X50684285Y44620000D01*
X50779523Y44524762D01*
X50827142Y44334286D01*
X50827142Y44000953D01*
X50779523Y43810477D01*
X50684285Y43715239D01*
X50589047Y43667620D01*
X50398571Y43667620D01*
X51208095Y44572381D02*
X51255714Y44620000D01*
X51350952Y44667620D01*
X51589047Y44667620D01*
X51684285Y44620000D01*
X51731904Y44572381D01*
X51779523Y44477143D01*
X51779523Y44381905D01*
X51731904Y44239048D01*
X51160476Y43667620D01*
X51779523Y43667620D01*
X42553333Y46092381D02*
X42600952Y46140000D01*
X42696190Y46187620D01*
X42934285Y46187620D01*
X43029523Y46140000D01*
X43077142Y46092381D01*
X43124761Y45997143D01*
X43124761Y45901905D01*
X43077142Y45759048D01*
X42505714Y45187620D01*
X43124761Y45187620D01*
X43505714Y45235239D02*
X43648571Y45187620D01*
X43886666Y45187620D01*
X43981904Y45235239D01*
X44029523Y45282858D01*
X44077142Y45378096D01*
X44077142Y45473334D01*
X44029523Y45568572D01*
X43981904Y45616191D01*
X43886666Y45663810D01*
X43696190Y45711429D01*
X43600952Y45759048D01*
X43553333Y45806667D01*
X43505714Y45901905D01*
X43505714Y45997143D01*
X43553333Y46092381D01*
X43600952Y46140000D01*
X43696190Y46187620D01*
X43934285Y46187620D01*
X44077142Y46140000D01*
X45077142Y45282858D02*
X45029523Y45235239D01*
X44886666Y45187620D01*
X44791428Y45187620D01*
X44648571Y45235239D01*
X44553333Y45330477D01*
X44505714Y45425715D01*
X44458095Y45616191D01*
X44458095Y45759048D01*
X44505714Y45949524D01*
X44553333Y46044762D01*
X44648571Y46140000D01*
X44791428Y46187620D01*
X44886666Y46187620D01*
X45029523Y46140000D01*
X45077142Y46092381D01*
X46029523Y45187620D02*
X45458095Y45187620D01*
X45743809Y45187620D02*
X45743809Y46187620D01*
X45648571Y46044762D01*
X45553333Y45949524D01*
X45458095Y45901905D01*
X46600952Y45759048D02*
X46505714Y45806667D01*
X46458095Y45854286D01*
X46410476Y45949524D01*
X46410476Y45997143D01*
X46458095Y46092381D01*
X46505714Y46140000D01*
X46600952Y46187620D01*
X46791428Y46187620D01*
X46886666Y46140000D01*
X46934285Y46092381D01*
X46981904Y45997143D01*
X46981904Y45949524D01*
X46934285Y45854286D01*
X46886666Y45806667D01*
X46791428Y45759048D01*
X46600952Y45759048D01*
X46505714Y45711429D01*
X46458095Y45663810D01*
X46410476Y45568572D01*
X46410476Y45378096D01*
X46458095Y45282858D01*
X46505714Y45235239D01*
X46600952Y45187620D01*
X46791428Y45187620D01*
X46886666Y45235239D01*
X46934285Y45282858D01*
X46981904Y45378096D01*
X46981904Y45568572D01*
X46934285Y45663810D01*
X46886666Y45711429D01*
X46791428Y45759048D01*
X47934285Y45187620D02*
X47362857Y45187620D01*
X47648571Y45187620D02*
X47648571Y46187620D01*
X47553333Y46044762D01*
X47458095Y45949524D01*
X47362857Y45901905D01*
X48839047Y46187620D02*
X48362857Y46187620D01*
X48315238Y45711429D01*
X48362857Y45759048D01*
X48458095Y45806667D01*
X48696190Y45806667D01*
X48791428Y45759048D01*
X48839047Y45711429D01*
X48886666Y45616191D01*
X48886666Y45378096D01*
X48839047Y45282858D01*
X48791428Y45235239D01*
X48696190Y45187620D01*
X48458095Y45187620D01*
X48362857Y45235239D01*
X48315238Y45282858D01*
X28608095Y21807620D02*
X28608095Y20998096D01*
X28655714Y20902858D01*
X28703333Y20855239D01*
X28798571Y20807620D01*
X28989047Y20807620D01*
X29084285Y20855239D01*
X29131904Y20902858D01*
X29179523Y20998096D01*
X29179523Y21807620D01*
X29608095Y21712381D02*
X29655714Y21760000D01*
X29750952Y21807620D01*
X29989047Y21807620D01*
X30084285Y21760000D01*
X30131904Y21712381D01*
X30179523Y21617143D01*
X30179523Y21521905D01*
X30131904Y21379048D01*
X29560476Y20807620D01*
X30179523Y20807620D01*
X27679523Y18267620D02*
X27203333Y18267620D01*
X27203333Y19267620D01*
X28012857Y18267620D02*
X28012857Y19267620D01*
X28346190Y18553334D01*
X28679523Y19267620D01*
X28679523Y18267620D01*
X29060476Y19267620D02*
X29679523Y19267620D01*
X29346190Y18886667D01*
X29489047Y18886667D01*
X29584285Y18839048D01*
X29631904Y18791429D01*
X29679523Y18696191D01*
X29679523Y18458096D01*
X29631904Y18362858D01*
X29584285Y18315239D01*
X29489047Y18267620D01*
X29203333Y18267620D01*
X29108095Y18315239D01*
X29060476Y18362858D01*
X30584285Y19267620D02*
X30108095Y19267620D01*
X30060476Y18791429D01*
X30108095Y18839048D01*
X30203333Y18886667D01*
X30441428Y18886667D01*
X30536666Y18839048D01*
X30584285Y18791429D01*
X30631904Y18696191D01*
X30631904Y18458096D01*
X30584285Y18362858D01*
X30536666Y18315239D01*
X30441428Y18267620D01*
X30203333Y18267620D01*
X30108095Y18315239D01*
X30060476Y18362858D01*
X31203333Y18839048D02*
X31108095Y18886667D01*
X31060476Y18934286D01*
X31012857Y19029524D01*
X31012857Y19077143D01*
X31060476Y19172381D01*
X31108095Y19220000D01*
X31203333Y19267620D01*
X31393809Y19267620D01*
X31489047Y19220000D01*
X31536666Y19172381D01*
X31584285Y19077143D01*
X31584285Y19029524D01*
X31536666Y18934286D01*
X31489047Y18886667D01*
X31393809Y18839048D01*
X31203333Y18839048D01*
X31108095Y18791429D01*
X31060476Y18743810D01*
X31012857Y18648572D01*
X31012857Y18458096D01*
X31060476Y18362858D01*
X31108095Y18315239D01*
X31203333Y18267620D01*
X31393809Y18267620D01*
X31489047Y18315239D01*
X31536666Y18362858D01*
X31584285Y18458096D01*
X31584285Y18648572D01*
X31536666Y18743810D01*
X31489047Y18791429D01*
X31393809Y18839048D01*
X59098333Y19632858D02*
X59050714Y19585239D01*
X58907857Y19537620D01*
X58812619Y19537620D01*
X58669761Y19585239D01*
X58574523Y19680477D01*
X58526904Y19775715D01*
X58479285Y19966191D01*
X58479285Y20109048D01*
X58526904Y20299524D01*
X58574523Y20394762D01*
X58669761Y20490000D01*
X58812619Y20537620D01*
X58907857Y20537620D01*
X59050714Y20490000D01*
X59098333Y20442381D01*
X59574523Y19537620D02*
X59765000Y19537620D01*
X59860238Y19585239D01*
X59907857Y19632858D01*
X60003095Y19775715D01*
X60050714Y19966191D01*
X60050714Y20347143D01*
X60003095Y20442381D01*
X59955476Y20490000D01*
X59860238Y20537620D01*
X59669761Y20537620D01*
X59574523Y20490000D01*
X59526904Y20442381D01*
X59479285Y20347143D01*
X59479285Y20109048D01*
X59526904Y20013810D01*
X59574523Y19966191D01*
X59669761Y19918572D01*
X59860238Y19918572D01*
X59955476Y19966191D01*
X60003095Y20013810D01*
X60050714Y20109048D01*
X36948333Y38660858D02*
X36900714Y38613239D01*
X36757857Y38565620D01*
X36662619Y38565620D01*
X36519761Y38613239D01*
X36424523Y38708477D01*
X36376904Y38803715D01*
X36329285Y38994191D01*
X36329285Y39137048D01*
X36376904Y39327524D01*
X36424523Y39422762D01*
X36519761Y39518000D01*
X36662619Y39565620D01*
X36757857Y39565620D01*
X36900714Y39518000D01*
X36948333Y39470381D01*
X37281666Y39565620D02*
X37900714Y39565620D01*
X37567380Y39184667D01*
X37710238Y39184667D01*
X37805476Y39137048D01*
X37853095Y39089429D01*
X37900714Y38994191D01*
X37900714Y38756096D01*
X37853095Y38660858D01*
X37805476Y38613239D01*
X37710238Y38565620D01*
X37424523Y38565620D01*
X37329285Y38613239D01*
X37281666Y38660858D01*
X6393333Y25982858D02*
X6345714Y25935239D01*
X6202857Y25887620D01*
X6107619Y25887620D01*
X5964761Y25935239D01*
X5869523Y26030477D01*
X5821904Y26125715D01*
X5774285Y26316191D01*
X5774285Y26459048D01*
X5821904Y26649524D01*
X5869523Y26744762D01*
X5964761Y26840000D01*
X6107619Y26887620D01*
X6202857Y26887620D01*
X6345714Y26840000D01*
X6393333Y26792381D01*
X7345714Y25887620D02*
X6774285Y25887620D01*
X7060000Y25887620D02*
X7060000Y26887620D01*
X6964761Y26744762D01*
X6869523Y26649524D01*
X6774285Y26601905D01*
X6353333Y15727620D02*
X6020000Y16203810D01*
X5781904Y15727620D02*
X5781904Y16727620D01*
X6162857Y16727620D01*
X6258095Y16680000D01*
X6305714Y16632381D01*
X6353333Y16537143D01*
X6353333Y16394286D01*
X6305714Y16299048D01*
X6258095Y16251429D01*
X6162857Y16203810D01*
X5781904Y16203810D01*
X7305714Y15727620D02*
X6734285Y15727620D01*
X7020000Y15727620D02*
X7020000Y16727620D01*
X6924761Y16584762D01*
X6829523Y16489524D01*
X6734285Y16441905D01*
X49573333Y28522858D02*
X49525714Y28475239D01*
X49382857Y28427620D01*
X49287619Y28427620D01*
X49144761Y28475239D01*
X49049523Y28570477D01*
X49001904Y28665715D01*
X48954285Y28856191D01*
X48954285Y28999048D01*
X49001904Y29189524D01*
X49049523Y29284762D01*
X49144761Y29380000D01*
X49287619Y29427620D01*
X49382857Y29427620D01*
X49525714Y29380000D01*
X49573333Y29332381D01*
X50144761Y28999048D02*
X50049523Y29046667D01*
X50001904Y29094286D01*
X49954285Y29189524D01*
X49954285Y29237143D01*
X50001904Y29332381D01*
X50049523Y29380000D01*
X50144761Y29427620D01*
X50335238Y29427620D01*
X50430476Y29380000D01*
X50478095Y29332381D01*
X50525714Y29237143D01*
X50525714Y29189524D01*
X50478095Y29094286D01*
X50430476Y29046667D01*
X50335238Y28999048D01*
X50144761Y28999048D01*
X50049523Y28951429D01*
X50001904Y28903810D01*
X49954285Y28808572D01*
X49954285Y28618096D01*
X50001904Y28522858D01*
X50049523Y28475239D01*
X50144761Y28427620D01*
X50335238Y28427620D01*
X50430476Y28475239D01*
X50478095Y28522858D01*
X50525714Y28618096D01*
X50525714Y28808572D01*
X50478095Y28903810D01*
X50430476Y28951429D01*
X50335238Y28999048D01*
X65027380Y19656667D02*
X65741666Y19656667D01*
X65884523Y19609048D01*
X65979761Y19513810D01*
X66027380Y19370953D01*
X66027380Y19275715D01*
X65027380Y20037620D02*
X65027380Y20656667D01*
X65408333Y20323334D01*
X65408333Y20466191D01*
X65455952Y20561429D01*
X65503571Y20609048D01*
X65598809Y20656667D01*
X65836904Y20656667D01*
X65932142Y20609048D01*
X65979761Y20561429D01*
X66027380Y20466191D01*
X66027380Y20180477D01*
X65979761Y20085239D01*
X65932142Y20037620D01*
X70107380Y17751905D02*
X71107380Y18085239D01*
X70107380Y18418572D01*
X71012142Y19323334D02*
X71059761Y19275715D01*
X71107380Y19132858D01*
X71107380Y19037620D01*
X71059761Y18894762D01*
X70964523Y18799524D01*
X70869285Y18751905D01*
X70678809Y18704286D01*
X70535952Y18704286D01*
X70345476Y18751905D01*
X70250238Y18799524D01*
X70155000Y18894762D01*
X70107380Y19037620D01*
X70107380Y19132858D01*
X70155000Y19275715D01*
X70202619Y19323334D01*
X71012142Y20323334D02*
X71059761Y20275715D01*
X71107380Y20132858D01*
X71107380Y20037620D01*
X71059761Y19894762D01*
X70964523Y19799524D01*
X70869285Y19751905D01*
X70678809Y19704286D01*
X70535952Y19704286D01*
X70345476Y19751905D01*
X70250238Y19799524D01*
X70155000Y19894762D01*
X70107380Y20037620D01*
X70107380Y20132858D01*
X70155000Y20275715D01*
X70202619Y20323334D01*
X70107380Y21228096D02*
X70107380Y20751905D01*
X70583571Y20704286D01*
X70535952Y20751905D01*
X70488333Y20847143D01*
X70488333Y21085239D01*
X70535952Y21180477D01*
X70583571Y21228096D01*
X70678809Y21275715D01*
X70916904Y21275715D01*
X71012142Y21228096D01*
X71059761Y21180477D01*
X71107380Y21085239D01*
X71107380Y20847143D01*
X71059761Y20751905D01*
X71012142Y20704286D01*
X70107380Y21561429D02*
X71107380Y21894762D01*
X70107380Y22228096D01*
X8829761Y32626667D02*
X8877380Y32769524D01*
X8877380Y33007620D01*
X8829761Y33102858D01*
X8782142Y33150477D01*
X8686904Y33198096D01*
X8591666Y33198096D01*
X8496428Y33150477D01*
X8448809Y33102858D01*
X8401190Y33007620D01*
X8353571Y32817143D01*
X8305952Y32721905D01*
X8258333Y32674286D01*
X8163095Y32626667D01*
X8067857Y32626667D01*
X7972619Y32674286D01*
X7925000Y32721905D01*
X7877380Y32817143D01*
X7877380Y33055239D01*
X7925000Y33198096D01*
X7877380Y33531429D02*
X8877380Y33769524D01*
X8163095Y33960000D01*
X8877380Y34150477D01*
X7877380Y34388572D01*
X7877380Y34674286D02*
X7877380Y35293334D01*
X8258333Y34960000D01*
X8258333Y35102858D01*
X8305952Y35198096D01*
X8353571Y35245715D01*
X8448809Y35293334D01*
X8686904Y35293334D01*
X8782142Y35245715D01*
X8829761Y35198096D01*
X8877380Y35102858D01*
X8877380Y34817143D01*
X8829761Y34721905D01*
X8782142Y34674286D01*
X1892380Y32440477D02*
X892380Y32440477D01*
X1606666Y32773810D01*
X892380Y33107143D01*
X1892380Y33107143D01*
X892380Y33773810D02*
X892380Y33964286D01*
X940000Y34059524D01*
X1035238Y34154762D01*
X1225714Y34202381D01*
X1559047Y34202381D01*
X1749523Y34154762D01*
X1844761Y34059524D01*
X1892380Y33964286D01*
X1892380Y33773810D01*
X1844761Y33678572D01*
X1749523Y33583334D01*
X1559047Y33535715D01*
X1225714Y33535715D01*
X1035238Y33583334D01*
X940000Y33678572D01*
X892380Y33773810D01*
X1892380Y34630953D02*
X892380Y34630953D01*
X892380Y34869048D01*
X940000Y35011905D01*
X1035238Y35107143D01*
X1130476Y35154762D01*
X1320952Y35202381D01*
X1463809Y35202381D01*
X1654285Y35154762D01*
X1749523Y35107143D01*
X1844761Y35011905D01*
X1892380Y34869048D01*
X1892380Y34630953D01*
X1368571Y35630953D02*
X1368571Y35964286D01*
X1892380Y36107143D02*
X1892380Y35630953D01*
X892380Y35630953D01*
X892380Y36107143D01*
X39373333Y24617620D02*
X39040000Y25093810D01*
X38801904Y24617620D02*
X38801904Y25617620D01*
X39182857Y25617620D01*
X39278095Y25570000D01*
X39325714Y25522381D01*
X39373333Y25427143D01*
X39373333Y25284286D01*
X39325714Y25189048D01*
X39278095Y25141429D01*
X39182857Y25093810D01*
X38801904Y25093810D01*
X39944761Y25189048D02*
X39849523Y25236667D01*
X39801904Y25284286D01*
X39754285Y25379524D01*
X39754285Y25427143D01*
X39801904Y25522381D01*
X39849523Y25570000D01*
X39944761Y25617620D01*
X40135238Y25617620D01*
X40230476Y25570000D01*
X40278095Y25522381D01*
X40325714Y25427143D01*
X40325714Y25379524D01*
X40278095Y25284286D01*
X40230476Y25236667D01*
X40135238Y25189048D01*
X39944761Y25189048D01*
X39849523Y25141429D01*
X39801904Y25093810D01*
X39754285Y24998572D01*
X39754285Y24808096D01*
X39801904Y24712858D01*
X39849523Y24665239D01*
X39944761Y24617620D01*
X40135238Y24617620D01*
X40230476Y24665239D01*
X40278095Y24712858D01*
X40325714Y24808096D01*
X40325714Y24998572D01*
X40278095Y25093810D01*
X40230476Y25141429D01*
X40135238Y25189048D01*
X39373333Y19537620D02*
X39040000Y20013810D01*
X38801904Y19537620D02*
X38801904Y20537620D01*
X39182857Y20537620D01*
X39278095Y20490000D01*
X39325714Y20442381D01*
X39373333Y20347143D01*
X39373333Y20204286D01*
X39325714Y20109048D01*
X39278095Y20061429D01*
X39182857Y20013810D01*
X38801904Y20013810D01*
X40230476Y20537620D02*
X40040000Y20537620D01*
X39944761Y20490000D01*
X39897142Y20442381D01*
X39801904Y20299524D01*
X39754285Y20109048D01*
X39754285Y19728096D01*
X39801904Y19632858D01*
X39849523Y19585239D01*
X39944761Y19537620D01*
X40135238Y19537620D01*
X40230476Y19585239D01*
X40278095Y19632858D01*
X40325714Y19728096D01*
X40325714Y19966191D01*
X40278095Y20061429D01*
X40230476Y20109048D01*
X40135238Y20156667D01*
X39944761Y20156667D01*
X39849523Y20109048D01*
X39801904Y20061429D01*
X39754285Y19966191D01*
X4519761Y5722381D02*
X4424523Y5770000D01*
X4329285Y5865239D01*
X4186428Y6008096D01*
X4091190Y6055715D01*
X3995952Y6055715D01*
X4043571Y5817620D02*
X3948333Y5865239D01*
X3853095Y5960477D01*
X3805476Y6150953D01*
X3805476Y6484286D01*
X3853095Y6674762D01*
X3948333Y6770000D01*
X4043571Y6817620D01*
X4234047Y6817620D01*
X4329285Y6770000D01*
X4424523Y6674762D01*
X4472142Y6484286D01*
X4472142Y6150953D01*
X4424523Y5960477D01*
X4329285Y5865239D01*
X4234047Y5817620D01*
X4043571Y5817620D01*
X5424523Y5817620D02*
X4853095Y5817620D01*
X5138809Y5817620D02*
X5138809Y6817620D01*
X5043571Y6674762D01*
X4948333Y6579524D01*
X4853095Y6531905D01*
X1448333Y13072381D02*
X1495952Y13120000D01*
X1591190Y13167620D01*
X1829285Y13167620D01*
X1924523Y13120000D01*
X1972142Y13072381D01*
X2019761Y12977143D01*
X2019761Y12881905D01*
X1972142Y12739048D01*
X1400714Y12167620D01*
X2019761Y12167620D01*
X2400714Y12215239D02*
X2543571Y12167620D01*
X2781666Y12167620D01*
X2876904Y12215239D01*
X2924523Y12262858D01*
X2972142Y12358096D01*
X2972142Y12453334D01*
X2924523Y12548572D01*
X2876904Y12596191D01*
X2781666Y12643810D01*
X2591190Y12691429D01*
X2495952Y12739048D01*
X2448333Y12786667D01*
X2400714Y12881905D01*
X2400714Y12977143D01*
X2448333Y13072381D01*
X2495952Y13120000D01*
X2591190Y13167620D01*
X2829285Y13167620D01*
X2972142Y13120000D01*
X3972142Y12262858D02*
X3924523Y12215239D01*
X3781666Y12167620D01*
X3686428Y12167620D01*
X3543571Y12215239D01*
X3448333Y12310477D01*
X3400714Y12405715D01*
X3353095Y12596191D01*
X3353095Y12739048D01*
X3400714Y12929524D01*
X3448333Y13024762D01*
X3543571Y13120000D01*
X3686428Y13167620D01*
X3781666Y13167620D01*
X3924523Y13120000D01*
X3972142Y13072381D01*
X4924523Y12167620D02*
X4353095Y12167620D01*
X4638809Y12167620D02*
X4638809Y13167620D01*
X4543571Y13024762D01*
X4448333Y12929524D01*
X4353095Y12881905D01*
X5495952Y12739048D02*
X5400714Y12786667D01*
X5353095Y12834286D01*
X5305476Y12929524D01*
X5305476Y12977143D01*
X5353095Y13072381D01*
X5400714Y13120000D01*
X5495952Y13167620D01*
X5686428Y13167620D01*
X5781666Y13120000D01*
X5829285Y13072381D01*
X5876904Y12977143D01*
X5876904Y12929524D01*
X5829285Y12834286D01*
X5781666Y12786667D01*
X5686428Y12739048D01*
X5495952Y12739048D01*
X5400714Y12691429D01*
X5353095Y12643810D01*
X5305476Y12548572D01*
X5305476Y12358096D01*
X5353095Y12262858D01*
X5400714Y12215239D01*
X5495952Y12167620D01*
X5686428Y12167620D01*
X5781666Y12215239D01*
X5829285Y12262858D01*
X5876904Y12358096D01*
X5876904Y12548572D01*
X5829285Y12643810D01*
X5781666Y12691429D01*
X5686428Y12739048D01*
X6829285Y12167620D02*
X6257857Y12167620D01*
X6543571Y12167620D02*
X6543571Y13167620D01*
X6448333Y13024762D01*
X6353095Y12929524D01*
X6257857Y12881905D01*
X7734047Y13167620D02*
X7257857Y13167620D01*
X7210238Y12691429D01*
X7257857Y12739048D01*
X7353095Y12786667D01*
X7591190Y12786667D01*
X7686428Y12739048D01*
X7734047Y12691429D01*
X7781666Y12596191D01*
X7781666Y12358096D01*
X7734047Y12262858D01*
X7686428Y12215239D01*
X7591190Y12167620D01*
X7353095Y12167620D01*
X7257857Y12215239D01*
X7210238Y12262858D01*
X17307142Y39142858D02*
X17259523Y39095239D01*
X17116666Y39047620D01*
X17021428Y39047620D01*
X16878571Y39095239D01*
X16783333Y39190477D01*
X16735714Y39285715D01*
X16688095Y39476191D01*
X16688095Y39619048D01*
X16735714Y39809524D01*
X16783333Y39904762D01*
X16878571Y40000000D01*
X17021428Y40047620D01*
X17116666Y40047620D01*
X17259523Y40000000D01*
X17307142Y39952381D01*
X18259523Y39047620D02*
X17688095Y39047620D01*
X17973809Y39047620D02*
X17973809Y40047620D01*
X17878571Y39904762D01*
X17783333Y39809524D01*
X17688095Y39761905D01*
X19211904Y39047620D02*
X18640476Y39047620D01*
X18926190Y39047620D02*
X18926190Y40047620D01*
X18830952Y39904762D01*
X18735714Y39809524D01*
X18640476Y39761905D01*
X30498333Y38660858D02*
X30450714Y38613239D01*
X30307857Y38565620D01*
X30212619Y38565620D01*
X30069761Y38613239D01*
X29974523Y38708477D01*
X29926904Y38803715D01*
X29879285Y38994191D01*
X29879285Y39137048D01*
X29926904Y39327524D01*
X29974523Y39422762D01*
X30069761Y39518000D01*
X30212619Y39565620D01*
X30307857Y39565620D01*
X30450714Y39518000D01*
X30498333Y39470381D01*
X31403095Y39565620D02*
X30926904Y39565620D01*
X30879285Y39089429D01*
X30926904Y39137048D01*
X31022142Y39184667D01*
X31260238Y39184667D01*
X31355476Y39137048D01*
X31403095Y39089429D01*
X31450714Y38994191D01*
X31450714Y38756096D01*
X31403095Y38660858D01*
X31355476Y38613239D01*
X31260238Y38565620D01*
X31022142Y38565620D01*
X30926904Y38613239D01*
X30879285Y38660858D01*
X12322380Y8226667D02*
X13036666Y8226667D01*
X13179523Y8179048D01*
X13274761Y8083810D01*
X13322380Y7940953D01*
X13322380Y7845715D01*
X13322380Y9226667D02*
X13322380Y8655239D01*
X13322380Y8940953D02*
X12322380Y8940953D01*
X12465238Y8845715D01*
X12560476Y8750477D01*
X12608095Y8655239D01*
X8242380Y559286D02*
X7242380Y559286D01*
X8242380Y1130715D02*
X7670952Y702143D01*
X7242380Y1130715D02*
X7813809Y559286D01*
X7718571Y1559286D02*
X7718571Y1892620D01*
X8242380Y2035477D02*
X8242380Y1559286D01*
X7242380Y1559286D01*
X7242380Y2035477D01*
X7766190Y2654524D02*
X8242380Y2654524D01*
X7242380Y2321191D02*
X7766190Y2654524D01*
X7242380Y2987858D01*
X8337619Y3083096D02*
X8337619Y3845000D01*
X8242380Y4083096D02*
X7242380Y4083096D01*
X8242380Y4559286D02*
X7242380Y4559286D01*
X8242380Y5130715D01*
X7242380Y5130715D01*
X36357142Y41127620D02*
X36023809Y41603810D01*
X35785714Y41127620D02*
X35785714Y42127620D01*
X36166666Y42127620D01*
X36261904Y42080000D01*
X36309523Y42032381D01*
X36357142Y41937143D01*
X36357142Y41794286D01*
X36309523Y41699048D01*
X36261904Y41651429D01*
X36166666Y41603810D01*
X35785714Y41603810D01*
X37309523Y41127620D02*
X36738095Y41127620D01*
X37023809Y41127620D02*
X37023809Y42127620D01*
X36928571Y41984762D01*
X36833333Y41889524D01*
X36738095Y41841905D01*
X37642857Y42127620D02*
X38261904Y42127620D01*
X37928571Y41746667D01*
X38071428Y41746667D01*
X38166666Y41699048D01*
X38214285Y41651429D01*
X38261904Y41556191D01*
X38261904Y41318096D01*
X38214285Y41222858D01*
X38166666Y41175239D01*
X38071428Y41127620D01*
X37785714Y41127620D01*
X37690476Y41175239D01*
X37642857Y41222858D01*
D12*
X21780000Y11050000D02*
X21780000Y13770000D01*
X34080000Y1470000D02*
X21780000Y1470000D01*
X34080000Y13770000D02*
X34080000Y11050000D01*
X21780000Y6050000D02*
X21780000Y9190000D01*
X34080000Y9190000D02*
X34080000Y6050000D01*
X21780000Y1470000D02*
X21780000Y4190000D01*
X21780000Y13770000D02*
X34080000Y13770000D01*
X34080000Y4190000D02*
X34080000Y1470000D01*
X32409050Y7660000D02*
G75*
G03*
X32409050Y7660000I-4579050J0D01*
G01*
X60471000Y25300000D02*
X60471000Y22323000D01*
X62071000Y25300000D02*
X62071000Y22975000D01*
X62231000Y29590000D02*
X62231000Y27380000D01*
X60350000Y30377000D02*
X60350000Y22303000D01*
X62391000Y29464000D02*
X62391000Y27380000D01*
X61591000Y29987000D02*
X61591000Y27380000D01*
X60631000Y25300000D02*
X60631000Y22355000D01*
X61231000Y25300000D02*
X61231000Y22535000D01*
X61151000Y30175000D02*
X61151000Y27380000D01*
X61871000Y29833000D02*
X61871000Y27380000D01*
X62551000Y29323000D02*
X62551000Y23357000D01*
X60751000Y25300000D02*
X60751000Y22383000D01*
X63791000Y27108000D02*
X63791000Y25572000D01*
X61911000Y25300000D02*
X61911000Y22871000D01*
X61831000Y25300000D02*
X61831000Y22823000D01*
X61671000Y25300000D02*
X61671000Y22734000D01*
X61951000Y25300000D02*
X61951000Y22896000D01*
X60511000Y30350000D02*
X60511000Y27380000D01*
X63151000Y28627000D02*
X63151000Y24053000D01*
X61031000Y25300000D02*
X61031000Y22463000D01*
X60310000Y30382000D02*
X60310000Y22298000D01*
X61191000Y25300000D02*
X61191000Y22519000D01*
X59790000Y30420000D02*
X59790000Y22260000D01*
X63831000Y26873000D02*
X63831000Y25807000D01*
X62191000Y29620000D02*
X62191000Y27380000D01*
X60471000Y30357000D02*
X60471000Y27380000D01*
X62111000Y29678000D02*
X62111000Y27380000D01*
X63031000Y28794000D02*
X63031000Y23886000D01*
X60791000Y30287000D02*
X60791000Y27380000D01*
X60390000Y30370000D02*
X60390000Y22310000D01*
X62751000Y29124000D02*
X62751000Y23556000D01*
X61951000Y29784000D02*
X61951000Y27380000D01*
X63431000Y28153000D02*
X63431000Y24527000D01*
X61671000Y29946000D02*
X61671000Y27380000D01*
X61511000Y30026000D02*
X61511000Y27380000D01*
X63071000Y28740000D02*
X63071000Y23940000D01*
X63231000Y28506000D02*
X63231000Y24174000D01*
X55740302Y29055000D02*
X55740302Y28255000D01*
X62311000Y29529000D02*
X62311000Y27380000D01*
X61111000Y30190000D02*
X61111000Y27380000D01*
X61791000Y29880000D02*
X61791000Y27380000D01*
X61391000Y25300000D02*
X61391000Y22600000D01*
X60190000Y30397000D02*
X60190000Y22283000D01*
X61551000Y30006000D02*
X61551000Y27380000D01*
X61871000Y25300000D02*
X61871000Y22847000D01*
X63111000Y28685000D02*
X63111000Y23995000D01*
X61351000Y25300000D02*
X61351000Y22583000D01*
X63711000Y27438000D02*
X63711000Y25242000D01*
X60671000Y30316000D02*
X60671000Y27380000D01*
X63391000Y28230000D02*
X63391000Y24450000D01*
X60631000Y30325000D02*
X60631000Y27380000D01*
X63191000Y28568000D02*
X63191000Y24112000D01*
X62951000Y28896000D02*
X62951000Y23784000D01*
X60911000Y30254000D02*
X60911000Y27380000D01*
X62511000Y25300000D02*
X62511000Y23321000D01*
X61231000Y30145000D02*
X61231000Y27380000D01*
X61831000Y29857000D02*
X61831000Y27380000D01*
X61071000Y25300000D02*
X61071000Y22477000D01*
X62831000Y29037000D02*
X62831000Y23643000D01*
X61191000Y30161000D02*
X61191000Y27380000D01*
X62471000Y25300000D02*
X62471000Y23285000D01*
X61551000Y25300000D02*
X61551000Y22674000D01*
X62231000Y25300000D02*
X62231000Y23090000D01*
X61751000Y29902000D02*
X61751000Y27380000D01*
X62791000Y29081000D02*
X62791000Y23599000D01*
X60591000Y30334000D02*
X60591000Y27380000D01*
X62151000Y29649000D02*
X62151000Y27380000D01*
X60951000Y25300000D02*
X60951000Y22438000D01*
X62431000Y29430000D02*
X62431000Y27380000D01*
X60430000Y30364000D02*
X60430000Y22316000D01*
X62871000Y28991000D02*
X62871000Y23689000D01*
X60871000Y25300000D02*
X60871000Y22415000D01*
X63551000Y27892000D02*
X63551000Y24788000D01*
X62911000Y28944000D02*
X62911000Y23736000D01*
X62071000Y29705000D02*
X62071000Y27380000D01*
X62271000Y29560000D02*
X62271000Y27380000D01*
X61471000Y30044000D02*
X61471000Y27380000D01*
X60871000Y30265000D02*
X60871000Y27380000D01*
X60591000Y25300000D02*
X60591000Y22346000D01*
X59870000Y30419000D02*
X59870000Y22261000D01*
X60711000Y30307000D02*
X60711000Y27380000D01*
X63631000Y27686000D02*
X63631000Y24994000D01*
X60511000Y25300000D02*
X60511000Y22330000D01*
X63511000Y27985000D02*
X63511000Y24695000D01*
X60551000Y25300000D02*
X60551000Y22338000D01*
X61991000Y29758000D02*
X61991000Y27380000D01*
X62351000Y29496000D02*
X62351000Y27380000D01*
X62111000Y25300000D02*
X62111000Y23002000D01*
X60991000Y25300000D02*
X60991000Y22451000D01*
X63671000Y27569000D02*
X63671000Y25111000D01*
X60791000Y25300000D02*
X60791000Y22393000D01*
X61591000Y25300000D02*
X61591000Y22693000D01*
X62031000Y25300000D02*
X62031000Y22948000D01*
X62671000Y29207000D02*
X62671000Y23473000D01*
X62511000Y29359000D02*
X62511000Y27380000D01*
X62271000Y25300000D02*
X62271000Y23120000D01*
X62031000Y29732000D02*
X62031000Y27380000D01*
X59910000Y30417000D02*
X59910000Y22263000D01*
X60110000Y30405000D02*
X60110000Y22275000D01*
X62351000Y25300000D02*
X62351000Y23184000D01*
X63471000Y28071000D02*
X63471000Y24609000D01*
X61271000Y25300000D02*
X61271000Y22550000D01*
X62631000Y29247000D02*
X62631000Y23433000D01*
X62311000Y25300000D02*
X62311000Y23151000D01*
X59990000Y30414000D02*
X59990000Y22266000D01*
X61431000Y30062000D02*
X61431000Y27380000D01*
X62591000Y29285000D02*
X62591000Y23395000D01*
X60831000Y25300000D02*
X60831000Y22404000D01*
X61511000Y25300000D02*
X61511000Y22654000D01*
X61791000Y25300000D02*
X61791000Y22800000D01*
X60831000Y30276000D02*
X60831000Y27380000D01*
X59750000Y30420000D02*
X59750000Y22260000D01*
X61391000Y30080000D02*
X61391000Y27380000D01*
X61311000Y25300000D02*
X61311000Y22566000D01*
X61071000Y30203000D02*
X61071000Y27380000D01*
X61431000Y25300000D02*
X61431000Y22618000D01*
X61711000Y25300000D02*
X61711000Y22756000D01*
X62991000Y28845000D02*
X62991000Y23835000D01*
X63311000Y28374000D02*
X63311000Y24306000D01*
X61471000Y25300000D02*
X61471000Y22636000D01*
X60150000Y30401000D02*
X60150000Y22279000D01*
X60991000Y30229000D02*
X60991000Y27380000D01*
X60070000Y30408000D02*
X60070000Y22272000D01*
X61631000Y29967000D02*
X61631000Y27380000D01*
X62471000Y29395000D02*
X62471000Y27380000D01*
X62391000Y25300000D02*
X62391000Y23216000D01*
X62191000Y25300000D02*
X62191000Y23060000D01*
X60270000Y30388000D02*
X60270000Y22292000D01*
X62431000Y25300000D02*
X62431000Y23250000D01*
X55340302Y28655000D02*
X56140302Y28655000D01*
X63751000Y27288000D02*
X63751000Y25392000D01*
X61631000Y25300000D02*
X61631000Y22713000D01*
X61911000Y29809000D02*
X61911000Y27380000D01*
X59950000Y30416000D02*
X59950000Y22264000D01*
X60951000Y30242000D02*
X60951000Y27380000D01*
X61271000Y30130000D02*
X61271000Y27380000D01*
X59830000Y30420000D02*
X59830000Y22260000D01*
X60671000Y25300000D02*
X60671000Y22364000D01*
X61311000Y30114000D02*
X61311000Y27380000D01*
X61711000Y29924000D02*
X61711000Y27380000D01*
X60711000Y25300000D02*
X60711000Y22373000D01*
X60551000Y30342000D02*
X60551000Y27380000D01*
X63271000Y28442000D02*
X63271000Y24238000D01*
X61031000Y30217000D02*
X61031000Y27380000D01*
X61111000Y25300000D02*
X61111000Y22490000D01*
X63351000Y28304000D02*
X63351000Y24376000D01*
X61351000Y30097000D02*
X61351000Y27380000D01*
X62711000Y29166000D02*
X62711000Y23514000D01*
X62151000Y25300000D02*
X62151000Y23031000D01*
X61991000Y25300000D02*
X61991000Y22922000D01*
X61151000Y25300000D02*
X61151000Y22505000D01*
X61751000Y25300000D02*
X61751000Y22778000D01*
X60911000Y25300000D02*
X60911000Y22426000D01*
X63591000Y27793000D02*
X63591000Y24887000D01*
X60030000Y30411000D02*
X60030000Y22269000D01*
X60230000Y30392000D02*
X60230000Y22288000D01*
X60751000Y30297000D02*
X60751000Y27380000D01*
X63870000Y26340000D02*
G75*
G03*
X63870000Y26340000I-4120000J0D01*
G01*
X22736000Y43565000D02*
X22580000Y43565000D01*
X20420000Y43565000D02*
X20264000Y43565000D01*
X22579837Y40963870D02*
G75*
G03*
X22580000Y43045961I-1079837J1041130D01*
G01*
X22578608Y40332665D02*
G75*
G03*
X22735516Y43565000I-1078608J1672335D01*
G01*
X20420000Y43045961D02*
G75*
G03*
X20420163Y40963870I1080000J-1040961D01*
G01*
X20264484Y43565000D02*
G75*
G03*
X20421392Y40332665I1235516J-1560000D01*
G01*
X17720000Y32490000D02*
X13180000Y32490000D01*
X13180000Y30350000D02*
X13180000Y30365000D01*
X13180000Y32475000D02*
X13180000Y32490000D01*
X17720000Y32475000D02*
X17720000Y32490000D01*
X17720000Y30350000D02*
X17720000Y30365000D01*
X17720000Y30350000D02*
X13180000Y30350000D01*
X31300000Y40660000D02*
X27460000Y40660000D01*
X31300000Y42500000D02*
X27460000Y42500000D01*
X61831000Y38747000D02*
X61831000Y36270000D01*
X61711000Y34190000D02*
X61711000Y31646000D01*
X60270000Y39278000D02*
X60270000Y31182000D01*
X62751000Y38014000D02*
X62751000Y32446000D01*
X63551000Y36782000D02*
X63551000Y33678000D01*
X61871000Y34190000D02*
X61871000Y31737000D01*
X63831000Y35763000D02*
X63831000Y34697000D01*
X60230000Y39282000D02*
X60230000Y31178000D01*
X60711000Y34190000D02*
X60711000Y31263000D01*
X59990000Y39304000D02*
X59990000Y31156000D01*
X60871000Y34190000D02*
X60871000Y31305000D01*
X62111000Y38568000D02*
X62111000Y36270000D01*
X61431000Y34190000D02*
X61431000Y31508000D01*
X61071000Y34190000D02*
X61071000Y31367000D01*
X62591000Y38175000D02*
X62591000Y32285000D01*
X62991000Y37735000D02*
X62991000Y32725000D01*
X62311000Y34190000D02*
X62311000Y32041000D01*
X55340302Y37545000D02*
X56140302Y37545000D01*
X63711000Y36328000D02*
X63711000Y34132000D01*
X62631000Y38137000D02*
X62631000Y32323000D01*
X59910000Y39307000D02*
X59910000Y31153000D01*
X60791000Y39177000D02*
X60791000Y36270000D01*
X61511000Y34190000D02*
X61511000Y31544000D01*
X62231000Y34190000D02*
X62231000Y31980000D01*
X62671000Y38097000D02*
X62671000Y32363000D01*
X60190000Y39287000D02*
X60190000Y31173000D01*
X60390000Y39260000D02*
X60390000Y31200000D01*
X61311000Y34190000D02*
X61311000Y31456000D01*
X63071000Y37630000D02*
X63071000Y32830000D01*
X61911000Y38699000D02*
X61911000Y36270000D01*
X60070000Y39298000D02*
X60070000Y31162000D01*
X60871000Y39155000D02*
X60871000Y36270000D01*
X61311000Y39004000D02*
X61311000Y36270000D01*
X59750000Y39310000D02*
X59750000Y31150000D01*
X61391000Y34190000D02*
X61391000Y31490000D01*
X61031000Y34190000D02*
X61031000Y31353000D01*
X62471000Y38285000D02*
X62471000Y36270000D01*
X60551000Y39232000D02*
X60551000Y36270000D01*
X61191000Y34190000D02*
X61191000Y31409000D01*
X55740302Y37945000D02*
X55740302Y37145000D01*
X62071000Y38595000D02*
X62071000Y36270000D01*
X59950000Y39306000D02*
X59950000Y31154000D01*
X60791000Y34190000D02*
X60791000Y31283000D01*
X62031000Y34190000D02*
X62031000Y31838000D01*
X60471000Y34190000D02*
X60471000Y31213000D01*
X62951000Y37786000D02*
X62951000Y32674000D01*
X62191000Y38510000D02*
X62191000Y36270000D01*
X63231000Y37396000D02*
X63231000Y33064000D01*
X60551000Y34190000D02*
X60551000Y31228000D01*
X62351000Y34190000D02*
X62351000Y32074000D01*
X63511000Y36875000D02*
X63511000Y33585000D01*
X61031000Y39107000D02*
X61031000Y36270000D01*
X62431000Y38320000D02*
X62431000Y36270000D01*
X61551000Y34190000D02*
X61551000Y31564000D01*
X62911000Y37834000D02*
X62911000Y32626000D01*
X61351000Y34190000D02*
X61351000Y31473000D01*
X62791000Y37971000D02*
X62791000Y32489000D01*
X61671000Y38836000D02*
X61671000Y36270000D01*
X60110000Y39295000D02*
X60110000Y31165000D01*
X61591000Y34190000D02*
X61591000Y31583000D01*
X60591000Y39224000D02*
X60591000Y36270000D01*
X63031000Y37684000D02*
X63031000Y32776000D01*
X60631000Y39215000D02*
X60631000Y36270000D01*
X61631000Y34190000D02*
X61631000Y31603000D01*
X61791000Y38770000D02*
X61791000Y36270000D01*
X59870000Y39309000D02*
X59870000Y31151000D01*
X63151000Y37517000D02*
X63151000Y32943000D01*
X60951000Y39132000D02*
X60951000Y36270000D01*
X63191000Y37458000D02*
X63191000Y33002000D01*
X63311000Y37264000D02*
X63311000Y33196000D01*
X62311000Y38419000D02*
X62311000Y36270000D01*
X60831000Y39166000D02*
X60831000Y36270000D01*
X61191000Y39051000D02*
X61191000Y36270000D01*
X60831000Y34190000D02*
X60831000Y31294000D01*
X61671000Y34190000D02*
X61671000Y31624000D01*
X61991000Y38648000D02*
X61991000Y36270000D01*
X60991000Y39119000D02*
X60991000Y36270000D01*
X62471000Y34190000D02*
X62471000Y32175000D01*
X62711000Y38056000D02*
X62711000Y32404000D01*
X63631000Y36576000D02*
X63631000Y33884000D01*
X62511000Y38249000D02*
X62511000Y36270000D01*
X61551000Y38896000D02*
X61551000Y36270000D01*
X60310000Y39272000D02*
X60310000Y31188000D01*
X60751000Y39187000D02*
X60751000Y36270000D01*
X60631000Y34190000D02*
X60631000Y31245000D01*
X62431000Y34190000D02*
X62431000Y32140000D01*
X61751000Y38792000D02*
X61751000Y36270000D01*
X61951000Y38674000D02*
X61951000Y36270000D01*
X61391000Y38970000D02*
X61391000Y36270000D01*
X60430000Y39254000D02*
X60430000Y31206000D01*
X62391000Y38354000D02*
X62391000Y36270000D01*
X62271000Y38450000D02*
X62271000Y36270000D01*
X60030000Y39301000D02*
X60030000Y31159000D01*
X61951000Y34190000D02*
X61951000Y31786000D01*
X63111000Y37575000D02*
X63111000Y32885000D01*
X61471000Y34190000D02*
X61471000Y31526000D01*
X61231000Y39035000D02*
X61231000Y36270000D01*
X62831000Y37927000D02*
X62831000Y32533000D01*
X61591000Y38877000D02*
X61591000Y36270000D01*
X62111000Y34190000D02*
X62111000Y31892000D01*
X62871000Y37881000D02*
X62871000Y32579000D01*
X61631000Y38857000D02*
X61631000Y36270000D01*
X61271000Y34190000D02*
X61271000Y31440000D01*
X61751000Y34190000D02*
X61751000Y31668000D01*
X62271000Y34190000D02*
X62271000Y32010000D01*
X62191000Y34190000D02*
X62191000Y31950000D01*
X62151000Y38539000D02*
X62151000Y36270000D01*
X61231000Y34190000D02*
X61231000Y31425000D01*
X60911000Y39144000D02*
X60911000Y36270000D01*
X63471000Y36961000D02*
X63471000Y33499000D01*
X61271000Y39020000D02*
X61271000Y36270000D01*
X61911000Y34190000D02*
X61911000Y31761000D01*
X63751000Y36178000D02*
X63751000Y34282000D01*
X60751000Y34190000D02*
X60751000Y31273000D01*
X60150000Y39291000D02*
X60150000Y31169000D01*
X63791000Y35998000D02*
X63791000Y34462000D01*
X59790000Y39310000D02*
X59790000Y31150000D01*
X62551000Y38213000D02*
X62551000Y32247000D01*
X61871000Y38723000D02*
X61871000Y36270000D01*
X62511000Y34190000D02*
X62511000Y32211000D01*
X63391000Y37120000D02*
X63391000Y33340000D01*
X61791000Y34190000D02*
X61791000Y31690000D01*
X62151000Y34190000D02*
X62151000Y31921000D01*
X59830000Y39310000D02*
X59830000Y31150000D01*
X62351000Y38386000D02*
X62351000Y36270000D01*
X61151000Y34190000D02*
X61151000Y31395000D01*
X63351000Y37194000D02*
X63351000Y33266000D01*
X61111000Y39080000D02*
X61111000Y36270000D01*
X60711000Y39197000D02*
X60711000Y36270000D01*
X60671000Y39206000D02*
X60671000Y36270000D01*
X62231000Y38480000D02*
X62231000Y36270000D01*
X62031000Y38622000D02*
X62031000Y36270000D01*
X61471000Y38934000D02*
X61471000Y36270000D01*
X60671000Y34190000D02*
X60671000Y31254000D01*
X61351000Y38987000D02*
X61351000Y36270000D01*
X60591000Y34190000D02*
X60591000Y31236000D01*
X63671000Y36459000D02*
X63671000Y34001000D01*
X60511000Y39240000D02*
X60511000Y36270000D01*
X60350000Y39267000D02*
X60350000Y31193000D01*
X60991000Y34190000D02*
X60991000Y31341000D01*
X61071000Y39093000D02*
X61071000Y36270000D01*
X60471000Y39247000D02*
X60471000Y36270000D01*
X62391000Y34190000D02*
X62391000Y32106000D01*
X61431000Y38952000D02*
X61431000Y36270000D01*
X61151000Y39065000D02*
X61151000Y36270000D01*
X60911000Y34190000D02*
X60911000Y31316000D01*
X63431000Y37043000D02*
X63431000Y33417000D01*
X63271000Y37332000D02*
X63271000Y33128000D01*
X61111000Y34190000D02*
X61111000Y31380000D01*
X61991000Y34190000D02*
X61991000Y31812000D01*
X61711000Y38814000D02*
X61711000Y36270000D01*
X61831000Y34190000D02*
X61831000Y31713000D01*
X60511000Y34190000D02*
X60511000Y31220000D01*
X61511000Y38916000D02*
X61511000Y36270000D01*
X62071000Y34190000D02*
X62071000Y31865000D01*
X63591000Y36683000D02*
X63591000Y33777000D01*
X60951000Y34190000D02*
X60951000Y31328000D01*
X63870000Y35230000D02*
G75*
G03*
X63870000Y35230000I-4120000J0D01*
G01*
X34230000Y31001000D02*
X35519000Y31001000D01*
X30861000Y31001000D02*
X32150000Y31001000D01*
X34230000Y30320000D02*
X35733000Y30320000D01*
X34230000Y30560000D02*
X35681000Y30560000D01*
X34230000Y31681000D02*
X35054000Y31681000D01*
X34230000Y31361000D02*
X35312000Y31361000D01*
X30922000Y31121000D02*
X32150000Y31121000D01*
X34230000Y30240000D02*
X35746000Y30240000D01*
X34230000Y30761000D02*
X35618000Y30761000D01*
X34230000Y30040000D02*
X35766000Y30040000D01*
X34230000Y30681000D02*
X35645000Y30681000D01*
X34230000Y31401000D02*
X35285000Y31401000D01*
X34230000Y31081000D02*
X35480000Y31081000D01*
X32012000Y32201000D02*
X34368000Y32201000D01*
X34230000Y30480000D02*
X35701000Y30480000D01*
X34230000Y30520000D02*
X35691000Y30520000D01*
X30689000Y30520000D02*
X32150000Y30520000D01*
X34230000Y30881000D02*
X35572000Y30881000D01*
X31041000Y31321000D02*
X32150000Y31321000D01*
X31807000Y32081000D02*
X34573000Y32081000D01*
X34230000Y30921000D02*
X35555000Y30921000D01*
X31537000Y31881000D02*
X32150000Y31881000D01*
X30629000Y30200000D02*
X32150000Y30200000D01*
X34230000Y30360000D02*
X35726000Y30360000D01*
X34230000Y30000000D02*
X35768000Y30000000D01*
X32179000Y32281000D02*
X34201000Y32281000D01*
X30710000Y30601000D02*
X32150000Y30601000D01*
X31405000Y31761000D02*
X32150000Y31761000D01*
X34230000Y29880000D02*
X35770000Y29880000D01*
X30943000Y31161000D02*
X32150000Y31161000D01*
X34230000Y31561000D02*
X35161000Y31561000D01*
X34230000Y31121000D02*
X35458000Y31121000D01*
X34230000Y31881000D02*
X34843000Y31881000D01*
X34230000Y31641000D02*
X35091000Y31641000D01*
X31253000Y31601000D02*
X32150000Y31601000D01*
X34230000Y30961000D02*
X35538000Y30961000D01*
X31636000Y31961000D02*
X34744000Y31961000D01*
X31747000Y32041000D02*
X34633000Y32041000D01*
X34230000Y31481000D02*
X35225000Y31481000D01*
X34230000Y31521000D02*
X35194000Y31521000D01*
X30617000Y30080000D02*
X32150000Y30080000D01*
X31465000Y27325225D02*
X31965000Y27325225D01*
X30966000Y31201000D02*
X32150000Y31201000D01*
X34230000Y31441000D02*
X35255000Y31441000D01*
X30654000Y30360000D02*
X32150000Y30360000D01*
X32385000Y32361000D02*
X33995000Y32361000D01*
X31447000Y31801000D02*
X32150000Y31801000D01*
X30621000Y30120000D02*
X32150000Y30120000D01*
X31364000Y31721000D02*
X32150000Y31721000D01*
X32513000Y32401000D02*
X33867000Y32401000D01*
X34230000Y31281000D02*
X35365000Y31281000D01*
X30776000Y30801000D02*
X32150000Y30801000D01*
X32672000Y32441000D02*
X33708000Y32441000D01*
X34230000Y30120000D02*
X35759000Y30120000D01*
X34230000Y29920000D02*
X35770000Y29920000D01*
X31871000Y32121000D02*
X34509000Y32121000D01*
X32275000Y32321000D02*
X34105000Y32321000D01*
X30842000Y30961000D02*
X32150000Y30961000D01*
X31326000Y31681000D02*
X32150000Y31681000D01*
X34230000Y30160000D02*
X35755000Y30160000D01*
X31186000Y31521000D02*
X32150000Y31521000D01*
X34230000Y31161000D02*
X35437000Y31161000D01*
X30990000Y31241000D02*
X32150000Y31241000D01*
X30611000Y29960000D02*
X32150000Y29960000D01*
X32906000Y32481000D02*
X33474000Y32481000D01*
X30610000Y29920000D02*
X32150000Y29920000D01*
X34230000Y31721000D02*
X35016000Y31721000D01*
X30679000Y30480000D02*
X32150000Y30480000D01*
X30614000Y30040000D02*
X32150000Y30040000D01*
X31015000Y31281000D02*
X32150000Y31281000D01*
X31939000Y32161000D02*
X34441000Y32161000D01*
X31491000Y31841000D02*
X32150000Y31841000D01*
X30699000Y30560000D02*
X32150000Y30560000D01*
X34230000Y30440000D02*
X35710000Y30440000D01*
X30762000Y30761000D02*
X32150000Y30761000D01*
X30662000Y30400000D02*
X32150000Y30400000D01*
X34230000Y30641000D02*
X35658000Y30641000D01*
X34230000Y31321000D02*
X35339000Y31321000D01*
X31715000Y27075225D02*
X31715000Y27575225D01*
X31125000Y31441000D02*
X32150000Y31441000D01*
X30735000Y30681000D02*
X32150000Y30681000D01*
X30748000Y30721000D02*
X32150000Y30721000D01*
X30808000Y30881000D02*
X32150000Y30881000D01*
X30647000Y30320000D02*
X32150000Y30320000D01*
X31585000Y31921000D02*
X34795000Y31921000D01*
X34230000Y31241000D02*
X35390000Y31241000D01*
X30640000Y30280000D02*
X32150000Y30280000D01*
X31155000Y31481000D02*
X32150000Y31481000D01*
X34230000Y29960000D02*
X35769000Y29960000D01*
X30625000Y30160000D02*
X32150000Y30160000D01*
X34230000Y30601000D02*
X35670000Y30601000D01*
X31690000Y32001000D02*
X34690000Y32001000D01*
X30900000Y31081000D02*
X32150000Y31081000D01*
X30825000Y30921000D02*
X32150000Y30921000D01*
X31289000Y31641000D02*
X32150000Y31641000D01*
X30612000Y30000000D02*
X32150000Y30000000D01*
X32092000Y32241000D02*
X34288000Y32241000D01*
X34230000Y31041000D02*
X35500000Y31041000D01*
X31068000Y31361000D02*
X32150000Y31361000D01*
X34230000Y31761000D02*
X34975000Y31761000D01*
X31095000Y31401000D02*
X32150000Y31401000D01*
X30634000Y30240000D02*
X32150000Y30240000D01*
X34230000Y30080000D02*
X35763000Y30080000D01*
X34230000Y30200000D02*
X35751000Y30200000D01*
X30670000Y30440000D02*
X32150000Y30440000D01*
X30792000Y30841000D02*
X32150000Y30841000D01*
X30722000Y30641000D02*
X32150000Y30641000D01*
X34230000Y31801000D02*
X34933000Y31801000D01*
X34230000Y31841000D02*
X34889000Y31841000D01*
X34230000Y30841000D02*
X35588000Y30841000D01*
X31219000Y31561000D02*
X32150000Y31561000D01*
X34230000Y31201000D02*
X35414000Y31201000D01*
X34230000Y30801000D02*
X35604000Y30801000D01*
X30610000Y29880000D02*
X32150000Y29880000D01*
X34230000Y30400000D02*
X35718000Y30400000D01*
X34230000Y30721000D02*
X35632000Y30721000D01*
X34230000Y31601000D02*
X35127000Y31601000D01*
X34230000Y30280000D02*
X35740000Y30280000D01*
X30880000Y31041000D02*
X32150000Y31041000D01*
X35810000Y29880000D02*
G75*
G03*
X35810000Y29880000I-2620000J0D01*
G01*
X17720000Y29935000D02*
X17720000Y29950000D01*
X17720000Y27810000D02*
X17720000Y27825000D01*
X13180000Y29935000D02*
X13180000Y29950000D01*
X17720000Y29950000D02*
X13180000Y29950000D01*
X13180000Y27810000D02*
X13180000Y27825000D01*
X17720000Y27810000D02*
X13180000Y27810000D01*
X8440000Y17800000D02*
X4600000Y17800000D01*
X8440000Y19640000D02*
X4600000Y19640000D01*
X51620000Y32340000D02*
X47780000Y32340000D01*
X51620000Y30500000D02*
X47780000Y30500000D01*
X70640000Y26130000D02*
X70640000Y26630000D01*
X70000000Y26130000D02*
X70640000Y26130000D01*
X65750000Y26380000D02*
X70250000Y26380000D01*
X70250000Y26380000D02*
X70250000Y35380000D01*
X70250000Y35380000D02*
X65750000Y35380000D01*
X65750000Y35380000D02*
X65750000Y26380000D01*
X37620000Y23450000D02*
X41460000Y23450000D01*
X37620000Y21610000D02*
X41460000Y21610000D01*
X37635000Y2815000D02*
X37635000Y10435000D01*
X38270000Y2815000D02*
X37635000Y2815000D01*
X46525000Y2815000D02*
X45890000Y2815000D01*
X37635000Y10435000D02*
X46525000Y10435000D01*
X46525000Y10435000D02*
X46525000Y2815000D01*
X24100000Y20300000D02*
X24085000Y20300000D01*
X21975000Y20300000D02*
X21960000Y20300000D01*
X24100000Y24840000D02*
X24100000Y20300000D01*
X21975000Y24840000D02*
X21960000Y24840000D01*
X21960000Y24840000D02*
X21960000Y20300000D01*
X24100000Y24840000D02*
X24085000Y24840000D01*
X22380000Y30500000D02*
X26220000Y30500000D01*
X22380000Y32340000D02*
X26220000Y32340000D01*
X4600000Y22180000D02*
X8440000Y22180000D01*
X4600000Y20340000D02*
X8440000Y20340000D01*
X44000000Y12085000D02*
X40160000Y12085000D01*
X44000000Y13925000D02*
X40160000Y13925000D01*
X37142000Y30841000D02*
X38500000Y30841000D01*
X36990000Y30280000D02*
X38500000Y30280000D01*
X40580000Y30520000D02*
X42041000Y30520000D01*
X37012000Y30400000D02*
X38500000Y30400000D01*
X36971000Y30120000D02*
X38500000Y30120000D01*
X37049000Y30560000D02*
X38500000Y30560000D01*
X37158000Y30881000D02*
X38500000Y30881000D01*
X37039000Y30520000D02*
X38500000Y30520000D01*
X37060000Y30601000D02*
X38500000Y30601000D01*
X36997000Y30320000D02*
X38500000Y30320000D01*
X38362000Y32201000D02*
X40718000Y32201000D01*
X37175000Y30921000D02*
X38500000Y30921000D01*
X40580000Y30160000D02*
X42105000Y30160000D01*
X38065000Y27075225D02*
X38065000Y27575225D01*
X40580000Y30000000D02*
X42118000Y30000000D01*
X37714000Y31721000D02*
X38500000Y31721000D01*
X36960000Y29880000D02*
X38500000Y29880000D01*
X37676000Y31681000D02*
X38500000Y31681000D01*
X39256000Y32481000D02*
X39824000Y32481000D01*
X40580000Y31041000D02*
X41850000Y31041000D01*
X37797000Y31801000D02*
X38500000Y31801000D01*
X36962000Y30000000D02*
X38500000Y30000000D01*
X40580000Y31881000D02*
X41193000Y31881000D01*
X37986000Y31961000D02*
X41094000Y31961000D01*
X38735000Y32361000D02*
X40345000Y32361000D01*
X37935000Y31921000D02*
X41145000Y31921000D01*
X38097000Y32041000D02*
X40983000Y32041000D01*
X36960000Y29920000D02*
X38500000Y29920000D01*
X37316000Y31201000D02*
X38500000Y31201000D01*
X40580000Y30560000D02*
X42031000Y30560000D01*
X40580000Y29960000D02*
X42119000Y29960000D01*
X40580000Y29880000D02*
X42120000Y29880000D01*
X40580000Y30280000D02*
X42090000Y30280000D01*
X40580000Y30240000D02*
X42096000Y30240000D01*
X40580000Y31121000D02*
X41808000Y31121000D01*
X37505000Y31481000D02*
X38500000Y31481000D01*
X38040000Y32001000D02*
X41040000Y32001000D01*
X37603000Y31601000D02*
X38500000Y31601000D01*
X40580000Y31321000D02*
X41689000Y31321000D01*
X40580000Y30681000D02*
X41995000Y30681000D01*
X40580000Y30841000D02*
X41938000Y30841000D01*
X38221000Y32121000D02*
X40859000Y32121000D01*
X37815000Y27325225D02*
X38315000Y27325225D01*
X37755000Y31761000D02*
X38500000Y31761000D01*
X40580000Y30721000D02*
X41982000Y30721000D01*
X40580000Y30480000D02*
X42051000Y30480000D01*
X40580000Y31521000D02*
X41544000Y31521000D01*
X40580000Y31001000D02*
X41869000Y31001000D01*
X37112000Y30761000D02*
X38500000Y30761000D01*
X39022000Y32441000D02*
X40058000Y32441000D01*
X37250000Y31081000D02*
X38500000Y31081000D01*
X40580000Y30921000D02*
X41905000Y30921000D01*
X40580000Y31081000D02*
X41830000Y31081000D01*
X37072000Y30641000D02*
X38500000Y30641000D01*
X37536000Y31521000D02*
X38500000Y31521000D01*
X37418000Y31361000D02*
X38500000Y31361000D01*
X38625000Y32321000D02*
X40455000Y32321000D01*
X37445000Y31401000D02*
X38500000Y31401000D01*
X40580000Y30400000D02*
X42068000Y30400000D01*
X40580000Y30080000D02*
X42113000Y30080000D01*
X40580000Y31481000D02*
X41575000Y31481000D01*
X40580000Y31201000D02*
X41764000Y31201000D01*
X40580000Y30881000D02*
X41922000Y30881000D01*
X40580000Y30641000D02*
X42008000Y30641000D01*
X40580000Y30601000D02*
X42020000Y30601000D01*
X40580000Y31841000D02*
X41239000Y31841000D01*
X40580000Y30801000D02*
X41954000Y30801000D01*
X36979000Y30200000D02*
X38500000Y30200000D01*
X36961000Y29960000D02*
X38500000Y29960000D01*
X38863000Y32401000D02*
X40217000Y32401000D01*
X37841000Y31841000D02*
X38500000Y31841000D01*
X40580000Y29920000D02*
X42120000Y29920000D01*
X40580000Y31281000D02*
X41715000Y31281000D01*
X37340000Y31241000D02*
X38500000Y31241000D01*
X37475000Y31441000D02*
X38500000Y31441000D01*
X37272000Y31121000D02*
X38500000Y31121000D01*
X40580000Y31401000D02*
X41635000Y31401000D01*
X38442000Y32241000D02*
X40638000Y32241000D01*
X36975000Y30160000D02*
X38500000Y30160000D01*
X37004000Y30360000D02*
X38500000Y30360000D01*
X40580000Y31681000D02*
X41404000Y31681000D01*
X40580000Y30200000D02*
X42101000Y30200000D01*
X37192000Y30961000D02*
X38500000Y30961000D01*
X40580000Y30360000D02*
X42076000Y30360000D01*
X40580000Y30961000D02*
X41888000Y30961000D01*
X40580000Y31361000D02*
X41662000Y31361000D01*
X40580000Y31601000D02*
X41477000Y31601000D01*
X36964000Y30040000D02*
X38500000Y30040000D01*
X40580000Y31441000D02*
X41605000Y31441000D01*
X37639000Y31641000D02*
X38500000Y31641000D01*
X37230000Y31041000D02*
X38500000Y31041000D01*
X37098000Y30721000D02*
X38500000Y30721000D01*
X37020000Y30440000D02*
X38500000Y30440000D01*
X36984000Y30240000D02*
X38500000Y30240000D01*
X38289000Y32161000D02*
X40791000Y32161000D01*
X37211000Y31001000D02*
X38500000Y31001000D01*
X37887000Y31881000D02*
X38500000Y31881000D01*
X40580000Y31161000D02*
X41787000Y31161000D01*
X37365000Y31281000D02*
X38500000Y31281000D01*
X40580000Y31241000D02*
X41740000Y31241000D01*
X38529000Y32281000D02*
X40551000Y32281000D01*
X37391000Y31321000D02*
X38500000Y31321000D01*
X40580000Y31761000D02*
X41325000Y31761000D01*
X37293000Y31161000D02*
X38500000Y31161000D01*
X40580000Y30440000D02*
X42060000Y30440000D01*
X40580000Y31561000D02*
X41511000Y31561000D01*
X36967000Y30080000D02*
X38500000Y30080000D01*
X38157000Y32081000D02*
X40923000Y32081000D01*
X37029000Y30480000D02*
X38500000Y30480000D01*
X40580000Y31801000D02*
X41283000Y31801000D01*
X37085000Y30681000D02*
X38500000Y30681000D01*
X40580000Y30761000D02*
X41968000Y30761000D01*
X40580000Y30120000D02*
X42109000Y30120000D01*
X40580000Y30320000D02*
X42083000Y30320000D01*
X40580000Y30040000D02*
X42116000Y30040000D01*
X40580000Y31641000D02*
X41441000Y31641000D01*
X37569000Y31561000D02*
X38500000Y31561000D01*
X37126000Y30801000D02*
X38500000Y30801000D01*
X40580000Y31721000D02*
X41366000Y31721000D01*
X42160000Y29880000D02*
G75*
G03*
X42160000Y29880000I-2620000J0D01*
G01*
X61145000Y16530000D02*
X57305000Y16530000D01*
X61145000Y18370000D02*
X57305000Y18370000D01*
X14020000Y16130000D02*
X15670000Y16130000D01*
X14020000Y26410000D02*
X14020000Y16130000D01*
X19320000Y16130000D02*
X19320000Y26410000D01*
X19320000Y26410000D02*
X14020000Y26410000D01*
X17670000Y16130000D02*
X19320000Y16130000D01*
X17670000Y16130000D02*
G75*
G03*
X15670000Y16130000I-1000000J0D01*
G01*
X69330000Y13970000D02*
X66670000Y13970000D01*
X66670000Y11370000D02*
X66670000Y13970000D01*
X69330000Y11370000D02*
X69330000Y13970000D01*
X69330000Y11370000D02*
X66670000Y11370000D01*
X69330000Y8770000D02*
X68000000Y8770000D01*
X69330000Y10100000D02*
X69330000Y8770000D01*
X53280000Y37311000D02*
X54588000Y37311000D01*
X49697000Y36670000D02*
X51200000Y36670000D01*
X53280000Y36951000D02*
X54720000Y36951000D01*
X51435000Y38711000D02*
X53045000Y38711000D01*
X50455000Y38111000D02*
X51200000Y38111000D01*
X49993000Y37511000D02*
X51200000Y37511000D01*
X53280000Y36430000D02*
X54813000Y36430000D01*
X53280000Y36510000D02*
X54805000Y36510000D01*
X53280000Y36350000D02*
X54818000Y36350000D01*
X49930000Y37391000D02*
X51200000Y37391000D01*
X50236000Y37871000D02*
X51200000Y37871000D01*
X51563000Y38751000D02*
X52917000Y38751000D01*
X53280000Y37751000D02*
X54335000Y37751000D01*
X53280000Y38191000D02*
X53939000Y38191000D01*
X53280000Y37351000D02*
X54569000Y37351000D01*
X53280000Y37991000D02*
X54141000Y37991000D01*
X50497000Y38151000D02*
X51200000Y38151000D01*
X53280000Y37271000D02*
X54605000Y37271000D01*
X49842000Y37191000D02*
X51200000Y37191000D01*
X53280000Y37591000D02*
X54440000Y37591000D01*
X50765000Y33425225D02*
X50765000Y33925225D01*
X49950000Y37431000D02*
X51200000Y37431000D01*
X49660000Y36270000D02*
X51200000Y36270000D01*
X53280000Y36470000D02*
X54809000Y36470000D01*
X53280000Y36590000D02*
X54796000Y36590000D01*
X49662000Y36350000D02*
X51200000Y36350000D01*
X49772000Y36991000D02*
X51200000Y36991000D01*
X53280000Y36991000D02*
X54708000Y36991000D01*
X49664000Y36390000D02*
X51200000Y36390000D01*
X53280000Y38111000D02*
X54025000Y38111000D01*
X53280000Y36830000D02*
X54751000Y36830000D01*
X53280000Y37951000D02*
X54177000Y37951000D01*
X53280000Y36270000D02*
X54820000Y36270000D01*
X50269000Y37911000D02*
X51200000Y37911000D01*
X50857000Y38431000D02*
X53623000Y38431000D01*
X53280000Y36390000D02*
X54816000Y36390000D01*
X50414000Y38071000D02*
X51200000Y38071000D01*
X53280000Y36790000D02*
X54760000Y36790000D01*
X50175000Y37791000D02*
X51200000Y37791000D01*
X49720000Y36790000D02*
X51200000Y36790000D01*
X49798000Y37071000D02*
X51200000Y37071000D01*
X53280000Y36870000D02*
X54741000Y36870000D01*
X53280000Y38151000D02*
X53983000Y38151000D01*
X51142000Y38591000D02*
X53338000Y38591000D01*
X50989000Y38511000D02*
X53491000Y38511000D01*
X50118000Y37711000D02*
X51200000Y37711000D01*
X53280000Y36230000D02*
X54820000Y36230000D01*
X53280000Y38071000D02*
X54066000Y38071000D01*
X50376000Y38031000D02*
X51200000Y38031000D01*
X49667000Y36430000D02*
X51200000Y36430000D01*
X50065000Y37631000D02*
X51200000Y37631000D01*
X49671000Y36470000D02*
X51200000Y36470000D01*
X50016000Y37551000D02*
X51200000Y37551000D01*
X53280000Y37031000D02*
X54695000Y37031000D01*
X51325000Y38671000D02*
X53155000Y38671000D01*
X49760000Y36951000D02*
X51200000Y36951000D01*
X53280000Y36550000D02*
X54801000Y36550000D01*
X51722000Y38791000D02*
X52758000Y38791000D01*
X53280000Y38231000D02*
X53893000Y38231000D01*
X50515000Y33675225D02*
X51015000Y33675225D01*
X53280000Y36910000D02*
X54731000Y36910000D01*
X49972000Y37471000D02*
X51200000Y37471000D01*
X51229000Y38631000D02*
X53251000Y38631000D01*
X53280000Y37471000D02*
X54508000Y37471000D01*
X49858000Y37231000D02*
X51200000Y37231000D01*
X49660000Y36230000D02*
X51200000Y36230000D01*
X50686000Y38311000D02*
X53794000Y38311000D01*
X53280000Y36310000D02*
X54819000Y36310000D01*
X49875000Y37271000D02*
X51200000Y37271000D01*
X53280000Y37511000D02*
X54487000Y37511000D01*
X50541000Y38191000D02*
X51200000Y38191000D01*
X49911000Y37351000D02*
X51200000Y37351000D01*
X53280000Y38031000D02*
X54104000Y38031000D01*
X53280000Y37071000D02*
X54682000Y37071000D01*
X49712000Y36750000D02*
X51200000Y36750000D01*
X53280000Y37871000D02*
X54244000Y37871000D01*
X53280000Y36670000D02*
X54783000Y36670000D01*
X50145000Y37751000D02*
X51200000Y37751000D01*
X53280000Y37911000D02*
X54211000Y37911000D01*
X50797000Y38391000D02*
X53683000Y38391000D01*
X53280000Y37631000D02*
X54415000Y37631000D01*
X53280000Y37671000D02*
X54389000Y37671000D01*
X50740000Y38351000D02*
X53740000Y38351000D01*
X49690000Y36630000D02*
X51200000Y36630000D01*
X50205000Y37831000D02*
X51200000Y37831000D01*
X53280000Y37391000D02*
X54550000Y37391000D01*
X49684000Y36590000D02*
X51200000Y36590000D01*
X50091000Y37671000D02*
X51200000Y37671000D01*
X53280000Y37791000D02*
X54305000Y37791000D01*
X53280000Y36750000D02*
X54768000Y36750000D01*
X53280000Y37711000D02*
X54362000Y37711000D01*
X49826000Y37151000D02*
X51200000Y37151000D01*
X49704000Y36710000D02*
X51200000Y36710000D01*
X51956000Y38831000D02*
X52524000Y38831000D01*
X50921000Y38471000D02*
X53559000Y38471000D01*
X49729000Y36830000D02*
X51200000Y36830000D01*
X50040000Y37591000D02*
X51200000Y37591000D01*
X50587000Y38231000D02*
X51200000Y38231000D01*
X49679000Y36550000D02*
X51200000Y36550000D01*
X53280000Y37111000D02*
X54668000Y37111000D01*
X51062000Y38551000D02*
X53418000Y38551000D01*
X53280000Y37231000D02*
X54622000Y37231000D01*
X49739000Y36870000D02*
X51200000Y36870000D01*
X49812000Y37111000D02*
X51200000Y37111000D01*
X53280000Y37191000D02*
X54638000Y37191000D01*
X53280000Y37431000D02*
X54530000Y37431000D01*
X53280000Y36710000D02*
X54776000Y36710000D01*
X50303000Y37951000D02*
X51200000Y37951000D01*
X53280000Y36630000D02*
X54790000Y36630000D01*
X50635000Y38271000D02*
X53845000Y38271000D01*
X49785000Y37031000D02*
X51200000Y37031000D01*
X49675000Y36510000D02*
X51200000Y36510000D01*
X53280000Y37151000D02*
X54654000Y37151000D01*
X49749000Y36910000D02*
X51200000Y36910000D01*
X50339000Y37991000D02*
X51200000Y37991000D01*
X53280000Y37551000D02*
X54464000Y37551000D01*
X49892000Y37311000D02*
X51200000Y37311000D01*
X53280000Y37831000D02*
X54275000Y37831000D01*
X49661000Y36310000D02*
X51200000Y36310000D01*
X54860000Y36230000D02*
G75*
G03*
X54860000Y36230000I-2620000J0D01*
G01*
X58695000Y44060000D02*
X57964000Y44060000D01*
X56505000Y41940000D02*
X55945000Y41940000D01*
X60945000Y41940000D02*
X60945000Y44060000D01*
X61065000Y44060000D02*
X60855000Y44060000D01*
X61065000Y41940000D02*
X61065000Y44060000D01*
X58695000Y41940000D02*
X57964000Y41940000D01*
X56505000Y44060000D02*
X55945000Y44060000D01*
X61065000Y41940000D02*
X60855000Y41940000D01*
X55945000Y41940000D02*
X55945000Y44060000D01*
X37620000Y16530000D02*
X41460000Y16530000D01*
X37620000Y18370000D02*
X41460000Y18370000D01*
X27880000Y37311000D02*
X29188000Y37311000D01*
X24267000Y36430000D02*
X25800000Y36430000D01*
X24426000Y37151000D02*
X25800000Y37151000D01*
X24775000Y37791000D02*
X25800000Y37791000D01*
X27880000Y38071000D02*
X28666000Y38071000D01*
X24572000Y37471000D02*
X25800000Y37471000D01*
X24511000Y37351000D02*
X25800000Y37351000D01*
X25521000Y38471000D02*
X28159000Y38471000D01*
X24372000Y36991000D02*
X25800000Y36991000D01*
X26556000Y38831000D02*
X27124000Y38831000D01*
X27880000Y36470000D02*
X29409000Y36470000D01*
X27880000Y36670000D02*
X29383000Y36670000D01*
X24718000Y37711000D02*
X25800000Y37711000D01*
X24339000Y36870000D02*
X25800000Y36870000D01*
X24475000Y37271000D02*
X25800000Y37271000D01*
X27880000Y37591000D02*
X29040000Y37591000D01*
X27880000Y36710000D02*
X29376000Y36710000D01*
X27880000Y37871000D02*
X28844000Y37871000D01*
X27880000Y36230000D02*
X29420000Y36230000D01*
X24665000Y37631000D02*
X25800000Y37631000D01*
X27880000Y37711000D02*
X28962000Y37711000D01*
X25742000Y38591000D02*
X27938000Y38591000D01*
X24271000Y36470000D02*
X25800000Y36470000D01*
X25925000Y38671000D02*
X27755000Y38671000D01*
X27880000Y36630000D02*
X29390000Y36630000D01*
X24320000Y36790000D02*
X25800000Y36790000D01*
X27880000Y37471000D02*
X29108000Y37471000D01*
X24360000Y36951000D02*
X25800000Y36951000D01*
X25115000Y33675225D02*
X25615000Y33675225D01*
X24261000Y36310000D02*
X25800000Y36310000D01*
X27880000Y36430000D02*
X29413000Y36430000D01*
X24275000Y36510000D02*
X25800000Y36510000D01*
X24398000Y37071000D02*
X25800000Y37071000D01*
X27880000Y36870000D02*
X29341000Y36870000D01*
X27880000Y37151000D02*
X29254000Y37151000D01*
X25340000Y38351000D02*
X28340000Y38351000D01*
X25829000Y38631000D02*
X27851000Y38631000D01*
X27880000Y37431000D02*
X29130000Y37431000D01*
X24976000Y38031000D02*
X25800000Y38031000D01*
X27880000Y37191000D02*
X29238000Y37191000D01*
X24869000Y37911000D02*
X25800000Y37911000D01*
X27880000Y38111000D02*
X28625000Y38111000D01*
X24284000Y36590000D02*
X25800000Y36590000D01*
X24836000Y37871000D02*
X25800000Y37871000D01*
X27880000Y36991000D02*
X29308000Y36991000D01*
X24939000Y37991000D02*
X25800000Y37991000D01*
X25286000Y38311000D02*
X28394000Y38311000D01*
X25589000Y38511000D02*
X28091000Y38511000D01*
X27880000Y36310000D02*
X29419000Y36310000D01*
X24262000Y36350000D02*
X25800000Y36350000D01*
X27880000Y37031000D02*
X29295000Y37031000D01*
X27880000Y37391000D02*
X29150000Y37391000D01*
X26035000Y38711000D02*
X27645000Y38711000D01*
X24349000Y36910000D02*
X25800000Y36910000D01*
X27880000Y38151000D02*
X28583000Y38151000D01*
X24264000Y36390000D02*
X25800000Y36390000D01*
X27880000Y36590000D02*
X29396000Y36590000D01*
X24385000Y37031000D02*
X25800000Y37031000D01*
X24593000Y37511000D02*
X25800000Y37511000D01*
X24640000Y37591000D02*
X25800000Y37591000D01*
X27880000Y36550000D02*
X29401000Y36550000D01*
X27880000Y37791000D02*
X28905000Y37791000D01*
X24260000Y36270000D02*
X25800000Y36270000D01*
X27880000Y38231000D02*
X28493000Y38231000D01*
X27880000Y37911000D02*
X28811000Y37911000D01*
X27880000Y37111000D02*
X29268000Y37111000D01*
X27880000Y37751000D02*
X28935000Y37751000D01*
X24260000Y36230000D02*
X25800000Y36230000D01*
X27880000Y38031000D02*
X28704000Y38031000D01*
X27880000Y37071000D02*
X29282000Y37071000D01*
X24442000Y37191000D02*
X25800000Y37191000D01*
X27880000Y36350000D02*
X29418000Y36350000D01*
X27880000Y37511000D02*
X29087000Y37511000D01*
X25014000Y38071000D02*
X25800000Y38071000D01*
X25662000Y38551000D02*
X28018000Y38551000D01*
X24458000Y37231000D02*
X25800000Y37231000D01*
X25187000Y38231000D02*
X25800000Y38231000D01*
X27880000Y36790000D02*
X29360000Y36790000D01*
X24290000Y36630000D02*
X25800000Y36630000D01*
X24745000Y37751000D02*
X25800000Y37751000D01*
X27880000Y37831000D02*
X28875000Y37831000D01*
X24329000Y36830000D02*
X25800000Y36830000D01*
X27880000Y37351000D02*
X29169000Y37351000D01*
X24492000Y37311000D02*
X25800000Y37311000D01*
X26322000Y38791000D02*
X27358000Y38791000D01*
X24903000Y37951000D02*
X25800000Y37951000D01*
X24550000Y37431000D02*
X25800000Y37431000D01*
X27880000Y37991000D02*
X28741000Y37991000D01*
X27880000Y36270000D02*
X29420000Y36270000D01*
X25141000Y38191000D02*
X25800000Y38191000D01*
X27880000Y36390000D02*
X29416000Y36390000D01*
X25457000Y38431000D02*
X28223000Y38431000D01*
X27880000Y37671000D02*
X28989000Y37671000D01*
X24616000Y37551000D02*
X25800000Y37551000D01*
X27880000Y36750000D02*
X29368000Y36750000D01*
X27880000Y38191000D02*
X28539000Y38191000D01*
X24805000Y37831000D02*
X25800000Y37831000D01*
X24297000Y36670000D02*
X25800000Y36670000D01*
X27880000Y37231000D02*
X29222000Y37231000D01*
X27880000Y37551000D02*
X29064000Y37551000D01*
X24279000Y36550000D02*
X25800000Y36550000D01*
X27880000Y37271000D02*
X29205000Y37271000D01*
X25365000Y33425225D02*
X25365000Y33925225D01*
X24312000Y36750000D02*
X25800000Y36750000D01*
X27880000Y36910000D02*
X29331000Y36910000D01*
X27880000Y36830000D02*
X29351000Y36830000D01*
X27880000Y36510000D02*
X29405000Y36510000D01*
X25055000Y38111000D02*
X25800000Y38111000D01*
X24304000Y36710000D02*
X25800000Y36710000D01*
X26163000Y38751000D02*
X27517000Y38751000D01*
X27880000Y37951000D02*
X28777000Y37951000D01*
X27880000Y37631000D02*
X29015000Y37631000D01*
X25235000Y38271000D02*
X28445000Y38271000D01*
X24691000Y37671000D02*
X25800000Y37671000D01*
X27880000Y36951000D02*
X29320000Y36951000D01*
X24530000Y37391000D02*
X25800000Y37391000D01*
X25397000Y38391000D02*
X28283000Y38391000D01*
X24412000Y37111000D02*
X25800000Y37111000D01*
X25097000Y38151000D02*
X25800000Y38151000D01*
X29460000Y36230000D02*
G75*
G03*
X29460000Y36230000I-2620000J0D01*
G01*
X22380000Y27960000D02*
X26220000Y27960000D01*
X22380000Y29800000D02*
X26220000Y29800000D01*
X8440000Y22880000D02*
X4600000Y22880000D01*
X8440000Y24720000D02*
X4600000Y24720000D01*
X12235000Y35330000D02*
X12235000Y35330000D01*
X10545000Y39120000D02*
X10945000Y39120000D01*
X10945000Y38000000D02*
X10545000Y38000000D01*
X10545000Y38000000D02*
X10545000Y39120000D01*
X14775000Y35330000D02*
X14775000Y35330000D01*
X12235000Y35330000D02*
X12235000Y38000000D01*
X16065000Y38000000D02*
X10945000Y38000000D01*
X12235000Y38000000D02*
X12235000Y35330000D01*
X10945000Y39120000D02*
X10945000Y38000000D01*
X14775000Y35330000D02*
X14775000Y38000000D01*
X12235000Y38000000D02*
X12235000Y38000000D01*
X14775000Y38000000D02*
X14775000Y35330000D01*
X16065000Y38000000D02*
X16065000Y44160000D01*
X10945000Y38000000D02*
X10945000Y44160000D01*
X14775000Y38000000D02*
X14775000Y38000000D01*
X16065000Y44160000D02*
G75*
G03*
X10945000Y44160000I-2560000J0D01*
G01*
X56558000Y10435000D02*
X56558000Y2815000D01*
X47668000Y2815000D02*
X47668000Y10435000D01*
X47668000Y10435000D02*
X56558000Y10435000D01*
X48303000Y2815000D02*
X47668000Y2815000D01*
X56558000Y2815000D02*
X55923000Y2815000D01*
D10*
X57749000Y13340000D02*
X63749000Y13340000D01*
X57749000Y1240000D02*
X57749000Y13340000D01*
X63249000Y-760000D02*
X63249000Y1240000D01*
X58249000Y-760000D02*
X63249000Y-760000D01*
X58249000Y-760000D02*
X58249000Y1240000D01*
X63749000Y1240000D02*
X57749000Y1240000D01*
X63749000Y13340000D02*
X63749000Y1240000D01*
D12*
X50320000Y13925000D02*
X54160000Y13925000D01*
X50320000Y12085000D02*
X54160000Y12085000D01*
X52340000Y26410000D02*
X47040000Y26410000D01*
X47040000Y16130000D02*
X48690000Y16130000D01*
X52340000Y16130000D02*
X52340000Y26410000D01*
X47040000Y26410000D02*
X47040000Y16130000D01*
X50690000Y16130000D02*
X52340000Y16130000D01*
X50690000Y16130000D02*
G75*
G03*
X48690000Y16130000I-1000000J0D01*
G01*
X43476000Y37151000D02*
X44850000Y37151000D01*
X46930000Y36510000D02*
X48455000Y36510000D01*
X43314000Y36390000D02*
X44850000Y36390000D01*
X46930000Y36270000D02*
X48470000Y36270000D01*
X43795000Y37751000D02*
X44850000Y37751000D01*
X45213000Y38751000D02*
X46567000Y38751000D01*
X43855000Y37831000D02*
X44850000Y37831000D01*
X43410000Y36951000D02*
X44850000Y36951000D01*
X46930000Y36230000D02*
X48470000Y36230000D01*
X46930000Y36750000D02*
X48418000Y36750000D01*
X46930000Y37071000D02*
X48332000Y37071000D01*
X43542000Y37311000D02*
X44850000Y37311000D01*
X44975000Y38671000D02*
X46805000Y38671000D01*
X46930000Y36830000D02*
X48401000Y36830000D01*
X46930000Y36710000D02*
X48426000Y36710000D01*
X46930000Y38231000D02*
X47543000Y38231000D01*
X43389000Y36870000D02*
X44850000Y36870000D01*
X44712000Y38551000D02*
X47068000Y38551000D01*
X44879000Y38631000D02*
X46901000Y38631000D01*
X43715000Y37631000D02*
X44850000Y37631000D01*
X43340000Y36630000D02*
X44850000Y36630000D01*
X43561000Y37351000D02*
X44850000Y37351000D01*
X43508000Y37231000D02*
X44850000Y37231000D01*
X43362000Y36750000D02*
X44850000Y36750000D01*
X45085000Y38711000D02*
X46695000Y38711000D01*
X46930000Y38191000D02*
X47589000Y38191000D01*
X46930000Y36430000D02*
X48463000Y36430000D01*
X44191000Y38191000D02*
X44850000Y38191000D01*
X46930000Y37031000D02*
X48345000Y37031000D01*
X44415000Y33425225D02*
X44415000Y33925225D01*
X45372000Y38791000D02*
X46408000Y38791000D01*
X44336000Y38311000D02*
X47444000Y38311000D01*
X46930000Y36350000D02*
X48468000Y36350000D01*
X43525000Y37271000D02*
X44850000Y37271000D01*
X46930000Y37671000D02*
X48039000Y37671000D01*
X46930000Y37751000D02*
X47985000Y37751000D01*
X43741000Y37671000D02*
X44850000Y37671000D01*
X46930000Y37551000D02*
X48114000Y37551000D01*
X43334000Y36590000D02*
X44850000Y36590000D01*
X43953000Y37951000D02*
X44850000Y37951000D01*
X43310000Y36230000D02*
X44850000Y36230000D01*
X46930000Y37151000D02*
X48304000Y37151000D01*
X44447000Y38391000D02*
X47333000Y38391000D01*
X44571000Y38471000D02*
X47209000Y38471000D01*
X46930000Y36670000D02*
X48433000Y36670000D01*
X46930000Y37711000D02*
X48012000Y37711000D01*
X46930000Y36550000D02*
X48451000Y36550000D01*
X46930000Y37511000D02*
X48137000Y37511000D01*
X46930000Y37391000D02*
X48200000Y37391000D01*
X43370000Y36790000D02*
X44850000Y36790000D01*
X44105000Y38111000D02*
X44850000Y38111000D01*
X46930000Y37111000D02*
X48318000Y37111000D01*
X43448000Y37071000D02*
X44850000Y37071000D01*
X43492000Y37191000D02*
X44850000Y37191000D01*
X43329000Y36550000D02*
X44850000Y36550000D01*
X46930000Y37271000D02*
X48255000Y37271000D01*
X43354000Y36710000D02*
X44850000Y36710000D01*
X46930000Y38031000D02*
X47754000Y38031000D01*
X44507000Y38431000D02*
X47273000Y38431000D01*
X43399000Y36910000D02*
X44850000Y36910000D01*
X43989000Y37991000D02*
X44850000Y37991000D01*
X44285000Y38271000D02*
X47495000Y38271000D01*
X43768000Y37711000D02*
X44850000Y37711000D01*
X44064000Y38071000D02*
X44850000Y38071000D01*
X46930000Y36870000D02*
X48391000Y36870000D01*
X43622000Y37471000D02*
X44850000Y37471000D01*
X46930000Y36951000D02*
X48370000Y36951000D01*
X43643000Y37511000D02*
X44850000Y37511000D01*
X46930000Y37831000D02*
X47925000Y37831000D01*
X46930000Y36590000D02*
X48446000Y36590000D01*
X44390000Y38351000D02*
X47390000Y38351000D01*
X43690000Y37591000D02*
X44850000Y37591000D01*
X46930000Y37911000D02*
X47861000Y37911000D01*
X46930000Y37311000D02*
X48238000Y37311000D01*
X43312000Y36350000D02*
X44850000Y36350000D01*
X43919000Y37911000D02*
X44850000Y37911000D01*
X46930000Y38151000D02*
X47633000Y38151000D01*
X43347000Y36670000D02*
X44850000Y36670000D01*
X43379000Y36830000D02*
X44850000Y36830000D01*
X45606000Y38831000D02*
X46174000Y38831000D01*
X44165000Y33675225D02*
X44665000Y33675225D01*
X44026000Y38031000D02*
X44850000Y38031000D01*
X46930000Y36630000D02*
X48440000Y36630000D01*
X46930000Y37351000D02*
X48219000Y37351000D01*
X43825000Y37791000D02*
X44850000Y37791000D01*
X43310000Y36270000D02*
X44850000Y36270000D01*
X46930000Y36910000D02*
X48381000Y36910000D01*
X44792000Y38591000D02*
X46988000Y38591000D01*
X46930000Y37191000D02*
X48288000Y37191000D01*
X46930000Y36790000D02*
X48410000Y36790000D01*
X44147000Y38151000D02*
X44850000Y38151000D01*
X43325000Y36510000D02*
X44850000Y36510000D01*
X43462000Y37111000D02*
X44850000Y37111000D01*
X43600000Y37431000D02*
X44850000Y37431000D01*
X43321000Y36470000D02*
X44850000Y36470000D01*
X43580000Y37391000D02*
X44850000Y37391000D01*
X46930000Y37631000D02*
X48065000Y37631000D01*
X46930000Y37871000D02*
X47894000Y37871000D01*
X43422000Y36991000D02*
X44850000Y36991000D01*
X43666000Y37551000D02*
X44850000Y37551000D01*
X43435000Y37031000D02*
X44850000Y37031000D01*
X44237000Y38231000D02*
X44850000Y38231000D01*
X46930000Y36991000D02*
X48358000Y36991000D01*
X43311000Y36310000D02*
X44850000Y36310000D01*
X43317000Y36430000D02*
X44850000Y36430000D01*
X46930000Y36390000D02*
X48466000Y36390000D01*
X46930000Y37231000D02*
X48272000Y37231000D01*
X44639000Y38511000D02*
X47141000Y38511000D01*
X46930000Y37431000D02*
X48180000Y37431000D01*
X46930000Y36470000D02*
X48459000Y36470000D01*
X46930000Y37591000D02*
X48090000Y37591000D01*
X46930000Y37951000D02*
X47827000Y37951000D01*
X46930000Y36310000D02*
X48469000Y36310000D01*
X46930000Y37991000D02*
X47791000Y37991000D01*
X43886000Y37871000D02*
X44850000Y37871000D01*
X46930000Y37471000D02*
X48158000Y37471000D01*
X46930000Y38111000D02*
X47675000Y38111000D01*
X46930000Y38071000D02*
X47716000Y38071000D01*
X46930000Y37791000D02*
X47955000Y37791000D01*
X48510000Y36230000D02*
G75*
G03*
X48510000Y36230000I-2620000J0D01*
G01*
X47520000Y44700000D02*
X43920000Y44700000D01*
X48044184Y43972795D02*
G75*
G03*
X47520000Y44700000I-2324184J-1122795D01*
G01*
X45720000Y40250000D02*
G75*
G03*
X48076400Y41751193I0J2600000D01*
G01*
X43920000Y44700000D02*
G75*
G03*
X43395816Y43972795I1800000J-1850000D01*
G01*
X43363600Y41751193D02*
G75*
G03*
X45720000Y40250000I2356400J1098807D01*
G01*
X32020000Y16130000D02*
X32020000Y26410000D01*
X32020000Y26410000D02*
X26720000Y26410000D01*
X30370000Y16130000D02*
X32020000Y16130000D01*
X26720000Y26410000D02*
X26720000Y16130000D01*
X26720000Y16130000D02*
X28370000Y16130000D01*
X30370000Y16130000D02*
G75*
G03*
X28370000Y16130000I-1000000J0D01*
G01*
X56995000Y18920000D02*
X56995000Y18935000D01*
X61535000Y18920000D02*
X56995000Y18920000D01*
X61535000Y21045000D02*
X61535000Y21060000D01*
X61535000Y21060000D02*
X56995000Y21060000D01*
X61535000Y18920000D02*
X61535000Y18935000D01*
X56995000Y21045000D02*
X56995000Y21060000D01*
X37192000Y37311000D02*
X38500000Y37311000D01*
X37676000Y38031000D02*
X38500000Y38031000D01*
X37004000Y36710000D02*
X38500000Y36710000D01*
X38157000Y38431000D02*
X40923000Y38431000D01*
X40580000Y37631000D02*
X41715000Y37631000D01*
X37639000Y37991000D02*
X38500000Y37991000D01*
X37316000Y37551000D02*
X38500000Y37551000D01*
X37272000Y37471000D02*
X38500000Y37471000D01*
X37797000Y38151000D02*
X38500000Y38151000D01*
X40580000Y37111000D02*
X41968000Y37111000D01*
X40580000Y36870000D02*
X42041000Y36870000D01*
X36984000Y36590000D02*
X38500000Y36590000D01*
X40580000Y37831000D02*
X41575000Y37831000D01*
X37158000Y37231000D02*
X38500000Y37231000D01*
X40580000Y38071000D02*
X41366000Y38071000D01*
X40580000Y37071000D02*
X41982000Y37071000D01*
X37126000Y37151000D02*
X38500000Y37151000D01*
X37039000Y36870000D02*
X38500000Y36870000D01*
X37340000Y37591000D02*
X38500000Y37591000D01*
X37986000Y38311000D02*
X41094000Y38311000D01*
X38529000Y38631000D02*
X40551000Y38631000D01*
X38625000Y38671000D02*
X40455000Y38671000D01*
X40580000Y36910000D02*
X42031000Y36910000D01*
X40580000Y38191000D02*
X41239000Y38191000D01*
X40580000Y37031000D02*
X41995000Y37031000D01*
X40580000Y37231000D02*
X41922000Y37231000D01*
X37072000Y36991000D02*
X38500000Y36991000D01*
X40580000Y37511000D02*
X41787000Y37511000D01*
X40580000Y36350000D02*
X42118000Y36350000D01*
X40580000Y37791000D02*
X41605000Y37791000D01*
X37475000Y37791000D02*
X38500000Y37791000D01*
X40580000Y37471000D02*
X41808000Y37471000D01*
X40580000Y38231000D02*
X41193000Y38231000D01*
X37603000Y37951000D02*
X38500000Y37951000D01*
X40580000Y37711000D02*
X41662000Y37711000D01*
X40580000Y36790000D02*
X42060000Y36790000D01*
X40580000Y36310000D02*
X42119000Y36310000D01*
X37211000Y37351000D02*
X38500000Y37351000D01*
X40580000Y37751000D02*
X41635000Y37751000D01*
X37815000Y33675225D02*
X38315000Y33675225D01*
X36971000Y36470000D02*
X38500000Y36470000D01*
X40580000Y37871000D02*
X41544000Y37871000D01*
X37536000Y37871000D02*
X38500000Y37871000D01*
X37049000Y36910000D02*
X38500000Y36910000D01*
X40580000Y37271000D02*
X41905000Y37271000D01*
X40580000Y37671000D02*
X41689000Y37671000D01*
X40580000Y36590000D02*
X42096000Y36590000D01*
X38863000Y38751000D02*
X40217000Y38751000D01*
X40580000Y36951000D02*
X42020000Y36951000D01*
X40580000Y36270000D02*
X42120000Y36270000D01*
X40580000Y36630000D02*
X42090000Y36630000D01*
X37755000Y38111000D02*
X38500000Y38111000D01*
X39022000Y38791000D02*
X40058000Y38791000D01*
X40580000Y37911000D02*
X41511000Y37911000D01*
X36961000Y36310000D02*
X38500000Y36310000D01*
X37445000Y37751000D02*
X38500000Y37751000D01*
X40580000Y36230000D02*
X42120000Y36230000D01*
X37020000Y36790000D02*
X38500000Y36790000D01*
X38442000Y38591000D02*
X40638000Y38591000D01*
X37085000Y37031000D02*
X38500000Y37031000D01*
X37887000Y38231000D02*
X38500000Y38231000D01*
X37935000Y38271000D02*
X41145000Y38271000D01*
X40580000Y36390000D02*
X42116000Y36390000D01*
X40580000Y37591000D02*
X41740000Y37591000D01*
X37365000Y37631000D02*
X38500000Y37631000D01*
X37060000Y36951000D02*
X38500000Y36951000D01*
X37012000Y36750000D02*
X38500000Y36750000D01*
X40580000Y38111000D02*
X41325000Y38111000D01*
X40580000Y36710000D02*
X42076000Y36710000D01*
X36997000Y36670000D02*
X38500000Y36670000D01*
X40580000Y37191000D02*
X41938000Y37191000D01*
X40580000Y38031000D02*
X41404000Y38031000D01*
X37175000Y37271000D02*
X38500000Y37271000D01*
X40580000Y36550000D02*
X42101000Y36550000D01*
X37391000Y37671000D02*
X38500000Y37671000D01*
X36967000Y36430000D02*
X38500000Y36430000D01*
X37714000Y38071000D02*
X38500000Y38071000D01*
X40580000Y37951000D02*
X41477000Y37951000D01*
X37112000Y37111000D02*
X38500000Y37111000D01*
X40580000Y36430000D02*
X42113000Y36430000D01*
X36979000Y36550000D02*
X38500000Y36550000D01*
X40580000Y37351000D02*
X41869000Y37351000D01*
X38040000Y38351000D02*
X41040000Y38351000D01*
X40580000Y37311000D02*
X41888000Y37311000D01*
X37250000Y37431000D02*
X38500000Y37431000D01*
X38362000Y38551000D02*
X40718000Y38551000D01*
X40580000Y36670000D02*
X42083000Y36670000D01*
X36962000Y36350000D02*
X38500000Y36350000D01*
X40580000Y36510000D02*
X42105000Y36510000D01*
X36990000Y36630000D02*
X38500000Y36630000D01*
X37230000Y37391000D02*
X38500000Y37391000D01*
X38735000Y38711000D02*
X40345000Y38711000D01*
X37098000Y37071000D02*
X38500000Y37071000D01*
X40580000Y37991000D02*
X41441000Y37991000D01*
X37418000Y37711000D02*
X38500000Y37711000D01*
X36960000Y36230000D02*
X38500000Y36230000D01*
X40580000Y37391000D02*
X41850000Y37391000D01*
X37569000Y37911000D02*
X38500000Y37911000D01*
X37142000Y37191000D02*
X38500000Y37191000D01*
X38221000Y38471000D02*
X40859000Y38471000D01*
X40580000Y36470000D02*
X42109000Y36470000D01*
X39256000Y38831000D02*
X39824000Y38831000D01*
X37841000Y38191000D02*
X38500000Y38191000D01*
X40580000Y37431000D02*
X41830000Y37431000D01*
X37029000Y36830000D02*
X38500000Y36830000D01*
X38289000Y38511000D02*
X40791000Y38511000D01*
X40580000Y37551000D02*
X41764000Y37551000D01*
X38097000Y38391000D02*
X40983000Y38391000D01*
X40580000Y37151000D02*
X41954000Y37151000D01*
X37505000Y37831000D02*
X38500000Y37831000D01*
X36960000Y36270000D02*
X38500000Y36270000D01*
X40580000Y38151000D02*
X41283000Y38151000D01*
X36964000Y36390000D02*
X38500000Y36390000D01*
X40580000Y36830000D02*
X42051000Y36830000D01*
X37293000Y37511000D02*
X38500000Y37511000D01*
X38065000Y33425225D02*
X38065000Y33925225D01*
X40580000Y36991000D02*
X42008000Y36991000D01*
X36975000Y36510000D02*
X38500000Y36510000D01*
X40580000Y36750000D02*
X42068000Y36750000D01*
X42160000Y36230000D02*
G75*
G03*
X42160000Y36230000I-2620000J0D01*
G01*
X4290000Y27395000D02*
X4290000Y27410000D01*
X8830000Y27395000D02*
X8830000Y27410000D01*
X4290000Y25270000D02*
X4290000Y25285000D01*
X8830000Y25270000D02*
X4290000Y25270000D01*
X8830000Y25270000D02*
X8830000Y25285000D01*
X8830000Y27410000D02*
X4290000Y27410000D01*
X8440000Y15260000D02*
X4600000Y15260000D01*
X8440000Y17100000D02*
X4600000Y17100000D01*
X47470000Y27810000D02*
X52010000Y27810000D01*
X47470000Y27825000D02*
X47470000Y27810000D01*
X47470000Y29950000D02*
X52010000Y29950000D01*
X52010000Y29950000D02*
X52010000Y29935000D01*
X47470000Y29950000D02*
X47470000Y29935000D01*
X52010000Y27825000D02*
X52010000Y27810000D01*
X66670000Y19730000D02*
X66670000Y17130000D01*
X66670000Y17130000D02*
X69330000Y17130000D01*
X69330000Y19730000D02*
X69330000Y17130000D01*
X66670000Y21000000D02*
X66670000Y22330000D01*
X66670000Y19730000D02*
X69330000Y19730000D01*
X66670000Y22330000D02*
X68000000Y22330000D01*
X7255000Y37700000D02*
X7255000Y38900000D01*
X2755000Y38600000D02*
X2755000Y37400000D01*
X2755000Y29400000D02*
X2755000Y30600000D01*
X6955000Y29400000D02*
X2755000Y29400000D01*
X6955000Y30600000D02*
X6955000Y29400000D01*
X7255000Y38900000D02*
X6055000Y38900000D01*
X6955000Y38600000D02*
X2755000Y38600000D01*
X6955000Y37400000D02*
X6955000Y38600000D01*
X41460000Y25990000D02*
X37620000Y25990000D01*
X41460000Y24150000D02*
X37620000Y24150000D01*
X41460000Y20910000D02*
X37620000Y20910000D01*
X41460000Y19070000D02*
X37620000Y19070000D01*
X6415000Y11680000D02*
X2815000Y11680000D01*
X4615000Y7230000D02*
G75*
G03*
X6971400Y8731193I0J2600000D01*
G01*
X2258600Y8731193D02*
G75*
G03*
X4615000Y7230000I2356400J1098807D01*
G01*
X2815000Y11680000D02*
G75*
G03*
X2290816Y10952795I1800000J-1850000D01*
G01*
X6939184Y10952795D02*
G75*
G03*
X6415000Y11680000I-2324184J-1122795D01*
G01*
X21530000Y36430000D02*
X23063000Y36430000D01*
X21530000Y37911000D02*
X22461000Y37911000D01*
X21530000Y37671000D02*
X22639000Y37671000D01*
X18885000Y38271000D02*
X22095000Y38271000D01*
X18108000Y37231000D02*
X19450000Y37231000D01*
X18791000Y38191000D02*
X19450000Y38191000D01*
X21530000Y38071000D02*
X22316000Y38071000D01*
X21530000Y38111000D02*
X22275000Y38111000D01*
X18589000Y37991000D02*
X19450000Y37991000D01*
X21530000Y36951000D02*
X22970000Y36951000D01*
X18243000Y37511000D02*
X19450000Y37511000D01*
X18341000Y37671000D02*
X19450000Y37671000D01*
X17910000Y36270000D02*
X19450000Y36270000D01*
X18626000Y38031000D02*
X19450000Y38031000D01*
X21530000Y37311000D02*
X22838000Y37311000D01*
X18837000Y38231000D02*
X19450000Y38231000D01*
X17999000Y36910000D02*
X19450000Y36910000D01*
X21530000Y37031000D02*
X22945000Y37031000D01*
X21530000Y36991000D02*
X22958000Y36991000D01*
X21530000Y37751000D02*
X22585000Y37751000D01*
X21530000Y37271000D02*
X22855000Y37271000D01*
X21530000Y36630000D02*
X23040000Y36630000D01*
X21530000Y36830000D02*
X23001000Y36830000D01*
X21530000Y37471000D02*
X22758000Y37471000D01*
X21530000Y36710000D02*
X23026000Y36710000D01*
X21530000Y36390000D02*
X23066000Y36390000D01*
X19479000Y38631000D02*
X21501000Y38631000D01*
X19685000Y38711000D02*
X21295000Y38711000D01*
X18010000Y36951000D02*
X19450000Y36951000D01*
X19239000Y38511000D02*
X21741000Y38511000D01*
X21530000Y37351000D02*
X22819000Y37351000D01*
X21530000Y37991000D02*
X22391000Y37991000D01*
X21530000Y38031000D02*
X22354000Y38031000D01*
X21530000Y38151000D02*
X22233000Y38151000D01*
X21530000Y36670000D02*
X23033000Y36670000D01*
X18553000Y37951000D02*
X19450000Y37951000D01*
X18076000Y37151000D02*
X19450000Y37151000D01*
X18062000Y37111000D02*
X19450000Y37111000D01*
X19015000Y33425225D02*
X19015000Y33925225D01*
X18125000Y37271000D02*
X19450000Y37271000D01*
X21530000Y36310000D02*
X23069000Y36310000D01*
X17954000Y36710000D02*
X19450000Y36710000D01*
X21530000Y36790000D02*
X23010000Y36790000D01*
X21530000Y37631000D02*
X22665000Y37631000D01*
X18161000Y37351000D02*
X19450000Y37351000D01*
X21530000Y37071000D02*
X22932000Y37071000D01*
X17925000Y36510000D02*
X19450000Y36510000D01*
X18705000Y38111000D02*
X19450000Y38111000D01*
X21530000Y37111000D02*
X22918000Y37111000D01*
X18664000Y38071000D02*
X19450000Y38071000D01*
X19972000Y38791000D02*
X21008000Y38791000D01*
X19171000Y38471000D02*
X21809000Y38471000D01*
X18486000Y37871000D02*
X19450000Y37871000D01*
X21530000Y36590000D02*
X23046000Y36590000D01*
X18747000Y38151000D02*
X19450000Y38151000D01*
X18222000Y37471000D02*
X19450000Y37471000D01*
X17911000Y36310000D02*
X19450000Y36310000D01*
X21530000Y36270000D02*
X23070000Y36270000D01*
X17921000Y36470000D02*
X19450000Y36470000D01*
X18315000Y37631000D02*
X19450000Y37631000D01*
X18048000Y37071000D02*
X19450000Y37071000D01*
X21530000Y36550000D02*
X23051000Y36550000D01*
X21530000Y37231000D02*
X22872000Y37231000D01*
X18368000Y37711000D02*
X19450000Y37711000D01*
X21530000Y38231000D02*
X22143000Y38231000D01*
X21530000Y37711000D02*
X22612000Y37711000D01*
X19813000Y38751000D02*
X21167000Y38751000D01*
X19575000Y38671000D02*
X21405000Y38671000D01*
X17947000Y36670000D02*
X19450000Y36670000D01*
X17914000Y36390000D02*
X19450000Y36390000D01*
X21530000Y37151000D02*
X22904000Y37151000D01*
X18425000Y37791000D02*
X19450000Y37791000D01*
X17962000Y36750000D02*
X19450000Y36750000D01*
X18936000Y38311000D02*
X22044000Y38311000D01*
X18200000Y37431000D02*
X19450000Y37431000D01*
X18092000Y37191000D02*
X19450000Y37191000D01*
X21530000Y37591000D02*
X22690000Y37591000D01*
X17940000Y36630000D02*
X19450000Y36630000D01*
X21530000Y37191000D02*
X22888000Y37191000D01*
X17929000Y36550000D02*
X19450000Y36550000D01*
X21530000Y36510000D02*
X23055000Y36510000D01*
X19107000Y38431000D02*
X21873000Y38431000D01*
X17917000Y36430000D02*
X19450000Y36430000D01*
X21530000Y37551000D02*
X22714000Y37551000D01*
X21530000Y36350000D02*
X23068000Y36350000D01*
X19312000Y38551000D02*
X21668000Y38551000D01*
X18455000Y37831000D02*
X19450000Y37831000D01*
X18022000Y36991000D02*
X19450000Y36991000D01*
X21530000Y36870000D02*
X22991000Y36870000D01*
X18266000Y37551000D02*
X19450000Y37551000D01*
X21530000Y36750000D02*
X23018000Y36750000D01*
X18035000Y37031000D02*
X19450000Y37031000D01*
X21530000Y38191000D02*
X22189000Y38191000D01*
X18990000Y38351000D02*
X21990000Y38351000D01*
X18290000Y37591000D02*
X19450000Y37591000D01*
X17910000Y36230000D02*
X19450000Y36230000D01*
X17912000Y36350000D02*
X19450000Y36350000D01*
X21530000Y36230000D02*
X23070000Y36230000D01*
X20206000Y38831000D02*
X20774000Y38831000D01*
X21530000Y37391000D02*
X22800000Y37391000D01*
X17979000Y36830000D02*
X19450000Y36830000D01*
X19392000Y38591000D02*
X21588000Y38591000D01*
X17989000Y36870000D02*
X19450000Y36870000D01*
X18519000Y37911000D02*
X19450000Y37911000D01*
X21530000Y37431000D02*
X22780000Y37431000D01*
X18180000Y37391000D02*
X19450000Y37391000D01*
X17934000Y36590000D02*
X19450000Y36590000D01*
X18142000Y37311000D02*
X19450000Y37311000D01*
X17970000Y36790000D02*
X19450000Y36790000D01*
X21530000Y37791000D02*
X22555000Y37791000D01*
X21530000Y36910000D02*
X22981000Y36910000D01*
X18765000Y33675225D02*
X19265000Y33675225D01*
X21530000Y37951000D02*
X22427000Y37951000D01*
X21530000Y37871000D02*
X22494000Y37871000D01*
X18395000Y37751000D02*
X19450000Y37751000D01*
X21530000Y36470000D02*
X23059000Y36470000D01*
X21530000Y37511000D02*
X22737000Y37511000D01*
X21530000Y37831000D02*
X22525000Y37831000D01*
X19047000Y38391000D02*
X21933000Y38391000D01*
X23110000Y36230000D02*
G75*
G03*
X23110000Y36230000I-2620000J0D01*
G01*
X30966000Y37551000D02*
X32150000Y37551000D01*
X31871000Y38471000D02*
X34509000Y38471000D01*
X30670000Y36790000D02*
X32150000Y36790000D01*
X30776000Y37151000D02*
X32150000Y37151000D01*
X30640000Y36630000D02*
X32150000Y36630000D01*
X34230000Y36830000D02*
X35701000Y36830000D01*
X30689000Y36870000D02*
X32150000Y36870000D01*
X32092000Y38591000D02*
X34288000Y38591000D01*
X34230000Y36230000D02*
X35770000Y36230000D01*
X34230000Y37991000D02*
X35091000Y37991000D01*
X30722000Y36991000D02*
X32150000Y36991000D01*
X34230000Y36430000D02*
X35763000Y36430000D01*
X31807000Y38431000D02*
X34573000Y38431000D01*
X34230000Y37111000D02*
X35618000Y37111000D01*
X34230000Y37751000D02*
X35285000Y37751000D01*
X34230000Y36790000D02*
X35710000Y36790000D01*
X34230000Y36470000D02*
X35759000Y36470000D01*
X30710000Y36951000D02*
X32150000Y36951000D01*
X31289000Y37991000D02*
X32150000Y37991000D01*
X34230000Y37831000D02*
X35225000Y37831000D01*
X34230000Y37431000D02*
X35480000Y37431000D01*
X34230000Y36390000D02*
X35766000Y36390000D01*
X32012000Y38551000D02*
X34368000Y38551000D01*
X32385000Y38711000D02*
X33995000Y38711000D01*
X34230000Y36870000D02*
X35691000Y36870000D01*
X31465000Y33675225D02*
X31965000Y33675225D01*
X34230000Y38031000D02*
X35054000Y38031000D01*
X34230000Y37391000D02*
X35500000Y37391000D01*
X34230000Y38191000D02*
X34889000Y38191000D01*
X31219000Y37911000D02*
X32150000Y37911000D01*
X31715000Y33425225D02*
X31715000Y33925225D01*
X31491000Y38191000D02*
X32150000Y38191000D01*
X34230000Y37871000D02*
X35194000Y37871000D01*
X31636000Y38311000D02*
X34744000Y38311000D01*
X34230000Y37591000D02*
X35390000Y37591000D01*
X30825000Y37271000D02*
X32150000Y37271000D01*
X32179000Y38631000D02*
X34201000Y38631000D01*
X31747000Y38391000D02*
X34633000Y38391000D01*
X30662000Y36750000D02*
X32150000Y36750000D01*
X34230000Y36951000D02*
X35670000Y36951000D01*
X30679000Y36830000D02*
X32150000Y36830000D01*
X30654000Y36710000D02*
X32150000Y36710000D01*
X34230000Y36510000D02*
X35755000Y36510000D01*
X32513000Y38751000D02*
X33867000Y38751000D01*
X34230000Y38151000D02*
X34933000Y38151000D01*
X30611000Y36310000D02*
X32150000Y36310000D01*
X34230000Y37271000D02*
X35555000Y37271000D01*
X34230000Y36750000D02*
X35718000Y36750000D01*
X30990000Y37591000D02*
X32150000Y37591000D01*
X34230000Y38071000D02*
X35016000Y38071000D01*
X32275000Y38671000D02*
X34105000Y38671000D01*
X31186000Y37871000D02*
X32150000Y37871000D01*
X30610000Y36270000D02*
X32150000Y36270000D01*
X34230000Y36550000D02*
X35751000Y36550000D01*
X31041000Y37671000D02*
X32150000Y37671000D01*
X34230000Y37151000D02*
X35604000Y37151000D01*
X30922000Y37471000D02*
X32150000Y37471000D01*
X30621000Y36470000D02*
X32150000Y36470000D01*
X34230000Y36270000D02*
X35770000Y36270000D01*
X31068000Y37711000D02*
X32150000Y37711000D01*
X30748000Y37071000D02*
X32150000Y37071000D01*
X30735000Y37031000D02*
X32150000Y37031000D01*
X34230000Y37191000D02*
X35588000Y37191000D01*
X30610000Y36230000D02*
X32150000Y36230000D01*
X34230000Y36310000D02*
X35769000Y36310000D01*
X31405000Y38111000D02*
X32150000Y38111000D01*
X34230000Y37351000D02*
X35519000Y37351000D01*
X34230000Y36590000D02*
X35746000Y36590000D01*
X31326000Y38031000D02*
X32150000Y38031000D01*
X30762000Y37111000D02*
X32150000Y37111000D01*
X32906000Y38831000D02*
X33474000Y38831000D01*
X34230000Y37231000D02*
X35572000Y37231000D01*
X34230000Y36910000D02*
X35681000Y36910000D01*
X34230000Y37671000D02*
X35339000Y37671000D01*
X31155000Y37831000D02*
X32150000Y37831000D01*
X31690000Y38351000D02*
X34690000Y38351000D01*
X31125000Y37791000D02*
X32150000Y37791000D01*
X34230000Y37511000D02*
X35437000Y37511000D01*
X31537000Y38231000D02*
X32150000Y38231000D01*
X30900000Y37431000D02*
X32150000Y37431000D01*
X34230000Y37631000D02*
X35365000Y37631000D01*
X34230000Y37911000D02*
X35161000Y37911000D01*
X34230000Y38231000D02*
X34843000Y38231000D01*
X31447000Y38151000D02*
X32150000Y38151000D01*
X34230000Y37071000D02*
X35632000Y37071000D01*
X30629000Y36550000D02*
X32150000Y36550000D01*
X30842000Y37311000D02*
X32150000Y37311000D01*
X30625000Y36510000D02*
X32150000Y36510000D01*
X34230000Y38111000D02*
X34975000Y38111000D01*
X30617000Y36430000D02*
X32150000Y36430000D01*
X34230000Y37711000D02*
X35312000Y37711000D01*
X30699000Y36910000D02*
X32150000Y36910000D01*
X34230000Y36710000D02*
X35726000Y36710000D01*
X34230000Y36350000D02*
X35768000Y36350000D01*
X34230000Y37311000D02*
X35538000Y37311000D01*
X31364000Y38071000D02*
X32150000Y38071000D01*
X30861000Y37351000D02*
X32150000Y37351000D01*
X30647000Y36670000D02*
X32150000Y36670000D01*
X31015000Y37631000D02*
X32150000Y37631000D01*
X30943000Y37511000D02*
X32150000Y37511000D01*
X30634000Y36590000D02*
X32150000Y36590000D01*
X30808000Y37231000D02*
X32150000Y37231000D01*
X34230000Y36991000D02*
X35658000Y36991000D01*
X34230000Y37791000D02*
X35255000Y37791000D01*
X34230000Y36630000D02*
X35740000Y36630000D01*
X34230000Y37551000D02*
X35414000Y37551000D01*
X34230000Y36670000D02*
X35733000Y36670000D01*
X32672000Y38791000D02*
X33708000Y38791000D01*
X30880000Y37391000D02*
X32150000Y37391000D01*
X31253000Y37951000D02*
X32150000Y37951000D01*
X31095000Y37751000D02*
X32150000Y37751000D01*
X34230000Y37031000D02*
X35645000Y37031000D01*
X34230000Y37951000D02*
X35127000Y37951000D01*
X31939000Y38511000D02*
X34441000Y38511000D01*
X34230000Y37471000D02*
X35458000Y37471000D01*
X30614000Y36390000D02*
X32150000Y36390000D01*
X31585000Y38271000D02*
X34795000Y38271000D01*
X30612000Y36350000D02*
X32150000Y36350000D01*
X30792000Y37191000D02*
X32150000Y37191000D01*
X35810000Y36230000D02*
G75*
G03*
X35810000Y36230000I-2620000J0D01*
G01*
X9550000Y2300000D02*
X9550000Y4800000D01*
X11950000Y14200000D02*
X14050000Y14200000D01*
X16450000Y7200000D02*
X16450000Y14200000D01*
X10300000Y2300000D02*
X9550000Y2300000D01*
X9550000Y7200000D02*
X9550000Y12300000D01*
X16450000Y2300000D02*
X15700000Y2300000D01*
X16450000Y4800000D02*
X16450000Y2300000D01*
X38920000Y40660000D02*
X35080000Y40660000D01*
X38920000Y42500000D02*
X35080000Y42500000D01*
M02*
