  0
SECTION
  2
HEADER
  9
$ACADVER
  1
AC1014
  9
$HANDSEED
  5
FFFF
  9
$MEASUREMENT
 70
     1
  0
ENDSEC
  0
SECTION
  2
TABLES
  0
TABLE
  2
VPORT
  5
8
330
0
100
AcDbSymbolTable
 70
     4
  0
VPORT
  5
2E
330
8
100
AcDbSymbolTableRecord
100
AcDbViewportTableRecord
  2
*ACTIVE
 70
     0
 10
0.0
 20
0.0
 11
1.0
 21
1.0
 12
210.0
 22
148.5
 13
0.0
 23
0.0
 14
10.0
 24
10.0
 15
10.0
 25
10.0
 16
0.0
 26
0.0
 36
1.0
 17
0.0
 27
0.0
 37
0.0
 40
341.0
 41
1.24
 42
50.0
 43
0.0
 44
0.0
 50
0.0
 51
0.0
 71
     0
 72
   100
 73
     1
 74
     3
 75
     0
 76
     0
 77
     0
 78
     0
  0
ENDTAB
  0
TABLE
  2
LTYPE
  5
5
330
0
100
AcDbSymbolTable
 70
     1
  0
LTYPE
  5
14
330
5
100
AcDbSymbolTableRecord
100
AcDbLinetypeTableRecord
  2
BYBLOCK
 70
     0
  3

 72
    65
 73
     0
 40
0.0
  0
LTYPE
  5
15
330
5
100
AcDbSymbolTableRecord
100
AcDbLinetypeTableRecord
  2
BYLAYER
 70
     0
  3

 72
    65
 73
     0
 40
0.0
  0
LTYPE
  5
16
330
5
100
AcDbSymbolTableRecord
100
AcDbLinetypeTableRecord
  2
CONTINUOUS
 70
     0
  3
Solid line
 72
    65
 73
     0
 40
0.0
  0
ENDTAB
  0
TABLE
  2
LAYER
  5
2
100
AcDbSymbolTable
 70
1
  0
LAYER
  5
50
100
AcDbSymbolTableRecord
100
AcDbLayerTableRecord
  2
0
 70
0
  6
CONTINUOUS
  0
ENDTAB
  0
TABLE
  2
STYLE
  5
3
330
0
100
AcDbSymbolTable
 70
     1
  0
STYLE
  5
11
330
3
100
AcDbSymbolTableRecord
100
AcDbTextStyleTableRecord
  2
STANDARD
 70
     0
 40
0.0
 41
1.0
 50
0.0
 71
     0
 42
2.5
  3
txt
  4

  0
ENDTAB
  0
TABLE
  2
VIEW
  5
6
330
0
100
AcDbSymbolTable
 70
     0
  0
ENDTAB
  0
TABLE
  2
UCS
  5
7
330
0
100
AcDbSymbolTable
 70
     0
  0
ENDTAB
  0
TABLE
  2
APPID
  5
9
330
0
100
AcDbSymbolTable
 70
     2
  0
APPID
  5
12
330
9
100
AcDbSymbolTableRecord
100
AcDbRegAppTableRecord
  2
ACAD
 70
     0
  0
ENDTAB
  0
TABLE
  2
DIMSTYLE
  5
A
330
0
100
AcDbSymbolTable
 70
     1
  0
DIMSTYLE
105
27
330
A
100
AcDbSymbolTableRecord
100
AcDbDimStyleTableRecord
  2
ISO-25
 70
     0
  3

  4

  5

  6

  7

 40
1.0
 41
2.5
 42
0.625
 43
3.75
 44
1.25
 45
0.0
 46
0.0
 47
0.0
 48
0.0
140
2.5
141
2.5
142
0.0
143
0.03937007874016
144
1.0
145
0.0
146
1.0
147
0.625
 71
     0
 72
     0
 73
     0
 74
     0
 75
     0
 76
     0
 77
     1
 78
     8
170
     0
171
     3
172
     1
173
     0
174
     0
175
     0
176
     0
177
     0
178
     0
270
     2
271
     2
272
     2
273
     2
274
     3
340
11
275
     0
280
     0
281
     0
282
     0
283
     0
284
     8
285
     0
286
     0
287
     3
288
     0
  0
ENDTAB
  0
TABLE
  2
BLOCK_RECORD
  5
1
330
0
100
AcDbSymbolTable
 70
     1
  0
BLOCK_RECORD
  5
1F
330
1
100
AcDbSymbolTableRecord
100
AcDbBlockTableRecord
  2
*MODEL_SPACE
  0
BLOCK_RECORD
  5
1B
330
1
100
AcDbSymbolTableRecord
100
AcDbBlockTableRecord
  2
*PAPER_SPACE
  0
ENDTAB
  0
ENDSEC
  0
SECTION
  2
BLOCKS
  0
BLOCK
  5
20
330
1F
100
AcDbEntity
  8
0
100
AcDbBlockBegin
  2
*MODEL_SPACE
 70
     0
 10
0.0
 20
0.0
 30
0.0
  3
*MODEL_SPACE
  1

  0
ENDBLK
  5
21
330
1F
100
AcDbEntity
  8
0
100
AcDbBlockEnd
  0
BLOCK
  5
1C
330
1B
100
AcDbEntity
 67
     1
  8
0
100
AcDbBlockBegin
  2
*PAPER_SPACE
  1

  0
ENDBLK
  5
1D
330
1B
100
AcDbEntity
 67
     1
  8
0
100
AcDbBlockEnd
  0
ENDSEC
  0
SECTION
  2
ENTITIES
  0
SPLINE
  5
100
100
AcDbEntity
  8
0
 62
7
100
AcDbSpline
 70
8
 71
3
 72
8
 73
4
 74
0
 40
0
 40
0
 40
0
 40
0
 40
1
 40
1
 40
1
 40
1
 10
52.132293
 20
72.132291
 30
0.0
 10
51.601860
 20
72.132291
 30
0.0
 10
51.093151
 20
71.921577
 30
0.0
 10
50.718079
 20
71.546504
 30
0.0
  0
SPLINE
  5
101
100
AcDbEntity
  8
0
 62
7
100
AcDbSpline
 70
8
 71
3
 72
8
 73
4
 74
0
 40
0
 40
0
 40
0
 40
0
 40
1
 40
1
 40
1
 40
1
 10
50.718079
 20
71.546504
 30
0.0
 10
50.343006
 20
71.171431
 30
0.0
 10
50.132292
 20
70.662722
 30
0.0
 10
50.132293
 20
70.132289
 30
0.0
  0
SPLINE
  5
102
100
AcDbEntity
  8
0
 62
7
100
AcDbSpline
 70
8
 71
3
 72
8
 73
4
 74
0
 40
0
 40
0
 40
0
 40
0
 40
1
 40
1
 40
1
 40
1
 10
50.132293
 20
70.132289
 30
0.0
 10
50.132293
 20
70.132289
 30
0.0
 10
50.132293
 20
2.132296
 30
0.0
 10
50.132293
 20
2.132296
 30
0.0
  0
SPLINE
  5
103
100
AcDbEntity
  8
0
 62
7
100
AcDbSpline
 70
8
 71
3
 72
8
 73
4
 74
0
 40
0
 40
0
 40
0
 40
0
 40
1
 40
1
 40
1
 40
1
 10
50.132293
 20
2.132296
 30
0.0
 10
50.132290
 20
1.601861
 30
0.0
 10
50.343002
 20
1.093150
 30
0.0
 10
50.718075
 20
0.718074
 30
0.0
  0
SPLINE
  5
104
100
AcDbEntity
  8
0
 62
7
100
AcDbSpline
 70
8
 71
3
 72
8
 73
4
 74
0
 40
0
 40
0
 40
0
 40
0
 40
1
 40
1
 40
1
 40
1
 10
50.718075
 20
0.718074
 30
0.0
 10
51.093148
 20
0.342999
 30
0.0
 10
51.601858
 20
0.132284
 30
0.0
 10
52.132293
 20
0.132284
 30
0.0
  0
LWPOLYLINE
  5
105
100
AcDbEntity
  8
0
 62
7
100
AcDbPolyline
 90
2
 70
0
 10
95.132293
 20
72.132291
 30
0.0
 10
52.132293
 20
72.132291
 30
0.0
  0
SPLINE
  5
106
100
AcDbEntity
  8
0
 62
7
100
AcDbSpline
 70
8
 71
3
 72
8
 73
4
 74
0
 40
0
 40
0
 40
0
 40
0
 40
1
 40
1
 40
1
 40
1
 10
95.132293
 20
0.132284
 30
0.0
 10
95.662728
 20
0.132284
 30
0.0
 10
96.171438
 20
0.342999
 30
0.0
 10
96.546511
 20
0.718074
 30
0.0
  0
SPLINE
  5
107
100
AcDbEntity
  8
0
 62
7
100
AcDbSpline
 70
8
 71
3
 72
8
 73
4
 74
0
 40
0
 40
0
 40
0
 40
0
 40
1
 40
1
 40
1
 40
1
 10
96.546511
 20
0.718074
 30
0.0
 10
96.921584
 20
1.093150
 30
0.0
 10
97.132296
 20
1.601861
 30
0.0
 10
97.132293
 20
2.132296
 30
0.0
  0
SPLINE
  5
108
100
AcDbEntity
  8
0
 62
7
100
AcDbSpline
 70
8
 71
3
 72
8
 73
4
 74
0
 40
0
 40
0
 40
0
 40
0
 40
1
 40
1
 40
1
 40
1
 10
97.132293
 20
2.132296
 30
0.0
 10
97.132293
 20
2.132296
 30
0.0
 10
97.132293
 20
19.132277
 30
0.0
 10
97.132293
 20
19.132277
 30
0.0
  0
SPLINE
  5
109
100
AcDbEntity
  8
0
 62
7
100
AcDbSpline
 70
8
 71
3
 72
8
 73
4
 74
0
 40
0
 40
0
 40
0
 40
0
 40
1
 40
1
 40
1
 40
1
 10
97.132293
 20
19.132277
 30
0.0
 10
97.132296
 20
19.662713
 30
0.0
 10
96.921584
 20
20.171423
 30
0.0
 10
96.546511
 20
20.546499
 30
0.0
  0
SPLINE
  5
10a
100
AcDbEntity
  8
0
 62
7
100
AcDbSpline
 70
8
 71
3
 72
8
 73
4
 74
0
 40
0
 40
0
 40
0
 40
0
 40
1
 40
1
 40
1
 40
1
 10
96.546511
 20
20.546499
 30
0.0
 10
96.171438
 20
20.921574
 30
0.0
 10
95.662728
 20
21.132289
 30
0.0
 10
95.132293
 20
21.132289
 30
0.0
  0
LWPOLYLINE
  5
10b
100
AcDbEntity
  8
0
 62
7
100
AcDbPolyline
 90
2
 70
0
 10
52.132293
 20
0.132284
 30
0.0
 10
95.132293
 20
0.132284
 30
0.0
  0
SPLINE
  5
10c
100
AcDbEntity
  8
0
 62
7
100
AcDbSpline
 70
8
 71
3
 72
8
 73
4
 74
0
 40
0
 40
0
 40
0
 40
0
 40
1
 40
1
 40
1
 40
1
 10
89.632293
 20
21.132289
 30
0.0
 10
89.475963
 20
21.132259
 30
0.0
 10
89.319676
 20
21.137465
 30
0.0
 10
89.163695
 20
21.147900
 30
0.0
  0
SPLINE
  5
10d
100
AcDbEntity
  8
0
 62
7
100
AcDbSpline
 70
8
 71
3
 72
8
 73
4
 74
0
 40
0
 40
0
 40
0
 40
0
 40
1
 40
1
 40
1
 40
1
 10
89.163695
 20
21.147900
 30
0.0
 10
86.688810
 20
21.001516
 30
0.0
 10
84.263148
 20
21.882528
 30
0.0
 10
82.459070
 20
23.583052
 30
0.0
  0
SPLINE
  5
10e
100
AcDbEntity
  8
0
 62
7
100
AcDbSpline
 70
8
 71
3
 72
8
 73
4
 74
0
 40
0
 40
0
 40
0
 40
0
 40
1
 40
1
 40
1
 40
1
 10
82.459070
 20
23.583052
 30
0.0
 10
80.654991
 20
25.283576
 30
0.0
 10
79.632293
 20
27.652987
 30
0.0
 10
79.632293
 20
30.132197
 30
0.0
  0
SPLINE
  5
10f
100
AcDbEntity
  8
0
 62
7
100
AcDbSpline
 70
8
 71
3
 72
8
 73
4
 74
0
 40
0
 40
0
 40
0
 40
0
 40
1
 40
1
 40
1
 40
1
 10
79.632293
 20
30.132197
 30
0.0
 10
79.632293
 20
30.132197
 30
0.0
 10
79.632293
 20
46.132213
 30
0.0
 10
79.632293
 20
46.132213
 30
0.0
  0
SPLINE
  5
110
100
AcDbEntity
  8
0
 62
7
100
AcDbSpline
 70
8
 71
3
 72
8
 73
4
 74
0
 40
0
 40
0
 40
0
 40
0
 40
1
 40
1
 40
1
 40
1
 10
79.632293
 20
46.132213
 30
0.0
 10
79.632300
 20
51.102771
 30
0.0
 10
83.661735
 20
55.132200
 30
0.0
 10
88.632293
 20
55.132200
 30
0.0
  0
LWPOLYLINE
  5
111
100
AcDbEntity
  8
0
 62
7
100
AcDbPolyline
 90
2
 70
0
 10
95.132293
 20
21.132289
 30
0.0
 10
89.632293
 20
21.132289
 30
0.0
  0
SPLINE
  5
112
100
AcDbEntity
  8
0
 62
7
100
AcDbSpline
 70
8
 71
3
 72
8
 73
4
 74
0
 40
0
 40
0
 40
0
 40
0
 40
1
 40
1
 40
1
 40
1
 10
95.132293
 20
55.132200
 30
0.0
 10
95.662728
 20
55.132200
 30
0.0
 10
96.171438
 20
55.342915
 30
0.0
 10
96.546511
 20
55.717991
 30
0.0
  0
SPLINE
  5
113
100
AcDbEntity
  8
0
 62
7
100
AcDbSpline
 70
8
 71
3
 72
8
 73
4
 74
0
 40
0
 40
0
 40
0
 40
0
 40
1
 40
1
 40
1
 40
1
 10
96.546511
 20
55.717991
 30
0.0
 10
96.921584
 20
56.093066
 30
0.0
 10
97.132296
 20
56.601777
 30
0.0
 10
97.132293
 20
57.132212
 30
0.0
  0
SPLINE
  5
114
100
AcDbEntity
  8
0
 62
7
100
AcDbSpline
 70
8
 71
3
 72
8
 73
4
 74
0
 40
0
 40
0
 40
0
 40
0
 40
1
 40
1
 40
1
 40
1
 10
97.132293
 20
57.132212
 30
0.0
 10
97.132293
 20
57.132212
 30
0.0
 10
97.132293
 20
70.132210
 30
0.0
 10
97.132293
 20
70.132210
 30
0.0
  0
SPLINE
  5
115
100
AcDbEntity
  8
0
 62
7
100
AcDbSpline
 70
8
 71
3
 72
8
 73
4
 74
0
 40
0
 40
0
 40
0
 40
0
 40
1
 40
1
 40
1
 40
1
 10
97.132293
 20
70.132210
 30
0.0
 10
97.132293
 20
70.662643
 30
0.0
 10
96.921580
 20
71.171351
 30
0.0
 10
96.546507
 20
71.546424
 30
0.0
  0
SPLINE
  5
116
100
AcDbEntity
  8
0
 62
7
100
AcDbSpline
 70
8
 71
3
 72
8
 73
4
 74
0
 40
0
 40
0
 40
0
 40
0
 40
1
 40
1
 40
1
 40
1
 10
96.546507
 20
71.546424
 30
0.0
 10
96.171434
 20
71.921497
 30
0.0
 10
95.662726
 20
72.132211
 30
0.0
 10
95.132293
 20
72.132211
 30
0.0
  0
LWPOLYLINE
  5
117
100
AcDbEntity
  8
0
 62
7
100
AcDbPolyline
 90
2
 70
0
 10
88.632293
 20
55.132200
 30
0.0
 10
95.132293
 20
55.132200
 30
0.0
  0
SPLINE
  5
118
100
AcDbEntity
  8
0
 62
7
100
AcDbSpline
 70
8
 71
3
 72
8
 73
4
 74
0
 40
0
 40
0
 40
0
 40
0
 40
1
 40
1
 40
1
 40
1
 10
54.732293
 20
3.132288
 30
0.0
 10
54.732293
 20
3.703913
 30
0.0
 10
54.427334
 20
4.232116
 30
0.0
 10
53.932293
 20
4.517929
 30
0.0
  0
SPLINE
  5
119
100
AcDbEntity
  8
0
 62
7
100
AcDbSpline
 70
8
 71
3
 72
8
 73
4
 74
0
 40
0
 40
0
 40
0
 40
0
 40
1
 40
1
 40
1
 40
1
 10
53.932293
 20
4.517929
 30
0.0
 10
53.437251
 20
4.803741
 30
0.0
 10
52.827334
 20
4.803741
 30
0.0
 10
52.332293
 20
4.517929
 30
0.0
  0
SPLINE
  5
11a
100
AcDbEntity
  8
0
 62
7
100
AcDbSpline
 70
8
 71
3
 72
8
 73
4
 74
0
 40
0
 40
0
 40
0
 40
0
 40
1
 40
1
 40
1
 40
1
 10
52.332293
 20
4.517929
 30
0.0
 10
51.837251
 20
4.232116
 30
0.0
 10
51.532293
 20
3.703913
 30
0.0
 10
51.532293
 20
3.132288
 30
0.0
  0
SPLINE
  5
11b
100
AcDbEntity
  8
0
 62
7
100
AcDbSpline
 70
8
 71
3
 72
8
 73
4
 74
0
 40
0
 40
0
 40
0
 40
0
 40
1
 40
1
 40
1
 40
1
 10
51.532293
 20
3.132288
 30
0.0
 10
51.532293
 20
2.560663
 30
0.0
 10
51.837251
 20
2.032460
 30
0.0
 10
52.332293
 20
1.746648
 30
0.0
  0
SPLINE
  5
11c
100
AcDbEntity
  8
0
 62
7
100
AcDbSpline
 70
8
 71
3
 72
8
 73
4
 74
0
 40
0
 40
0
 40
0
 40
0
 40
1
 40
1
 40
1
 40
1
 10
52.332293
 20
1.746648
 30
0.0
 10
52.827334
 20
1.460835
 30
0.0
 10
53.437251
 20
1.460835
 30
0.0
 10
53.932293
 20
1.746648
 30
0.0
  0
SPLINE
  5
11d
100
AcDbEntity
  8
0
 62
7
100
AcDbSpline
 70
8
 71
3
 72
8
 73
4
 74
0
 40
0
 40
0
 40
0
 40
0
 40
1
 40
1
 40
1
 40
1
 10
53.932293
 20
1.746648
 30
0.0
 10
54.427334
 20
2.032460
 30
0.0
 10
54.732293
 20
2.560663
 30
0.0
 10
54.732293
 20
3.132288
 30
0.0
  0
LWPOLYLINE
  5
11e
100
AcDbEntity
  8
0
 62
7
100
AcDbPolyline
 90
1
 70
1
 10
95.132293
 20
72.132211
 30
0.0
  0
SPLINE
  5
11f
100
AcDbEntity
  8
0
 62
7
100
AcDbSpline
 70
8
 71
3
 72
8
 73
4
 74
0
 40
0
 40
0
 40
0
 40
0
 40
1
 40
1
 40
1
 40
1
 10
95.732293
 20
3.132288
 30
0.0
 10
95.732293
 20
3.703913
 30
0.0
 10
95.427335
 20
4.232116
 30
0.0
 10
94.932293
 20
4.517929
 30
0.0
  0
SPLINE
  5
120
100
AcDbEntity
  8
0
 62
7
100
AcDbSpline
 70
8
 71
3
 72
8
 73
4
 74
0
 40
0
 40
0
 40
0
 40
0
 40
1
 40
1
 40
1
 40
1
 10
94.932293
 20
4.517929
 30
0.0
 10
94.437251
 20
4.803741
 30
0.0
 10
93.827335
 20
4.803741
 30
0.0
 10
93.332293
 20
4.517929
 30
0.0
  0
SPLINE
  5
121
100
AcDbEntity
  8
0
 62
7
100
AcDbSpline
 70
8
 71
3
 72
8
 73
4
 74
0
 40
0
 40
0
 40
0
 40
0
 40
1
 40
1
 40
1
 40
1
 10
93.332293
 20
4.517929
 30
0.0
 10
92.837251
 20
4.232116
 30
0.0
 10
92.532293
 20
3.703913
 30
0.0
 10
92.532293
 20
3.132288
 30
0.0
  0
SPLINE
  5
122
100
AcDbEntity
  8
0
 62
7
100
AcDbSpline
 70
8
 71
3
 72
8
 73
4
 74
0
 40
0
 40
0
 40
0
 40
0
 40
1
 40
1
 40
1
 40
1
 10
92.532293
 20
3.132288
 30
0.0
 10
92.532293
 20
2.560663
 30
0.0
 10
92.837251
 20
2.032460
 30
0.0
 10
93.332293
 20
1.746648
 30
0.0
  0
SPLINE
  5
123
100
AcDbEntity
  8
0
 62
7
100
AcDbSpline
 70
8
 71
3
 72
8
 73
4
 74
0
 40
0
 40
0
 40
0
 40
0
 40
1
 40
1
 40
1
 40
1
 10
93.332293
 20
1.746648
 30
0.0
 10
93.827335
 20
1.460835
 30
0.0
 10
94.437251
 20
1.460835
 30
0.0
 10
94.932293
 20
1.746648
 30
0.0
  0
SPLINE
  5
124
100
AcDbEntity
  8
0
 62
7
100
AcDbSpline
 70
8
 71
3
 72
8
 73
4
 74
0
 40
0
 40
0
 40
0
 40
0
 40
1
 40
1
 40
1
 40
1
 10
94.932293
 20
1.746648
 30
0.0
 10
95.427335
 20
2.032460
 30
0.0
 10
95.732293
 20
2.560663
 30
0.0
 10
95.732293
 20
3.132288
 30
0.0
  0
LWPOLYLINE
  5
125
100
AcDbEntity
  8
0
 62
7
100
AcDbPolyline
 90
1
 70
1
 10
54.732293
 20
3.132288
 30
0.0
  0
SPLINE
  5
126
100
AcDbEntity
  8
0
 62
7
100
AcDbSpline
 70
8
 71
3
 72
8
 73
4
 74
0
 40
0
 40
0
 40
0
 40
0
 40
1
 40
1
 40
1
 40
1
 10
103.632294
 20
70.132289
 30
0.0
 10
103.632294
 20
70.132289
 30
0.0
 10
103.632294
 20
2.132296
 30
0.0
 10
103.632294
 20
2.132296
 30
0.0
  0
SPLINE
  5
127
100
AcDbEntity
  8
0
 62
7
100
AcDbSpline
 70
8
 71
3
 72
8
 73
4
 74
0
 40
0
 40
0
 40
0
 40
0
 40
1
 40
1
 40
1
 40
1
 10
103.632294
 20
2.132296
 30
0.0
 10
103.632291
 20
1.601861
 30
0.0
 10
103.843003
 20
1.093150
 30
0.0
 10
104.218075
 20
0.718075
 30
0.0
  0
SPLINE
  5
128
100
AcDbEntity
  8
0
 62
7
100
AcDbSpline
 70
8
 71
3
 72
8
 73
4
 74
0
 40
0
 40
0
 40
0
 40
0
 40
1
 40
1
 40
1
 40
1
 10
104.218075
 20
0.718075
 30
0.0
 10
104.593148
 20
0.343000
 30
0.0
 10
105.101858
 20
0.132284
 30
0.0
 10
105.632292
 20
0.132284
 30
0.0
  0
LWPOLYLINE
  5
129
100
AcDbEntity
  8
0
 62
7
100
AcDbPolyline
 90
1
 70
1
 10
95.732293
 20
3.132288
 30
0.0
  0
SPLINE
  5
12a
100
AcDbEntity
  8
0
 62
7
100
AcDbSpline
 70
8
 71
3
 72
8
 73
4
 74
0
 40
0
 40
0
 40
0
 40
0
 40
1
 40
1
 40
1
 40
1
 10
148.632294
 20
0.132284
 30
0.0
 10
149.162728
 20
0.132284
 30
0.0
 10
149.671438
 20
0.343000
 30
0.0
 10
150.046511
 20
0.718075
 30
0.0
  0
SPLINE
  5
12b
100
AcDbEntity
  8
0
 62
7
100
AcDbSpline
 70
8
 71
3
 72
8
 73
4
 74
0
 40
0
 40
0
 40
0
 40
0
 40
1
 40
1
 40
1
 40
1
 10
150.046511
 20
0.718075
 30
0.0
 10
150.421583
 20
1.093150
 30
0.0
 10
150.632295
 20
1.601861
 30
0.0
 10
150.632292
 20
2.132296
 30
0.0
  0
LWPOLYLINE
  5
12c
100
AcDbEntity
  8
0
 62
7
100
AcDbPolyline
 90
2
 70
0
 10
105.632292
 20
0.132284
 30
0.0
 10
148.632294
 20
0.132284
 30
0.0
  0
SPLINE
  5
12d
100
AcDbEntity
  8
0
 62
7
100
AcDbSpline
 70
8
 71
3
 72
8
 73
4
 74
0
 40
0
 40
0
 40
0
 40
0
 40
1
 40
1
 40
1
 40
1
 10
150.632292
 20
57.132291
 30
0.0
 10
150.632292
 20
57.132291
 30
0.0
 10
150.632292
 20
70.132289
 30
0.0
 10
150.632292
 20
70.132289
 30
0.0
  0
SPLINE
  5
12e
100
AcDbEntity
  8
0
 62
7
100
AcDbSpline
 70
8
 71
3
 72
8
 73
4
 74
0
 40
0
 40
0
 40
0
 40
0
 40
1
 40
1
 40
1
 40
1
 10
150.632292
 20
70.132289
 30
0.0
 10
150.632293
 20
71.236859
 30
0.0
 10
149.736863
 20
72.132290
 30
0.0
 10
148.632294
 20
72.132291
 30
0.0
  0
SPLINE
  5
12f
100
AcDbEntity
  8
0
 62
7
100
AcDbSpline
 70
8
 71
3
 72
8
 73
4
 74
0
 40
0
 40
0
 40
0
 40
0
 40
1
 40
1
 40
1
 40
1
 10
148.632294
 20
72.132291
 30
0.0
 10
148.632294
 20
72.132291
 30
0.0
 10
105.632292
 20
72.132291
 30
0.0
 10
105.632292
 20
72.132291
 30
0.0
  0
SPLINE
  5
130
100
AcDbEntity
  8
0
 62
7
100
AcDbSpline
 70
8
 71
3
 72
8
 73
4
 74
0
 40
0
 40
0
 40
0
 40
0
 40
1
 40
1
 40
1
 40
1
 10
105.632292
 20
72.132291
 30
0.0
 10
104.527723
 20
72.132290
 30
0.0
 10
103.632293
 20
71.236859
 30
0.0
 10
103.632294
 20
70.132289
 30
0.0
  0
LWPOLYLINE
  5
131
100
AcDbEntity
  8
0
 62
7
100
AcDbPolyline
 90
2
 70
0
 10
150.632292
 20
2.132296
 30
0.0
 10
150.632292
 20
57.132291
 30
0.0
  0
SPLINE
  5
132
100
AcDbEntity
  8
0
 62
7
100
AcDbSpline
 70
8
 71
3
 72
8
 73
4
 74
0
 40
0
 40
0
 40
0
 40
0
 40
1
 40
1
 40
1
 40
1
 10
108.232292
 20
3.132288
 30
0.0
 10
108.232292
 20
3.703913
 30
0.0
 10
107.927334
 20
4.232117
 30
0.0
 10
107.432292
 20
4.517929
 30
0.0
  0
SPLINE
  5
133
100
AcDbEntity
  8
0
 62
7
100
AcDbSpline
 70
8
 71
3
 72
8
 73
4
 74
0
 40
0
 40
0
 40
0
 40
0
 40
1
 40
1
 40
1
 40
1
 10
107.432292
 20
4.517929
 30
0.0
 10
106.937250
 20
4.803742
 30
0.0
 10
106.327333
 20
4.803742
 30
0.0
 10
105.832292
 20
4.517929
 30
0.0
  0
SPLINE
  5
134
100
AcDbEntity
  8
0
 62
7
100
AcDbSpline
 70
8
 71
3
 72
8
 73
4
 74
0
 40
0
 40
0
 40
0
 40
0
 40
1
 40
1
 40
1
 40
1
 10
105.832292
 20
4.517929
 30
0.0
 10
105.337250
 20
4.232117
 30
0.0
 10
105.032291
 20
3.703913
 30
0.0
 10
105.032291
 20
3.132288
 30
0.0
  0
SPLINE
  5
135
100
AcDbEntity
  8
0
 62
7
100
AcDbSpline
 70
8
 71
3
 72
8
 73
4
 74
0
 40
0
 40
0
 40
0
 40
0
 40
1
 40
1
 40
1
 40
1
 10
105.032291
 20
3.132288
 30
0.0
 10
105.032291
 20
2.560663
 30
0.0
 10
105.337250
 20
2.032460
 30
0.0
 10
105.832292
 20
1.746647
 30
0.0
  0
SPLINE
  5
136
100
AcDbEntity
  8
0
 62
7
100
AcDbSpline
 70
8
 71
3
 72
8
 73
4
 74
0
 40
0
 40
0
 40
0
 40
0
 40
1
 40
1
 40
1
 40
1
 10
105.832292
 20
1.746647
 30
0.0
 10
106.327333
 20
1.460835
 30
0.0
 10
106.937250
 20
1.460835
 30
0.0
 10
107.432292
 20
1.746647
 30
0.0
  0
SPLINE
  5
137
100
AcDbEntity
  8
0
 62
7
100
AcDbSpline
 70
8
 71
3
 72
8
 73
4
 74
0
 40
0
 40
0
 40
0
 40
0
 40
1
 40
1
 40
1
 40
1
 10
107.432292
 20
1.746647
 30
0.0
 10
107.927334
 20
2.032460
 30
0.0
 10
108.232292
 20
2.560663
 30
0.0
 10
108.232292
 20
3.132288
 30
0.0
  0
LWPOLYLINE
  5
138
100
AcDbEntity
  8
0
 62
7
100
AcDbPolyline
 90
1
 70
1
 10
103.632294
 20
70.132289
 30
0.0
  0
SPLINE
  5
139
100
AcDbEntity
  8
0
 62
7
100
AcDbSpline
 70
8
 71
3
 72
8
 73
4
 74
0
 40
0
 40
0
 40
0
 40
0
 40
1
 40
1
 40
1
 40
1
 10
149.232292
 20
3.132288
 30
0.0
 10
149.232990
 20
3.704378
 30
0.0
 10
148.928184
 20
4.233309
 30
0.0
 10
148.432856
 20
4.519556
 30
0.0
  0
SPLINE
  5
13a
100
AcDbEntity
  8
0
 62
7
100
AcDbSpline
 70
8
 71
3
 72
8
 73
4
 74
0
 40
0
 40
0
 40
0
 40
0
 40
1
 40
1
 40
1
 40
1
 10
148.432856
 20
4.519556
 30
0.0
 10
147.937528
 20
4.805802
 30
0.0
 10
147.327058
 20
4.805802
 30
0.0
 10
146.831730
 20
4.519556
 30
0.0
  0
SPLINE
  5
13b
100
AcDbEntity
  8
0
 62
7
100
AcDbSpline
 70
8
 71
3
 72
8
 73
4
 74
0
 40
0
 40
0
 40
0
 40
0
 40
1
 40
1
 40
1
 40
1
 10
146.831730
 20
4.519556
 30
0.0
 10
146.336402
 20
4.233309
 30
0.0
 10
146.031596
 20
3.704378
 30
0.0
 10
146.032294
 20
3.132288
 30
0.0
  0
SPLINE
  5
13c
100
AcDbEntity
  8
0
 62
7
100
AcDbSpline
 70
8
 71
3
 72
8
 73
4
 74
0
 40
0
 40
0
 40
0
 40
0
 40
1
 40
1
 40
1
 40
1
 10
146.032294
 20
3.132288
 30
0.0
 10
146.031596
 20
2.560199
 30
0.0
 10
146.336402
 20
2.031267
 30
0.0
 10
146.831730
 20
1.745021
 30
0.0
  0
SPLINE
  5
13d
100
AcDbEntity
  8
0
 62
7
100
AcDbSpline
 70
8
 71
3
 72
8
 73
4
 74
0
 40
0
 40
0
 40
0
 40
0
 40
1
 40
1
 40
1
 40
1
 10
146.831730
 20
1.745021
 30
0.0
 10
147.327058
 20
1.458775
 30
0.0
 10
147.937528
 20
1.458775
 30
0.0
 10
148.432856
 20
1.745021
 30
0.0
  0
SPLINE
  5
13e
100
AcDbEntity
  8
0
 62
7
100
AcDbSpline
 70
8
 71
3
 72
8
 73
4
 74
0
 40
0
 40
0
 40
0
 40
0
 40
1
 40
1
 40
1
 40
1
 10
148.432856
 20
1.745021
 30
0.0
 10
148.928184
 20
2.031267
 30
0.0
 10
149.232990
 20
2.560199
 30
0.0
 10
149.232292
 20
3.132288
 30
0.0
  0
LWPOLYLINE
  5
13f
100
AcDbEntity
  8
0
 62
7
100
AcDbPolyline
 90
1
 70
1
 10
108.232292
 20
3.132288
 30
0.0
  0
SPLINE
  5
140
100
AcDbEntity
  8
0
 62
7
100
AcDbSpline
 70
8
 71
3
 72
8
 73
4
 74
0
 40
0
 40
0
 40
0
 40
0
 40
1
 40
1
 40
1
 40
1
 10
155.132294
 20
70.132289
 30
0.0
 10
155.132294
 20
70.132289
 30
0.0
 10
155.132294
 20
2.132296
 30
0.0
 10
155.132294
 20
2.132296
 30
0.0
  0
SPLINE
  5
141
100
AcDbEntity
  8
0
 62
7
100
AcDbSpline
 70
8
 71
3
 72
8
 73
4
 74
0
 40
0
 40
0
 40
0
 40
0
 40
1
 40
1
 40
1
 40
1
 10
155.132294
 20
2.132296
 30
0.0
 10
155.132291
 20
1.601861
 30
0.0
 10
155.343003
 20
1.093150
 30
0.0
 10
155.718076
 20
0.718075
 30
0.0
  0
SPLINE
  5
142
100
AcDbEntity
  8
0
 62
7
100
AcDbSpline
 70
8
 71
3
 72
8
 73
4
 74
0
 40
0
 40
0
 40
0
 40
0
 40
1
 40
1
 40
1
 40
1
 10
155.718076
 20
0.718075
 30
0.0
 10
156.093148
 20
0.343000
 30
0.0
 10
156.601858
 20
0.132284
 30
0.0
 10
157.132293
 20
0.132284
 30
0.0
  0
LWPOLYLINE
  5
143
100
AcDbEntity
  8
0
 62
7
100
AcDbPolyline
 90
1
 70
1
 10
149.232292
 20
3.132288
 30
0.0
  0
SPLINE
  5
144
100
AcDbEntity
  8
0
 62
7
100
AcDbSpline
 70
8
 71
3
 72
8
 73
4
 74
0
 40
0
 40
0
 40
0
 40
0
 40
1
 40
1
 40
1
 40
1
 10
200.132294
 20
0.132284
 30
0.0
 10
200.662729
 20
0.132284
 30
0.0
 10
201.171438
 20
0.343000
 30
0.0
 10
201.546511
 20
0.718075
 30
0.0
  0
SPLINE
  5
145
100
AcDbEntity
  8
0
 62
7
100
AcDbSpline
 70
8
 71
3
 72
8
 73
4
 74
0
 40
0
 40
0
 40
0
 40
0
 40
1
 40
1
 40
1
 40
1
 10
201.546511
 20
0.718075
 30
0.0
 10
201.921584
 20
1.093150
 30
0.0
 10
202.132296
 20
1.601861
 30
0.0
 10
202.132292
 20
2.132296
 30
0.0
  0
LWPOLYLINE
  5
146
100
AcDbEntity
  8
0
 62
7
100
AcDbPolyline
 90
2
 70
0
 10
157.132293
 20
0.132284
 30
0.0
 10
200.132294
 20
0.132284
 30
0.0
  0
SPLINE
  5
147
100
AcDbEntity
  8
0
 62
7
100
AcDbSpline
 70
8
 71
3
 72
8
 73
4
 74
0
 40
0
 40
0
 40
0
 40
0
 40
1
 40
1
 40
1
 40
1
 10
202.132292
 20
57.132291
 30
0.0
 10
202.132292
 20
57.132291
 30
0.0
 10
202.132292
 20
70.132289
 30
0.0
 10
202.132292
 20
70.132289
 30
0.0
  0
SPLINE
  5
148
100
AcDbEntity
  8
0
 62
7
100
AcDbSpline
 70
8
 71
3
 72
8
 73
4
 74
0
 40
0
 40
0
 40
0
 40
0
 40
1
 40
1
 40
1
 40
1
 10
202.132292
 20
70.132289
 30
0.0
 10
202.132293
 20
71.236859
 30
0.0
 10
201.236863
 20
72.132290
 30
0.0
 10
200.132294
 20
72.132291
 30
0.0
  0
SPLINE
  5
149
100
AcDbEntity
  8
0
 62
7
100
AcDbSpline
 70
8
 71
3
 72
8
 73
4
 74
0
 40
0
 40
0
 40
0
 40
0
 40
1
 40
1
 40
1
 40
1
 10
200.132294
 20
72.132291
 30
0.0
 10
200.132294
 20
72.132291
 30
0.0
 10
157.132293
 20
72.132291
 30
0.0
 10
157.132293
 20
72.132291
 30
0.0
  0
SPLINE
  5
14a
100
AcDbEntity
  8
0
 62
7
100
AcDbSpline
 70
8
 71
3
 72
8
 73
4
 74
0
 40
0
 40
0
 40
0
 40
0
 40
1
 40
1
 40
1
 40
1
 10
157.132293
 20
72.132291
 30
0.0
 10
156.027723
 20
72.132290
 30
0.0
 10
155.132293
 20
71.236859
 30
0.0
 10
155.132294
 20
70.132289
 30
0.0
  0
LWPOLYLINE
  5
14b
100
AcDbEntity
  8
0
 62
7
100
AcDbPolyline
 90
2
 70
0
 10
202.132292
 20
2.132296
 30
0.0
 10
202.132292
 20
57.132291
 30
0.0
  0
SPLINE
  5
14c
100
AcDbEntity
  8
0
 62
7
100
AcDbSpline
 70
8
 71
3
 72
8
 73
4
 74
0
 40
0
 40
0
 40
0
 40
0
 40
1
 40
1
 40
1
 40
1
 10
200.732292
 20
3.132288
 30
0.0
 10
200.732950
 20
3.704351
 30
0.0
 10
200.428136
 20
4.233241
 30
0.0
 10
199.932824
 20
4.519462
 30
0.0
  0
SPLINE
  5
14d
100
AcDbEntity
  8
0
 62
7
100
AcDbSpline
 70
8
 71
3
 72
8
 73
4
 74
0
 40
0
 40
0
 40
0
 40
0
 40
1
 40
1
 40
1
 40
1
 10
199.932824
 20
4.519462
 30
0.0
 10
199.437513
 20
4.805684
 30
0.0
 10
198.827074
 20
4.805684
 30
0.0
 10
198.331762
 20
4.519462
 30
0.0
  0
SPLINE
  5
14e
100
AcDbEntity
  8
0
 62
7
100
AcDbSpline
 70
8
 71
3
 72
8
 73
4
 74
0
 40
0
 40
0
 40
0
 40
0
 40
1
 40
1
 40
1
 40
1
 10
198.331762
 20
4.519462
 30
0.0
 10
197.836450
 20
4.233241
 30
0.0
 10
197.531636
 20
3.704351
 30
0.0
 10
197.532294
 20
3.132288
 30
0.0
  0
SPLINE
  5
14f
100
AcDbEntity
  8
0
 62
7
100
AcDbSpline
 70
8
 71
3
 72
8
 73
4
 74
0
 40
0
 40
0
 40
0
 40
0
 40
1
 40
1
 40
1
 40
1
 10
197.532294
 20
3.132288
 30
0.0
 10
197.531636
 20
2.560225
 30
0.0
 10
197.836450
 20
2.031336
 30
0.0
 10
198.331762
 20
1.745114
 30
0.0
  0
SPLINE
  5
150
100
AcDbEntity
  8
0
 62
7
100
AcDbSpline
 70
8
 71
3
 72
8
 73
4
 74
0
 40
0
 40
0
 40
0
 40
0
 40
1
 40
1
 40
1
 40
1
 10
198.331762
 20
1.745114
 30
0.0
 10
198.827074
 20
1.458893
 30
0.0
 10
199.437513
 20
1.458893
 30
0.0
 10
199.932824
 20
1.745114
 30
0.0
  0
SPLINE
  5
151
100
AcDbEntity
  8
0
 62
7
100
AcDbSpline
 70
8
 71
3
 72
8
 73
4
 74
0
 40
0
 40
0
 40
0
 40
0
 40
1
 40
1
 40
1
 40
1
 10
199.932824
 20
1.745114
 30
0.0
 10
200.428136
 20
2.031336
 30
0.0
 10
200.732950
 20
2.560225
 30
0.0
 10
200.732292
 20
3.132288
 30
0.0
  0
LWPOLYLINE
  5
152
100
AcDbEntity
  8
0
 62
7
100
AcDbPolyline
 90
1
 70
1
 10
155.132294
 20
70.132289
 30
0.0
  0
SPLINE
  5
153
100
AcDbEntity
  8
0
 62
7
100
AcDbSpline
 70
8
 71
3
 72
8
 73
4
 74
0
 40
0
 40
0
 40
0
 40
0
 40
1
 40
1
 40
1
 40
1
 10
159.732292
 20
3.132288
 30
0.0
 10
159.732292
 20
3.703913
 30
0.0
 10
159.427334
 20
4.232117
 30
0.0
 10
158.932292
 20
4.517929
 30
0.0
  0
SPLINE
  5
154
100
AcDbEntity
  8
0
 62
7
100
AcDbSpline
 70
8
 71
3
 72
8
 73
4
 74
0
 40
0
 40
0
 40
0
 40
0
 40
1
 40
1
 40
1
 40
1
 10
158.932292
 20
4.517929
 30
0.0
 10
158.437250
 20
4.803742
 30
0.0
 10
157.827334
 20
4.803742
 30
0.0
 10
157.332292
 20
4.517929
 30
0.0
  0
SPLINE
  5
155
100
AcDbEntity
  8
0
 62
7
100
AcDbSpline
 70
8
 71
3
 72
8
 73
4
 74
0
 40
0
 40
0
 40
0
 40
0
 40
1
 40
1
 40
1
 40
1
 10
157.332292
 20
4.517929
 30
0.0
 10
156.837250
 20
4.232117
 30
0.0
 10
156.532292
 20
3.703913
 30
0.0
 10
156.532292
 20
3.132288
 30
0.0
  0
SPLINE
  5
156
100
AcDbEntity
  8
0
 62
7
100
AcDbSpline
 70
8
 71
3
 72
8
 73
4
 74
0
 40
0
 40
0
 40
0
 40
0
 40
1
 40
1
 40
1
 40
1
 10
156.532292
 20
3.132288
 30
0.0
 10
156.532292
 20
2.560663
 30
0.0
 10
156.837250
 20
2.032460
 30
0.0
 10
157.332292
 20
1.746647
 30
0.0
  0
SPLINE
  5
157
100
AcDbEntity
  8
0
 62
7
100
AcDbSpline
 70
8
 71
3
 72
8
 73
4
 74
0
 40
0
 40
0
 40
0
 40
0
 40
1
 40
1
 40
1
 40
1
 10
157.332292
 20
1.746647
 30
0.0
 10
157.827334
 20
1.460835
 30
0.0
 10
158.437250
 20
1.460835
 30
0.0
 10
158.932292
 20
1.746647
 30
0.0
  0
SPLINE
  5
158
100
AcDbEntity
  8
0
 62
7
100
AcDbSpline
 70
8
 71
3
 72
8
 73
4
 74
0
 40
0
 40
0
 40
0
 40
0
 40
1
 40
1
 40
1
 40
1
 10
158.932292
 20
1.746647
 30
0.0
 10
159.427334
 20
2.032460
 30
0.0
 10
159.732292
 20
2.560663
 30
0.0
 10
159.732292
 20
3.132288
 30
0.0
  0
LWPOLYLINE
  5
159
100
AcDbEntity
  8
0
 62
7
100
AcDbPolyline
 90
1
 70
1
 10
200.732292
 20
3.132288
 30
0.0
  0
SPLINE
  5
15a
100
AcDbEntity
  8
0
 62
7
100
AcDbSpline
 70
8
 71
3
 72
8
 73
4
 74
0
 40
0
 40
0
 40
0
 40
0
 40
1
 40
1
 40
1
 40
1
 10
165.232292
 20
36.132286
 30
0.0
 10
165.232950
 20
36.704349
 30
0.0
 10
164.928136
 20
37.233238
 30
0.0
 10
164.432824
 20
37.519460
 30
0.0
  0
SPLINE
  5
15b
100
AcDbEntity
  8
0
 62
7
100
AcDbSpline
 70
8
 71
3
 72
8
 73
4
 74
0
 40
0
 40
0
 40
0
 40
0
 40
1
 40
1
 40
1
 40
1
 10
164.432824
 20
37.519460
 30
0.0
 10
163.937512
 20
37.805681
 30
0.0
 10
163.327073
 20
37.805681
 30
0.0
 10
162.831762
 20
37.519460
 30
0.0
  0
SPLINE
  5
15c
100
AcDbEntity
  8
0
 62
7
100
AcDbSpline
 70
8
 71
3
 72
8
 73
4
 74
0
 40
0
 40
0
 40
0
 40
0
 40
1
 40
1
 40
1
 40
1
 10
162.831762
 20
37.519460
 30
0.0
 10
162.336450
 20
37.233238
 30
0.0
 10
162.031636
 20
36.704349
 30
0.0
 10
162.032294
 20
36.132286
 30
0.0
  0
SPLINE
  5
15d
100
AcDbEntity
  8
0
 62
7
100
AcDbSpline
 70
8
 71
3
 72
8
 73
4
 74
0
 40
0
 40
0
 40
0
 40
0
 40
1
 40
1
 40
1
 40
1
 10
162.032294
 20
36.132286
 30
0.0
 10
162.031636
 20
35.560223
 30
0.0
 10
162.336450
 20
35.031333
 30
0.0
 10
162.831762
 20
34.745112
 30
0.0
  0
SPLINE
  5
15e
100
AcDbEntity
  8
0
 62
7
100
AcDbSpline
 70
8
 71
3
 72
8
 73
4
 74
0
 40
0
 40
0
 40
0
 40
0
 40
1
 40
1
 40
1
 40
1
 10
162.831762
 20
34.745112
 30
0.0
 10
163.327073
 20
34.458890
 30
0.0
 10
163.937512
 20
34.458890
 30
0.0
 10
164.432824
 20
34.745112
 30
0.0
  0
SPLINE
  5
15f
100
AcDbEntity
  8
0
 62
7
100
AcDbSpline
 70
8
 71
3
 72
8
 73
4
 74
0
 40
0
 40
0
 40
0
 40
0
 40
1
 40
1
 40
1
 40
1
 10
164.432824
 20
34.745112
 30
0.0
 10
164.928136
 20
35.031333
 30
0.0
 10
165.232950
 20
35.560223
 30
0.0
 10
165.232292
 20
36.132286
 30
0.0
  0
LWPOLYLINE
  5
160
100
AcDbEntity
  8
0
 62
7
100
AcDbPolyline
 90
1
 70
1
 10
159.732292
 20
3.132288
 30
0.0
  0
SPLINE
  5
161
100
AcDbEntity
  8
0
 62
7
100
AcDbSpline
 70
8
 71
3
 72
8
 73
4
 74
0
 40
0
 40
0
 40
0
 40
0
 40
1
 40
1
 40
1
 40
1
 10
195.232293
 20
36.132286
 30
0.0
 10
195.232293
 20
36.703911
 30
0.0
 10
194.927334
 20
37.232114
 30
0.0
 10
194.432292
 20
37.517927
 30
0.0
  0
SPLINE
  5
162
100
AcDbEntity
  8
0
 62
7
100
AcDbSpline
 70
8
 71
3
 72
8
 73
4
 74
0
 40
0
 40
0
 40
0
 40
0
 40
1
 40
1
 40
1
 40
1
 10
194.432292
 20
37.517927
 30
0.0
 10
193.937251
 20
37.803739
 30
0.0
 10
193.327334
 20
37.803739
 30
0.0
 10
192.832292
 20
37.517927
 30
0.0
  0
SPLINE
  5
163
100
AcDbEntity
  8
0
 62
7
100
AcDbSpline
 70
8
 71
3
 72
8
 73
4
 74
0
 40
0
 40
0
 40
0
 40
0
 40
1
 40
1
 40
1
 40
1
 10
192.832292
 20
37.517927
 30
0.0
 10
192.337250
 20
37.232114
 30
0.0
 10
192.032292
 20
36.703911
 30
0.0
 10
192.032292
 20
36.132286
 30
0.0
  0
SPLINE
  5
164
100
AcDbEntity
  8
0
 62
7
100
AcDbSpline
 70
8
 71
3
 72
8
 73
4
 74
0
 40
0
 40
0
 40
0
 40
0
 40
1
 40
1
 40
1
 40
1
 10
192.032292
 20
36.132286
 30
0.0
 10
192.032292
 20
35.560661
 30
0.0
 10
192.337250
 20
35.032457
 30
0.0
 10
192.832292
 20
34.746645
 30
0.0
  0
SPLINE
  5
165
100
AcDbEntity
  8
0
 62
7
100
AcDbSpline
 70
8
 71
3
 72
8
 73
4
 74
0
 40
0
 40
0
 40
0
 40
0
 40
1
 40
1
 40
1
 40
1
 10
192.832292
 20
34.746645
 30
0.0
 10
193.327334
 20
34.460832
 30
0.0
 10
193.937251
 20
34.460832
 30
0.0
 10
194.432292
 20
34.746645
 30
0.0
  0
SPLINE
  5
166
100
AcDbEntity
  8
0
 62
7
100
AcDbSpline
 70
8
 71
3
 72
8
 73
4
 74
0
 40
0
 40
0
 40
0
 40
0
 40
1
 40
1
 40
1
 40
1
 10
194.432292
 20
34.746645
 30
0.0
 10
194.927334
 20
35.032457
 30
0.0
 10
195.232293
 20
35.560661
 30
0.0
 10
195.232293
 20
36.132286
 30
0.0
  0
LWPOLYLINE
  5
167
100
AcDbEntity
  8
0
 62
7
100
AcDbPolyline
 90
1
 70
1
 10
165.232292
 20
36.132286
 30
0.0
  0
SPLINE
  5
168
100
AcDbEntity
  8
0
 62
7
100
AcDbSpline
 70
8
 71
3
 72
8
 73
4
 74
0
 40
0
 40
0
 40
0
 40
0
 40
1
 40
1
 40
1
 40
1
 10
0.132292
 20
2.132296
 30
0.0
 10
0.132289
 20
1.601860
 30
0.0
 10
0.343001
 20
1.093149
 30
0.0
 10
0.718074
 20
0.718074
 30
0.0
  0
SPLINE
  5
169
100
AcDbEntity
  8
0
 62
7
100
AcDbSpline
 70
8
 71
3
 72
8
 73
4
 74
0
 40
0
 40
0
 40
0
 40
0
 40
1
 40
1
 40
1
 40
1
 10
0.718074
 20
0.718074
 30
0.0
 10
1.093148
 20
0.342999
 30
0.0
 10
1.601858
 20
0.132283
 30
0.0
 10
2.132293
 20
0.132284
 30
0.0
  0
LWPOLYLINE
  5
16a
100
AcDbEntity
  8
0
 62
7
100
AcDbPolyline
 90
1
 70
1
 10
195.232293
 20
36.132286
 30
0.0
  0
SPLINE
  5
16b
100
AcDbEntity
  8
0
 62
7
100
AcDbSpline
 70
8
 71
3
 72
8
 73
4
 74
0
 40
0
 40
0
 40
0
 40
0
 40
1
 40
1
 40
1
 40
1
 10
45.132294
 20
0.132284
 30
0.0
 10
45.662729
 20
0.132284
 30
0.0
 10
46.171438
 20
0.343000
 30
0.0
 10
46.546511
 20
0.718075
 30
0.0
  0
SPLINE
  5
16c
100
AcDbEntity
  8
0
 62
7
100
AcDbSpline
 70
8
 71
3
 72
8
 73
4
 74
0
 40
0
 40
0
 40
0
 40
0
 40
1
 40
1
 40
1
 40
1
 10
46.546511
 20
0.718075
 30
0.0
 10
46.921584
 20
1.093150
 30
0.0
 10
47.132296
 20
1.601861
 30
0.0
 10
47.132293
 20
2.132296
 30
0.0
  0
SPLINE
  5
16d
100
AcDbEntity
  8
0
 62
7
100
AcDbSpline
 70
8
 71
3
 72
8
 73
4
 74
0
 40
0
 40
0
 40
0
 40
0
 40
1
 40
1
 40
1
 40
1
 10
47.132293
 20
2.132296
 30
0.0
 10
47.132293
 20
2.132296
 30
0.0
 10
47.132293
 20
19.132277
 30
0.0
 10
47.132293
 20
19.132277
 30
0.0
  0
SPLINE
  5
16e
100
AcDbEntity
  8
0
 62
7
100
AcDbSpline
 70
8
 71
3
 72
8
 73
4
 74
0
 40
0
 40
0
 40
0
 40
0
 40
1
 40
1
 40
1
 40
1
 10
47.132293
 20
19.132277
 30
0.0
 10
47.132296
 20
19.662712
 30
0.0
 10
46.921584
 20
20.171423
 30
0.0
 10
46.546511
 20
20.546498
 30
0.0
  0
SPLINE
  5
16f
100
AcDbEntity
  8
0
 62
7
100
AcDbSpline
 70
8
 71
3
 72
8
 73
4
 74
0
 40
0
 40
0
 40
0
 40
0
 40
1
 40
1
 40
1
 40
1
 10
46.546511
 20
20.546498
 30
0.0
 10
46.171438
 20
20.921574
 30
0.0
 10
45.662729
 20
21.132289
 30
0.0
 10
45.132294
 20
21.132289
 30
0.0
  0
LWPOLYLINE
  5
170
100
AcDbEntity
  8
0
 62
7
100
AcDbPolyline
 90
2
 70
0
 10
2.132293
 20
0.132284
 30
0.0
 10
45.132294
 20
0.132284
 30
0.0
  0
SPLINE
  5
171
100
AcDbEntity
  8
0
 62
7
100
AcDbSpline
 70
8
 71
3
 72
8
 73
4
 74
0
 40
0
 40
0
 40
0
 40
0
 40
1
 40
1
 40
1
 40
1
 10
39.632292
 20
21.132289
 30
0.0
 10
39.475963
 20
21.132259
 30
0.0
 10
39.319677
 20
21.137465
 30
0.0
 10
39.163696
 20
21.147900
 30
0.0
  0
SPLINE
  5
172
100
AcDbEntity
  8
0
 62
7
100
AcDbSpline
 70
8
 71
3
 72
8
 73
4
 74
0
 40
0
 40
0
 40
0
 40
0
 40
1
 40
1
 40
1
 40
1
 10
39.163696
 20
21.147900
 30
0.0
 10
36.688811
 20
21.001515
 30
0.0
 10
34.263149
 20
21.882527
 30
0.0
 10
32.459070
 20
23.583052
 30
0.0
  0
SPLINE
  5
173
100
AcDbEntity
  8
0
 62
7
100
AcDbSpline
 70
8
 71
3
 72
8
 73
4
 74
0
 40
0
 40
0
 40
0
 40
0
 40
1
 40
1
 40
1
 40
1
 10
32.459070
 20
23.583052
 30
0.0
 10
30.654991
 20
25.283576
 30
0.0
 10
29.632294
 20
27.652987
 30
0.0
 10
29.632294
 20
30.132197
 30
0.0
  0
SPLINE
  5
174
100
AcDbEntity
  8
0
 62
7
100
AcDbSpline
 70
8
 71
3
 72
8
 73
4
 74
0
 40
0
 40
0
 40
0
 40
0
 40
1
 40
1
 40
1
 40
1
 10
29.632294
 20
30.132197
 30
0.0
 10
29.632294
 20
30.132197
 30
0.0
 10
29.632294
 20
46.132213
 30
0.0
 10
29.632294
 20
46.132213
 30
0.0
  0
SPLINE
  5
175
100
AcDbEntity
  8
0
 62
7
100
AcDbSpline
 70
8
 71
3
 72
8
 73
4
 74
0
 40
0
 40
0
 40
0
 40
0
 40
1
 40
1
 40
1
 40
1
 10
29.632294
 20
46.132213
 30
0.0
 10
29.632301
 20
51.102771
 30
0.0
 10
33.661736
 20
55.132200
 30
0.0
 10
38.632294
 20
55.132200
 30
0.0
  0
LWPOLYLINE
  5
176
100
AcDbEntity
  8
0
 62
7
100
AcDbPolyline
 90
2
 70
0
 10
45.132294
 20
21.132289
 30
0.0
 10
39.632292
 20
21.132289
 30
0.0
  0
SPLINE
  5
177
100
AcDbEntity
  8
0
 62
7
100
AcDbSpline
 70
8
 71
3
 72
8
 73
4
 74
0
 40
0
 40
0
 40
0
 40
0
 40
1
 40
1
 40
1
 40
1
 10
45.132294
 20
55.132200
 30
0.0
 10
45.662729
 20
55.132201
 30
0.0
 10
46.171438
 20
55.342916
 30
0.0
 10
46.546511
 20
55.717991
 30
0.0
  0
SPLINE
  5
178
100
AcDbEntity
  8
0
 62
7
100
AcDbSpline
 70
8
 71
3
 72
8
 73
4
 74
0
 40
0
 40
0
 40
0
 40
0
 40
1
 40
1
 40
1
 40
1
 10
46.546511
 20
55.717991
 30
0.0
 10
46.921584
 20
56.093067
 30
0.0
 10
47.132296
 20
56.601777
 30
0.0
 10
47.132293
 20
57.132212
 30
0.0
  0
SPLINE
  5
179
100
AcDbEntity
  8
0
 62
7
100
AcDbSpline
 70
8
 71
3
 72
8
 73
4
 74
0
 40
0
 40
0
 40
0
 40
0
 40
1
 40
1
 40
1
 40
1
 10
47.132293
 20
57.132212
 30
0.0
 10
47.132293
 20
57.132212
 30
0.0
 10
47.132293
 20
70.132210
 30
0.0
 10
47.132293
 20
70.132210
 30
0.0
  0
SPLINE
  5
17a
100
AcDbEntity
  8
0
 62
7
100
AcDbSpline
 70
8
 71
3
 72
8
 73
4
 74
0
 40
0
 40
0
 40
0
 40
0
 40
1
 40
1
 40
1
 40
1
 10
47.132293
 20
70.132210
 30
0.0
 10
47.132294
 20
71.236779
 30
0.0
 10
46.236864
 20
72.132210
 30
0.0
 10
45.132294
 20
72.132211
 30
0.0
  0
SPLINE
  5
17b
100
AcDbEntity
  8
0
 62
7
100
AcDbSpline
 70
8
 71
3
 72
8
 73
4
 74
0
 40
0
 40
0
 40
0
 40
0
 40
1
 40
1
 40
1
 40
1
 10
45.132294
 20
72.132211
 30
0.0
 10
45.132294
 20
72.132211
 30
0.0
 10
2.132293
 20
72.132211
 30
0.0
 10
2.132293
 20
72.132211
 30
0.0
  0
SPLINE
  5
17c
100
AcDbEntity
  8
0
 62
7
100
AcDbSpline
 70
8
 71
3
 72
8
 73
4
 74
0
 40
0
 40
0
 40
0
 40
0
 40
1
 40
1
 40
1
 40
1
 10
2.132293
 20
72.132211
 30
0.0
 10
1.601860
 20
72.132212
 30
0.0
 10
1.093151
 20
71.921498
 30
0.0
 10
0.718078
 20
71.546425
 30
0.0
  0
SPLINE
  5
17d
100
AcDbEntity
  8
0
 62
7
100
AcDbSpline
 70
8
 71
3
 72
8
 73
4
 74
0
 40
0
 40
0
 40
0
 40
0
 40
1
 40
1
 40
1
 40
1
 10
0.718078
 20
71.546425
 30
0.0
 10
0.343005
 20
71.171352
 30
0.0
 10
0.132291
 20
70.662643
 30
0.0
 10
0.132292
 20
70.132210
 30
0.0
  0
LWPOLYLINE
  5
17e
100
AcDbEntity
  8
0
 62
7
100
AcDbPolyline
 90
2
 70
0
 10
38.632294
 20
55.132200
 30
0.0
 10
45.132294
 20
55.132200
 30
0.0
  0
SPLINE
  5
17f
100
AcDbEntity
  8
0
 62
7
100
AcDbSpline
 70
8
 71
3
 72
8
 73
4
 74
0
 40
0
 40
0
 40
0
 40
0
 40
1
 40
1
 40
1
 40
1
 10
4.732293
 20
3.132288
 30
0.0
 10
4.732293
 20
3.703913
 30
0.0
 10
4.427334
 20
4.232117
 30
0.0
 10
3.932292
 20
4.517929
 30
0.0
  0
SPLINE
  5
180
100
AcDbEntity
  8
0
 62
7
100
AcDbSpline
 70
8
 71
3
 72
8
 73
4
 74
0
 40
0
 40
0
 40
0
 40
0
 40
1
 40
1
 40
1
 40
1
 10
3.932292
 20
4.517929
 30
0.0
 10
3.437251
 20
4.803742
 30
0.0
 10
2.827334
 20
4.803742
 30
0.0
 10
2.332292
 20
4.517929
 30
0.0
  0
SPLINE
  5
181
100
AcDbEntity
  8
0
 62
7
100
AcDbSpline
 70
8
 71
3
 72
8
 73
4
 74
0
 40
0
 40
0
 40
0
 40
0
 40
1
 40
1
 40
1
 40
1
 10
2.332292
 20
4.517929
 30
0.0
 10
1.837250
 20
4.232117
 30
0.0
 10
1.532292
 20
3.703913
 30
0.0
 10
1.532292
 20
3.132288
 30
0.0
  0
SPLINE
  5
182
100
AcDbEntity
  8
0
 62
7
100
AcDbSpline
 70
8
 71
3
 72
8
 73
4
 74
0
 40
0
 40
0
 40
0
 40
0
 40
1
 40
1
 40
1
 40
1
 10
1.532292
 20
3.132288
 30
0.0
 10
1.532292
 20
2.560663
 30
0.0
 10
1.837250
 20
2.032460
 30
0.0
 10
2.332292
 20
1.746647
 30
0.0
  0
SPLINE
  5
183
100
AcDbEntity
  8
0
 62
7
100
AcDbSpline
 70
8
 71
3
 72
8
 73
4
 74
0
 40
0
 40
0
 40
0
 40
0
 40
1
 40
1
 40
1
 40
1
 10
2.332292
 20
1.746647
 30
0.0
 10
2.827334
 20
1.460835
 30
0.0
 10
3.437251
 20
1.460835
 30
0.0
 10
3.932292
 20
1.746647
 30
0.0
  0
SPLINE
  5
184
100
AcDbEntity
  8
0
 62
7
100
AcDbSpline
 70
8
 71
3
 72
8
 73
4
 74
0
 40
0
 40
0
 40
0
 40
0
 40
1
 40
1
 40
1
 40
1
 10
3.932292
 20
1.746647
 30
0.0
 10
4.427334
 20
2.032460
 30
0.0
 10
4.732293
 20
2.560663
 30
0.0
 10
4.732293
 20
3.132288
 30
0.0
  0
LWPOLYLINE
  5
185
100
AcDbEntity
  8
0
 62
7
100
AcDbPolyline
 90
2
 70
0
 10
0.132292
 20
70.132210
 30
0.0
 10
0.132292
 20
2.132296
 30
0.0
  0
SPLINE
  5
186
100
AcDbEntity
  8
0
 62
7
100
AcDbSpline
 70
8
 71
3
 72
8
 73
4
 74
0
 40
0
 40
0
 40
0
 40
0
 40
1
 40
1
 40
1
 40
1
 10
45.732293
 20
3.132288
 30
0.0
 10
45.732293
 20
3.703913
 30
0.0
 10
45.427334
 20
4.232117
 30
0.0
 10
44.932292
 20
4.517929
 30
0.0
  0
SPLINE
  5
187
100
AcDbEntity
  8
0
 62
7
100
AcDbSpline
 70
8
 71
3
 72
8
 73
4
 74
0
 40
0
 40
0
 40
0
 40
0
 40
1
 40
1
 40
1
 40
1
 10
44.932292
 20
4.517929
 30
0.0
 10
44.437251
 20
4.803742
 30
0.0
 10
43.827334
 20
4.803742
 30
0.0
 10
43.332292
 20
4.517929
 30
0.0
  0
SPLINE
  5
188
100
AcDbEntity
  8
0
 62
7
100
AcDbSpline
 70
8
 71
3
 72
8
 73
4
 74
0
 40
0
 40
0
 40
0
 40
0
 40
1
 40
1
 40
1
 40
1
 10
43.332292
 20
4.517929
 30
0.0
 10
42.837250
 20
4.232117
 30
0.0
 10
42.532292
 20
3.703913
 30
0.0
 10
42.532292
 20
3.132288
 30
0.0
  0
SPLINE
  5
189
100
AcDbEntity
  8
0
 62
7
100
AcDbSpline
 70
8
 71
3
 72
8
 73
4
 74
0
 40
0
 40
0
 40
0
 40
0
 40
1
 40
1
 40
1
 40
1
 10
42.532292
 20
3.132288
 30
0.0
 10
42.532292
 20
2.560663
 30
0.0
 10
42.837250
 20
2.032460
 30
0.0
 10
43.332292
 20
1.746647
 30
0.0
  0
SPLINE
  5
18a
100
AcDbEntity
  8
0
 62
7
100
AcDbSpline
 70
8
 71
3
 72
8
 73
4
 74
0
 40
0
 40
0
 40
0
 40
0
 40
1
 40
1
 40
1
 40
1
 10
43.332292
 20
1.746647
 30
0.0
 10
43.827334
 20
1.460835
 30
0.0
 10
44.437251
 20
1.460835
 30
0.0
 10
44.932292
 20
1.746647
 30
0.0
  0
SPLINE
  5
18b
100
AcDbEntity
  8
0
 62
7
100
AcDbSpline
 70
8
 71
3
 72
8
 73
4
 74
0
 40
0
 40
0
 40
0
 40
0
 40
1
 40
1
 40
1
 40
1
 10
44.932292
 20
1.746647
 30
0.0
 10
45.427334
 20
2.032460
 30
0.0
 10
45.732293
 20
2.560663
 30
0.0
 10
45.732293
 20
3.132288
 30
0.0
  0
LWPOLYLINE
  5
18c
100
AcDbEntity
  8
0
 62
7
100
AcDbPolyline
 90
1
 70
1
 10
4.732293
 20
3.132288
 30
0.0
  0
SPLINE
  5
18d
100
AcDbEntity
  8
0
 62
7
100
AcDbSpline
 70
8
 71
3
 72
8
 73
4
 74
0
 40
0
 40
0
 40
0
 40
0
 40
1
 40
1
 40
1
 40
1
 10
45.732293
 20
69.132291
 30
0.0
 10
45.732293
 20
69.703916
 30
0.0
 10
45.427334
 20
70.232120
 30
0.0
 10
44.932292
 20
70.517932
 30
0.0
  0
SPLINE
  5
18e
100
AcDbEntity
  8
0
 62
7
100
AcDbSpline
 70
8
 71
3
 72
8
 73
4
 74
0
 40
0
 40
0
 40
0
 40
0
 40
1
 40
1
 40
1
 40
1
 10
44.932292
 20
70.517932
 30
0.0
 10
44.437251
 20
70.803745
 30
0.0
 10
43.827334
 20
70.803745
 30
0.0
 10
43.332292
 20
70.517932
 30
0.0
  0
SPLINE
  5
18f
100
AcDbEntity
  8
0
 62
7
100
AcDbSpline
 70
8
 71
3
 72
8
 73
4
 74
0
 40
0
 40
0
 40
0
 40
0
 40
1
 40
1
 40
1
 40
1
 10
43.332292
 20
70.517932
 30
0.0
 10
42.837250
 20
70.232120
 30
0.0
 10
42.532292
 20
69.703916
 30
0.0
 10
42.532292
 20
69.132291
 30
0.0
  0
SPLINE
  5
190
100
AcDbEntity
  8
0
 62
7
100
AcDbSpline
 70
8
 71
3
 72
8
 73
4
 74
0
 40
0
 40
0
 40
0
 40
0
 40
1
 40
1
 40
1
 40
1
 10
42.532292
 20
69.132291
 30
0.0
 10
42.532292
 20
68.560666
 30
0.0
 10
42.837250
 20
68.032463
 30
0.0
 10
43.332292
 20
67.746650
 30
0.0
  0
SPLINE
  5
191
100
AcDbEntity
  8
0
 62
7
100
AcDbSpline
 70
8
 71
3
 72
8
 73
4
 74
0
 40
0
 40
0
 40
0
 40
0
 40
1
 40
1
 40
1
 40
1
 10
43.332292
 20
67.746650
 30
0.0
 10
43.827334
 20
67.460838
 30
0.0
 10
44.437251
 20
67.460838
 30
0.0
 10
44.932292
 20
67.746650
 30
0.0
  0
SPLINE
  5
192
100
AcDbEntity
  8
0
 62
7
100
AcDbSpline
 70
8
 71
3
 72
8
 73
4
 74
0
 40
0
 40
0
 40
0
 40
0
 40
1
 40
1
 40
1
 40
1
 10
44.932292
 20
67.746650
 30
0.0
 10
45.427334
 20
68.032463
 30
0.0
 10
45.732293
 20
68.560666
 30
0.0
 10
45.732293
 20
69.132291
 30
0.0
  0
LWPOLYLINE
  5
193
100
AcDbEntity
  8
0
 62
7
100
AcDbPolyline
 90
1
 70
1
 10
45.732293
 20
3.132288
 30
0.0
  0
LWPOLYLINE
  5
194
100
AcDbEntity
  8
0
 62
7
100
AcDbPolyline
 90
1
 70
1
 10
45.732293
 20
69.132291
 30
0.0
  0
LWPOLYLINE
  5
195
100
AcDbEntity
  8
0
 62
7
100
AcDbPolyline
 90
2
 70
0
 10
11.632292
 20
64.632303
 30
0.0
 10
20.632293
 20
64.632303
 30
0.0
  0
SPLINE
  5
196
100
AcDbEntity
  8
0
 62
7
100
AcDbSpline
 70
8
 71
3
 72
8
 73
4
 74
0
 40
0
 40
0
 40
0
 40
0
 40
1
 40
1
 40
1
 40
1
 10
11.632292
 20
64.632303
 30
0.0
 10
10.024595
 20
64.632303
 30
0.0
 10
8.539021
 20
63.774606
 30
0.0
 10
7.735172
 20
62.382299
 30
0.0
  0
SPLINE
  5
197
100
AcDbEntity
  8
0
 62
7
100
AcDbSpline
 70
8
 71
3
 72
8
 73
4
 74
0
 40
0
 40
0
 40
0
 40
0
 40
1
 40
1
 40
1
 40
1
 10
7.735172
 20
62.382299
 30
0.0
 10
6.931323
 20
60.989992
 30
0.0
 10
6.931323
 20
59.274600
 30
0.0
 10
7.735172
 20
57.882293
 30
0.0
  0
SPLINE
  5
198
100
AcDbEntity
  8
0
 62
7
100
AcDbSpline
 70
8
 71
3
 72
8
 73
4
 74
0
 40
0
 40
0
 40
0
 40
0
 40
1
 40
1
 40
1
 40
1
 10
7.735172
 20
57.882293
 30
0.0
 10
8.539021
 20
56.489986
 30
0.0
 10
10.024595
 20
55.632289
 30
0.0
 10
11.632292
 20
55.632289
 30
0.0
  0
SPLINE
  5
199
100
AcDbEntity
  8
0
 62
7
100
AcDbSpline
 70
8
 71
3
 72
8
 73
4
 74
0
 40
0
 40
0
 40
0
 40
0
 40
1
 40
1
 40
1
 40
1
 10
20.631192
 20
55.632289
 30
0.0
 10
22.238890
 20
55.632100
 30
0.0
 10
23.724565
 20
56.489622
 30
0.0
 10
24.528577
 20
57.881834
 30
0.0
  0
SPLINE
  5
19a
100
AcDbEntity
  8
0
 62
7
100
AcDbSpline
 70
8
 71
3
 72
8
 73
4
 74
0
 40
0
 40
0
 40
0
 40
0
 40
1
 40
1
 40
1
 40
1
 10
24.528577
 20
57.881834
 30
0.0
 10
25.332590
 20
59.274047
 30
0.0
 10
25.332791
 20
60.989440
 30
0.0
 10
24.529106
 20
62.381841
 30
0.0
  0
SPLINE
  5
19b
100
AcDbEntity
  8
0
 62
7
100
AcDbSpline
 70
8
 71
3
 72
8
 73
4
 74
0
 40
0
 40
0
 40
0
 40
0
 40
1
 40
1
 40
1
 40
1
 10
24.529106
 20
62.381841
 30
0.0
 10
23.725421
 20
63.774243
 30
0.0
 10
22.239948
 20
64.632114
 30
0.0
 10
20.632251
 20
64.632303
 30
0.0
  0
SPLINE
  5
19c
100
AcDbEntity
  8
0
 62
7
100
AcDbSpline
 70
8
 71
3
 72
8
 73
4
 74
0
 40
0
 40
0
 40
0
 40
0
 40
1
 40
1
 40
1
 40
1
 10
54.732293
 20
69.132291
 30
0.0
 10
54.732293
 20
69.703916
 30
0.0
 10
54.427334
 20
70.232119
 30
0.0
 10
53.932293
 20
70.517932
 30
0.0
  0
SPLINE
  5
19d
100
AcDbEntity
  8
0
 62
7
100
AcDbSpline
 70
8
 71
3
 72
8
 73
4
 74
0
 40
0
 40
0
 40
0
 40
0
 40
1
 40
1
 40
1
 40
1
 10
53.932293
 20
70.517932
 30
0.0
 10
53.437251
 20
70.803744
 30
0.0
 10
52.827334
 20
70.803744
 30
0.0
 10
52.332293
 20
70.517932
 30
0.0
  0
SPLINE
  5
19e
100
AcDbEntity
  8
0
 62
7
100
AcDbSpline
 70
8
 71
3
 72
8
 73
4
 74
0
 40
0
 40
0
 40
0
 40
0
 40
1
 40
1
 40
1
 40
1
 10
52.332293
 20
70.517932
 30
0.0
 10
51.837251
 20
70.232119
 30
0.0
 10
51.532293
 20
69.703916
 30
0.0
 10
51.532293
 20
69.132291
 30
0.0
  0
SPLINE
  5
19f
100
AcDbEntity
  8
0
 62
7
100
AcDbSpline
 70
8
 71
3
 72
8
 73
4
 74
0
 40
0
 40
0
 40
0
 40
0
 40
1
 40
1
 40
1
 40
1
 10
51.532293
 20
69.132291
 30
0.0
 10
51.532293
 20
68.560666
 30
0.0
 10
51.837251
 20
68.032463
 30
0.0
 10
52.332293
 20
67.746651
 30
0.0
  0
SPLINE
  5
1a0
100
AcDbEntity
  8
0
 62
7
100
AcDbSpline
 70
8
 71
3
 72
8
 73
4
 74
0
 40
0
 40
0
 40
0
 40
0
 40
1
 40
1
 40
1
 40
1
 10
52.332293
 20
67.746651
 30
0.0
 10
52.827334
 20
67.460838
 30
0.0
 10
53.437251
 20
67.460838
 30
0.0
 10
53.932293
 20
67.746651
 30
0.0
  0
SPLINE
  5
1a1
100
AcDbEntity
  8
0
 62
7
100
AcDbSpline
 70
8
 71
3
 72
8
 73
4
 74
0
 40
0
 40
0
 40
0
 40
0
 40
1
 40
1
 40
1
 40
1
 10
53.932293
 20
67.746651
 30
0.0
 10
54.427334
 20
68.032463
 30
0.0
 10
54.732293
 20
68.560666
 30
0.0
 10
54.732293
 20
69.132291
 30
0.0
  0
LWPOLYLINE
  5
1a2
100
AcDbEntity
  8
0
 62
7
100
AcDbPolyline
 90
2
 70
0
 10
20.632293
 20
55.632289
 30
0.0
 10
11.632292
 20
55.632289
 30
0.0
  0
SPLINE
  5
1a3
100
AcDbEntity
  8
0
 62
7
100
AcDbSpline
 70
8
 71
3
 72
8
 73
4
 74
0
 40
0
 40
0
 40
0
 40
0
 40
1
 40
1
 40
1
 40
1
 10
95.732293
 20
69.132291
 30
0.0
 10
95.732293
 20
69.703916
 30
0.0
 10
95.427335
 20
70.232119
 30
0.0
 10
94.932293
 20
70.517932
 30
0.0
  0
SPLINE
  5
1a4
100
AcDbEntity
  8
0
 62
7
100
AcDbSpline
 70
8
 71
3
 72
8
 73
4
 74
0
 40
0
 40
0
 40
0
 40
0
 40
1
 40
1
 40
1
 40
1
 10
94.932293
 20
70.517932
 30
0.0
 10
94.437251
 20
70.803744
 30
0.0
 10
93.827335
 20
70.803744
 30
0.0
 10
93.332293
 20
70.517932
 30
0.0
  0
SPLINE
  5
1a5
100
AcDbEntity
  8
0
 62
7
100
AcDbSpline
 70
8
 71
3
 72
8
 73
4
 74
0
 40
0
 40
0
 40
0
 40
0
 40
1
 40
1
 40
1
 40
1
 10
93.332293
 20
70.517932
 30
0.0
 10
92.837251
 20
70.232119
 30
0.0
 10
92.532293
 20
69.703916
 30
0.0
 10
92.532293
 20
69.132291
 30
0.0
  0
SPLINE
  5
1a6
100
AcDbEntity
  8
0
 62
7
100
AcDbSpline
 70
8
 71
3
 72
8
 73
4
 74
0
 40
0
 40
0
 40
0
 40
0
 40
1
 40
1
 40
1
 40
1
 10
92.532293
 20
69.132291
 30
0.0
 10
92.532293
 20
68.560666
 30
0.0
 10
92.837251
 20
68.032463
 30
0.0
 10
93.332293
 20
67.746651
 30
0.0
  0
SPLINE
  5
1a7
100
AcDbEntity
  8
0
 62
7
100
AcDbSpline
 70
8
 71
3
 72
8
 73
4
 74
0
 40
0
 40
0
 40
0
 40
0
 40
1
 40
1
 40
1
 40
1
 10
93.332293
 20
67.746651
 30
0.0
 10
93.827335
 20
67.460838
 30
0.0
 10
94.437251
 20
67.460838
 30
0.0
 10
94.932293
 20
67.746651
 30
0.0
  0
SPLINE
  5
1a8
100
AcDbEntity
  8
0
 62
7
100
AcDbSpline
 70
8
 71
3
 72
8
 73
4
 74
0
 40
0
 40
0
 40
0
 40
0
 40
1
 40
1
 40
1
 40
1
 10
94.932293
 20
67.746651
 30
0.0
 10
95.427335
 20
68.032463
 30
0.0
 10
95.732293
 20
68.560666
 30
0.0
 10
95.732293
 20
69.132291
 30
0.0
  0
LWPOLYLINE
  5
1a9
100
AcDbEntity
  8
0
 62
7
100
AcDbPolyline
 90
1
 70
1
 10
54.732293
 20
69.132291
 30
0.0
  0
SPLINE
  5
1aa
100
AcDbEntity
  8
0
 62
7
100
AcDbSpline
 70
8
 71
3
 72
8
 73
4
 74
0
 40
0
 40
0
 40
0
 40
0
 40
1
 40
1
 40
1
 40
1
 10
4.732293
 20
69.132291
 30
0.0
 10
4.732293
 20
69.703916
 30
0.0
 10
4.427334
 20
70.232120
 30
0.0
 10
3.932292
 20
70.517932
 30
0.0
  0
SPLINE
  5
1ab
100
AcDbEntity
  8
0
 62
7
100
AcDbSpline
 70
8
 71
3
 72
8
 73
4
 74
0
 40
0
 40
0
 40
0
 40
0
 40
1
 40
1
 40
1
 40
1
 10
3.932292
 20
70.517932
 30
0.0
 10
3.437251
 20
70.803745
 30
0.0
 10
2.827334
 20
70.803745
 30
0.0
 10
2.332292
 20
70.517932
 30
0.0
  0
SPLINE
  5
1ac
100
AcDbEntity
  8
0
 62
7
100
AcDbSpline
 70
8
 71
3
 72
8
 73
4
 74
0
 40
0
 40
0
 40
0
 40
0
 40
1
 40
1
 40
1
 40
1
 10
2.332292
 20
70.517932
 30
0.0
 10
1.837250
 20
70.232120
 30
0.0
 10
1.532292
 20
69.703916
 30
0.0
 10
1.532292
 20
69.132291
 30
0.0
  0
SPLINE
  5
1ad
100
AcDbEntity
  8
0
 62
7
100
AcDbSpline
 70
8
 71
3
 72
8
 73
4
 74
0
 40
0
 40
0
 40
0
 40
0
 40
1
 40
1
 40
1
 40
1
 10
1.532292
 20
69.132291
 30
0.0
 10
1.532292
 20
68.560666
 30
0.0
 10
1.837250
 20
68.032463
 30
0.0
 10
2.332292
 20
67.746650
 30
0.0
  0
SPLINE
  5
1ae
100
AcDbEntity
  8
0
 62
7
100
AcDbSpline
 70
8
 71
3
 72
8
 73
4
 74
0
 40
0
 40
0
 40
0
 40
0
 40
1
 40
1
 40
1
 40
1
 10
2.332292
 20
67.746650
 30
0.0
 10
2.827334
 20
67.460838
 30
0.0
 10
3.437251
 20
67.460838
 30
0.0
 10
3.932292
 20
67.746650
 30
0.0
  0
SPLINE
  5
1af
100
AcDbEntity
  8
0
 62
7
100
AcDbSpline
 70
8
 71
3
 72
8
 73
4
 74
0
 40
0
 40
0
 40
0
 40
0
 40
1
 40
1
 40
1
 40
1
 10
3.932292
 20
67.746650
 30
0.0
 10
4.427334
 20
68.032463
 30
0.0
 10
4.732293
 20
68.560666
 30
0.0
 10
4.732293
 20
69.132291
 30
0.0
  0
LWPOLYLINE
  5
1b0
100
AcDbEntity
  8
0
 62
7
100
AcDbPolyline
 90
1
 70
1
 10
95.732293
 20
69.132291
 30
0.0
  0
SPLINE
  5
1b1
100
AcDbEntity
  8
0
 62
7
100
AcDbSpline
 70
8
 71
3
 72
8
 73
4
 74
0
 40
0
 40
0
 40
0
 40
0
 40
1
 40
1
 40
1
 40
1
 10
108.232292
 20
69.132291
 30
0.0
 10
108.232292
 20
69.703916
 30
0.0
 10
107.927334
 20
70.232120
 30
0.0
 10
107.432292
 20
70.517932
 30
0.0
  0
SPLINE
  5
1b2
100
AcDbEntity
  8
0
 62
7
100
AcDbSpline
 70
8
 71
3
 72
8
 73
4
 74
0
 40
0
 40
0
 40
0
 40
0
 40
1
 40
1
 40
1
 40
1
 10
107.432292
 20
70.517932
 30
0.0
 10
106.937250
 20
70.803745
 30
0.0
 10
106.327333
 20
70.803745
 30
0.0
 10
105.832292
 20
70.517932
 30
0.0
  0
SPLINE
  5
1b3
100
AcDbEntity
  8
0
 62
7
100
AcDbSpline
 70
8
 71
3
 72
8
 73
4
 74
0
 40
0
 40
0
 40
0
 40
0
 40
1
 40
1
 40
1
 40
1
 10
105.832292
 20
70.517932
 30
0.0
 10
105.337250
 20
70.232120
 30
0.0
 10
105.032291
 20
69.703916
 30
0.0
 10
105.032291
 20
69.132291
 30
0.0
  0
SPLINE
  5
1b4
100
AcDbEntity
  8
0
 62
7
100
AcDbSpline
 70
8
 71
3
 72
8
 73
4
 74
0
 40
0
 40
0
 40
0
 40
0
 40
1
 40
1
 40
1
 40
1
 10
105.032291
 20
69.132291
 30
0.0
 10
105.032291
 20
68.560666
 30
0.0
 10
105.337250
 20
68.032463
 30
0.0
 10
105.832292
 20
67.746650
 30
0.0
  0
SPLINE
  5
1b5
100
AcDbEntity
  8
0
 62
7
100
AcDbSpline
 70
8
 71
3
 72
8
 73
4
 74
0
 40
0
 40
0
 40
0
 40
0
 40
1
 40
1
 40
1
 40
1
 10
105.832292
 20
67.746650
 30
0.0
 10
106.327333
 20
67.460838
 30
0.0
 10
106.937250
 20
67.460838
 30
0.0
 10
107.432292
 20
67.746650
 30
0.0
  0
SPLINE
  5
1b6
100
AcDbEntity
  8
0
 62
7
100
AcDbSpline
 70
8
 71
3
 72
8
 73
4
 74
0
 40
0
 40
0
 40
0
 40
0
 40
1
 40
1
 40
1
 40
1
 10
107.432292
 20
67.746650
 30
0.0
 10
107.927334
 20
68.032463
 30
0.0
 10
108.232292
 20
68.560666
 30
0.0
 10
108.232292
 20
69.132291
 30
0.0
  0
LWPOLYLINE
  5
1b7
100
AcDbEntity
  8
0
 62
7
100
AcDbPolyline
 90
1
 70
1
 10
4.732293
 20
69.132291
 30
0.0
  0
SPLINE
  5
1b8
100
AcDbEntity
  8
0
 62
7
100
AcDbSpline
 70
8
 71
3
 72
8
 73
4
 74
0
 40
0
 40
0
 40
0
 40
0
 40
1
 40
1
 40
1
 40
1
 10
149.232292
 20
69.132291
 30
0.0
 10
149.232990
 20
69.704381
 30
0.0
 10
148.928184
 20
70.233312
 30
0.0
 10
148.432856
 20
70.519558
 30
0.0
  0
SPLINE
  5
1b9
100
AcDbEntity
  8
0
 62
7
100
AcDbSpline
 70
8
 71
3
 72
8
 73
4
 74
0
 40
0
 40
0
 40
0
 40
0
 40
1
 40
1
 40
1
 40
1
 10
148.432856
 20
70.519558
 30
0.0
 10
147.937528
 20
70.805805
 30
0.0
 10
147.327058
 20
70.805805
 30
0.0
 10
146.831730
 20
70.519558
 30
0.0
  0
SPLINE
  5
1ba
100
AcDbEntity
  8
0
 62
7
100
AcDbSpline
 70
8
 71
3
 72
8
 73
4
 74
0
 40
0
 40
0
 40
0
 40
0
 40
1
 40
1
 40
1
 40
1
 10
146.831730
 20
70.519558
 30
0.0
 10
146.336402
 20
70.233312
 30
0.0
 10
146.031596
 20
69.704381
 30
0.0
 10
146.032294
 20
69.132291
 30
0.0
  0
SPLINE
  5
1bb
100
AcDbEntity
  8
0
 62
7
100
AcDbSpline
 70
8
 71
3
 72
8
 73
4
 74
0
 40
0
 40
0
 40
0
 40
0
 40
1
 40
1
 40
1
 40
1
 10
146.032294
 20
69.132291
 30
0.0
 10
146.031596
 20
68.560202
 30
0.0
 10
146.336402
 20
68.031270
 30
0.0
 10
146.831730
 20
67.745024
 30
0.0
  0
SPLINE
  5
1bc
100
AcDbEntity
  8
0
 62
7
100
AcDbSpline
 70
8
 71
3
 72
8
 73
4
 74
0
 40
0
 40
0
 40
0
 40
0
 40
1
 40
1
 40
1
 40
1
 10
146.831730
 20
67.745024
 30
0.0
 10
147.327058
 20
67.458778
 30
0.0
 10
147.937528
 20
67.458778
 30
0.0
 10
148.432856
 20
67.745024
 30
0.0
  0
SPLINE
  5
1bd
100
AcDbEntity
  8
0
 62
7
100
AcDbSpline
 70
8
 71
3
 72
8
 73
4
 74
0
 40
0
 40
0
 40
0
 40
0
 40
1
 40
1
 40
1
 40
1
 10
148.432856
 20
67.745024
 30
0.0
 10
148.928184
 20
68.031270
 30
0.0
 10
149.232990
 20
68.560202
 30
0.0
 10
149.232292
 20
69.132291
 30
0.0
  0
LWPOLYLINE
  5
1be
100
AcDbEntity
  8
0
 62
7
100
AcDbPolyline
 90
1
 70
1
 10
108.232292
 20
69.132291
 30
0.0
  0
SPLINE
  5
1bf
100
AcDbEntity
  8
0
 62
7
100
AcDbSpline
 70
8
 71
3
 72
8
 73
4
 74
0
 40
0
 40
0
 40
0
 40
0
 40
1
 40
1
 40
1
 40
1
 10
159.732292
 20
69.132291
 30
0.0
 10
159.732292
 20
69.703916
 30
0.0
 10
159.427334
 20
70.232120
 30
0.0
 10
158.932292
 20
70.517932
 30
0.0
  0
SPLINE
  5
1c0
100
AcDbEntity
  8
0
 62
7
100
AcDbSpline
 70
8
 71
3
 72
8
 73
4
 74
0
 40
0
 40
0
 40
0
 40
0
 40
1
 40
1
 40
1
 40
1
 10
158.932292
 20
70.517932
 30
0.0
 10
158.437250
 20
70.803745
 30
0.0
 10
157.827334
 20
70.803745
 30
0.0
 10
157.332292
 20
70.517932
 30
0.0
  0
SPLINE
  5
1c1
100
AcDbEntity
  8
0
 62
7
100
AcDbSpline
 70
8
 71
3
 72
8
 73
4
 74
0
 40
0
 40
0
 40
0
 40
0
 40
1
 40
1
 40
1
 40
1
 10
157.332292
 20
70.517932
 30
0.0
 10
156.837250
 20
70.232120
 30
0.0
 10
156.532292
 20
69.703916
 30
0.0
 10
156.532292
 20
69.132291
 30
0.0
  0
SPLINE
  5
1c2
100
AcDbEntity
  8
0
 62
7
100
AcDbSpline
 70
8
 71
3
 72
8
 73
4
 74
0
 40
0
 40
0
 40
0
 40
0
 40
1
 40
1
 40
1
 40
1
 10
156.532292
 20
69.132291
 30
0.0
 10
156.532292
 20
68.560666
 30
0.0
 10
156.837250
 20
68.032463
 30
0.0
 10
157.332292
 20
67.746650
 30
0.0
  0
SPLINE
  5
1c3
100
AcDbEntity
  8
0
 62
7
100
AcDbSpline
 70
8
 71
3
 72
8
 73
4
 74
0
 40
0
 40
0
 40
0
 40
0
 40
1
 40
1
 40
1
 40
1
 10
157.332292
 20
67.746650
 30
0.0
 10
157.827334
 20
67.460838
 30
0.0
 10
158.437250
 20
67.460838
 30
0.0
 10
158.932292
 20
67.746650
 30
0.0
  0
SPLINE
  5
1c4
100
AcDbEntity
  8
0
 62
7
100
AcDbSpline
 70
8
 71
3
 72
8
 73
4
 74
0
 40
0
 40
0
 40
0
 40
0
 40
1
 40
1
 40
1
 40
1
 10
158.932292
 20
67.746650
 30
0.0
 10
159.427334
 20
68.032463
 30
0.0
 10
159.732292
 20
68.560666
 30
0.0
 10
159.732292
 20
69.132291
 30
0.0
  0
LWPOLYLINE
  5
1c5
100
AcDbEntity
  8
0
 62
7
100
AcDbPolyline
 90
1
 70
1
 10
149.232292
 20
69.132291
 30
0.0
  0
SPLINE
  5
1c6
100
AcDbEntity
  8
0
 62
7
100
AcDbSpline
 70
8
 71
3
 72
8
 73
4
 74
0
 40
0
 40
0
 40
0
 40
0
 40
1
 40
1
 40
1
 40
1
 10
200.732292
 20
69.132291
 30
0.0
 10
200.732950
 20
69.704354
 30
0.0
 10
200.428136
 20
70.233244
 30
0.0
 10
199.932824
 20
70.519465
 30
0.0
  0
SPLINE
  5
1c7
100
AcDbEntity
  8
0
 62
7
100
AcDbSpline
 70
8
 71
3
 72
8
 73
4
 74
0
 40
0
 40
0
 40
0
 40
0
 40
1
 40
1
 40
1
 40
1
 10
199.932824
 20
70.519465
 30
0.0
 10
199.437513
 20
70.805687
 30
0.0
 10
198.827074
 20
70.805687
 30
0.0
 10
198.331762
 20
70.519465
 30
0.0
  0
SPLINE
  5
1c8
100
AcDbEntity
  8
0
 62
7
100
AcDbSpline
 70
8
 71
3
 72
8
 73
4
 74
0
 40
0
 40
0
 40
0
 40
0
 40
1
 40
1
 40
1
 40
1
 10
198.331762
 20
70.519465
 30
0.0
 10
197.836450
 20
70.233244
 30
0.0
 10
197.531636
 20
69.704354
 30
0.0
 10
197.532294
 20
69.132291
 30
0.0
  0
SPLINE
  5
1c9
100
AcDbEntity
  8
0
 62
7
100
AcDbSpline
 70
8
 71
3
 72
8
 73
4
 74
0
 40
0
 40
0
 40
0
 40
0
 40
1
 40
1
 40
1
 40
1
 10
197.532294
 20
69.132291
 30
0.0
 10
197.531636
 20
68.560228
 30
0.0
 10
197.836450
 20
68.031339
 30
0.0
 10
198.331762
 20
67.745117
 30
0.0
  0
SPLINE
  5
1ca
100
AcDbEntity
  8
0
 62
7
100
AcDbSpline
 70
8
 71
3
 72
8
 73
4
 74
0
 40
0
 40
0
 40
0
 40
0
 40
1
 40
1
 40
1
 40
1
 10
198.331762
 20
67.745117
 30
0.0
 10
198.827074
 20
67.458896
 30
0.0
 10
199.437513
 20
67.458896
 30
0.0
 10
199.932824
 20
67.745117
 30
0.0
  0
SPLINE
  5
1cb
100
AcDbEntity
  8
0
 62
7
100
AcDbSpline
 70
8
 71
3
 72
8
 73
4
 74
0
 40
0
 40
0
 40
0
 40
0
 40
1
 40
1
 40
1
 40
1
 10
199.932824
 20
67.745117
 30
0.0
 10
200.428136
 20
68.031339
 30
0.0
 10
200.732950
 20
68.560228
 30
0.0
 10
200.732292
 20
69.132291
 30
0.0
  0
LWPOLYLINE
  5
1cc
100
AcDbEntity
  8
0
 62
7
100
AcDbPolyline
 90
1
 70
1
 10
159.732292
 20
69.132291
 30
0.0
  0
LWPOLYLINE
  5
1cd
100
AcDbEntity
  8
0
 62
7
100
AcDbPolyline
 90
1
 70
1
 10
200.732292
 20
69.132291
 30
0.0
  0
ENDSEC
  0
SECTION
  2
OBJECTS
  0
DICTIONARY
  5
C
330
0
100
AcDbDictionary
  3
ACAD_GROUP
350
D
  3
ACAD_MLINESTYLE
350
17
  0
DICTIONARY
  5
D
330
C
100
AcDbDictionary
  0
DICTIONARY
  5
1A
330
C
100
AcDbDictionary
  0
DICTIONARY
  5
17
330
C
100
AcDbDictionary
  3
STANDARD
350
18
  0
DICTIONARY
  5
19
330
C
100
AcDbDictionary
  0
ENDSEC
  0
EOF
