<?xml version="1.0" encoding="UTF-8" standalone="no"?>
<svg
   width="72.099998mm"
   height="47.099998mm"
   viewBox="0 0 72.1 47.099999"
   version="1.1"
   id="svg922"
   inkscape:version="1.2.2 (732a01da63, 2022-12-09)"
   sodipodi:docname="FTR102_BOT_R2.svg"
   xml:space="preserve"
   xmlns:inkscape="http://www.inkscape.org/namespaces/inkscape"
   xmlns:sodipodi="http://sodipodi.sourceforge.net/DTD/sodipodi-0.dtd"
   xmlns="http://www.w3.org/2000/svg"
   xmlns:svg="http://www.w3.org/2000/svg"
   xmlns:rdf="http://www.w3.org/1999/02/22-rdf-syntax-ns#"
   xmlns:cc="http://creativecommons.org/ns#"
   xmlns:dc="http://purl.org/dc/elements/1.1/"><defs
     id="defs916"><marker
       id="DistanceX"
       orient="auto"
       refX="0"
       refY="0"
       style="overflow:visible"><path
         d="M 3,-3 -3,3 M 0,-5 V 5"
         style="stroke:#000000;stroke-width:0.5"
         id="path133" /></marker><pattern
       id="Hatch"
       patternUnits="userSpaceOnUse"
       width="8"
       height="8"
       x="0"
       y="0"><path
         d="M8 4 l-4,4"
         stroke="#000000"
         stroke-width="0.25"
         linecap="square"
         id="path136" /><path
         d="M6 2 l-4,4"
         stroke="#000000"
         stroke-width="0.25"
         linecap="square"
         id="path138" /><path
         d="M4 0 l-4,4"
         stroke="#000000"
         stroke-width="0.25"
         linecap="square"
         id="path140" /></pattern><symbol
       id="*MODEL_SPACE" /><symbol
       id="*PAPER_SPACE" /><marker
       id="DistanceX-1"
       orient="auto"
       refX="0"
       refY="0"
       style="overflow:visible"><path
         d="M 3,-3 -3,3 M 0,-5 V 5"
         style="stroke:#000000;stroke-width:0.5"
         id="path700" /></marker><pattern
       id="Hatch-1"
       patternUnits="userSpaceOnUse"
       width="8"
       height="8"
       x="0"
       y="0"><path
         d="M8 4 l-4,4"
         stroke="#000000"
         stroke-width="0.25"
         linecap="square"
         id="path703" /><path
         d="M6 2 l-4,4"
         stroke="#000000"
         stroke-width="0.25"
         linecap="square"
         id="path705" /><path
         d="M4 0 l-4,4"
         stroke="#000000"
         stroke-width="0.25"
         linecap="square"
         id="path707" /></pattern><symbol
       id="*MODEL_SPACE-8" /><symbol
       id="*PAPER_SPACE-0" /></defs><sodipodi:namedview
     id="base"
     pagecolor="#ffffff"
     bordercolor="#666666"
     borderopacity="1.0"
     inkscape:pageopacity="0.0"
     inkscape:pageshadow="2"
     inkscape:zoom="1.4"
     inkscape:cx="198.92857"
     inkscape:cy="-157.5"
     inkscape:document-units="mm"
     inkscape:current-layer="layer1"
     inkscape:document-rotation="0"
     showgrid="true"
     showguides="true"
     inkscape:lockguides="true"
     inkscape:window-width="1920"
     inkscape:window-height="1017"
     inkscape:window-x="-8"
     inkscape:window-y="-8"
     inkscape:window-maximized="1"
     inkscape:showpageshadow="2"
     inkscape:pagecheckerboard="0"
     inkscape:deskcolor="#d1d1d1"><inkscape:grid
       type="xygrid"
       id="grid1495"
       units="mm"
       spacingx="10"
       spacingy="10"
       empspacing="10"
       dotted="false"
       originx="190.28328"
       originy="70.104051" /></sodipodi:namedview><metadata
     id="metadata919"><rdf:RDF><cc:Work
         rdf:about=""><dc:format>image/svg+xml</dc:format><dc:type
           rdf:resource="http://purl.org/dc/dcmitype/StillImage" /></cc:Work></rdf:RDF></metadata><g
     inkscape:label="レイヤー 1"
     inkscape:groupmode="layer"
     id="layer1"
     transform="translate(190.28327,70.104052)"><g
       id="g2287"
       transform="rotate(90,-99.089608,-149.14366)"><path
         d="m -20,-128 v 67.99999 a 1.9999999,1.9999999 0 0 0 1.999999,2.000012 h 43 a 1.9999999,1.9999999 0 0 0 1.999999,-2.000012 v -55 V -128 a 1.9999999,1.9999999 0 0 0 -1.999999,-2 h -43 A 1.9999999,1.9999999 0 0 0 -20,-128 Z"
         style="fill:none;stroke:#ff0000;stroke-width:0.1;stroke-dasharray:none;stroke-opacity:1"
         id="path728" /><path
         d="m 25.599998,-61.000003 a 1.6,1.6 0 0 0 -3.199998,0 1.6,1.6 0 0 0 3.199998,0 z"
         style="fill:none;stroke:#ff0000;stroke-width:0.1;stroke-dasharray:none;stroke-opacity:1"
         id="path730" /><path
         d="m -15.400002,-61.000003 a 1.6000002,1.6000002 0 0 0 -3.2,0 1.6000002,1.6000002 0 0 0 3.2,0 z"
         style="fill:none;stroke:#ff0000;stroke-width:0.1;stroke-dasharray:none;stroke-opacity:1"
         id="path732" /><path
         d="M -9.9000023,-94 A 1.6,1.6 0 0 0 -13.1,-94 a 1.6,1.6 0 0 0 3.1999977,0 z"
         style="fill:none;stroke:#ff0000;stroke-width:0.1;stroke-dasharray:none;stroke-opacity:1"
         id="path734" /><path
         d="m 20.099998,-94 a 1.6000002,1.6000002 0 0 0 -3.2,0 1.6000002,1.6000002 0 0 0 3.2,0 z"
         style="fill:none;stroke:#ff0000;stroke-width:0.1;stroke-dasharray:none;stroke-opacity:1"
         id="path736" /><path
         d="m -15.400002,-127 a 1.6000002,1.6000002 0 0 0 -3.2,0 1.6000002,1.6000002 0 0 0 3.2,0 z"
         style="fill:none;stroke:#ff0000;stroke-width:0.1;stroke-dasharray:none;stroke-opacity:1"
         id="path768" /><path
         d="m 25.599998,-127 a 1.6,1.6 0 0 0 -3.199998,0 1.6,1.6 0 0 0 3.199998,0 z"
         style="fill:none;stroke:#ff0000;stroke-width:0.1;stroke-dasharray:none;stroke-opacity:1"
         id="path770" /></g></g></svg>
