<?xml version="1.0" encoding="UTF-8" standalone="no"?>
<svg
   width="72.099922mm"
   height="47.099998mm"
   viewBox="0 0 72.099923 47.099999"
   version="1.1"
   id="svg922"
   inkscape:version="1.2.2 (732a01da63, 2022-12-09)"
   sodipodi:docname="FTR102_TOP_R2.svg"
   xml:space="preserve"
   xmlns:inkscape="http://www.inkscape.org/namespaces/inkscape"
   xmlns:sodipodi="http://sodipodi.sourceforge.net/DTD/sodipodi-0.dtd"
   xmlns="http://www.w3.org/2000/svg"
   xmlns:svg="http://www.w3.org/2000/svg"
   xmlns:rdf="http://www.w3.org/1999/02/22-rdf-syntax-ns#"
   xmlns:cc="http://creativecommons.org/ns#"
   xmlns:dc="http://purl.org/dc/elements/1.1/"><defs
     id="defs916"><marker
       id="DistanceX"
       orient="auto"
       refX="0"
       refY="0"
       style="overflow:visible"><path
         d="M 3,-3 -3,3 M 0,-5 V 5"
         style="stroke:#000000;stroke-width:0.5"
         id="path133" /></marker><pattern
       id="Hatch"
       patternUnits="userSpaceOnUse"
       width="8"
       height="8"
       x="0"
       y="0"><path
         d="M8 4 l-4,4"
         stroke="#000000"
         stroke-width="0.25"
         linecap="square"
         id="path136" /><path
         d="M6 2 l-4,4"
         stroke="#000000"
         stroke-width="0.25"
         linecap="square"
         id="path138" /><path
         d="M4 0 l-4,4"
         stroke="#000000"
         stroke-width="0.25"
         linecap="square"
         id="path140" /></pattern><symbol
       id="*MODEL_SPACE" /><symbol
       id="*PAPER_SPACE" /><marker
       id="DistanceX-1"
       orient="auto"
       refX="0"
       refY="0"
       style="overflow:visible"><path
         d="M 3,-3 -3,3 M 0,-5 V 5"
         style="stroke:#000000;stroke-width:0.5"
         id="path700" /></marker><pattern
       id="Hatch-1"
       patternUnits="userSpaceOnUse"
       width="8"
       height="8"
       x="0"
       y="0"><path
         d="M8 4 l-4,4"
         stroke="#000000"
         stroke-width="0.25"
         linecap="square"
         id="path703" /><path
         d="M6 2 l-4,4"
         stroke="#000000"
         stroke-width="0.25"
         linecap="square"
         id="path705" /><path
         d="M4 0 l-4,4"
         stroke="#000000"
         stroke-width="0.25"
         linecap="square"
         id="path707" /></pattern><symbol
       id="*MODEL_SPACE-8" /><symbol
       id="*PAPER_SPACE-0" /></defs><sodipodi:namedview
     id="base"
     pagecolor="#ffffff"
     bordercolor="#666666"
     borderopacity="1.0"
     inkscape:pageopacity="0.0"
     inkscape:pageshadow="2"
     inkscape:zoom="11.2"
     inkscape:cx="68.794642"
     inkscape:cy="98.035714"
     inkscape:document-units="mm"
     inkscape:current-layer="layer1"
     inkscape:document-rotation="0"
     showgrid="true"
     showguides="true"
     inkscape:lockguides="true"
     inkscape:window-width="1920"
     inkscape:window-height="1017"
     inkscape:window-x="-8"
     inkscape:window-y="-8"
     inkscape:window-maximized="1"
     inkscape:showpageshadow="2"
     inkscape:pagecheckerboard="0"
     inkscape:deskcolor="#d1d1d1"><inkscape:grid
       type="xygrid"
       id="grid1495"
       units="mm"
       spacingx="10"
       spacingy="10"
       empspacing="10"
       dotted="false"
       originx="190.19581"
       originy="120.19579" /></sodipodi:namedview><metadata
     id="metadata919"><rdf:RDF><cc:Work
         rdf:about=""><dc:format>image/svg+xml</dc:format><dc:type
           rdf:resource="http://purl.org/dc/dcmitype/StillImage" /></cc:Work></rdf:RDF></metadata><g
     inkscape:label="レイヤー 1"
     inkscape:groupmode="layer"
     id="layer1"
     transform="translate(190.19579,120.19579)"><g
       aria-label="FTR102"
       id="text919"
       style="font-size:6.35px;line-height:1.25;font-family:'Bauhaus 93';-inkscape-font-specification:'Bauhaus 93, ';text-align:center;letter-spacing:0px;word-spacing:0px;text-anchor:middle;stroke-width:0.0700042"
       transform="matrix(-1,0,0,1,-157.08545,-133.85275)"><path
         d="m -23.753783,25.846975 v 1.134814 h -0.418579 v 1.103809 H -25.4312 v -2.626196 q 0,-0.74104 0.455786,-1.224732 0.458887,-0.486792 1.153418,-0.486792 0.765845,0 1.280542,0.660425 l -1.032495,0.753442 q -0.08682,-0.241845 -0.306958,-0.241845 -0.291455,0 -0.291455,0.403076 v 0.523999 z"
         id="path977" /><path
         d="m -20.445458,25.068728 v 3.01687 h -1.258838 v -3.01687 h -0.964282 v -1.21543 h 3.184302 v 1.21543 z"
         id="path979" /><path
         d="m -17.760351,24.991213 v 3.094385 h -1.258838 v -4.2323 h 1.615406 q 0.737939,0 1.144116,0.365869 0.452685,0.409278 0.452685,1.038697 0,0.641821 -0.561206,1.082104 l 0.725537,1.74563 H -16.9635 l -0.610816,-1.364258 v -1.088305 h 0.09922 q 0.396875,0 0.396875,-0.341065 0,-0.300757 -0.458886,-0.300757 z"
         id="path981" /><path
         d="m -13.239696,23.853298 v 4.2323 h -1.199927 v -4.2323 z"
         id="path983" /><path
         d="M -11.742113,26.432986 V 25.50281 q 0,-0.812354 0.403076,-1.283643 0.406177,-0.471289 1.103809,-0.471289 0.6976314,0 1.1038082,0.471289 0.4061767,0.471289 0.4061767,1.283643 v 0.930176 q 0,0.812353 -0.4061767,1.286743 -0.4061768,0.471289 -1.1038082,0.471289 -0.697632,0 -1.103809,-0.471289 -0.403076,-0.47439 -0.403076,-1.286743 z m 1.206128,-1.178223 v 1.42627 q 0,0.387573 0.300757,0.387573 0.303857,0 0.303857,-0.387573 v -1.42627 q 0,-0.387573 -0.303857,-0.387573 -0.300757,0 -0.300757,0.387573 z"
         id="path985" /><path
         d="m -5.1254626,26.860867 v 1.224731 h -2.7347168 l 1.3580566,-2.548682 0.046509,-0.08682 q 0.055811,-0.102319 0.055811,-0.201538 0,-0.251148 -0.2945557,-0.251148 -0.1147217,0 -0.2015381,0.08682 -0.083716,0.08372 -0.083716,0.198437 0,0.130225 0.1116211,0.235645 l -0.5426025,0.967383 q -0.3410645,-0.21084 -0.523999,-0.536402 -0.1829346,-0.325561 -0.1829346,-0.719336 0,-0.610815 0.4309814,-1.044897 0.4309815,-0.437183 1.0417969,-0.437183 0.613916,0 1.0417969,0.430982 0.4309814,0.430981 0.4309814,1.047998 0,0.353467 -0.1581299,0.657324 l -0.5022949,0.976685 z"
         id="path987" /></g><g
       aria-label="Optical  Morse Tranceiver"
       id="text973"
       style="font-size:4.93889px;line-height:1.25;font-family:'Bauhaus 93';-inkscape-font-specification:'Bauhaus 93, ';text-align:center;letter-spacing:0px;word-spacing:0px;text-anchor:middle;stroke-width:0.0700042"
       transform="matrix(-1,0,0,1,-157.67912,-135.54516)"><path
         d="m -22.538088,32.700566 q 0.699354,0 1.198549,0.50884 0.501606,0.508841 0.501606,1.217842 0,0.721059 -0.504018,1.225076 -0.504017,0.504018 -1.225076,0.504018 -0.716235,0 -1.222665,-0.506429 -0.506429,-0.50643 -0.506429,-1.222665 0,-0.72347 0.508841,-1.225076 0.511252,-0.501606 1.249192,-0.501606 z m -0.02894,0.96945 q -0.301446,0 -0.513664,0.221864 -0.212218,0.221864 -0.212218,0.535368 0,0.313504 0.212218,0.535368 0.21463,0.221864 0.513664,0.221864 0.303858,0 0.513664,-0.219453 0.212218,-0.221864 0.212218,-0.537779 0,-0.315915 -0.212218,-0.535368 -0.209806,-0.221864 -0.513664,-0.221864 z"
         id="path990" /><path
         d="m -19.595976,36.964217 h -0.901926 v -2.006424 q 0,-0.552249 0.289388,-0.899515 0.166398,-0.20016 0.422024,-0.318327 0.258038,-0.118167 0.528133,-0.118167 0.53778,0 0.90675,0.361736 0.36897,0.361735 0.36897,0.887456 0,0.511253 -0.366559,0.882634 -0.366558,0.371381 -0.868164,0.371381 -0.08199,0 -0.241157,-0.01688 v -0.993565 q 0.110932,0.08923 0.221865,0.08923 0.13987,0 0.238745,-0.103698 0.101286,-0.103697 0.101286,-0.24598 0,-0.142282 -0.103698,-0.241156 -0.103697,-0.101286 -0.248391,-0.101286 -0.347266,0 -0.347266,0.479902 z"
         id="path992" /><path
         d="m -16.784089,32.782559 v 0.921219 h 0.405144 v 0.952569 h -0.405144 q 0,0.286976 0.08923,0.395497 0.09164,0.10852 0.332797,0.10852 v 0.947746 q -0.06994,0.0024 -0.103698,0.0024 -0.306269,0 -0.578776,-0.142283 -0.270096,-0.142282 -0.434082,-0.38585 -0.207395,-0.311092 -0.207395,-0.824756 v -1.975074 z"
         id="path994" /><path
         d="m -15.03329,33.670016 v 2.404332 h -0.901927 v -2.404332 z m -0.448552,-1.073148 q 0.183279,0 0.315915,0.130225 0.135048,0.127813 0.135048,0.303857 0,0.188103 -0.127813,0.308681 -0.125401,0.120578 -0.32315,0.120578 -0.197748,0 -0.325562,-0.120578 -0.125401,-0.120578 -0.125401,-0.308681 0,-0.176044 0.132636,-0.303857 0.135048,-0.130225 0.318327,-0.130225 z"
         id="path996" /><path
         d="m -13.026866,34.967439 0.894691,-0.03376 q -0.03858,0.520899 -0.388262,0.856106 -0.349677,0.335208 -0.851283,0.335208 -0.530545,0 -0.897103,-0.368969 -0.364147,-0.36897 -0.364147,-0.904338 0,-0.508841 0.36897,-0.870576 0.36897,-0.361735 0.885045,-0.361735 0.450963,0 0.795817,0.284565 0.344854,0.284565 0.429259,0.725882 l -0.913984,0.03376 q -0.118167,-0.154341 -0.299034,-0.154341 -0.15434,0 -0.253215,0.101286 -0.09887,0.101286 -0.09887,0.255626 0,0.156752 0.103697,0.262861 0.106109,0.106109 0.262861,0.106109 0.229099,0 0.325562,-0.267684 z"
         id="path998" /><path
         d="m -10.403081,35.172422 v 0.933277 q -0.110932,0.01929 -0.202572,0.01929 -0.542603,0 -0.904338,-0.356912 -0.361735,-0.356912 -0.361735,-0.894691 0,-0.52331 0.364147,-0.887457 0.366558,-0.364147 0.889868,-0.364147 0.583599,0 0.9188073,0.342443 0.3376195,0.340031 0.3376195,0.930865 v 1.179256 H -10.26321 v -1.114144 q 0,-0.190513 -0.09405,-0.303857 -0.09164,-0.113344 -0.248391,-0.113344 -0.142282,0 -0.24598,0.103698 -0.103697,0.103697 -0.103697,0.245979 0,0.149518 0.09405,0.24598 0.09405,0.09646 0.238745,0.09646 0.118167,0 0.219453,-0.0627 z"
         id="path1000" /><path
         d="m -7.9336362,32.782559 v 3.291789 h -0.9019262 v -3.291789 z"
         id="path1002" /><path
         d="m -33.660237,42.247961 v -2.372982 q 0,-0.441317 0.267684,-0.721059 0.267684,-0.279742 0.694532,-0.279742 0.506429,0 0.778936,0.465433 0.166398,-0.250803 0.356912,-0.356912 0.190514,-0.108521 0.470255,-0.108521 0.443729,0 0.680062,0.279742 0.236334,0.279742 0.236334,0.805463 v 2.288578 h -0.979096 v -2.141472 q 0,-0.159163 -0.02653,-0.209806 -0.02412,-0.05306 -0.101285,-0.05306 -0.144694,0 -0.144694,0.24598 v 2.158353 h -0.979097 v -2.141472 q 0,-0.156752 -0.02653,-0.209806 -0.02653,-0.05306 -0.103697,-0.05306 -0.144694,0 -0.144694,0.262861 v 2.141472 z"
         id="path1004" /><path
         d="m -28.509129,39.792985 q 0.511252,0 0.875399,0.36897 0.366558,0.366558 0.366558,0.880222 0,0.520899 -0.371381,0.887457 -0.36897,0.366558 -0.89228,0.366558 -0.52331,0 -0.894692,-0.366558 -0.371381,-0.36897 -0.371381,-0.887457 0,-0.528133 0.371381,-0.887457 0.371382,-0.361735 0.916396,-0.361735 z m -0.02412,0.889869 q -0.144694,0 -0.245979,0.106109 -0.101286,0.103697 -0.101286,0.255626 0,0.149517 0.101286,0.255626 0.103697,0.106109 0.245979,0.106109 0.144694,0 0.24598,-0.106109 0.103698,-0.106109 0.103698,-0.255626 0,-0.151929 -0.101286,-0.255626 -0.101286,-0.106109 -0.248392,-0.106109 z"
         id="path1006" /><path
         d="m -25.57184,39.819513 v 0.964627 q -0.09405,-0.05306 -0.171221,-0.05306 -0.24598,0 -0.24598,0.376205 v 1.140671 h -0.901926 v -1.314304 q 0,-0.520899 0.284565,-0.829579 0.284565,-0.311093 0.759644,-0.311093 0.106109,0 0.274918,0.02653 z"
         id="path1008" /><path
         d="m -23.799338,39.87739 v 0.950158 q -0.190514,0 -0.262861,0.07235 -0.06994,0.06994 -0.08923,0.279742 -0.0627,0.696943 -0.540191,0.983919 -0.253215,0.149517 -0.718647,0.149517 h -0.125402 v -0.95498 h 0.041 q 0.217041,0 0.308681,-0.08923 0.09405,-0.09164 0.10852,-0.318327 0.01929,-0.36897 0.06752,-0.518487 0.05064,-0.149517 0.202572,-0.296623 0.265272,-0.258038 0.735528,-0.258038 z"
         id="path1010" /><path
         d="m -21.14179,41.191694 h -1.367359 q -0.03135,-0.103697 -0.03135,-0.190513 0,-0.120579 0.04341,-0.236334 h 0.458197 q -0.04823,-0.267684 -0.301445,-0.267684 -0.16881,0 -0.274919,0.144694 -0.106109,0.142283 -0.106109,0.366558 0,0.233922 0.101286,0.378616 0.103697,0.144694 0.270095,0.144694 0.135048,0 0.26045,-0.135047 l 0.513663,0.617361 q -0.359323,0.282153 -0.798228,0.282153 -0.535368,0 -0.899515,-0.359323 -0.364147,-0.359324 -0.364147,-0.889869 0,-0.528133 0.366559,-0.89228 0.368969,-0.364146 0.904337,-0.364146 0.52331,0 0.877811,0.356912 0.356912,0.3545 0.356912,0.875399 0,0.05305 -0.0096,0.168809 z"
         id="path1012" /><path
         d="m -18.03328,39.901506 v 2.346455 h -0.979097 v -2.346455 h -0.749997 v -0.945335 h 2.47668 v 0.945335 z"
         id="path1014" /><path
         d="m -15.672355,39.819513 v 0.964627 q -0.09405,-0.05306 -0.171221,-0.05306 -0.24598,0 -0.24598,0.376205 v 1.140671 h -0.901926 v -1.314304 q 0,-0.520899 0.284565,-0.829579 0.284565,-0.311093 0.759643,-0.311093 0.106109,0 0.274919,0.02653 z"
         id="path1016" /><path
         d="m -14.071076,41.346035 v 0.933276 q -0.110932,0.01929 -0.202571,0.01929 -0.542603,0 -0.904338,-0.356912 -0.361735,-0.356912 -0.361735,-0.894692 0,-0.52331 0.364146,-0.887456 0.366559,-0.364147 0.889869,-0.364147 0.583599,0 0.918807,0.342442 0.337619,0.340031 0.337619,0.930865 v 1.179257 h -0.901926 v -1.114144 q 0,-0.190514 -0.09405,-0.303858 -0.09164,-0.113343 -0.248391,-0.113343 -0.142283,0 -0.24598,0.103697 -0.103698,0.103697 -0.103698,0.24598 0,0.149517 0.09405,0.24598 0.09405,0.09646 0.238745,0.09646 0.118166,0 0.219452,-0.0627 z"
         id="path1018" /><path
         d="m -10.359672,42.247961 h -0.901927 v -1.357713 q 0,-0.207394 -0.171221,-0.207394 -0.16881,0 -0.16881,0.207394 v 1.357713 h -0.901926 v -1.340832 q 0,-0.470255 0.311092,-0.790994 0.311093,-0.32315 0.762056,-0.32315 0.516075,0 0.827167,0.373793 0.243569,0.2918 0.243569,0.812698 z"
         id="path1020" /><path
         d="m -8.3580713,41.141052 0.8946915,-0.03376 q -0.038585,0.520898 -0.3882624,0.856106 -0.3496772,0.335208 -0.8512832,0.335208 -0.5305449,0 -0.8971031,-0.36897 -0.3641467,-0.36897 -0.3641467,-0.904338 0,-0.50884 0.3689698,-0.870576 0.3689698,-0.361735 0.8850453,-0.361735 0.4509631,0 0.7958172,0.284565 0.3448541,0.284565 0.429259,0.725882 l -0.913984,0.03376 q -0.1181668,-0.15434 -0.2990344,-0.15434 -0.1543403,0 -0.2532146,0.101286 -0.098874,0.101285 -0.098874,0.255626 0,0.156752 0.1036974,0.262861 0.1061089,0.106108 0.2628608,0.106108 0.2290989,0 0.3255614,-0.267683 z"
         id="path1022" /><path
         d="m -4.7069598,41.191694 h -1.3673587 q -0.03135,-0.103697 -0.03135,-0.190513 0,-0.120579 0.043408,-0.236334 h 0.4581978 q -0.048231,-0.267684 -0.3014459,-0.267684 -0.1688097,0 -0.2749187,0.144694 -0.1061089,0.142283 -0.1061089,0.366558 0,0.233922 0.1012858,0.378616 0.1036974,0.144694 0.2700955,0.144694 0.1350478,0 0.2604493,-0.135047 l 0.5136639,0.617361 q -0.3593236,0.282153 -0.7982288,0.282153 -0.535368,0 -0.8995147,-0.359323 Q -7.202932,41.577545 -7.202932,41.047 q 0,-0.528133 0.3665582,-0.89228 0.3689698,-0.364146 0.9043378,-0.364146 0.5233101,0 0.8778105,0.356912 0.356912,0.3545 0.356912,0.875399 0,0.05305 -0.00965,0.168809 z"
         id="path1024" /><path
         d="m -3.4312404,39.843628 v 2.404333 h -0.9019262 v -2.404333 z m -0.4485515,-1.073147 q 0.1832791,0 0.3159153,0.130224 0.1350478,0.127813 0.1350478,0.303858 0,0.188102 -0.1278131,0.308681 -0.1254015,0.120578 -0.32315,0.120578 -0.1977486,0 -0.3255616,-0.120578 -0.1254015,-0.120579 -0.1254015,-0.308681 0,-0.176045 0.1326362,-0.303858 0.1350477,-0.130224 0.3183269,-0.130224 z"
         id="path1026" /><path
         d="m -1.0944304,39.843628 -1.1237904,2.498384 -1.109321,-2.498384 h 0.8609295 l 0.2556262,0.648712 0.2797418,-0.648712 z"
         id="path1028" /><path
         d="m 1.3653688,41.191694 h -1.36735873 q -0.03135038,-0.103697 -0.03135038,-0.190513 0,-0.120579 0.04340822,-0.236334 h 0.4581978 q -0.0482314,-0.267684 -0.30144592,-0.267684 -0.16880972,0 -0.27491868,0.144694 -0.10610897,0.142283 -0.10610897,0.366558 0,0.233922 0.10128583,0.378616 0.1036974,0.144694 0.27009555,0.144694 0.13504777,0 0.26044927,-0.135047 l 0.51366385,0.617361 q -0.35932354,0.282153 -0.7982288,0.282153 -0.53536795,0 -0.89951463,-0.359323 Q -1.1306035,41.577545 -1.1306035,41.047 q 0,-0.528133 0.36655828,-0.89228 0.36896981,-0.364146 0.90433776,-0.364146 0.52331012,0 0.87781056,0.356912 0.3569119,0.3545 0.3569119,0.875399 0,0.05305 -0.00965,0.168809 z"
         id="path1030" /><path
         d="m 3.0582893,39.819513 v 0.964627 q -0.094051,-0.05306 -0.1712213,-0.05306 -0.2459798,0 -0.2459798,0.376205 v 1.140671 H 1.739162 v -1.314304 q 0,-0.520899 0.2845649,-0.829579 0.284565,-0.311093 0.7596437,-0.311093 0.106109,0 0.2749187,0.02653 z"
         id="path1032" /></g><path
       d="m -120.14588,-120.14579 a 1.9999999,1.9999999 0 0 1 2.00001,2 v 42.999998 a 1.9999999,1.9999999 0 0 1 -2.00001,2 h -16.99999 a 1.9999999,1.9999999 0 0 1 -2.00001,-2 v -5.5 a 6.9999999,6.9999999 0 0 0 -0.0156,-0.4686 8.9999999,8.9999999 0 0 0 -8.98429,-9.5314 h -16.00002 a 8.9999999,8.9999999 0 0 0 -8.99998,9 v 6.5 a 1.9999999,1.9999999 0 0 1 -2.00002,2 h -12.99999 a 1.9999999,1.9999999 0 0 1 -2,-2 v -42.999998 a 1.9999999,1.9999999 0 0 1 2,-2 z"
       style="fill:none;stroke:#ff0000;stroke-width:0.1;stroke-dasharray:none;stroke-opacity:1"
       id="path738" /><path
       d="m -121.14588,-115.54579 a 1.6000002,1.6000002 0 0 1 0,-3.2 1.6000002,1.6000002 0 0 1 0,3.2 z"
       style="fill:none;stroke:#ff0000;stroke-width:0.1;stroke-dasharray:none;stroke-opacity:1"
       id="path740" /><path
       d="m -121.14588,-74.545792 a 1.6000002,1.6000002 0 0 1 0,-3.2 1.6000002,1.6000002 0 0 1 0,3.2 z"
       style="fill:none;stroke:#ff0000;stroke-width:0.1;stroke-dasharray:none;stroke-opacity:1"
       id="path742" /><path
       d="m -187.14587,-74.545792 a 1.6000002,1.6000002 0 0 1 0,-3.2 1.6000002,1.6000002 0 0 1 0,3.2 z"
       style="fill:none;stroke:#ff0000;stroke-width:0.1;stroke-dasharray:none;stroke-opacity:1"
       id="path746" /><path
       style="fill:none;stroke:#ff0000;stroke-width:0.1;stroke-dasharray:none;stroke-opacity:1"
       d="m -182.64671,-108.64587 v 9.000068"
       id="path748" /><path
       style="fill:none;stroke:#ff0000;stroke-width:0.1;stroke-dasharray:none;stroke-opacity:1"
       d="m -173.64558,-99.645802 v -9.000068"
       id="path752" /><path
       d="m -182.64589,-108.64579 a 4.50001,4.50001 0 0 1 9.00002,0"
       style="fill:none;stroke:#ff0000;stroke-width:0.1;stroke-dasharray:none;stroke-opacity:1"
       id="path754" /><path
       d="m -173.64587,-99.646892 a 4.50001,4.50001 0 1 1 -9.00002,10e-4"
       style="fill:none;stroke:#ff0000;stroke-width:0.1;stroke-dasharray:none;stroke-opacity:1"
       id="path756" /><path
       d="m -187.14587,-115.54579 a 1.6000002,1.6000002 0 0 1 0,-3.2 1.6000002,1.6000002 0 0 1 0,3.2 z"
       style="fill:none;stroke:#ff0000;stroke-width:0.1;stroke-dasharray:none;stroke-opacity:1"
       id="path762" /></g></svg>
