<?xml version="1.0" encoding="UTF-8" standalone="no"?>
<svg
   width="72.100014mm"
   height="52.099998mm"
   viewBox="0 0 72.100012 52.099998"
   version="1.1"
   id="svg922"
   inkscape:version="1.2.2 (732a01da63, 2022-12-09)"
   sodipodi:docname="bot.svg"
   xml:space="preserve"
   xmlns:inkscape="http://www.inkscape.org/namespaces/inkscape"
   xmlns:sodipodi="http://sodipodi.sourceforge.net/DTD/sodipodi-0.dtd"
   xmlns="http://www.w3.org/2000/svg"
   xmlns:svg="http://www.w3.org/2000/svg"
   xmlns:rdf="http://www.w3.org/1999/02/22-rdf-syntax-ns#"
   xmlns:cc="http://creativecommons.org/ns#"
   xmlns:dc="http://purl.org/dc/elements/1.1/"><defs
     id="defs916"><marker
       id="DistanceX"
       orient="auto"
       refX="0"
       refY="0"
       style="overflow:visible"><path
         d="M 3,-3 -3,3 M 0,-5 V 5"
         style="stroke:#000000;stroke-width:0.5"
         id="path133" /></marker><pattern
       id="Hatch"
       patternUnits="userSpaceOnUse"
       width="8"
       height="8"
       x="0"
       y="0"><path
         d="M8 4 l-4,4"
         stroke="#000000"
         stroke-width="0.25"
         linecap="square"
         id="path136" /><path
         d="M6 2 l-4,4"
         stroke="#000000"
         stroke-width="0.25"
         linecap="square"
         id="path138" /><path
         d="M4 0 l-4,4"
         stroke="#000000"
         stroke-width="0.25"
         linecap="square"
         id="path140" /></pattern><symbol
       id="*MODEL_SPACE" /><symbol
       id="*PAPER_SPACE" /><marker
       id="DistanceX-7"
       orient="auto"
       refX="0"
       refY="0"
       style="overflow:visible"><path
         d="M 3,-3 -3,3 M 0,-5 V 5"
         style="stroke:#000000;stroke-width:0.5"
         id="path4028" /></marker><pattern
       id="Hatch-0"
       patternUnits="userSpaceOnUse"
       width="8"
       height="8"
       x="0"
       y="0"><path
         d="M8 4 l-4,4"
         stroke="#000000"
         stroke-width="0.25"
         linecap="square"
         id="path4031" /><path
         d="M6 2 l-4,4"
         stroke="#000000"
         stroke-width="0.25"
         linecap="square"
         id="path4033" /><path
         d="M4 0 l-4,4"
         stroke="#000000"
         stroke-width="0.25"
         linecap="square"
         id="path4035" /></pattern><symbol
       id="*MODEL_SPACE-5" /><symbol
       id="*PAPER_SPACE-1" /></defs><sodipodi:namedview
     id="base"
     pagecolor="#ffffff"
     bordercolor="#666666"
     borderopacity="1.0"
     inkscape:pageopacity="0.0"
     inkscape:pageshadow="2"
     inkscape:zoom="0.9899495"
     inkscape:cx="-257.5889"
     inkscape:cy="395.97979"
     inkscape:document-units="mm"
     inkscape:current-layer="layer1"
     inkscape:document-rotation="0"
     showgrid="true"
     showguides="true"
     inkscape:lockguides="true"
     inkscape:window-width="1920"
     inkscape:window-height="1017"
     inkscape:window-x="-8"
     inkscape:window-y="-8"
     inkscape:window-maximized="1"
     inkscape:showpageshadow="2"
     inkscape:pagecheckerboard="0"
     inkscape:deskcolor="#d1d1d1"><inkscape:grid
       type="xygrid"
       id="grid1495"
       units="mm"
       spacingx="10"
       spacingy="10"
       empspacing="10"
       dotted="false"
       originx="-7.2750366"
       originy="-237.21503" /></sodipodi:namedview><metadata
     id="metadata919"><rdf:RDF><cc:Work
         rdf:about=""><dc:format>image/svg+xml</dc:format><dc:type
           rdf:resource="http://purl.org/dc/dcmitype/StillImage" /></cc:Work></rdf:RDF></metadata><g
     inkscape:label="レイヤー 1"
     inkscape:groupmode="layer"
     id="layer1"
     transform="translate(-7.275037,-237.21502)"><g
       id="g1613"
       style="stroke:#ff0000;stroke-width:0.1;stroke-dasharray:none;stroke-opacity:1"
       transform="rotate(90,64.771587,215.46503)"><path
         d="m 136.57158,200.91157 h -48 a 1.9999999,1.9999999 0 0 0 -1.999999,2.00002 v 68 a 1.9999999,1.9999999 0 0 0 1.999999,1.99999 h 48 a 1.9999999,1.9999999 0 0 0 2,-1.99999 V 215.9116 202.91159 a 1.9999999,1.9999999 0 0 0 -2,-2.00002 z"
         style="fill:none;stroke:#ff0000;stroke-width:0.1;stroke-dasharray:none;stroke-opacity:1"
         id="path641" /><path
         d="m 137.17158,203.91158 a 1.6,1.6 0 0 0 -3.2,0 1.6,1.6 0 0 0 3.2,0 z"
         style="fill:none;stroke:#ff0000;stroke-width:0.1;stroke-dasharray:none;stroke-opacity:1"
         id="path643" /><path
         d="m 96.17158,203.91158 a 1.6000002,1.6000002 0 0 0 -3.2,0 1.6000002,1.6000002 0 0 0 3.2,0 z"
         style="fill:none;stroke:#ff0000;stroke-width:0.1;stroke-dasharray:none;stroke-opacity:1"
         id="path645" /><path
         d="m 96.17158,269.91157 a 1.6000002,1.6000002 0 0 0 -3.2,0 1.6000002,1.6000002 0 0 0 3.2,0 z"
         style="fill:none;stroke:#ff0000;stroke-width:0.1;stroke-dasharray:none;stroke-opacity:1"
         id="path647" /><path
         d="m 137.17158,269.91157 a 1.6,1.6 0 0 0 -3.2,0 1.6,1.6 0 0 0 3.2,0 z"
         style="fill:none;stroke:#ff0000;stroke-width:0.1;stroke-dasharray:none;stroke-opacity:1"
         id="path649" /><path
         d="m 108.22059,218.6616 a 1.6000002,1.6000002 0 0 0 -3.2,0 1.6000002,1.6000002 0 0 0 3.2,0 z"
         style="fill:none;stroke:#ff0000;stroke-width:0.1;stroke-dasharray:none;stroke-opacity:1"
         id="path725" /><path
         d="m 120.72059,255.16158 a 1.6000002,1.6000002 0 0 0 -3.2,0 1.6000002,1.6000002 0 0 0 3.2,0 z"
         style="fill:none;stroke:#ff0000;stroke-width:0.1;stroke-dasharray:none;stroke-opacity:1"
         id="path727" /></g></g></svg>
