0
SECTION
2
HEADER
9
$INSUNITS
70
4
9
$ACADVER
1
AC1014
9
$HANDSEED
5
FFFF
0
ENDSEC
0
SECTION
2
TABLES
0
TABLE
2
VPORT
5
8
100
AcDbSymbolTable
0
ENDTAB
0
TABLE
2
LTYPE
5
5
100
AcDbSymbolTable
0
LTYPE
5
14
100
AcDbSymbolTableRecord
100
AcDbLinetypeTableRecord
2
BYBLOCK
70
0
0
LTYPE
5
15
100
AcDbSymbolTableRecord
100
AcDbLinetypeTableRecord
2
BYLAYER
70
0
0
ENDTAB
0
TABLE
2
LAYER
5
2
100
AcDbSymbolTable
70
2
0
LAYER
5
50
100
AcDbSymbolTableRecord
100
AcDbLayerTableRecord
2
0
70
0
6
CONTINUOUS
0
ENDTAB
0
TABLE
2
STYLE
5
3
100
AcDbSymbolTable
70
1
0
STYLE
5
11
100
AcDbSymbolTableRecord
100
AcDbTextStyleTableRecord
2
STANDARD
70
0
0
ENDTAB
0
TABLE
2
VIEW
5
6
100
AcDbSymbolTable
70
0
0
ENDTAB
0
TABLE
2
UCS
5
7
100
AcDbSymbolTable
70
0
0
ENDTAB
0
TABLE
2
APPID
5
9
100
AcDbSymbolTable
70
2
0
APPID
5
12
100
AcDbSymbolTableRecord
100
AcDbRegAppTableRecord
2
ACAD
70
0
0
ENDTAB
0
TABLE
2
DIMSTYLE
5
A
100
AcDbSymbolTable
70
1
0
ENDTAB
0
TABLE
2
BLOCK_RECORD
5
1
100
AcDbSymbolTable
70
1
0
BLOCK_RECORD
5
1F
100
AcDbSymbolTableRecord
100
AcDbBlockTableRecord
2
*MODEL_SPACE
0
BLOCK_RECORD
5
1B
100
AcDbSymbolTableRecord
100
AcDbBlockTableRecord
2
*PAPER_SPACE
0
ENDTAB
0
ENDSEC
0
SECTION
2
BLOCKS
0
BLOCK
5
20
100
AcDbEntity
100
AcDbBlockBegin
2
*MODEL_SPACE
0
ENDBLK
5
21
100
AcDbEntity
100
AcDbBlockEnd
0
BLOCK
5
1C
100
AcDbEntity
100
AcDbBlockBegin
2
*PAPER_SPACE
0
ENDBLK
5
1D
100
AcDbEntity
100
AcDbBlockEnd
0
ENDSEC
0
SECTION
2
ENTITIES
0
LWPOLYLINE
5
100
100
AcDbEntity
8
0
100
AcDbPolyline
90
9
70
1
43
0.0
10
81.5
20
33.999999999999993
10
81.5
20
-33.999999999999993
42
0.41421356237309698
10
83.5
20
-36.000000000000007
10
126.5
20
-36.000000000000007
42
0.41421356237309503
10
128.5
20
-34
10
128.5
20
21.000000251566661
10
128.5
20
33.999999999999986
42
0.41421356237309698
10
126.5
20
36
10
83.5
20
36
42
0.41421356237309437
0
CIRCLE
5
101
100
AcDbEntity
8
0
100
AcDbCircle
10
125.50000029802321
20
-33.000000491738319
30
0
40
1.6000000000000003
210
0
220
0
230
1
0
CIRCLE
5
102
100
AcDbEntity
8
0
100
AcDbCircle
10
84.49999970197679
20
-33.000000491738319
30
0
40
1.6000000000000003
210
0
220
0
230
1
0
CIRCLE
5
103
100
AcDbEntity
8
0
100
AcDbCircle
10
90
20
0
30
0
40
1.6000000000000048
210
0
220
0
230
1
0
CIRCLE
5
104
100
AcDbEntity
8
0
100
AcDbCircle
10
120
20
0
30
0
40
1.6000000000000016
210
0
220
0
230
1
0
ARC
5
105
100
AcDbEntity
8
0
100
AcDbCircle
10
-71.5
20
-34.000000000000007
30
0
40
1.9999999999999929
210
0
220
0
230
1
100
AcDbArc
50
180
51
270
0
CIRCLE
5
106
100
AcDbEntity
8
0
100
AcDbCircle
10
-70.500000298023224
20
-33.000000491738319
30
0
40
1.6000000000000003
210
0
220
0
230
1
0
LINE
5
107
100
AcDbEntity
8
0
100
AcDbLine
10
-73.5
20
33.999999999999993
30
0
11
-73.5
21
-33.999999999999993
31
0
0
ARC
5
108
100
AcDbEntity
8
0
100
AcDbCircle
10
-71.5
20
33.999999999999993
30
0
40
2.0000000000000062
210
0
220
0
230
1
100
AcDbArc
50
90
51
180
0
LINE
5
109
100
AcDbEntity
8
0
100
AcDbLine
10
-34.999999776482582
20
19.000000149011612
30
0
11
-28.499999968444602
21
19.000000251566661
31
0
0
ARC
5
110
100
AcDbEntity
8
0
100
AcDbCircle
10
-28.500000000000007
20
21.000000251566668
30
0
40
2.0000000000000067
210
-0
220
0
230
1
100
AcDbArc
50
270.00000090399578
51
360
0
LINE
5
111
100
AcDbEntity
8
0
100
AcDbLine
10
-43.999999776482582
20
-10.000000149011612
30
0
11
-43.999999776482582
21
10.000000149011612
31
0
0
CIRCLE
5
112
100
AcDbEntity
8
0
100
AcDbCircle
10
-29.499999701976776
20
-33.000000491738319
30
0
40
1.6000000000000003
210
0
220
0
230
1
0
ARC
5
113
100
AcDbEntity
8
0
100
AcDbCircle
10
-28.499999999999996
20
-34
30
0
40
2.0000000000000018
210
0
220
0
230
1
100
AcDbArc
50
-90.000000000000099
51
0
0
LINE
5
114
100
AcDbEntity
8
0
100
AcDbLine
10
-26.499999999999993
20
-34
30
0
11
-26.500000000000007
21
-21.000000312924392
31
0
0
ARC
5
115
100
AcDbEntity
8
0
100
AcDbCircle
10
-28.499999999999996
20
34
30
0
40
1.9999999999999973
210
-0
220
0
230
1
100
AcDbArc
50
0
51
90.000000000000099
0
ARC
5
116
100
AcDbEntity
8
0
100
AcDbCircle
10
-28.5
20
0.99999995250254914
30
0
40
2.0000000000000062
210
-0
220
0
230
1
100
AcDbArc
50
270.00000074705213
51
295.22408375225024
0
CIRCLE
5
117
100
AcDbEntity
8
0
100
AcDbCircle
10
-29.499999701976776
20
33.000000491738319
30
0
40
1.5999999999999992
210
0
220
0
230
1
0
LINE
5
118
100
AcDbEntity
8
0
100
AcDbLine
10
-26.5
20
21.000000251566661
30
0
11
-26.5
21
33.999999999999986
31
0
0
ARC
5
119
100
AcDbEntity
8
0
100
AcDbCircle
10
-34.999999776482582
20
10.000000149011612
30
0
40
9
210
0
220
-0
230
1
100
AcDbArc
50
90
51
180
0
LINE
5
120
100
AcDbEntity
8
0
100
AcDbLine
10
-71.5
20
-36.000000000000007
30
0
11
-28.5
21
-36.000000000000007
31
0
0
LINE
5
121
100
AcDbEntity
8
0
100
AcDbLine
10
-28.5
20
36
30
0
11
-71.5
21
36
31
0
0
LINE
5
122
100
AcDbEntity
8
0
100
AcDbLine
10
-62.500000923871994
20
28.500000357627869
30
0
11
-53.000000789761543
21
28.500000357627869
31
0
0
LINE
5
123
100
AcDbEntity
8
0
100
AcDbLine
10
-53.000000789761543
20
19.500000357627869
30
0
11
-62.500000923871994
21
19.500000357627869
31
0
0
ARC
5
124
100
AcDbEntity
8
0
100
AcDbCircle
10
-62.500000923871994
20
24.000000357627869
30
0
40
4.5000000000000018
210
0
220
-0
230
1
100
AcDbArc
50
90
51
270
0
ARC
5
125
100
AcDbEntity
8
0
100
AcDbCircle
10
-53.000000789761543
20
24.000000491738316
30
0
40
4.5000002682208926
210
0
220
0
230
1
100
AcDbArc
50
-90.013988226647243
51
90
0
CIRCLE
5
126
100
AcDbEntity
8
0
100
AcDbCircle
10
-70.500000298023224
20
33.000000491738319
30
0
40
1.5999999999999992
210
0
220
0
230
1
0
CIRCLE
5
127
100
AcDbEntity
8
0
100
AcDbCircle
10
84.499999701976776
20
33.000000491738319
30
0
40
1.5999999999999992
210
0
220
0
230
1
0
CIRCLE
5
128
100
AcDbEntity
8
0
100
AcDbCircle
10
125.50000029802322
20
33.000000491738319
30
0
40
1.5999999999999992
210
0
220
0
230
1
0
ARC
5
129
100
AcDbEntity
8
0
100
AcDbCircle
10
-34.999999776482582
20
-10.000000149011612
30
0
40
9.0000000000000036
210
0
220
0
230
1
100
AcDbArc
50
180
51
270
0
LINE
5
130
100
AcDbEntity
8
0
100
AcDbLine
10
-34.999999776482582
20
-19.000000149011612
30
0
11
-28.499999968444602
21
-19.000000251566661
31
0
0
ARC
5
131
100
AcDbEntity
8
0
100
AcDbCircle
10
-28.500000000000007
20
-21.000000251566668
30
0
40
2.0000000000000062
210
-0
220
0
230
1
100
AcDbArc
50
0
51
89.999999096004217
0
CIRCLE
5
132
100
AcDbEntity
8
0
100
AcDbCircle
10
90
20
100
30
0
40
1.6000000000000048
210
0
220
0
230
1
0
CIRCLE
5
133
100
AcDbEntity
8
0
100
AcDbCircle
10
125.50000029802322
20
133.00000049173832
30
0
40
1.5999999999999992
210
0
220
0
230
1
0
CIRCLE
5
134
100
AcDbEntity
8
0
100
AcDbCircle
10
84.499999701976776
20
133.00000049173832
30
0
40
1.5999999999999992
210
0
220
0
230
1
0
CIRCLE
5
135
100
AcDbEntity
8
0
100
AcDbCircle
10
84.49999970197679
20
66.999999508261681
30
0
40
1.6000000000000003
210
0
220
0
230
1
0
CIRCLE
5
136
100
AcDbEntity
8
0
100
AcDbCircle
10
120
20
100
30
0
40
1.6000000000000016
210
0
220
0
230
1
0
CIRCLE
5
137
100
AcDbEntity
8
0
100
AcDbCircle
10
125.50000029802321
20
66.999999508261681
30
0
40
1.6000000000000003
210
0
220
0
230
1
0
LWPOLYLINE
5
138
100
AcDbEntity
8
0
100
AcDbPolyline
90
8
70
1
43
0.0
10
2.9999999999999991
20
45.000000670552254
10
137.00000208616254
20
45.000000670552254
42
0.41421356237309243
10
140.00000208616257
20
48.000000670552254
10
140.00000208616257
20
152.00000230967999
42
0.41421356237308815
10
137.00000208616257
20
155.00000230967999
10
3.0000000000000249
20
155.00000230967999
42
0.41421356237309348
10
-1.1102230246251565e-15
20
152.00000230967999
10
-3.8857805861880479e-15
20
48.000000670552261
42
0.41421356237309465
0
CIRCLE
5
139
100
AcDbEntity
8
0
100
AcDbCircle
10
60.000000596046448
20
50.00000074505806
30
0
40
2.1000000000000001
210
0
220
0
230
1
0
CIRCLE
5
140
100
AcDbEntity
8
0
100
AcDbCircle
10
60.000000596046448
20
150.00000223517418
30
0
40
2.1000000000000001
210
0
220
0
230
1
0
CIRCLE
5
141
100
AcDbEntity
8
0
100
AcDbCircle
10
40.000000596046448
20
180.00000074505806
30
0
40
2.2000000000000002
210
0
220
0
230
1
0
LWPOLYLINE
5
142
100
AcDbEntity
8
0
100
AcDbPolyline
90
4
70
1
43
0.0
10
30.000001043081269
20
285.00000149011612
10
30.000001043081266
20
175.00000149011612
10
50.000001043081284
20
175.00000149011612
10
50.000001043081284
20
285.00000149011612
0
CIRCLE
5
143
100
AcDbEntity
8
0
100
AcDbCircle
10
40.000000596046448
20
280.00000223517418
30
0
40
2.2000000000000002
210
0
220
0
230
1
0
LWPOLYLINE
5
144
100
AcDbEntity
8
0
100
AcDbPolyline
90
6
70
1
43
0.0
10
39.973779081345519
20
235.88891779514225
10
34.886940395404913
20
232.92175211334794
10
34.913161910105842
20
227.03283774547276
10
40.026222110747383
20
224.1110890593919
10
45.113060796687989
20
227.07825474118621
10
45.086839281987054
20
232.96716910906139
0
CIRCLE
5
145
100
AcDbEntity
8
0
100
AcDbCircle
10
40.000000596046448
20
230.00000342726707
30
0
40
3.5000000000000009
210
0
220
0
230
1
0
LWPOLYLINE
5
146
100
AcDbEntity
8
0
100
AcDbPolyline
90
4
70
1
43
0.0
10
70.000001043081284
20
175.00000149011612
10
90.000001043081284
20
175.00000149011612
10
90.000001043081284
20
285.00000149011612
10
70.000001043081284
20
285.00000149011612
0
CIRCLE
5
147
100
AcDbEntity
8
0
100
AcDbCircle
10
80.000000596046448
20
280.00000223517418
30
0
40
2.2000000000000002
210
0
220
0
230
1
0
CIRCLE
5
148
100
AcDbEntity
8
0
100
AcDbCircle
10
80.000000596046448
20
180.00000074505806
30
0
40
2.2000000000000002
210
0
220
0
230
1
0
CIRCLE
5
149
100
AcDbEntity
8
0
100
AcDbCircle
10
60.000000819563866
20
100.00000149011612
30
0
40
3.500000000000008
210
0
220
0
230
1
0
LWPOLYLINE
5
150
100
AcDbEntity
8
0
100
AcDbPolyline
90
20
70
1
43
0.0
10
-109.00000132620335
20
-36.000000536441803
10
-109.00000132620335
20
-10.000000149011612
10
-111.00000135600567
20
-10.000000149011612
10
-110.99999556243259
20
18.0000000536435
10
-113.00000138580799
20
18.000000268220901
10
-113.00000138580799
20
36.000000536441803
10
-118
20
36
42
0.41421356237309437
10
-120
20
33.999999999999993
10
-120
20
25.500000357627869
10
-115.00000141561031
20
25.500000357627869
10
-115.00000141561031
20
19.500000268220901
10
-120
20
19.500000268220898
10
-120
20
-19.500000268220901
10
-111.00000135600567
20
-19.500000268220901
10
-111.00000135600567
20
-25.500000268220901
10
-120
20
-25.500000268220901
10
-120
20
-33.999999999999993
42
0.414213530949055
10
-118.00000021457679
20
-35.999999999999986
10
-113.00000138580799
20
-36.000000536441803
10
-111.00000135600567
20
-36.000000536441803
0
LWPOLYLINE
5
151
100
AcDbEntity
8
0
100
AcDbPolyline
90
4
70
1
43
0.0
10
-114.00000140070915
20
7.0000001043081284
10
-119.00000147521496
20
7.0000001043081284
10
-119.00000147521496
20
13.000000193715096
10
-114.00000140070915
20
13.000000193715096
0
LINE
5
152
100
AcDbEntity
8
0
100
AcDbLine
10
-120
20
19.500000268220898
30
0
11
-120
21
25.500000357627869
31
0
0
CIRCLE
5
153
100
AcDbEntity
8
0
100
AcDbCircle
10
-117.00000029802322
20
33.000000491738319
30
0
40
1.6500000000000001
210
0
220
0
230
1
0
LINE
5
154
100
AcDbEntity
8
0
100
AcDbLine
10
-120
20
-25.500000268220901
30
0
11
-120
21
-19.500000268220901
31
0
0
CIRCLE
5
155
100
AcDbEntity
8
0
100
AcDbCircle
10
-117.00000029802322
20
-33.000000491738319
30
0
40
1.6500000000000001
210
0
220
0
230
1
0
LINE
5
156
100
AcDbEntity
8
0
100
AcDbLine
10
-113.00000138580799
20
18.000000268220901
30
0
11
-120
21
18.000000268220901
31
0
0
LINE
5
157
100
AcDbEntity
8
0
100
AcDbLine
10
-109.00000132620335
20
-17.000000253319737
30
0
11
-120
21
-17.00000025331974
31
0
0
LINE
5
158
100
AcDbEntity
8
0
100
AcDbLine
10
1.9999992102384567
20
19.500000357627869
30
0
11
-7.5000009238719922
21
19.500000357627869
31
0
0
ARC
5
159
100
AcDbEntity
8
0
100
AcDbCircle
10
1.9999992102384567
20
24.000000625848759
30
0
40
4.5000004023313309
210
0
220
0
230
1
100
AcDbArc
50
-90.01398822623041
51
0.006993259002689412
0
ARC
5
160
100
AcDbEntity
8
0
100
AcDbCircle
10
26.500000000000004
20
34
30
0
40
1.9999999999999973
210
-0
220
0
230
1
100
AcDbArc
50
0
51
90.000000000000099
0
ARC
5
161
100
AcDbEntity
8
0
100
AcDbCircle
10
-16.500000000000004
20
-34.000000000000007
30
0
40
1.9999999999999929
210
0
220
0
230
1
100
AcDbArc
50
180
51
270
0
ARC
5
162
100
AcDbEntity
8
0
100
AcDbCircle
10
-7.5000009238719922
20
24.000000357627869
30
0
40
4.5
210
0
220
0
230
1
100
AcDbArc
50
133.81305199509598
51
270
0
CIRCLE
5
163
100
AcDbEntity
8
0
100
AcDbCircle
10
-15.500000298023222
20
33.000000491738319
30
0
40
1.5999999999999992
210
0
220
0
230
1
0
LINE
5
164
100
AcDbEntity
8
0
100
AcDbLine
10
20.000000223517418
20
-19.000000149011612
30
0
11
26.500000031555398
21
-19.000000251566661
31
0
0
LINE
5
165
100
AcDbEntity
8
0
100
AcDbLine
10
-18.499999999999996
20
33.999999999999993
30
0
11
-18.499999999999996
21
-33.999999999999993
31
0
0
CIRCLE
5
166
100
AcDbEntity
8
0
100
AcDbCircle
10
-15.500000298023222
20
-33.000000491738319
30
0
40
1.6000000000000003
210
0
220
0
230
1
0
CIRCLE
5
167
100
AcDbEntity
8
0
100
AcDbCircle
10
25.500000298023224
20
33.000000491738319
30
0
40
1.5999999999999992
210
0
220
0
230
1
0
LINE
5
168
100
AcDbEntity
8
0
100
AcDbLine
10
28.500000000000007
20
-34
30
0
11
28.499999999999993
21
-21.000000251566668
31
0
0
ARC
5
169
100
AcDbEntity
8
0
100
AcDbCircle
10
26.5
20
0.99999995250254914
30
0
40
2.0000000000000062
210
-0
220
0
230
1
100
AcDbArc
50
270.00000074705213
51
295.22408375225024
0
LINE
5
170
100
AcDbEntity
8
0
100
AcDbLine
10
28.5
20
26.000000251566661
30
0
11
28.5
21
33.999999999999986
31
0
0
ARC
5
171
100
AcDbEntity
8
0
100
AcDbCircle
10
26.499999999999993
20
-21.000000251566668
30
0
40
2.0000000000000062
210
-0
220
0
230
1
100
AcDbArc
50
0
51
89.999999096004217
0
ARC
5
172
100
AcDbEntity
8
0
100
AcDbCircle
10
-16.499999999999993
20
33.999999999999993
30
0
40
2.0000000000000062
210
0
220
0
230
1
100
AcDbArc
50
90.000000000000313
51
180
0
ARC
5
173
100
AcDbEntity
8
0
100
AcDbCircle
10
26.500000000000004
20
-34
30
0
40
2.0000000000000018
210
0
220
0
230
1
100
AcDbArc
50
-90.000000000000099
51
0
0
ARC
5
174
100
AcDbEntity
8
0
100
AcDbCircle
10
20.000000223517418
20
-10.000000149011612
30
0
40
9.0000000000000036
210
0
220
0
230
1
100
AcDbArc
50
180
51
270
0
LINE
5
175
100
AcDbEntity
8
0
100
AcDbLine
10
11.000000223517414
20
-10.000000149011612
30
0
11
11.000000223517414
21
15.000000149011612
31
0
0
ARC
5
176
100
AcDbEntity
8
0
100
AcDbCircle
10
26.499999999999993
20
26.000000251566668
30
0
40
2.0000000000000067
210
-0
220
0
230
1
100
AcDbArc
50
270.00000090399578
51
360
0
LINE
5
177
100
AcDbEntity
8
0
100
AcDbLine
10
20.000000223517414
20
24.000000149011612
30
0
11
26.500000031555398
21
24.000000251566661
31
0
0
CIRCLE
5
178
100
AcDbEntity
8
0
100
AcDbCircle
10
25.500000298023224
20
-33.000000491738319
30
0
40
1.6000000000000003
210
0
220
0
230
1
0
ARC
5
179
100
AcDbEntity
8
0
100
AcDbCircle
10
20.000000223517414
20
15.000000149011612
30
0
40
9
210
0
220
-0
230
1
100
AcDbArc
50
90
51
180
0
LINE
5
180
100
AcDbEntity
8
0
100
AcDbLine
10
6.4999995790503657
20
24.000549875176226
30
0
11
6.4996335097214093
21
26.99975630644213
31
0
0
LINE
5
181
100
AcDbEntity
8
0
100
AcDbLine
10
20.000000298023224
20
34
30
0
11
20.000000298023224
21
31.000000417232517
31
0
0
LINE
5
182
100
AcDbEntity
8
0
100
AcDbLine
10
18.000000298023224
20
29.000000417232513
30
0
11
8.4996334948238932
21
29.000000417232513
31
0
0
LINE
5
183
100
AcDbEntity
8
0
100
AcDbLine
10
-10.000000149011612
20
34
30
0
11
-10.000000149011612
21
28.690416860854722
31
0
0
LINE
5
184
100
AcDbEntity
8
0
100
AcDbLine
10
26.5
20
36
30
0
11
22.00000029802322
21
36
31
0
0
LINE
5
185
100
AcDbEntity
8
0
100
AcDbLine
10
-12.000000149011612
20
36
30
0
11
-16.500000000000004
21
36
31
0
0
ARC
5
186
100
AcDbEntity
8
0
100
AcDbCircle
10
-12.000000149011608
20
34
30
0
40
1.9999999999999973
210
0
220
0
230
1
100
AcDbArc
50
0
51
90.000000000000099
0
ARC
5
187
100
AcDbEntity
8
0
100
AcDbCircle
10
8.4996334948238967
20
27.000000417232506
30
0
40
2.0000000000000062
210
0
220
0
230
1
100
AcDbArc
50
90.000000000000099
51
180.00699325895059
0
ARC
5
188
100
AcDbEntity
8
0
100
AcDbCircle
10
18.000000298023227
20
31.000000417232513
30
0
40
1.9999999999999973
210
0
220
0
230
1
100
AcDbArc
50
-90.000000000000099
51
0
0
ARC
5
189
100
AcDbEntity
8
0
100
AcDbCircle
10
22.000000298023203
20
34.000000000000014
30
0
40
1.9999999999999796
210
0
220
-0
230
1
100
AcDbArc
50
89.999999999999503
51
180
0
ARC
5
190
100
AcDbEntity
8
0
100
AcDbCircle
10
-12.000000149011603
20
28.690416860854718
30
0
40
1.9999999999999902
210
-0
220
0
230
1
100
AcDbArc
50
-46.186948004904131
51
0
0
LINE
5
191
100
AcDbEntity
8
0
100
AcDbLine
10
-8.0000001490116119
20
-30.000000447034836
30
0
11
-1.9999999999999996
21
-30.000000447034836
31
0
0
LINE
5
192
100
AcDbEntity
8
0
100
AcDbLine
10
-1.1102230246251565e-15
20
-32.000000447034836
30
0
11
0
21
-34
31
0
0
LINE
5
193
100
AcDbEntity
8
0
100
AcDbLine
10
-10.000000149011612
20
-34
30
0
11
-10.000000149011612
21
-32.000000447034836
31
0
0
LINE
5
194
100
AcDbEntity
8
0
100
AcDbLine
10
-16.500000000000004
20
-36.000000000000007
30
0
11
-12.000000149011612
21
-36.000000000000007
31
0
0
LINE
5
195
100
AcDbEntity
8
0
100
AcDbLine
10
1.9999999999999996
20
-36
30
0
11
26.5
21
-36.000000000000007
31
0
0
ARC
5
196
100
AcDbEntity
8
0
100
AcDbCircle
10
-12.000000149011614
20
-34
30
0
40
2.0000000000000018
210
-0
220
0
230
1
100
AcDbArc
50
-89.999999999999943
51
0
0
ARC
5
197
100
AcDbEntity
8
0
100
AcDbCircle
10
2.0000000000000031
20
-34
30
0
40
2.0000000000000031
210
0
220
0
230
1
100
AcDbArc
50
180
51
269.99999999999989
0
ARC
5
198
100
AcDbEntity
8
0
100
AcDbCircle
10
-8.0000001490116084
20
-32.000000447034836
30
0
40
2.0000000000000018
210
0
220
0
230
1
100
AcDbArc
50
90.000000000000099
51
180
0
ARC
5
199
100
AcDbEntity
8
0
100
AcDbCircle
10
-2.0000000000000027
20
-32.000000447034836
30
0
40
2.0000000000000018
210
0
220
-0
230
1
100
AcDbArc
50
0
51
89.999999999999915
0
LINE
5
200
100
AcDbEntity
8
0
100
AcDbLine
10
76.5
20
36
30
0
11
72.000000298023224
21
36
31
0
0
LINE
5
201
100
AcDbEntity
8
0
100
AcDbLine
10
70.000000223517418
20
-19.000000149011612
30
0
11
76.500000031555402
21
-19.000000251566661
31
0
0
CIRCLE
5
202
100
AcDbEntity
8
0
100
AcDbCircle
10
75.500000298023224
20
-33.000000491738319
30
0
40
1.6000000000000003
210
0
220
0
230
1
0
ARC
5
203
100
AcDbEntity
8
0
100
AcDbCircle
10
33.500000000000007
20
33.999999999999993
30
0
40
2.0000000000000062
210
0
220
0
230
1
100
AcDbArc
50
90.000000000000199
51
180
0
CIRCLE
5
204
100
AcDbEntity
8
0
100
AcDbCircle
10
34.499999701976776
20
-33.000000491738319
30
0
40
1.6000000000000003
210
0
220
0
230
1
0
LINE
5
205
100
AcDbEntity
8
0
100
AcDbLine
10
33.5
20
-36.000000000000007
30
0
11
37.999999850988388
21
-36.000000000000007
31
0
0
LINE
5
206
100
AcDbEntity
8
0
100
AcDbLine
10
61.000000223517418
20
-10.000000149011612
30
0
11
61.000000223517418
21
15.000000149011612
31
0
0
LINE
5
207
100
AcDbEntity
8
0
100
AcDbLine
10
70.000000223517418
20
24.000000149011612
30
0
11
76.500000031555402
21
24.000000251566661
31
0
0
LINE
5
208
100
AcDbEntity
8
0
100
AcDbLine
10
52
20
-36
30
0
11
76.5
21
-36.000000000000007
31
0
0
LINE
5
209
100
AcDbEntity
8
0
100
AcDbLine
10
70.000000298023224
20
33.999999999999922
30
0
11
70.000000298023224
21
31.000000417232517
31
0
0
ARC
5
210
100
AcDbEntity
8
0
100
AcDbCircle
10
70.000000223517418
20
-10.000000149011612
30
0
40
9.0000000000000036
210
0
220
0
230
1
100
AcDbArc
50
180
51
270
0
ARC
5
211
100
AcDbEntity
8
0
100
AcDbCircle
10
76.5
20
-34
30
0
40
2.0000000000000018
210
0
220
0
230
1
100
AcDbArc
50
-90
51
0
0
LINE
5
212
100
AcDbEntity
8
0
100
AcDbLine
10
78.5
20
26.000000251566661
30
0
11
78.5
21
33.999999999999986
31
0
0
ARC
5
213
100
AcDbEntity
8
0
100
AcDbCircle
10
76.5
20
34
30
0
40
1.9999999999999929
210
-0
220
0
230
1
100
AcDbArc
50
0
51
90
0
ARC
5
214
100
AcDbEntity
8
0
100
AcDbCircle
10
76.5
20
26.000000251566668
30
0
40
2.0000000000000067
210
-0
220
0
230
1
100
AcDbArc
50
270.00000090399567
51
360
0
ARC
5
215
100
AcDbEntity
8
0
100
AcDbCircle
10
76.5
20
-21.000000251566668
30
0
40
2.0000000000000018
210
-0
220
0
230
1
100
AcDbArc
50
0
51
89.999999096004331
0
LINE
5
216
100
AcDbEntity
8
0
100
AcDbLine
10
78.5
20
-34
30
0
11
78.5
21
-21.000000251566668
31
0
0
ARC
5
217
100
AcDbEntity
8
0
100
AcDbCircle
10
70.000000223517418
20
15.000000149011612
30
0
40
9
210
0
220
-0
230
1
100
AcDbArc
50
90
51
180
0
ARC
5
218
100
AcDbEntity
8
0
100
AcDbCircle
10
76.5
20
0.99999995250254914
30
0
40
2.0000000000000062
210
-0
220
0
230
1
100
AcDbArc
50
270.00000074705196
51
295.22408375225024
0
ARC
5
219
100
AcDbEntity
8
0
100
AcDbCircle
10
33.5
20
-34.000000000000007
30
0
40
1.9999999999999929
210
0
220
0
230
1
100
AcDbArc
50
180
51
270
0
CIRCLE
5
220
100
AcDbEntity
8
0
100
AcDbCircle
10
75.500000298023224
20
33.000000491738319
30
0
40
1.5999999999999992
210
0
220
0
230
1
0
LINE
5
221
100
AcDbEntity
8
0
100
AcDbLine
10
31.500000000000004
20
33.999999999999993
30
0
11
31.500000000000004
21
-33.999999999999993
31
0
0
CIRCLE
5
222
100
AcDbEntity
8
0
100
AcDbCircle
10
34.499999701976776
20
33.000000491738319
30
0
40
1.5999999999999992
210
0
220
0
230
1
0
LINE
5
223
100
AcDbEntity
8
0
100
AcDbLine
10
42.499999076128006
20
28.500000357627869
30
0
11
51.999999210238457
21
28.500000357627869
31
0
0
ARC
5
224
100
AcDbEntity
8
0
100
AcDbCircle
10
51.999999210238457
20
24.000000491738316
30
0
40
4.5000002682208926
210
0
220
0
230
1
100
AcDbArc
50
-90.013988226647243
51
90
0
ARC
5
225
100
AcDbEntity
8
0
100
AcDbCircle
10
42.499999076128006
20
24.000000357627869
30
0
40
4.5000000000000018
210
0
220
-0
230
1
100
AcDbArc
50
90
51
270
0
LINE
5
226
100
AcDbEntity
8
0
100
AcDbLine
10
51.999999210238457
20
19.500000357627869
30
0
11
42.499999076128006
21
19.500000357627869
31
0
0
LINE
5
227
100
AcDbEntity
8
0
100
AcDbLine
10
60.000000894069672
20
31.000000432133675
30
0
11
60.000000894069672
21
34.000000495955632
31
0
0
LINE
5
228
100
AcDbEntity
8
0
100
AcDbLine
10
58.000000853583494
20
36.000000495955632
30
0
11
33.5
21
36
31
0
0
LINE
5
229
100
AcDbEntity
8
0
100
AcDbLine
10
62.000000894069665
20
29.000000432133678
30
0
11
68.000000298023082
21
29.000000432133675
31
0
0
ARC
5
230
100
AcDbEntity
8
0
100
AcDbCircle
10
62.000000894069686
20
31.000000432133689
30
0
40
2.0000000000000107
210
0
220
0
230
1
100
AcDbArc
50
180
51
269.99999999999937
0
ARC
5
231
100
AcDbEntity
8
0
100
AcDbCircle
10
68.000000298023082
20
31.000000432133668
30
0
40
1.9999999999999929
210
0
220
0
230
1
100
AcDbArc
50
-90
51
2.1327258847706145e-05
0
ARC
5
232
100
AcDbEntity
8
0
100
AcDbCircle
10
58.000000894069672
20
34.000000495955632
30
0
40
2.0000000000000018
210
0
220
0
230
1
100
AcDbArc
50
0
51
90.000001159843563
0
ARC
5
233
100
AcDbEntity
8
0
100
AcDbCircle
10
72.000000298023238
20
33.999999999999922
30
0
40
2.0000000000000115
210
0
220
-0
230
1
100
AcDbArc
50
89.999984632074771
51
180
0
LINE
5
234
100
AcDbEntity
8
0
100
AcDbLine
10
52
20
-36
30
0
11
37.999999850988388
21
-36.000000000000007
31
0
0
CIRCLE
5
235
100
AcDbEntity
8
0
100
AcDbCircle
10
-115.00000171363354
20
-14.500000208616257
30
0
40
1.9999999999999978
210
0
220
0
230
1
0
LWPOLYLINE
5
236
100
AcDbEntity
8
0
100
AcDbPolyline
90
9
70
1
43
0.0
10
178.5
20
21.000000251566661
10
178.5
20
33.999999999999986
42
0.41421356237309698
10
176.5
20
36
10
133.5
20
36
42
0.41421356237309437
10
131.5
20
33.999999999999993
10
131.5
20
-33.999999999999993
42
0.41421356237309698
10
133.5
20
-36.000000000000007
10
176.5
20
-36.000000000000007
42
0.41421356237309503
10
178.5
20
-34
0
CIRCLE
5
237
100
AcDbEntity
8
0
100
AcDbCircle
10
175.50000029802322
20
33.000000491738319
30
0
40
1.5999999999999992
210
0
220
0
230
1
0
CIRCLE
5
238
100
AcDbEntity
8
0
100
AcDbCircle
10
175.5000002980232
20
-33.000000491738319
30
0
40
1.6000000000000003
210
0
220
0
230
1
0
CIRCLE
5
239
100
AcDbEntity
8
0
100
AcDbCircle
10
134.49999970197678
20
-33.000000491738319
30
0
40
1.6000000000000003
210
0
220
0
230
1
0
CIRCLE
5
240
100
AcDbEntity
8
0
100
AcDbCircle
10
134.49999970197678
20
33.000000491738319
30
0
40
1.5999999999999992
210
0
220
0
230
1
0
CIRCLE
5
241
100
AcDbEntity
8
0
100
AcDbCircle
10
136.75
20
0
30
0
40
1.6000000000000016
210
0
220
0
230
1
0
CIRCLE
5
242
100
AcDbEntity
8
0
100
AcDbCircle
10
173.25
20
0
30
0
40
1.5999999999999912
210
0
220
0
230
1
0
LINE
5
243
100
AcDbEntity
8
0
100
AcDbLine
10
1.9999999999999996
20
-116
30
0
11
26.5
21
-116.00000000000001
31
0
0
LWPOLYLINE
5
244
100
AcDbEntity
8
0
100
AcDbPolyline
90
9
70
1
43
0.0
10
128.5
20
-46.000000000000014
42
0.41421356237309764
10
126.5
20
-44
10
73.500000000000014
20
-44
42
0.4142135623730937
10
71.5
20
-46.000000000000007
10
71.5
20
-113.99999999999999
42
0.41421356237310025
10
73.5
20
-116.00000000000001
10
126.5
20
-116.00000000000001
42
0.41421356237309503
10
128.5
20
-114
10
128.5
20
-58.999999748433339
0
CIRCLE
5
245
100
AcDbEntity
8
0
100
AcDbCircle
10
-15.500000298023222
20
-46.999999508261681
30
0
40
1.5999999999999992
210
0
220
0
230
1
0
ARC
5
246
100
AcDbEntity
8
0
100
AcDbCircle
10
-26.499999999999986
20
-46.000000000000014
30
0
40
2.0000000000000107
210
0
220
-0
230
1
100
AcDbArc
50
90
51
180
0
ARC
5
247
100
AcDbEntity
8
0
100
AcDbCircle
10
-7.5000009238719922
20
-55.999999642372131
30
0
40
4.4999999999999964
210
0
220
0
230
1
100
AcDbArc
50
133.813051995096
51
270
0
ARC
5
248
100
AcDbEntity
8
0
100
AcDbCircle
10
26.499999999999993
20
-53.999999748433332
30
0
40
2.0000000000000022
210
-0
220
0
230
1
100
AcDbArc
50
270.00000090399578
51
360
0
ARC
5
249
100
AcDbEntity
8
0
100
AcDbCircle
10
-26.500000000000014
20
-114.00000000000003
30
0
40
1.9999999999999929
210
0
220
0
230
1
100
AcDbArc
50
180
51
270
0
ARC
5
250
100
AcDbEntity
8
0
100
AcDbCircle
10
26.5
20
-79.000000047497451
30
0
40
2.0000000000000022
210
-0
220
0
230
1
100
AcDbArc
50
270.00000074705213
51
295.22408375225018
0
CIRCLE
5
251
100
AcDbEntity
8
0
100
AcDbCircle
10
84.499999701976776
20
-46.999999508261681
30
0
40
1.5999999999999992
210
0
220
0
230
1
0
ARC
5
252
100
AcDbEntity
8
0
100
AcDbCircle
10
18.000000298023227
20
-48.999999582767487
30
0
40
2.0000000000000018
210
0
220
0
230
1
100
AcDbArc
50
-90.000000000000099
51
0
0
ARC
5
253
100
AcDbEntity
8
0
100
AcDbCircle
10
20.000000223517414
20
-64.999999850988388
30
0
40
9.0000000000000036
210
0
220
-0
230
1
100
AcDbArc
50
90
51
180
0
ARC
5
254
100
AcDbEntity
8
0
100
AcDbCircle
10
8.4996334948238967
20
-52.999999582767494
30
0
40
2.0000000000000018
210
0
220
0
230
1
100
AcDbArc
50
90.000000000000099
51
180.00699325895059
0
ARC
5
255
100
AcDbEntity
8
0
100
AcDbCircle
10
22.000000298023203
20
-45.999999999999979
30
0
40
1.9999999999999751
210
0
220
-0
230
1
100
AcDbArc
50
89.999999999999503
51
180
0
LINE
5
256
100
AcDbEntity
8
0
100
AcDbLine
10
-10.000000149011612
20
-46
30
0
11
-10.000000149011612
21
-51.309583139145275
31
0
0
LINE
5
257
100
AcDbEntity
8
0
100
AcDbLine
10
-8.0000001490116119
20
-110.00000044703484
30
0
11
-1.9999999999999996
21
-110.00000044703484
31
0
0
LINE
5
258
100
AcDbEntity
8
0
100
AcDbLine
10
18.000000298023224
20
-50.999999582767487
30
0
11
8.4996334948238932
21
-50.999999582767487
31
0
0
LINE
5
259
100
AcDbEntity
8
0
100
AcDbLine
10
20.000000298023224
20
-46
30
0
11
20.000000298023224
21
-48.999999582767479
31
0
0
ARC
5
260
100
AcDbEntity
8
0
100
AcDbCircle
10
26.499999999999993
20
-101.00000025156668
30
0
40
2.0000000000000062
210
-0
220
0
230
1
100
AcDbArc
50
0
51
89.999999096004217
0
ARC
5
261
100
AcDbEntity
8
0
100
AcDbCircle
10
26.500000000000004
20
-114
30
0
40
2.0000000000000107
210
0
220
0
230
1
100
AcDbArc
50
-90.000000000000099
51
0
0
LINE
5
262
100
AcDbEntity
8
0
100
AcDbLine
10
1.9999992102384567
20
-60.499999642372131
30
0
11
-7.5000009238719922
21
-60.499999642372131
31
0
0
ARC
5
263
100
AcDbEntity
8
0
100
AcDbCircle
10
-2.0000000000000027
20
-112.00000044703484
30
0
40
2.0000000000000018
210
0
220
-0
230
1
100
AcDbArc
50
0
51
89.999999999999915
0
CIRCLE
5
264
100
AcDbEntity
8
0
100
AcDbCircle
10
-15.500000298023222
20
-113.00000049173832
30
0
40
1.6000000000000003
210
0
220
0
230
1
0
LINE
5
265
100
AcDbEntity
8
0
100
AcDbLine
10
20.000000223517414
20
-55.999999850988388
30
0
11
26.500000031555398
21
-55.999999748433339
31
0
0
CIRCLE
5
266
100
AcDbEntity
8
0
100
AcDbCircle
10
25.500000298023224
20
-113.00000049173832
30
0
40
1.6000000000000003
210
0
220
0
230
1
0
CIRCLE
5
267
100
AcDbEntity
8
0
100
AcDbCircle
10
25.500000298023224
20
-46.999999508261681
30
0
40
1.5999999999999992
210
0
220
0
230
1
0
LINE
5
268
100
AcDbEntity
8
0
100
AcDbLine
10
11.000000223517414
20
-90.000000149011612
30
0
11
11.000000223517414
21
-64.999999850988388
31
0
0
LINE
5
269
100
AcDbEntity
8
0
100
AcDbLine
10
28.5
20
-53.999999748433339
30
0
11
28.5
21
-46.000000000000014
31
0
0
ARC
5
270
100
AcDbEntity
8
0
100
AcDbCircle
10
26.500000000000004
20
-46
30
0
40
1.9999999999999973
210
-0
220
0
230
1
100
AcDbArc
50
0
51
90.000000000000099
0
CIRCLE
5
271
100
AcDbEntity
8
0
100
AcDbCircle
10
84.49999970197679
20
-113.00000049173832
30
0
40
1.6000000000000003
210
0
220
0
230
1
0
LINE
5
272
100
AcDbEntity
8
0
100
AcDbLine
10
26.5
20
-44
30
0
11
22.00000029802322
21
-44
31
0
0
ARC
5
273
100
AcDbEntity
8
0
100
AcDbCircle
10
20.000000223517418
20
-90.000000149011612
30
0
40
9.0000000000000036
210
0
220
0
230
1
100
AcDbArc
50
180
51
270
0
LINE
5
274
100
AcDbEntity
8
0
100
AcDbLine
10
6.4999995790503657
20
-55.999450124823781
30
0
11
6.4996335097214093
21
-53.000243693557877
31
0
0
CIRCLE
5
275
100
AcDbEntity
8
0
100
AcDbCircle
10
125.50000029802322
20
-46.999999508261681
30
0
40
1.5999999999999992
210
0
220
0
230
1
0
LINE
5
276
100
AcDbEntity
8
0
100
AcDbLine
10
-26.500000000000014
20
-116.00000000000001
30
0
11
-12.000000149011612
21
-116.00000000000001
31
0
0
ARC
5
277
100
AcDbEntity
8
0
100
AcDbCircle
10
1.9999992102384567
20
-55.999999374151237
30
0
40
4.5000004023313354
210
0
220
0
230
1
100
AcDbArc
50
-90.01398822623041
51
0.006993259002689412
0
LINE
5
278
100
AcDbEntity
8
0
100
AcDbLine
10
20.000000223517418
20
-99.000000149011612
30
0
11
26.500000031555398
21
-99.000000251566661
31
0
0
ARC
5
279
100
AcDbEntity
8
0
100
AcDbCircle
10
-12.000000149011608
20
-46
30
0
40
1.9999999999999973
210
0
220
0
230
1
100
AcDbArc
50
0
51
90.000000000000099
0
LINE
5
280
100
AcDbEntity
8
0
100
AcDbLine
10
-28.499999999999996
20
-46.000000000000007
30
0
11
-28.500000000000007
21
-113.99999999999999
31
0
0
LINE
5
281
100
AcDbEntity
8
0
100
AcDbLine
10
-1.1102230246251565e-15
20
-112.00000044703484
30
0
11
0
21
-114
31
0
0
LINE
5
282
100
AcDbEntity
8
0
100
AcDbLine
10
-12.000000149011612
20
-44
30
0
11
-26.499999999999986
21
-44
31
0
0
LINE
5
283
100
AcDbEntity
8
0
100
AcDbLine
10
-10.000000149011612
20
-114
30
0
11
-10.000000149011612
21
-112.00000044703484
31
0
0
LINE
5
284
100
AcDbEntity
8
0
100
AcDbLine
10
28.500000000000007
20
-114
30
0
11
28.499999999999993
21
-101.00000025156668
31
0
0
ARC
5
285
100
AcDbEntity
8
0
100
AcDbCircle
10
2.0000000000000031
20
-114
30
0
40
2.0000000000000031
210
0
220
0
230
1
100
AcDbArc
50
180
51
269.99999999999989
0
ARC
5
286
100
AcDbEntity
8
0
100
AcDbCircle
10
-12.000000149011614
20
-114
30
0
40
2.0000000000000107
210
-0
220
0
230
1
100
AcDbArc
50
-89.999999999999943
51
0
0
ARC
5
287
100
AcDbEntity
8
0
100
AcDbCircle
10
-12.000000149011603
20
-51.309583139145275
30
0
40
1.9999999999999969
210
-0
220
0
230
1
100
AcDbArc
50
-46.186948004904387
51
0
0
CIRCLE
5
288
100
AcDbEntity
8
0
100
AcDbCircle
10
125.50000029802321
20
-113.00000049173832
30
0
40
1.6000000000000003
210
0
220
0
230
1
0
ARC
5
289
100
AcDbEntity
8
0
100
AcDbCircle
10
-8.0000001490116084
20
-112.00000044703484
30
0
40
1.9999999999999929
210
0
220
0
230
1
100
AcDbArc
50
90.000000000000099
51
180
0
LWPOLYLINE
5
290
100
AcDbEntity
8
0
100
AcDbPolyline
90
4
70
1
43
0.0
10
-111.00000135600567
20
-105.5000002682209
10
-111.00000135600567
20
-99.500000268220901
10
-119.99914680239455
20
-99.500000268231986
10
-119.99914680239455
20
-105.50000026823199
0
CIRCLE
5
291
100
AcDbEntity
8
0
100
AcDbCircle
10
-117.00000029802322
20
-46.999999508261681
30
0
40
1.7000000000000002
210
0
220
0
230
1
0
LWPOLYLINE
5
292
100
AcDbEntity
8
0
100
AcDbPolyline
90
4
70
1
43
0.0
10
-115.00000141561031
20
-60.499999731779099
10
-115.00000141561033
20
-54.49997364132264
10
-119.99914680239472
20
-54.49997364132264
10
-119.99914680239472
20
-60.499999731788812
0
LWPOLYLINE
5
293
100
AcDbEntity
8
0
100
AcDbPolyline
90
4
70
1
43
0.0
10
-114.00000140070915
20
-72.999999895691872
10
-114.00000140070915
20
-66.999999806284904
10
-119.00000147521496
20
-66.999999806284904
10
-119.00000147521496
20
-72.999999895691872
0
LINE
5
294
100
AcDbEntity
8
0
100
AcDbLine
10
-109.00000132620335
20
-97.00000025331974
30
0
11
-119.99914680239451
21
-97.000000253319826
31
0
0
CIRCLE
5
295
100
AcDbEntity
8
0
100
AcDbCircle
10
-115.00000171363354
20
-94.500000208616257
30
0
40
1.9999999999999978
210
0
220
0
230
1
0
LINE
5
296
100
AcDbEntity
8
0
100
AcDbLine
10
-109.00000132620335
20
-90.000000149011612
30
0
11
-111.00000135600567
21
-90.000000149011612
31
0
0
LINE
5
297
100
AcDbEntity
8
0
100
AcDbLine
10
-113.00000420826319
20
-43.999998271556898
30
0
11
-113.00000420826319
21
-62.000001138447814
31
0
0
LINE
5
298
100
AcDbEntity
8
0
100
AcDbLine
10
-113.00000420826319
20
-62.000001138447814
30
0
11
-119.99914680239465
21
-62.000001138448731
31
0
0
LINE
5
299
100
AcDbEntity
8
0
100
AcDbLine
10
-119.99914680239472
20
-60.499999731788812
30
0
11
-119.99914680239455
21
-99.500000268231986
31
0
0
LINE
5
300
100
AcDbEntity
8
0
100
AcDbLine
10
-109.00000132620335
20
-107.00000159442425
30
0
11
-109.00000132620335
21
-90.000000149011612
31
0
0
LINE
5
301
100
AcDbEntity
8
0
100
AcDbLine
10
-119.99914680239476
20
-44.000170892406373
30
0
11
-119.99914680239472
21
-54.49997364132264
31
0
0
CIRCLE
5
302
100
AcDbEntity
8
0
100
AcDbCircle
10
-117.00000029802322
20
-113.00000049173832
30
0
40
1.7000000000000002
210
0
220
0
230
1
0
LINE
5
303
100
AcDbEntity
8
0
100
AcDbLine
10
-113.00000168383121
20
-90.000001341104507
30
0
11
-110.99999556243259
21
-90.000001341104507
31
0
0
LINE
5
304
100
AcDbEntity
8
0
100
AcDbLine
10
-113.00000168383121
20
-61.999999946356503
30
0
11
-113.00000168383121
21
-90.000001341104507
31
0
0
LINE
5
305
100
AcDbEntity
8
0
100
AcDbLine
10
-113.00000168383121
20
-107.00000159442425
30
0
11
-109.00000132620335
21
-107.00000159442425
31
0
0
LINE
5
306
100
AcDbEntity
8
0
100
AcDbLine
10
-113.00000168383121
20
-116.0000005364418
30
0
11
-113.00000168383121
21
-107.00000159442425
31
0
0
LINE
5
307
100
AcDbEntity
8
0
100
AcDbLine
10
-130.00000193715096
20
-115.99585703906804
30
0
11
-113.00000163656995
21
-115.99585703906804
31
0
0
LINE
5
308
100
AcDbEntity
8
0
100
AcDbLine
10
-113.00000420826319
20
-43.999998271556898
30
0
11
-130.00000193715096
21
-43.999998271556898
31
0
0
LINE
5
309
100
AcDbEntity
8
0
100
AcDbLine
10
-130.00000193715096
20
-43.999998271556898
30
0
11
-130.00000193715096
21
-115.99585703906804
31
0
0
LINE
5
310
100
AcDbEntity
8
0
100
AcDbLine
10
-119.99914680239455
20
-105.50000026823199
30
0
11
-119.99914680239442
21
-116.00017089240636
31
0
0
LINE
5
311
100
AcDbEntity
8
0
100
AcDbLine
10
-130.00000193715096
20
-120.00000178813934
30
0
11
-109.76483498183163
21
-120.00000036918651
31
0
0
LINE
5
312
100
AcDbEntity
8
0
100
AcDbLine
10
-112.9999998606305
20
-132.99999959766853
30
0
11
-108.99999950300268
21
-132.99999903668362
31
0
0
LINE
5
313
100
AcDbEntity
8
0
100
AcDbLine
10
-112.99999747644475
20
-149.99999985098813
30
0
11
-110.99999135504612
21
-149.99999957049482
31
0
0
CIRCLE
5
314
100
AcDbEntity
8
0
100
AcDbCircle
10
-114.99999813735486
20
-145.50000126396884
30
0
40
1.9999999999999978
210
0
220
0
230
1
0
LINE
5
315
100
AcDbEntity
8
0
100
AcDbLine
10
-119.99914476882425
20
-134.50000190546444
30
0
11
-119.99914624143335
21
-123.99983128129017
31
0
0
LWPOLYLINE
5
316
100
AcDbEntity
8
0
100
AcDbPolyline
90
4
70
1
43
0.0
10
-119.99914476882425
20
-134.50000190546444
10
-119.99914392734698
20
-140.50000190546439
10
-110.99999848095814
20
-140.50000064337934
10
-110.99999932243547
20
-134.50000064337939
0
LWPOLYLINE
5
317
100
AcDbEntity
8
0
100
AcDbPolyline
90
4
70
1
43
0.0
10
-119.99913845774442
20
-179.50000244190716
10
-114.99999307096013
20
-179.50000174080566
10
-114.99999222947915
20
-185.50002783126203
10
-119.99913761626344
20
-185.50002853237331
0
LWPOLYLINE
5
318
100
AcDbEntity
8
0
100
AcDbPolyline
90
4
70
1
43
0.0
10
-118.9999948836425
20
-167.00000213787789
10
-118.99999404216517
20
-173.00000222728477
10
-113.99999396765941
20
-173.00000152605367
10
-113.99999480913675
20
-167.00000143664678
0
LINE
5
319
100
AcDbEntity
8
0
100
AcDbLine
10
-108.99999711881675
20
-150.00000048209608
30
0
11
-110.99999714861906
21
-150.00000076258854
31
0
0
LINE
5
320
100
AcDbEntity
8
0
100
AcDbLine
10
-113.00000112284633
20
-124.00000065565108
30
0
11
-112.9999998606305
21
-132.99999959766853
31
0
0
LINE
5
321
100
AcDbEntity
8
0
100
AcDbLine
10
-119.99913845774442
20
-179.50000244190716
30
0
11
-119.99914392734698
21
-140.50000190546439
31
0
0
LINE
5
322
100
AcDbEntity
8
0
100
AcDbLine
10
-122.99875260736748
20
-123.99798292449771
30
0
11
-113.00000107500396
21
-124.00414415302484
31
0
0
LINE
5
323
100
AcDbEntity
8
0
100
AcDbLine
10
-112.99999354955041
20
-178.00000124573586
30
0
11
-112.99999747644475
21
-149.99999985098813
31
0
0
CIRCLE
5
324
100
AcDbEntity
8
0
100
AcDbCircle
10
-116.99999006004902
20
-193.00000224481522
30
0
40
1.7000000000000002
210
0
220
0
230
1
0
CIRCLE
5
325
100
AcDbEntity
8
0
100
AcDbCircle
10
-116.99999931629962
20
-127.00000126133922
30
0
40
1.7000000000000002
210
0
220
0
230
1
0
LINE
5
326
100
AcDbEntity
8
0
100
AcDbLine
10
-112.99999354955041
20
-178.00000124573586
30
0
11
-119.99913866811396
21
-178.00000103524727
31
0
0
LINE
5
327
100
AcDbEntity
8
0
100
AcDbLine
10
-112.9999935495502
20
-196.00000292062714
30
0
11
-112.99999354955041
21
-178.00000124573586
31
0
0
LINE
5
328
100
AcDbEntity
8
0
100
AcDbLine
10
-124.9999756132456
20
-194.00000619780303
30
0
11
-124.99998500670435
21
-125.99798282107002
31
0
0
LINE
5
329
100
AcDbEntity
8
0
100
AcDbLine
10
-108.9999981005403
20
-143.00000037778801
30
0
11
-119.9991435767314
21
-143.00000192037652
31
0
0
LINE
5
330
100
AcDbEntity
8
0
100
AcDbLine
10
-108.99999950300268
20
-132.99999903668362
30
0
11
-108.99999711881675
21
-150.00000048209608
31
0
0
LINE
5
331
100
AcDbEntity
8
0
100
AcDbLine
10
-112.9999935495502
20
-196.00000292062714
30
0
11
-122.99997501305889
21
-196.00000592153665
31
0
0
LINE
5
332
100
AcDbEntity
8
0
100
AcDbLine
10
-119.99999735881728
20
-196.00000502126886
30
0
11
-119.99913761626344
21
-185.50002853237331
31
0
0
ARC
5
333
100
AcDbEntity
8
0
100
AcDbCircle
10
-122.9999756132419
20
-194.00000592153305
30
0
40
2.0000000000037068
210
0
220
0
230
1
100
AcDbArc
50
180.00000791757108
51
270.00001719397687
0
ARC
5
334
100
AcDbEntity
8
0
100
AcDbCircle
10
-122.99998500670006
20
-125.99798254480005
30
0
40
2.0000000000044156
210
0
220
-0
230
1
100
AcDbArc
50
89.96469435755003
51
180.00000791757108
0
LWPOLYLINE
5
335
100
AcDbEntity
8
0
100
AcDbPolyline
90
4
70
1
43
0.0
10
-119.00000147521496
20
7.0000001043081284
10
-119.00000147521496
20
13.000000193715096
10
-114.00000140070915
20
13.000000193715096
10
-114.00000140070915
20
7.0000001043081284
0
LWPOLYLINE
5
336
100
AcDbEntity
8
0
100
AcDbPolyline
90
18
70
1
43
0.0
10
-109.00000132620335
20
-10.000000149011612
10
-111.00000135600567
20
-10.000000149011612
10
-110.99999556243259
20
18.0000000536435
10
-113.00000138580799
20
18.000000268220901
10
-113.00000138580799
20
36.000000536441803
10
-118
20
36
42
0.41421356237309437
10
-120
20
33.999999999999993
10
-120
20
25.500000357627869
10
-115.00000141561031
20
25.500000357627869
10
-115.00000141561031
20
19.500000268220901
10
-120
20
19.500000268220898
10
-120
20
-19.500000268220901
10
-120
20
-25.500000268220901
10
-120
20
-33.999999999999993
42
0.414213530949055
10
-118.00000021457679
20
-35.999999999999986
10
-113.00000138580799
20
-36.000000536441803
10
-111.00000135600567
20
-36.000000536441803
10
-109.00000132620335
20
-36.000000536441803
0
LINE
5
337
100
AcDbEntity
8
0
100
AcDbLine
10
-111.00000135600567
20
-25.500000268220901
30
0
11
-111.00000135600567
21
-19.500000268220901
31
0
0
CIRCLE
5
338
100
AcDbEntity
8
0
100
AcDbCircle
10
-117.00000029802322
20
33.000000491738319
30
0
40
1.6500000000000001
210
0
220
0
230
1
0
LINE
5
339
100
AcDbEntity
8
0
100
AcDbLine
10
-109.00000132620335
20
-17.000000253319737
30
0
11
-120
21
-17.00000025331974
31
0
0
LINE
5
340
100
AcDbEntity
8
0
100
AcDbLine
10
-111.00000135600567
20
-19.500000268220901
30
0
11
-120
21
-19.500000268220901
31
0
0
LINE
5
341
100
AcDbEntity
8
0
100
AcDbLine
10
-120
20
-25.500000268220901
30
0
11
-111.00000135600567
21
-25.500000268220901
31
0
0
CIRCLE
5
342
100
AcDbEntity
8
0
100
AcDbCircle
10
-117.00000029802322
20
-33.000000491738319
30
0
40
1.6500000000000001
210
0
220
0
230
1
0
LINE
5
343
100
AcDbEntity
8
0
100
AcDbLine
10
-120
20
19.500000268220898
30
0
11
-120
21
25.500000357627869
31
0
0
LINE
5
344
100
AcDbEntity
8
0
100
AcDbLine
10
-113.00000138580799
20
18.000000268220901
30
0
11
-120
21
18.000000268220901
31
0
0
CIRCLE
5
345
100
AcDbEntity
8
0
100
AcDbCircle
10
-115.00000171363354
20
-14.500000208616257
30
0
40
1.9999999999999978
210
0
220
0
230
1
0
LINE
5
346
100
AcDbEntity
8
0
100
AcDbLine
10
-119.99913614370587
20
-195.99983128128943
30
0
11
-114.00000169873238
21
-196.00000218043681
31
0
0
LWPOLYLINE
5
347
100
AcDbEntity
8
0
100
AcDbPolyline
90
9
70
1
43
0.0
10
126.5
20
-129
10
78.5
20
-129
42
0.41421356237309503
10
76.5
20
-131
10
76.5
20
-199
42
0.41421356237310025
10
78.499999999999986
20
-201
10
126.5
20
-201
42
0.41421356237309503
10
128.5
20
-199
10
128.5
20
-143.99999974843334
10
128.5
20
-131
42
0.41421356237309764
0
CIRCLE
5
348
100
AcDbEntity
8
0
100
AcDbCircle
10
125.50000029802322
20
-131.99999950826168
30
0
40
1.5999999999999992
210
0
220
0
230
1
0
CIRCLE
5
349
100
AcDbEntity
8
0
100
AcDbCircle
10
84.499999701976776
20
-131.99999950826168
30
0
40
1.5999999999999992
210
0
220
0
230
1
0
CIRCLE
5
350
100
AcDbEntity
8
0
100
AcDbCircle
10
84.49999970197679
20
-198.00000049173832
30
0
40
1.6000000000000003
210
0
220
0
230
1
0
CIRCLE
5
351
100
AcDbEntity
8
0
100
AcDbCircle
10
125.50000029802321
20
-198.00000049173832
30
0
40
1.6000000000000003
210
0
220
0
230
1
0
LINE
5
352
100
AcDbEntity
8
0
100
AcDbLine
10
-8.0000001490116119
20
-195.00000044703484
30
0
11
-1.9999999999999996
21
-195.00000044703484
31
0
0
LINE
5
353
100
AcDbEntity
8
0
100
AcDbLine
10
1.9999992102384567
20
-145.49999964237213
30
0
11
-7.5000009238719922
21
-145.49999964237213
31
0
0
LINE
5
354
100
AcDbEntity
8
0
100
AcDbLine
10
20.000000223517418
20
-184.00000014901161
30
0
11
26.500000031555398
21
-184.00000025156663
31
0
0
ARC
5
355
100
AcDbEntity
8
0
100
AcDbCircle
10
26.500000000000004
20
-199
30
0
40
2.0000000000000284
210
0
220
0
230
1
100
AcDbArc
50
-90.000000000000099
51
0
0
ARC
5
356
100
AcDbEntity
8
0
100
AcDbCircle
10
-2.0000000000000027
20
-197.00000044703484
30
0
40
2.0000000000000018
210
0
220
-0
230
1
100
AcDbArc
50
0
51
89.999999999999915
0
LINE
5
357
100
AcDbEntity
8
0
100
AcDbLine
10
20.000000298023224
20
-131
30
0
11
20.000000298023224
21
-133.99999958276749
31
0
0
ARC
5
358
100
AcDbEntity
8
0
100
AcDbCircle
10
2.0000000000000031
20
-199
30
0
40
2.0000000000000031
210
0
220
0
230
1
100
AcDbArc
50
180
51
269.99999999999989
0
CIRCLE
5
359
100
AcDbEntity
8
0
100
AcDbCircle
10
25.500000298023224
20
-198.00000049173832
30
0
40
1.6000000000000003
210
0
220
0
230
1
0
ARC
5
360
100
AcDbEntity
8
0
100
AcDbCircle
10
26.499999999999993
20
-138.99999974843331
30
0
40
2.0000000000000107
210
-0
220
0
230
1
100
AcDbArc
50
270.00000090399578
51
360
0
ARC
5
361
100
AcDbEntity
8
0
100
AcDbCircle
10
22.000000298023203
20
-130.99999999999997
30
0
40
1.9999999999999751
210
0
220
-0
230
1
100
AcDbArc
50
89.999999999999503
51
180
0
ARC
5
362
100
AcDbEntity
8
0
100
AcDbCircle
10
1.9999992102384567
20
-140.99999937415123
30
0
40
4.5000004023313265
210
0
220
0
230
1
100
AcDbArc
50
-90.01398822623041
51
0.006993259002689412
0
LINE
5
363
100
AcDbEntity
8
0
100
AcDbLine
10
11.000000223517414
20
-175.00000014901161
30
0
11
11.000000223517414
21
-149.99999985098839
31
0
0
LINE
5
364
100
AcDbEntity
8
0
100
AcDbLine
10
-1.1102230246251565e-15
20
-197.00000044703484
30
0
11
0
21
-199
31
0
0
ARC
5
365
100
AcDbEntity
8
0
100
AcDbCircle
10
26.499999999999993
20
-186.00000025156669
30
0
40
2.0000000000000062
210
-0
220
0
230
1
100
AcDbArc
50
0
51
89.999999096004217
0
LINE
5
366
100
AcDbEntity
8
0
100
AcDbLine
10
26.5
20
-129
30
0
11
22.00000029802322
21
-129
31
0
0
ARC
5
367
100
AcDbEntity
8
0
100
AcDbCircle
10
18.000000298023227
20
-133.99999958276749
30
0
40
2.0000000000000107
210
0
220
0
230
1
100
AcDbArc
50
-90.000000000000099
51
0
0
ARC
5
368
100
AcDbEntity
8
0
100
AcDbCircle
10
-21.5
20
-199.00000000000003
30
0
40
1.9999999999999929
210
0
220
0
230
1
100
AcDbArc
50
180
51
270
0
ARC
5
369
100
AcDbEntity
8
0
100
AcDbCircle
10
-8.0000001490116084
20
-197.00000044703484
30
0
40
1.9999999999999929
210
0
220
0
230
1
100
AcDbArc
50
90.000000000000099
51
180
0
ARC
5
370
100
AcDbEntity
8
0
100
AcDbCircle
10
20.000000223517414
20
-149.99999985098839
30
0
40
9.0000000000000036
210
0
220
-0
230
1
100
AcDbArc
50
90
51
180
0
LINE
5
371
100
AcDbEntity
8
0
100
AcDbLine
10
18.000000298023224
20
-135.99999958276749
30
0
11
8.4996334948238932
21
-135.99999958276749
31
0
0
LINE
5
372
100
AcDbEntity
8
0
100
AcDbLine
10
-10.000000149011612
20
-131
30
0
11
-10.000000149011612
21
-136.30958313914527
31
0
0
LINE
5
373
100
AcDbEntity
8
0
100
AcDbLine
10
6.4999995790503657
20
-140.99945012482377
30
0
11
6.4996335097214093
21
-138.00024369355788
31
0
0
LINE
5
374
100
AcDbEntity
8
0
100
AcDbLine
10
-10.000000149011612
20
-199
30
0
11
-10.000000149011612
21
-197.00000044703484
31
0
0
ARC
5
375
100
AcDbEntity
8
0
100
AcDbCircle
10
26.5
20
-164.00000004749745
30
0
40
1.9999999999999931
210
-0
220
0
230
1
100
AcDbArc
50
270.00000074705213
51
295.22408375225018
0
ARC
5
376
100
AcDbEntity
8
0
100
AcDbCircle
10
-12.000000149011614
20
-199
30
0
40
2.0000000000000284
210
-0
220
0
230
1
100
AcDbArc
50
-89.999999999999943
51
0
0
ARC
5
377
100
AcDbEntity
8
0
100
AcDbCircle
10
26.500000000000004
20
-131
30
0
40
1.9999999999999973
210
-0
220
0
230
1
100
AcDbArc
50
0
51
90.000000000000099
0
CIRCLE
5
378
100
AcDbEntity
8
0
100
AcDbCircle
10
-15.500000298023222
20
-131.99999950826168
30
0
40
1.5999999999999992
210
0
220
0
230
1
0
ARC
5
379
100
AcDbEntity
8
0
100
AcDbCircle
10
-12.000000149011603
20
-136.30958313914527
30
0
40
1.9999999999999969
210
-0
220
0
230
1
100
AcDbArc
50
-46.186948004904387
51
0
0
CIRCLE
5
380
100
AcDbEntity
8
0
100
AcDbCircle
10
25.500000298023224
20
-131.99999950826168
30
0
40
1.5999999999999992
210
0
220
0
230
1
0
LINE
5
381
100
AcDbEntity
8
0
100
AcDbLine
10
1.9999999999999996
20
-201
30
0
11
26.5
21
-201
31
0
0
ARC
5
382
100
AcDbEntity
8
0
100
AcDbCircle
10
8.4996334948238967
20
-137.99999958276749
30
0
40
2.0000000000000107
210
0
220
0
230
1
100
AcDbArc
50
90.000000000000099
51
180.00699325895059
0
LINE
5
383
100
AcDbEntity
8
0
100
AcDbLine
10
28.500000000000007
20
-199
30
0
11
28.499999999999993
21
-186.00000025156669
31
0
0
ARC
5
384
100
AcDbEntity
8
0
100
AcDbCircle
10
-7.5000009238719922
20
-140.99999964237213
30
0
40
4.4999999999999964
210
0
220
0
230
1
100
AcDbArc
50
133.813051995096
51
270
0
LINE
5
385
100
AcDbEntity
8
0
100
AcDbLine
10
20.000000223517414
20
-140.99999985098839
30
0
11
26.500000031555398
21
-140.99999974843334
31
0
0
ARC
5
386
100
AcDbEntity
8
0
100
AcDbCircle
10
20.000000223517418
20
-175.00000014901161
30
0
40
9.0000000000000036
210
0
220
0
230
1
100
AcDbArc
50
180
51
270
0
ARC
5
387
100
AcDbEntity
8
0
100
AcDbCircle
10
-12.000000149011608
20
-131
30
0
40
1.9999999999999973
210
0
220
0
230
1
100
AcDbArc
50
0
51
90.000000000000099
0
LINE
5
388
100
AcDbEntity
8
0
100
AcDbLine
10
28.5
20
-138.99999974843334
30
0
11
28.5
21
-131
31
0
0
CIRCLE
5
389
100
AcDbEntity
8
0
100
AcDbCircle
10
96.549012032633328
20
-146.74999999999997
30
0
40
1.6000000000000003
210
0
220
0
230
1
0
CIRCLE
5
390
100
AcDbEntity
8
0
100
AcDbCircle
10
109.04901203263333
20
-183.25000000000003
30
0
40
1.6000000000000061
210
0
220
0
230
1
0
LWPOLYLINE
5
391
100
AcDbEntity
8
0
100
AcDbPolyline
90
4
70
1
43
0.0
10
-119.99913845774442
20
-179.50000244190716
10
-119.99913761626344
20
-185.50002853237331
10
-114.99999222947915
20
-185.50002783126203
10
-114.99999307096013
20
-179.50000174080566
0
LINE
5
392
100
AcDbEntity
8
0
100
AcDbLine
10
-112.9999935495502
20
-196.00000292062714
30
0
11
-112.99999354955041
21
-178.00000124573586
31
0
0
CIRCLE
5
393
100
AcDbEntity
8
0
100
AcDbCircle
10
-116.99999006004902
20
-193.00000224481522
30
0
40
1.7000000000000002
210
0
220
0
230
1
0
LINE
5
394
100
AcDbEntity
8
0
100
AcDbLine
10
-124.9999756132456
20
-194.00000619780303
30
0
11
-124.99998500670435
21
-125.99798282107002
31
0
0
LWPOLYLINE
5
395
100
AcDbEntity
8
0
100
AcDbPolyline
90
4
70
1
43
0.0
10
-110.99999932243547
20
-134.50000064337939
10
-110.99999848095814
20
-140.50000064337934
10
-119.99914392734698
20
-140.50000190546439
10
-119.99914476882425
20
-134.50000190546444
0
LINE
5
396
100
AcDbEntity
8
0
100
AcDbLine
10
-112.99999354955041
20
-178.00000124573586
30
0
11
-119.99913866811396
21
-178.00000103524727
31
0
0
ARC
5
397
100
AcDbEntity
8
0
100
AcDbCircle
10
-122.9999756132419
20
-194.00000592153305
30
0
40
2.0000000000037068
210
0
220
0
230
1
100
AcDbArc
50
180.00000791757108
51
270.00001719397687
0
LINE
5
398
100
AcDbEntity
8
0
100
AcDbLine
10
-108.99999950300268
20
-132.99999903668362
30
0
11
-108.99999711881675
21
-150.00000048209608
31
0
0
LINE
5
399
100
AcDbEntity
8
0
100
AcDbLine
10
-108.9999981005403
20
-143.00000037778801
30
0
11
-119.9991435767314
21
-143.00000192037652
31
0
0
LINE
5
400
100
AcDbEntity
8
0
100
AcDbLine
10
-122.99875260736748
20
-123.99798292449771
30
0
11
-113.00000107500396
21
-124.00414415302484
31
0
0
LINE
5
401
100
AcDbEntity
8
0
100
AcDbLine
10
-119.99914476882425
20
-134.50000190546444
30
0
11
-119.99914624143335
21
-123.99983128129017
31
0
0
LWPOLYLINE
5
402
100
AcDbEntity
8
0
100
AcDbPolyline
90
4
70
1
43
0.0
10
-118.9999948836425
20
-167.00000213787789
10
-118.99999404216517
20
-173.00000222728477
10
-113.99999396765941
20
-173.00000152605367
10
-113.99999480913675
20
-167.00000143664678
0
ARC
5
403
100
AcDbEntity
8
0
100
AcDbCircle
10
-122.99998500670006
20
-125.99798254480005
30
0
40
2.0000000000044156
210
0
220
-0
230
1
100
AcDbArc
50
89.96469435755003
51
180.00000791757108
0
LINE
5
404
100
AcDbEntity
8
0
100
AcDbLine
10
-112.9999998606305
20
-132.99999959766853
30
0
11
-108.99999950300268
21
-132.99999903668362
31
0
0
LINE
5
405
100
AcDbEntity
8
0
100
AcDbLine
10
-119.99913614370587
20
-195.99983128128943
30
0
11
-114.00000169873238
21
-196.00000218043681
31
0
0
LINE
5
406
100
AcDbEntity
8
0
100
AcDbLine
10
-112.99999354955041
20
-178.00000124573586
30
0
11
-112.99999747644475
21
-149.99999985098813
31
0
0
LINE
5
407
100
AcDbEntity
8
0
100
AcDbLine
10
-113.00000112284633
20
-124.00000065565108
30
0
11
-112.9999998606305
21
-132.99999959766853
31
0
0
CIRCLE
5
408
100
AcDbEntity
8
0
100
AcDbCircle
10
-116.99999931629962
20
-127.00000126133922
30
0
40
1.7000000000000002
210
0
220
0
230
1
0
LINE
5
409
100
AcDbEntity
8
0
100
AcDbLine
10
-112.9999935495502
20
-196.00000292062714
30
0
11
-122.99997501305889
21
-196.00000592153665
31
0
0
CIRCLE
5
410
100
AcDbEntity
8
0
100
AcDbCircle
10
-114.99999813735486
20
-145.50000126396884
30
0
40
1.9999999999999978
210
0
220
0
230
1
0
LINE
5
411
100
AcDbEntity
8
0
100
AcDbLine
10
-119.99999735881728
20
-196.00000502126886
30
0
11
-119.99913761626344
21
-185.50002853237331
31
0
0
LINE
5
412
100
AcDbEntity
8
0
100
AcDbLine
10
-108.99999711881675
20
-150.00000048209608
30
0
11
-110.99999714861906
21
-150.00000076258854
31
0
0
LINE
5
413
100
AcDbEntity
8
0
100
AcDbLine
10
-112.99999747644475
20
-149.99999985098813
30
0
11
-110.99999135504612
21
-149.99999957049482
31
0
0
LINE
5
414
100
AcDbEntity
8
0
100
AcDbLine
10
-119.99913845774442
20
-179.50000244190716
30
0
11
-119.99914392734698
21
-140.50000190546439
31
0
0
LINE
5
415
100
AcDbEntity
8
0
100
AcDbLine
10
-23.499975613245581
20
-199.00000619780303
30
0
11
-23.499985006704339
21
-130.99798282107002
31
0
0
LINE
5
416
100
AcDbEntity
8
0
100
AcDbLine
10
-12.000000149011612
20
-201
30
0
11
-21.499975013058879
21
-201.00000592153665
31
0
0
LINE
5
417
100
AcDbEntity
8
0
100
AcDbLine
10
-21.498752607367472
20
-128.99798292449771
30
0
11
-11.500001075003961
21
-129.00414415302484
31
0
0
ARC
5
418
100
AcDbEntity
8
0
100
AcDbCircle
10
-21.499985006700047
20
-130.99798254480004
30
0
40
2.0000000000044156
210
0
220
-0
230
1
100
AcDbArc
50
89.964694357550144
51
180.00000791757108
0
CIRCLE
5
419
100
AcDbEntity
8
0
100
AcDbCircle
10
-13.499998137354861
20
-179.50000126396887
30
0
40
1.9999999999999978
210
0
220
0
230
1
0
CIRCLE
5
420
100
AcDbEntity
8
0
100
AcDbCircle
10
-15.499990060049008
20
-198.00000224481522
30
0
40
1.7000000000000002
210
0
220
0
230
1
0
ENDSEC
0
SECTION
2
OBJECTS
0
DICTIONARY
5
C
100
AcDbDictionary
3
ACAD_GROUP
350
D
3
ACAD_MLINESTYLE
350
17
0
DICTIONARY
5
D
100
AcDbDictionary
0
DICTIONARY
5
1A
330
C
100
AcDbDictionary
0
DICTIONARY
5
17
100
AcDbDictionary
0
ENDSEC
0
EOF
