<?xml version="1.0" encoding="UTF-8" standalone="no"?>
<svg
   width="72.130577mm"
   height="106.95413mm"
   viewBox="0 0 72.130576 106.95413"
   version="1.1"
   id="svg922"
   inkscape:version="1.2.1 (9c6d41e410, 2022-07-14)"
   sodipodi:docname="plate.svg"
   xml:space="preserve"
   xmlns:inkscape="http://www.inkscape.org/namespaces/inkscape"
   xmlns:sodipodi="http://sodipodi.sourceforge.net/DTD/sodipodi-0.dtd"
   xmlns="http://www.w3.org/2000/svg"
   xmlns:svg="http://www.w3.org/2000/svg"
   xmlns:rdf="http://www.w3.org/1999/02/22-rdf-syntax-ns#"
   xmlns:cc="http://creativecommons.org/ns#"
   xmlns:dc="http://purl.org/dc/elements/1.1/"><defs
     id="defs916"><marker
       id="DistanceX"
       orient="auto"
       refX="0"
       refY="0"
       style="overflow:visible"><path
         d="M 3,-3 -3,3 M 0,-5 V 5"
         style="stroke:#000000;stroke-width:0.5"
         id="path133" /></marker><pattern
       id="Hatch"
       patternUnits="userSpaceOnUse"
       width="8"
       height="8"
       x="0"
       y="0"><path
         d="M8 4 l-4,4"
         stroke="#000000"
         stroke-width="0.25"
         linecap="square"
         id="path136" /><path
         d="M6 2 l-4,4"
         stroke="#000000"
         stroke-width="0.25"
         linecap="square"
         id="path138" /><path
         d="M4 0 l-4,4"
         stroke="#000000"
         stroke-width="0.25"
         linecap="square"
         id="path140" /></pattern><symbol
       id="*MODEL_SPACE" /><symbol
       id="*PAPER_SPACE" /><marker
       id="DistanceX-7"
       orient="auto"
       refX="0"
       refY="0"
       style="overflow:visible"><path
         d="M 3,-3 -3,3 M 0,-5 V 5"
         style="stroke:#000000;stroke-width:0.5"
         id="path4028" /></marker><pattern
       id="Hatch-0"
       patternUnits="userSpaceOnUse"
       width="8"
       height="8"
       x="0"
       y="0"><path
         d="M8 4 l-4,4"
         stroke="#000000"
         stroke-width="0.25"
         linecap="square"
         id="path4031" /><path
         d="M6 2 l-4,4"
         stroke="#000000"
         stroke-width="0.25"
         linecap="square"
         id="path4033" /><path
         d="M4 0 l-4,4"
         stroke="#000000"
         stroke-width="0.25"
         linecap="square"
         id="path4035" /></pattern><symbol
       id="*MODEL_SPACE-5" /><symbol
       id="*PAPER_SPACE-1" /></defs><sodipodi:namedview
     id="base"
     pagecolor="#ffffff"
     bordercolor="#666666"
     borderopacity="1.0"
     inkscape:pageopacity="0.0"
     inkscape:pageshadow="2"
     inkscape:zoom="0.9899495"
     inkscape:cx="-126.77414"
     inkscape:cy="442.95189"
     inkscape:document-units="mm"
     inkscape:current-layer="layer1"
     inkscape:document-rotation="0"
     showgrid="true"
     showguides="true"
     inkscape:lockguides="true"
     inkscape:window-width="1920"
     inkscape:window-height="1017"
     inkscape:window-x="-8"
     inkscape:window-y="-8"
     inkscape:window-maximized="1"
     inkscape:showpageshadow="2"
     inkscape:pagecheckerboard="0"
     inkscape:deskcolor="#d1d1d1"><inkscape:grid
       type="xygrid"
       id="grid1495"
       units="mm"
       spacingx="10"
       spacingy="10"
       empspacing="10"
       dotted="false"
       originx="-7.2750401"
       originy="-182.36089" /></sodipodi:namedview><metadata
     id="metadata919"><rdf:RDF><cc:Work
         rdf:about=""><dc:format>image/svg+xml</dc:format><dc:type
           rdf:resource="http://purl.org/dc/dcmitype/StillImage" /></cc:Work></rdf:RDF></metadata><g
     inkscape:label="レイヤー 1"
     inkscape:groupmode="layer"
     id="layer1"
     transform="translate(-7.2750403,-182.36089)"><g
       id="g7520"
       transform="rotate(90,43.340327,235.83796)"><g
         id="g7465"><g
           id="g1613"
           style="stroke:#ff0000;stroke-width:0.1;stroke-dasharray:none;stroke-opacity:1"
           transform="translate(-41.804187,-1.0583333)"><path
             d="m 136.57158,200.91157 h -48 a 1.9999999,1.9999999 0 0 0 -1.999999,2.00002 v 68 a 1.9999999,1.9999999 0 0 0 1.999999,1.99999 h 48 a 1.9999999,1.9999999 0 0 0 2,-1.99999 V 215.9116 202.91159 a 1.9999999,1.9999999 0 0 0 -2,-2.00002 z"
             style="fill:none;stroke:#ff0000;stroke-width:0.1;stroke-dasharray:none;stroke-opacity:1"
             id="path641" /><path
             d="m 137.17158,203.91158 a 1.6,1.6 0 0 0 -3.2,0 1.6,1.6 0 0 0 3.2,0 z"
             style="fill:none;stroke:#ff0000;stroke-width:0.1;stroke-dasharray:none;stroke-opacity:1"
             id="path643" /><path
             d="m 96.17158,203.91158 a 1.6000002,1.6000002 0 0 0 -3.2,0 1.6000002,1.6000002 0 0 0 3.2,0 z"
             style="fill:none;stroke:#ff0000;stroke-width:0.1;stroke-dasharray:none;stroke-opacity:1"
             id="path645" /><path
             d="m 96.17158,269.91157 a 1.6000002,1.6000002 0 0 0 -3.2,0 1.6000002,1.6000002 0 0 0 3.2,0 z"
             style="fill:none;stroke:#ff0000;stroke-width:0.1;stroke-dasharray:none;stroke-opacity:1"
             id="path647" /><path
             d="m 137.17158,269.91157 a 1.6,1.6 0 0 0 -3.2,0 1.6,1.6 0 0 0 3.2,0 z"
             style="fill:none;stroke:#ff0000;stroke-width:0.1;stroke-dasharray:none;stroke-opacity:1"
             id="path649" /><path
             d="m 108.22059,218.6616 a 1.6000002,1.6000002 0 0 0 -3.2,0 1.6000002,1.6000002 0 0 0 3.2,0 z"
             style="fill:none;stroke:#ff0000;stroke-width:0.1;stroke-dasharray:none;stroke-opacity:1"
             id="path725" /><path
             d="m 120.72059,255.16158 a 1.6000002,1.6000002 0 0 0 -3.2,0 1.6000002,1.6000002 0 0 0 3.2,0 z"
             style="fill:none;stroke:#ff0000;stroke-width:0.1;stroke-dasharray:none;stroke-opacity:1"
             id="path727" /></g><g
           id="g5825"
           transform="translate(-296.58677,-285.17493)"><path
             style="fill:none;stroke:#ff0000;stroke-width:0.1;stroke-dasharray:none;stroke-opacity:1"
             d="m 302.00004,551.00056 h 5.99999"
             id="path4546" /><path
             style="fill:none;stroke:#ff0000;stroke-width:0.1;stroke-dasharray:none;stroke-opacity:1"
             d="m 312.00003,501.49967 h -9.50001"
             id="path4548" /><path
             style="fill:none;stroke:#ff0000;stroke-width:0.1;stroke-dasharray:none;stroke-opacity:1"
             d="m 330.00004,539.99919 h 6.49986"
             id="path4550" /><path
             d="m 336.50003,556.99991 a 1.9999999,1.9999999 0 0 0 2,-1.99999"
             style="fill:none;stroke:#ff0000;stroke-width:0.1;stroke-dasharray:none;stroke-opacity:1"
             id="path4552" /><path
             d="m 310.00003,552.99991 a 1.9999999,1.9999999 0 0 0 -2,-1.99998"
             style="fill:none;stroke:#ff0000;stroke-width:0.1;stroke-dasharray:none;stroke-opacity:1"
             id="path4554" /><path
             style="fill:none;stroke:#ff0000;stroke-width:0.1;stroke-dasharray:none;stroke-opacity:1"
             d="m 330.00004,487.0005 v 3.00037"
             id="path4556" /><path
             d="m 310.00003,554.99992 a 1.9999999,1.9999999 0 0 0 2,1.99999"
             style="fill:none;stroke:#ff0000;stroke-width:0.1;stroke-dasharray:none;stroke-opacity:1"
             id="path4558" /><path
             d="m 337.10003,553.9999 a 1.6000002,1.6000002 0 0 0 -3.2,0 1.6000002,1.6000002 0 0 0 3.2,0 z"
             style="fill:none;stroke:#ff0000;stroke-width:0.1;stroke-dasharray:none;stroke-opacity:1"
             id="path4560" /><path
             d="m 336.50003,496.99992 a 1.9999999,1.9999999 0 0 0 2,-2.00001"
             style="fill:none;stroke:#ff0000;stroke-width:0.1;stroke-dasharray:none;stroke-opacity:1"
             id="path4562" /><path
             d="m 332.00003,484.99991 a 1.9999999,1.9999999 0 0 0 -2,2.00001"
             style="fill:none;stroke:#ff0000;stroke-width:0.1;stroke-dasharray:none;stroke-opacity:1"
             id="path4564" /><path
             d="m 311.99893,501.4999 a 4.5000005,4.5000005 0 0 0 4.5011,-4.50053"
             style="fill:none;stroke:#ff0000;stroke-width:0.1;stroke-dasharray:none;stroke-opacity:1"
             id="path4566" /><path
             style="fill:none;stroke:#ff0000;stroke-width:0.1;stroke-dasharray:none;stroke-opacity:1"
             d="M 321.00003,531.00071 V 506.00023"
             id="path4568" /><path
             style="fill:none;stroke:#ff0000;stroke-width:0.1;stroke-dasharray:none;stroke-opacity:1"
             d="m 310.00003,553.00081 v 2.00025"
             id="path4570" /><path
             d="m 338.50003,541.99991 a 1.9999999,1.9999999 0 0 0 -2,-1.99998"
             style="fill:none;stroke:#ff0000;stroke-width:0.1;stroke-dasharray:none;stroke-opacity:1"
             id="path4572" /><path
             style="fill:none;stroke:#ff0000;stroke-width:0.1;stroke-dasharray:none;stroke-opacity:1"
             d="m 336.4999,485.00025 h -4.49987"
             id="path4574" /><path
             d="m 328.00003,491.99991 a 1.9999999,1.9999999 0 0 0 2,-1.99999"
             style="fill:none;stroke:#ff0000;stroke-width:0.1;stroke-dasharray:none;stroke-opacity:1"
             id="path4576" /><path
             d="m 286.50003,554.99992 a 1.9999999,1.9999999 0 0 0 2,1.99999"
             style="fill:none;stroke:#ff0000;stroke-width:0.1;stroke-dasharray:none;stroke-opacity:1"
             id="path4578" /><path
             d="m 302.00003,550.99993 a 1.9999999,1.9999999 0 0 0 -2,1.99998"
             style="fill:none;stroke:#ff0000;stroke-width:0.1;stroke-dasharray:none;stroke-opacity:1"
             id="path4580" /><path
             d="m 330.00003,496.99992 a 8.9999999,8.9999999 0 0 0 -9,8.99999"
             style="fill:none;stroke:#ff0000;stroke-width:0.1;stroke-dasharray:none;stroke-opacity:1"
             id="path4582" /><path
             style="fill:none;stroke:#ff0000;stroke-width:0.1;stroke-dasharray:none;stroke-opacity:1"
             d="m 328.00003,492.00112 h -9.50037"
             id="path4584" /><path
             style="fill:none;stroke:#ff0000;stroke-width:0.1;stroke-dasharray:none;stroke-opacity:1"
             d="m 300.00002,487.0005 v 5.31019"
             id="path4586" /><path
             style="fill:none;stroke:#ff0000;stroke-width:0.1;stroke-dasharray:none;stroke-opacity:1"
             d="m 316.50002,496.9991 -3.7e-4,-2.99773"
             id="path4588" /><path
             style="fill:none;stroke:#ff0000;stroke-width:0.1;stroke-dasharray:none;stroke-opacity:1"
             d="m 300.00002,555.00106 v -2.00025"
             id="path4590" /><path
             d="m 336.50003,521.99993 a 1.9999999,1.9999999 0 0 0 0.85232,-0.19071"
             style="fill:none;stroke:#ff0000;stroke-width:0.1;stroke-dasharray:none;stroke-opacity:1"
             id="path4592" /><path
             d="m 298.00003,556.99991 a 1.9999999,1.9999999 0 0 0 2,-1.99999"
             style="fill:none;stroke:#ff0000;stroke-width:0.1;stroke-dasharray:none;stroke-opacity:1"
             id="path4594" /><path
             d="m 338.50003,486.99992 a 1.9999999,1.9999999 0 0 0 -2,-2.00001"
             style="fill:none;stroke:#ff0000;stroke-width:0.1;stroke-dasharray:none;stroke-opacity:1"
             id="path4596" /><path
             d="m 296.10003,487.99991 a 1.6,1.6 0 0 0 -3.2,0 1.6,1.6 0 0 0 3.2,0 z"
             style="fill:none;stroke:#ff0000;stroke-width:0.1;stroke-dasharray:none;stroke-opacity:1"
             id="path4598" /><path
             d="m 299.38465,493.75269 a 1.9999999,1.9999999 0 0 0 0.61538,-1.44319"
             style="fill:none;stroke:#ff0000;stroke-width:0.1;stroke-dasharray:none;stroke-opacity:1"
             id="path4600" /><path
             d="m 337.10003,487.99991 a 1.6000002,1.6000002 0 0 0 -3.2,0 1.6000002,1.6000002 0 0 0 3.2,0 z"
             style="fill:none;stroke:#ff0000;stroke-width:0.1;stroke-dasharray:none;stroke-opacity:1"
             id="path4602" /><path
             style="fill:none;stroke:#ff0000;stroke-width:0.1;stroke-dasharray:none;stroke-opacity:1"
             d="M 312.00003,556.99867 H 336.4999"
             id="path4604" /><path
             d="m 318.49966,491.99991 a 1.9999999,1.9999999 0 0 0 -2,2.00025"
             style="fill:none;stroke:#ff0000;stroke-width:0.1;stroke-dasharray:none;stroke-opacity:1"
             id="path4606" /><path
             style="fill:none;stroke:#ff0000;stroke-width:0.1;stroke-dasharray:none;stroke-opacity:1"
             d="M 338.50015,555.00106 V 541.99944"
             id="path4608" /><path
             d="m 299.38465,493.75269 a 4.4999999,4.4999999 0 0 0 3.11538,7.74721"
             style="fill:none;stroke:#ff0000;stroke-width:0.1;stroke-dasharray:none;stroke-opacity:1"
             id="path4610" /><path
             style="fill:none;stroke:#ff0000;stroke-width:0.1;stroke-dasharray:none;stroke-opacity:1"
             d="m 330.00004,496.9991 h 6.49986"
             id="path4612" /><path
             d="m 321.00003,530.99991 a 8.9999999,8.9999999 0 0 0 9,9.00002"
             style="fill:none;stroke:#ff0000;stroke-width:0.1;stroke-dasharray:none;stroke-opacity:1"
             id="path4614" /><path
             d="m 300.00003,486.99992 a 1.9999999,1.9999999 0 0 0 -2,-2.00001"
             style="fill:none;stroke:#ff0000;stroke-width:0.1;stroke-dasharray:none;stroke-opacity:1"
             id="path4616" /><path
             style="fill:none;stroke:#ff0000;stroke-width:0.1;stroke-dasharray:none;stroke-opacity:1"
             d="M 338.50015,494.99885 V 487.0005"
             id="path4618" /><path
             style="fill:none;stroke:#ff0000;stroke-width:0.1;stroke-dasharray:none;stroke-opacity:1"
             d="M 286.50006,555.00106 V 486.99785"
             id="path4672" /><path
             style="fill:none;stroke:#ff0000;stroke-width:0.1;stroke-dasharray:none;stroke-opacity:1"
             d="m 298.00004,556.99867 h -9.49997"
             id="path4674" /><path
             style="fill:none;stroke:#ff0000;stroke-width:0.1;stroke-dasharray:none;stroke-opacity:1"
             d="m 288.50129,484.9976 9.99873,0.005"
             id="path4676" /><path
             d="m 288.50128,484.9979 a 1.9999999,1.9999999 0 0 0 -2.00123,2.00001"
             style="fill:none;stroke:#ff0000;stroke-width:0.1;stroke-dasharray:none;stroke-opacity:1"
             id="path4678" /><path
             d="m 298.50003,535.49992 a 2,2 0 0 0 -4,0 2,2 0 0 0 4,0 z"
             style="fill:none;stroke:#ff0000;stroke-width:0.1;stroke-dasharray:none;stroke-opacity:1"
             id="path4680" /><path
             d="m 296.20004,553.99993 a 1.7,1.7 0 0 0 -3.4,0 1.7,1.7 0 0 0 3.4,0 z"
             style="fill:none;stroke:#ff0000;stroke-width:0.1;stroke-dasharray:none;stroke-opacity:1"
             id="path4682" /></g></g></g></g></svg>
