M48
; DRILL file {KiCad (6.0.4)} date Fri Dec  1 10:38:01 2023
; FORMAT={-:-/ absolute / metric / decimal}
; #@! TF.CreationDate,2023-12-01T10:38:01+09:00
; #@! TF.GenerationSoftware,Kicad,Pcbnew,(6.0.4)
; #@! TF.FileFunction,MixedPlating,1,2
FMAT,2
METRIC
; #@! TA.AperFunction,Plated,PTH,ViaDrill
T1C0.300
; #@! TA.AperFunction,Plated,PTH,ComponentDrill
T2C0.600
; #@! TA.AperFunction,Plated,PTH,ComponentDrill
T3C0.700
; #@! TA.AperFunction,Plated,PTH,ComponentDrill
T4C0.790
; #@! TA.AperFunction,Plated,PTH,ComponentDrill
T5C0.800
; #@! TA.AperFunction,Plated,PTH,ComponentDrill
T6C0.900
; #@! TA.AperFunction,Plated,PTH,ComponentDrill
T7C1.000
; #@! TA.AperFunction,Plated,PTH,ComponentDrill
T8C1.200
; #@! TA.AperFunction,Plated,PTH,ComponentDrill
T9C1.300
; #@! TA.AperFunction,NonPlated,NPTH,ComponentDrill
T10C1.000
; #@! TA.AperFunction,NonPlated,NPTH,ComponentDrill
T11C1.200
; #@! TA.AperFunction,NonPlated,NPTH,ComponentDrill
T12C3.200
%
G90
G05
T1
X1.44Y23.8
X1.44Y13.64
X3.345Y28.245
X6.52Y21.26
X6.52Y13.64
X9.06Y44.12
X9.06Y37.77
X9.06Y30.15
X9.06Y28.88
X9.06Y3.48
X14.14Y30.15
X15.41Y32.055
X15.41Y27.61
X16.68Y30.15
X16.68Y21.26
X16.68Y18.72
X19.22Y44.12
X19.22Y3.48
X19.855Y27.61
X23.03Y17.45
X23.665Y38.405
X26.84Y44.12
X26.84Y26.34
X28.11Y23.8
X29.38Y26.086
X29.38Y18.72
X30.015Y38.405
X30.65Y26.086
X30.65Y22.53
X31.92Y26.086
X34.46Y44.12
X36.365Y33.96
X37.0Y3.48
X39.54Y26.34
X39.54Y18.72
X41.445Y6.02
X42.08Y33.96
X47.16Y6.02
X47.16Y3.48
X48.43Y25.07
X48.43Y18.72
X50.335Y6.02
X52.875Y11.1
X53.51Y9.83
X54.78Y33.96
X54.78Y28.88
X54.78Y6.02
X62.4Y44.12
X64.94Y39.04
X64.94Y3.48
X70.02Y39.04
X70.02Y16.18
T3
X3.98Y23.8
X3.98Y21.26
X3.98Y18.72
X3.98Y16.18
X9.06Y23.8
X9.06Y21.26
X9.06Y18.72
X9.06Y16.18
X21.76Y31.42
X21.76Y28.88
X26.84Y41.58
X26.84Y31.42
X26.84Y28.88
X31.92Y41.58
X34.46Y41.58
X37.0Y25.07
X37.0Y22.53
X37.0Y19.99
X37.0Y17.45
X39.54Y41.58
X39.54Y13.005
X42.08Y25.07
X42.08Y22.53
X42.08Y19.99
X42.08Y17.45
X44.62Y13.005
X47.16Y31.42
X49.7Y13.005
X52.24Y31.42
X54.78Y13.005
X56.685Y17.45
X61.765Y17.45
T4
X39.54Y2.815
X42.08Y2.815
X44.62Y2.815
X49.573Y2.815
X52.113Y2.815
X54.653Y2.815
T5
X2.075Y9.83
X4.06Y26.34
X4.615Y9.83
X7.155Y9.83
X9.06Y26.34
X12.86Y25.08
X12.86Y22.54
X12.86Y20.0
X12.86Y17.46
X12.95Y31.42
X12.95Y28.88
X17.95Y31.42
X17.95Y28.88
X20.48Y25.08
X20.48Y22.54
X20.48Y20.0
X20.48Y17.46
X20.49Y37.23
X20.49Y35.23
X23.03Y25.07
X23.03Y20.07
X25.56Y25.08
X25.56Y22.54
X25.56Y20.0
X25.56Y17.46
X26.84Y37.23
X26.84Y35.23
X33.18Y25.08
X33.18Y22.54
X33.18Y20.0
X33.18Y17.46
X33.19Y37.23
X33.19Y35.23
X33.19Y30.88
X33.19Y28.88
X39.54Y37.23
X39.54Y35.23
X39.54Y30.88
X39.54Y28.88
X43.18Y42.85
X45.72Y42.85
X45.88Y25.08
X45.88Y22.54
X45.88Y20.0
X45.88Y17.46
X45.89Y37.23
X45.89Y35.23
X47.24Y28.88
X48.26Y42.85
X52.24Y37.23
X52.24Y35.23
X52.24Y28.88
X53.5Y25.08
X53.5Y22.54
X53.5Y20.0
X53.5Y17.46
X56.765Y19.99
X58.0Y35.23
X58.0Y26.34
X61.5Y35.23
X61.5Y26.34
X61.765Y19.99
T6
X3.205Y36.5
X3.205Y34.0
X3.205Y31.5
X6.505Y36.5
X6.505Y34.0
X6.505Y31.5
X12.235Y34.25
X14.775Y34.25
X21.5Y43.275
X21.5Y40.735
X57.235Y43.0
X59.775Y43.0
X68.0Y32.88
X68.0Y30.88
X68.0Y28.88
T7
X68.0Y21.0
X68.0Y18.46
X68.0Y12.64
X68.0Y10.1
T8
X10.1Y6.0
X10.75Y13.5
X15.25Y13.5
X15.9Y6.0
T9
X21.68Y10.12
X21.68Y5.12
X34.18Y10.12
X34.18Y5.12
T10
X10.5Y9.5
X15.5Y9.5
T11
X60.749Y9.74
X60.749Y2.74
T12
X3.0Y44.0
X3.0Y3.0
X69.0Y44.0
X69.0Y3.0
T2
G00X67.5Y35.08
M15
G01X68.5Y35.08
M16
G05
G00X67.5Y26.68
M15
G01X68.5Y26.68
M16
G05
T7
G00X58.599Y11.29
M15
G01X58.599Y11.79
M16
G05
G00X58.599Y7.29
M15
G01X58.599Y7.79
M16
G05
G00X58.599Y4.29
M15
G01X58.599Y4.79
M16
G05
G00X62.899Y12.79
M15
G01X62.899Y13.29
M16
G05
T0
M30
