<?xml version="1.0" encoding="UTF-8" standalone="no"?>
<svg
   width="72.100006mm"
   height="116.88343mm"
   viewBox="0 0 72.100006 116.88343"
   version="1.1"
   id="svg922"
   inkscape:version="1.2.2 (732a01da63, 2022-12-09)"
   sodipodi:docname="FTR105_V1.0.svg"
   xml:space="preserve"
   xmlns:inkscape="http://www.inkscape.org/namespaces/inkscape"
   xmlns:sodipodi="http://sodipodi.sourceforge.net/DTD/sodipodi-0.dtd"
   xmlns="http://www.w3.org/2000/svg"
   xmlns:svg="http://www.w3.org/2000/svg"
   xmlns:rdf="http://www.w3.org/1999/02/22-rdf-syntax-ns#"
   xmlns:cc="http://creativecommons.org/ns#"
   xmlns:dc="http://purl.org/dc/elements/1.1/"><defs
     id="defs916"><marker
       id="DistanceX"
       orient="auto"
       refX="0"
       refY="0"
       style="overflow:visible"><path
         d="M 3,-3 -3,3 M 0,-5 V 5"
         style="stroke:#000000;stroke-width:0.5"
         id="path133" /></marker><pattern
       id="Hatch"
       patternUnits="userSpaceOnUse"
       width="8"
       height="8"
       x="0"
       y="0"><path
         d="M8 4 l-4,4"
         stroke="#000000"
         stroke-width="0.25"
         linecap="square"
         id="path136" /><path
         d="M6 2 l-4,4"
         stroke="#000000"
         stroke-width="0.25"
         linecap="square"
         id="path138" /><path
         d="M4 0 l-4,4"
         stroke="#000000"
         stroke-width="0.25"
         linecap="square"
         id="path140" /></pattern><symbol
       id="*MODEL_SPACE" /><symbol
       id="*PAPER_SPACE" /></defs><sodipodi:namedview
     id="base"
     pagecolor="#ffffff"
     bordercolor="#666666"
     borderopacity="1.0"
     inkscape:pageopacity="0.0"
     inkscape:pageshadow="2"
     inkscape:zoom="1.979899"
     inkscape:cx="-10.85914"
     inkscape:cy="217.68787"
     inkscape:document-units="mm"
     inkscape:current-layer="text4286"
     inkscape:document-rotation="0"
     showgrid="true"
     showguides="true"
     inkscape:lockguides="true"
     inkscape:window-width="1920"
     inkscape:window-height="1017"
     inkscape:window-x="-8"
     inkscape:window-y="-8"
     inkscape:window-maximized="1"
     inkscape:showpageshadow="2"
     inkscape:pagecheckerboard="0"
     inkscape:deskcolor="#d1d1d1"><inkscape:grid
       type="xygrid"
       id="grid1495"
       units="mm"
       spacingx="10"
       spacingy="10"
       empspacing="10"
       dotted="false"
       originx="92.170214"
       originy="-27.147581" /></sodipodi:namedview><metadata
     id="metadata919"><rdf:RDF><cc:Work
         rdf:about=""><dc:format>image/svg+xml</dc:format><dc:type
           rdf:resource="http://purl.org/dc/dcmitype/StillImage" /></cc:Work></rdf:RDF></metadata><g
     inkscape:label="レイヤー 1"
     inkscape:groupmode="layer"
     id="layer1"
     transform="translate(92.170217,-27.147583)"><g
       id="g3015"><g
         id="g1922"
         transform="rotate(90,-36.011872,65.480955)"><path
           d="m 42.488186,51.589308 a 1.9999999,1.9999999 0 0 0 -1.999999,-2.000012 h -52.999999 a 1.9999999,1.9999999 0 0 0 -2.000001,2.000012 v 67.999982 a 1.9999999,1.9999999 0 0 0 2.000001,2.00001 h 52.999999 a 1.9999999,1.9999999 0 0 0 1.999999,-2.00001 V 64.589293 Z"
           style="fill:none;stroke:#ff0000;stroke-width:0.1;stroke-dasharray:none;stroke-opacity:1"
           id="path435" /><path
           d="m 0.08818617,52.589301 a 1.6000002,1.6000002 0 0 0 -3.20000047,0 1.6000002,1.6000002 0 0 0 3.20000047,0 z"
           style="fill:none;stroke:#ff0000;stroke-width:0.1;stroke-dasharray:none;stroke-opacity:1"
           id="path449" /><path
           d="m 0.08818617,118.5893 a 1.6000002,1.6000002 0 0 0 -3.20000047,0 1.6000002,1.6000002 0 0 0 3.20000047,0 z"
           style="fill:none;stroke:#ff0000;stroke-width:0.1;stroke-dasharray:none;stroke-opacity:1"
           id="path489" /><path
           d="m 41.088186,52.589301 a 1.6,1.6 0 0 0 -3.199998,0 1.6,1.6 0 0 0 3.199998,0 z"
           style="fill:none;stroke:#ff0000;stroke-width:0.1;stroke-dasharray:none;stroke-opacity:1"
           id="path497" /><path
           d="m 41.088186,118.5893 a 1.6,1.6 0 0 0 -3.199998,0 1.6,1.6 0 0 0 3.199998,0 z"
           style="fill:none;stroke:#ff0000;stroke-width:0.1;stroke-dasharray:none;stroke-opacity:1"
           id="path523" /></g></g><g
       id="g1915"
       transform="matrix(0,1,1,0,-141.70951,141.70951)"><path
         style="fill:none;stroke:#ff0000;stroke-width:0.1;stroke-dasharray:none;stroke-opacity:1"
         d="m -84.011813,121.588 h 24.499874"
         id="path433" /><path
         d="m -99.911812,52.589301 a 1.6,1.6 0 0 0 -3.199998,0 1.6,1.6 0 0 0 3.199998,0 z"
         style="fill:none;stroke:#ff0000;stroke-width:0.1;stroke-dasharray:none;stroke-opacity:1"
         id="path437" /><path
         d="m -112.51181,49.589296 a 1.9999999,1.9999999 0 0 0 -2,2.000012"
         style="fill:none;stroke:#ff0000;stroke-width:0.1;stroke-dasharray:none;stroke-opacity:1"
         id="path439" /><path
         d="m -96.627197,58.342083 a 4.4999999,4.4999999 0 0 0 3.115384,7.747212"
         style="fill:none;stroke:#ff0000;stroke-width:0.1;stroke-dasharray:none;stroke-opacity:1"
         id="path441" /><path
         d="m -59.511812,61.589288 a 1.9999999,1.9999999 0 0 0 1.999998,-1.999985"
         style="fill:none;stroke:#ff0000;stroke-width:0.1;stroke-dasharray:none;stroke-opacity:1"
         id="path443" /><path
         d="m -114.51181,119.58929 a 1.9999999,1.9999999 0 0 0 2,2.00001"
         style="fill:none;stroke:#ff0000;stroke-width:0.1;stroke-dasharray:none;stroke-opacity:1"
         id="path445" /><path
         d="m -68.011812,56.589298 a 1.9999999,1.9999999 0 0 0 2,-2.000012"
         style="fill:none;stroke:#ff0000;stroke-width:0.1;stroke-dasharray:none;stroke-opacity:1"
         id="path451" /><path
         d="m -66.011812,61.589288 a 8.9999999,8.9999999 0 0 0 -9,9.000014"
         style="fill:none;stroke:#ff0000;stroke-width:0.1;stroke-dasharray:none;stroke-opacity:1"
         id="path453" /><path
         d="m -77.512179,56.589298 a 1.9999999,1.9999999 0 0 0 -2,2.00025"
         style="fill:none;stroke:#ff0000;stroke-width:0.1;stroke-dasharray:none;stroke-opacity:1"
         id="path455" /><path
         d="m -64.011812,49.589296 a 1.9999999,1.9999999 0 0 0 -2,2.000012"
         style="fill:none;stroke:#ff0000;stroke-width:0.1;stroke-dasharray:none;stroke-opacity:1"
         id="path457" /><path
         style="fill:none;stroke:#ff0000;stroke-width:0.1;stroke-dasharray:none;stroke-opacity:1"
         d="m -96.011818,51.589837 v 5.310188"
         id="path459" /><path
         style="fill:none;stroke:#ff0000;stroke-width:0.1;stroke-dasharray:none;stroke-opacity:1"
         d="m -94.011806,115.5899 h 5.999995"
         id="path461" /><path
         style="fill:none;stroke:#ff0000;stroke-width:0.1;stroke-dasharray:none;stroke-opacity:1"
         d="m -68.011811,56.590462 h -9.500367"
         id="path463" /><path
         style="fill:none;stroke:#ff0000;stroke-width:0.1;stroke-dasharray:none;stroke-opacity:1"
         d="m -66.011799,51.589837 v 3.000375"
         id="path465" /><path
         d="m -57.511814,106.5893 a 1.9999999,1.9999999 0 0 0 -1.999998,-2.00001"
         style="fill:none;stroke:#ff0000;stroke-width:0.1;stroke-dasharray:none;stroke-opacity:1"
         id="path467" /><path
         d="m -59.511812,121.5893 a 1.9999999,1.9999999 0 0 0 1.999998,-2.00001"
         style="fill:none;stroke:#ff0000;stroke-width:0.1;stroke-dasharray:none;stroke-opacity:1"
         id="path469" /><path
         style="fill:none;stroke:#ff0000;stroke-width:0.1;stroke-dasharray:none;stroke-opacity:1"
         d="m -84.011813,66.089004 h -9.50001"
         id="path471" /><path
         d="m -86.011812,117.5893 a 1.9999999,1.9999999 0 0 0 -2,-2.00001"
         style="fill:none;stroke:#ff0000;stroke-width:0.1;stroke-dasharray:none;stroke-opacity:1"
         id="path473" /><path
         d="m -99.911812,118.5893 a 1.6,1.6 0 0 0 -3.199998,0 1.6,1.6 0 0 0 3.199998,0 z"
         style="fill:none;stroke:#ff0000;stroke-width:0.1;stroke-dasharray:none;stroke-opacity:1"
         id="path475" /><path
         style="fill:none;stroke:#ff0000;stroke-width:0.1;stroke-dasharray:none;stroke-opacity:1"
         d="m -66.011799,61.588441 h 6.49986"
         id="path477" /><path
         d="m -58.911812,118.5893 a 1.6000002,1.6000002 0 0 0 -3.2,0 1.6000002,1.6000002 0 0 0 3.2,0 z"
         style="fill:none;stroke:#ff0000;stroke-width:0.1;stroke-dasharray:none;stroke-opacity:1"
         id="path479" /><path
         d="m -58.911812,52.589301 a 1.6000002,1.6000002 0 0 0 -3.2,0 1.6000002,1.6000002 0 0 0 3.2,0 z"
         style="fill:none;stroke:#ff0000;stroke-width:0.1;stroke-dasharray:none;stroke-opacity:1"
         id="path481" /><path
         style="fill:none;stroke:#ff0000;stroke-width:0.1;stroke-dasharray:none;stroke-opacity:1"
         d="M -75.011813,95.590045 V 70.589566"
         id="path483" /><path
         style="fill:none;stroke:#ff0000;stroke-width:0.1;stroke-dasharray:none;stroke-opacity:1"
         d="M -57.511689,59.588191 V 51.589837"
         id="path485" /><path
         d="m -57.511814,51.589308 a 1.9999999,1.9999999 0 0 0 -1.999998,-2.000012"
         style="fill:none;stroke:#ff0000;stroke-width:0.1;stroke-dasharray:none;stroke-opacity:1"
         id="path487" /><path
         style="fill:none;stroke:#ff0000;stroke-width:0.1;stroke-dasharray:none;stroke-opacity:1"
         d="m -59.511939,49.589587 h -4.499875"
         id="path491" /><path
         d="m -75.011812,95.589304 a 8.9999999,8.9999999 0 0 0 9,8.999986"
         style="fill:none;stroke:#ff0000;stroke-width:0.1;stroke-dasharray:none;stroke-opacity:1"
         id="path493" /><path
         style="fill:none;stroke:#ff0000;stroke-width:0.1;stroke-dasharray:none;stroke-opacity:1"
         d="m -79.51182,61.588441 -3.7e-4,-2.997729"
         id="path495" /><path
         style="fill:none;stroke:#ff0000;stroke-width:0.1;stroke-dasharray:none;stroke-opacity:1"
         d="m -112.51168,121.588 h 14.499876"
         id="path499" /><path
         d="m -84.012911,66.089295 a 4.5000005,4.5000005 0 0 0 4.501099,-4.500563"
         style="fill:none;stroke:#ff0000;stroke-width:0.1;stroke-dasharray:none;stroke-opacity:1"
         id="path501" /><path
         style="fill:none;stroke:#ff0000;stroke-width:0.1;stroke-dasharray:none;stroke-opacity:1"
         d="m -66.011799,104.58852 h 6.49986"
         id="path503" /><path
         d="m -96.011812,51.589308 a 1.9999999,1.9999999 0 0 0 -2,-2.000012"
         style="fill:none;stroke:#ff0000;stroke-width:0.1;stroke-dasharray:none;stroke-opacity:1"
         id="path505" /><path
         style="fill:none;stroke:#ff0000;stroke-width:0.1;stroke-dasharray:none;stroke-opacity:1"
         d="M -114.51193,51.589837 V 119.5904"
         id="path507" /><path
         style="fill:none;stroke:#ff0000;stroke-width:0.1;stroke-dasharray:none;stroke-opacity:1"
         d="m -86.011812,117.59015 v 2.00025"
         id="path509" /><path
         style="fill:none;stroke:#ff0000;stroke-width:0.1;stroke-dasharray:none;stroke-opacity:1"
         d="M -98.011804,49.589587 H -112.51168"
         id="path511" /><path
         style="fill:none;stroke:#ff0000;stroke-width:0.1;stroke-dasharray:none;stroke-opacity:1"
         d="m -96.011818,119.5904 v -2.00025"
         id="path513" /><path
         style="fill:none;stroke:#ff0000;stroke-width:0.1;stroke-dasharray:none;stroke-opacity:1"
         d="M -57.511689,119.5904 V 106.58877"
         id="path515" /><path
         d="m -86.011812,119.58929 a 1.9999999,1.9999999 0 0 0 2,2.00001"
         style="fill:none;stroke:#ff0000;stroke-width:0.1;stroke-dasharray:none;stroke-opacity:1"
         id="path517" /><path
         d="m -98.011812,121.5893 a 1.9999999,1.9999999 0 0 0 2,-2.00001"
         style="fill:none;stroke:#ff0000;stroke-width:0.1;stroke-dasharray:none;stroke-opacity:1"
         id="path519" /><path
         d="m -96.627197,58.342083 a 1.9999999,1.9999999 0 0 0 0.615385,-1.443196"
         style="fill:none;stroke:#ff0000;stroke-width:0.1;stroke-dasharray:none;stroke-opacity:1"
         id="path521" /><path
         d="m -94.011812,115.58929 a 1.9999999,1.9999999 0 0 0 -2,2.00001"
         style="fill:none;stroke:#ff0000;stroke-width:0.1;stroke-dasharray:none;stroke-opacity:1"
         id="path525" /></g><g
       aria-label="FTR105"
       id="text3648"
       style="font-size:7.05556px;line-height:1.25;font-family:'Bauhaus 93';-inkscape-font-specification:'Bauhaus 93, ';text-align:center;letter-spacing:0px;word-spacing:0px;text-anchor:middle;stroke-width:0.264583"
       transform="matrix(-1,0,0,1,-23.65843,-116.48037)"><path
         d="m 10.600051,148.57096 v 1.2609 h -0.465088 v 1.22646 h -1.39871 v -2.918 q 0,-0.82338 0.5064294,-1.36081 0.5098745,-0.54088 1.2815766,-0.54088 0.850939,0 1.422825,0.7338 l -1.147217,0.83716 q -0.09646,-0.26872 -0.341065,-0.26872 -0.323839,0 -0.323839,0.44787 v 0.58222 z"
         id="path3658" /><path
         d="m 14.27597,147.70624 v 3.35208 h -1.39871 v -3.35208 h -1.071425 v -1.35048 h 3.538115 v 1.35048 z"
         id="path3660" /><path
         d="m 17.259425,147.62011 v 3.43821 h -1.39871 v -4.70256 h 1.794896 q 0.819933,0 1.271241,0.40652 0.502984,0.45476 0.502984,1.15411 0,0.71314 -0.623562,1.20234 l 0.806153,1.93959 h -1.467612 l -0.678684,-1.51584 v -1.20923 h 0.110243 q 0.440972,0 0.440972,-0.37896 0,-0.33418 -0.509874,-0.33418 z"
         id="path3662" /><path
         d="m 22.282377,146.35576 v 4.70256 h -1.333252 v -4.70256 z"
         id="path3664" /><path
         d="m 23.94636,149.22208 v -1.03353 q 0,-0.90261 0.447862,-1.42627 0.451308,-0.52365 1.226455,-0.52365 0.775147,0 1.226455,0.52365 0.451308,0.52366 0.451308,1.42627 v 1.03353 q 0,0.90262 -0.451308,1.42972 -0.451308,0.52365 -1.226455,0.52365 -0.775147,0 -1.226455,-0.52365 -0.447862,-0.5271 -0.447862,-1.42972 z m 1.340143,-1.30914 v 1.58475 q 0,0.43064 0.334174,0.43064 0.33762,0 0.33762,-0.43064 v -1.58475 q 0,-0.43063 -0.33762,-0.43063 -0.334174,0 -0.334174,0.43063 z"
         id="path3666" /><path
         d="m 30.912348,146.35576 v 1.35048 h -1.157553 l -0.06201,0.2136 q 0.633898,0.18259 0.937066,0.5271 0.416857,0.46853 0.416857,1.1231 0,0.69246 -0.509875,1.15066 -0.506429,0.45475 -1.278131,0.45475 -0.52021,0 -1.026639,-0.27216 v -1.15755 q 0.403077,0.19637 0.70969,0.19637 0.316949,0 0.499539,-0.1447 0.186036,-0.14469 0.186036,-0.39274 0,-0.27905 -0.285943,-0.47198 -0.282498,-0.19292 -0.699355,-0.19292 -0.158475,0 -0.420302,0.0586 l 0.506429,-2.44257 z"
         id="path3668" /></g><g
       aria-label="Optical"
       id="text3652"
       style="font-size:4.93889px;line-height:1.25;font-family:'Bauhaus 93';-inkscape-font-specification:'Bauhaus 93, ';text-align:center;letter-spacing:0px;word-spacing:0px;text-anchor:middle;stroke-width:0.264583"
       transform="matrix(-1,0,0,1,-24.716764,-116.48037)"><path
         d="m 36.726994,147.59874 q 0.699355,0 1.198549,0.50884 0.501606,0.50884 0.501606,1.21784 0,0.72106 -0.504017,1.22507 -0.504018,0.50402 -1.225076,0.50402 -0.716236,0 -1.222665,-0.50643 -0.506429,-0.50643 -0.506429,-1.22266 0,-0.72347 0.508841,-1.22508 0.511252,-0.5016 1.249191,-0.5016 z m -0.02894,0.96945 q -0.301446,0 -0.513664,0.22186 -0.212218,0.22186 -0.212218,0.53537 0,0.3135 0.212218,0.53537 0.214629,0.22186 0.513664,0.22186 0.303857,0 0.513663,-0.21945 0.212218,-0.22187 0.212218,-0.53778 0,-0.31592 -0.212218,-0.53537 -0.209806,-0.22186 -0.513663,-0.22186 z"
         id="path3671" /><path
         d="M 39.669107,151.86239 H 38.76718 v -2.00643 q 0,-0.55225 0.289388,-0.89951 0.166399,-0.20016 0.422025,-0.31833 0.258037,-0.11817 0.528133,-0.11817 0.537779,0 0.906749,0.36174 0.36897,0.36174 0.36897,0.88746 0,0.51125 -0.366558,0.88263 -0.366558,0.37138 -0.868164,0.37138 -0.08199,0 -0.241157,-0.0169 v -0.99356 q 0.110932,0.0892 0.221864,0.0892 0.139871,0 0.238745,-0.10369 0.101286,-0.1037 0.101286,-0.24598 0,-0.14229 -0.103697,-0.24116 -0.103698,-0.10129 -0.248392,-0.10129 -0.347265,0 -0.347265,0.47991 z"
         id="path3673" /><path
         d="m 42.480994,147.68073 v 0.92122 h 0.405143 v 0.95257 h -0.405143 q 0,0.28697 0.08923,0.39549 0.09164,0.10852 0.332796,0.10852 v 0.94775 q -0.06994,0.002 -0.103697,0.002 -0.306269,0 -0.578777,-0.14228 -0.270095,-0.14228 -0.434082,-0.38585 -0.207394,-0.31109 -0.207394,-0.82476 v -1.97507 z"
         id="path3675" /><path
         d="m 44.231792,148.56819 v 2.40433 h -0.901926 v -2.40433 z m -0.448551,-1.07315 q 0.183279,0 0.315915,0.13022 0.135048,0.12782 0.135048,0.30386 0,0.1881 -0.127813,0.30868 -0.125402,0.12058 -0.32315,0.12058 -0.197749,0 -0.325562,-0.12058 -0.125401,-0.12058 -0.125401,-0.30868 0,-0.17604 0.132636,-0.30386 0.135047,-0.13022 0.318327,-0.13022 z"
         id="path3677" /><path
         d="m 46.238216,149.86561 0.894692,-0.0338 q -0.03858,0.5209 -0.388262,0.8561 -0.349678,0.33521 -0.851284,0.33521 -0.530544,0 -0.897103,-0.36897 -0.364146,-0.36897 -0.364146,-0.90434 0,-0.50884 0.368969,-0.87057 0.36897,-0.36174 0.885046,-0.36174 0.450963,0 0.795817,0.28457 0.344854,0.28456 0.429259,0.72588 l -0.913984,0.0338 q -0.118167,-0.15434 -0.299035,-0.15434 -0.15434,0 -0.253214,0.10129 -0.09887,0.10128 -0.09887,0.25562 0,0.15676 0.103697,0.26286 0.106109,0.10611 0.262861,0.10611 0.229099,0 0.325561,-0.26768 z"
         id="path3679" /><path
         d="m 48.862001,150.07059 v 0.93328 q -0.110932,0.0193 -0.202571,0.0193 -0.542603,0 -0.904338,-0.35691 -0.361735,-0.35691 -0.361735,-0.89469 0,-0.52331 0.364146,-0.88746 0.366559,-0.36415 0.889869,-0.36415 0.583599,0 0.918807,0.34245 0.337619,0.34003 0.337619,0.93086 v 1.17926 h -0.901926 v -1.11415 q 0,-0.19051 -0.09405,-0.30385 -0.09164,-0.11335 -0.248391,-0.11335 -0.142283,0 -0.24598,0.1037 -0.103698,0.1037 -0.103698,0.24598 0,0.14952 0.09405,0.24598 0.09405,0.0965 0.238746,0.0965 0.118166,0 0.219452,-0.0627 z"
         id="path3681" /><path
         d="m 51.331446,147.68073 v 3.29179 H 50.42952 v -3.29179 z"
         id="path3683" /></g><g
       aria-label="Phone/CW Tranceiver"
       id="text3656"
       style="font-size:4.93889px;line-height:1.25;font-family:'Bauhaus 93';-inkscape-font-specification:'Bauhaus 93, ';text-align:center;letter-spacing:0px;word-spacing:0px;text-anchor:middle;stroke-width:0.264583"
       transform="matrix(-1,0,0,1,-23.65843,-116.48037)"><path
         d="m 9.5507567,154.98502 v -0.86335 q 0.2966228,0 0.2966228,-0.22668 0,-0.2074 -0.2266874,-0.2074 -0.2290989,0 -0.2290989,0.28457 v 2.15112 H 8.4124969 v -2.04984 q 0,-0.31832 0.062701,-0.5209 0.065112,-0.20498 0.2194527,-0.38102 0.1736328,-0.19534 0.4340821,-0.30868 0.2604493,-0.11335 0.5377795,-0.11335 0.5016058,0 0.8416368,0.33762 0.342443,0.33762 0.342443,0.83682 0,0.48472 -0.30627,0.78617 -0.279741,0.27733 -0.8440478,0.27733 z"
         id="path3686" /><path
         d="m 12.090137,152.83149 v 1.00562 q 0.229099,-0.1664 0.458198,-0.1664 0.347266,0 0.549837,0.2508 0.204984,0.25081 0.204984,0.67766 v 1.52411 h -0.901927 v -1.2709 q 0,-0.15434 -0.03376,-0.2074 -0.03135,-0.0531 -0.125401,-0.0531 -0.151929,0 -0.151929,0.22428 v 1.30707 h -0.901926 v -3.29179 z"
         id="path3688" /><path
         d="m 14.969549,153.6683 q 0.511252,0 0.875399,0.36897 0.366558,0.36656 0.366558,0.88022 0,0.5209 -0.371382,0.88746 -0.368969,0.36656 -0.892279,0.36656 -0.523311,0 -0.894692,-0.36656 -0.371381,-0.36897 -0.371381,-0.88746 0,-0.52813 0.371381,-0.88745 0.371381,-0.36174 0.916396,-0.36174 z m -0.02412,0.88987 q -0.144694,0 -0.24598,0.10611 -0.101286,0.10369 -0.101286,0.25562 0,0.14952 0.101286,0.25563 0.103698,0.10611 0.24598,0.10611 0.144694,0 0.24598,-0.10611 0.103697,-0.10611 0.103697,-0.25563 0,-0.15193 -0.101286,-0.25562 -0.101285,-0.10611 -0.248391,-0.10611 z"
         id="path3690" /><path
         d="m 18.731594,156.12328 h -0.901926 v -1.35772 q 0,-0.20739 -0.171221,-0.20739 -0.16881,0 -0.16881,0.20739 v 1.35772 h -0.901926 v -1.34084 q 0,-0.47025 0.311092,-0.79099 0.311092,-0.32315 0.762055,-0.32315 0.516076,0 0.827168,0.37379 0.243568,0.2918 0.243568,0.8127 z"
         id="path3692" /><path
         d="m 21.620651,155.06701 h -1.367359 q -0.03135,-0.1037 -0.03135,-0.19051 0,-0.12058 0.04341,-0.23634 h 0.458198 q -0.04823,-0.26768 -0.301446,-0.26768 -0.16881,0 -0.274919,0.14469 -0.106109,0.14228 -0.106109,0.36656 0,0.23392 0.101286,0.37862 0.103698,0.14469 0.270096,0.14469 0.135048,0 0.260449,-0.13505 l 0.513664,0.61736 q -0.359324,0.28216 -0.798229,0.28216 -0.535368,0 -0.899515,-0.35933 -0.364146,-0.35932 -0.364146,-0.88986 0,-0.52814 0.366558,-0.89228 0.36897,-0.36415 0.904338,-0.36415 0.52331,0 0.87781,0.35691 0.356912,0.3545 0.356912,0.8754 0,0.053 -0.0096,0.16881 z"
         id="path3694" /><path
         d="m 23.214697,152.83149 -0.899514,3.91638 h -0.438906 l 0.897103,-3.91638 z"
         id="path3696" /><path
         d="m 26.000058,154.51476 1.024916,0.0265 q -0.101285,0.79581 -0.552248,1.2299 -0.448552,0.43408 -1.172022,0.43408 -0.735528,0 -1.232311,-0.49196 -0.494371,-0.49437 -0.494371,-1.22508 0,-0.73552 0.504017,-1.23713 0.506429,-0.50161 1.24678,-0.50161 0.728294,0 1.21543,0.49196 0.33762,0.34003 0.477491,0.94775 l -1.049032,0.0699 q -0.176044,-0.54019 -0.668004,-0.54019 -0.313504,0 -0.518487,0.21704 -0.202572,0.21705 -0.202572,0.55225 0,0.32315 0.20016,0.53537 0.20016,0.20981 0.506429,0.20981 0.311093,0 0.494372,-0.18569 0.18569,-0.18569 0.219452,-0.53296 z"
         id="path3698" /><path
         d="m 30.905186,152.83149 v 2.37057 q 0,0.44373 -0.267684,0.72347 -0.267684,0.27974 -0.692119,0.27974 -0.511253,0 -0.781348,-0.46543 -0.166398,0.2508 -0.356912,0.35932 -0.190514,0.10611 -0.470256,0.10611 -0.443728,0 -0.680062,-0.27974 -0.236333,-0.27974 -0.236333,-0.80547 v -2.28857 h 0.979096 v 2.14147 q 0,0.15916 0.02412,0.2098 0.02653,0.0506 0.103697,0.0506 0.144694,0 0.144694,-0.24357 v -2.15835 h 0.979096 v 2.14147 q 0,0.15434 0.02653,0.20739 0.02653,0.0531 0.103697,0.0531 0.144694,0 0.144694,-0.26045 v -2.14147 z"
         id="path3700" /><path
         d="m 34.165626,153.77682 v 2.34646 h -0.979097 v -2.34646 h -0.749997 v -0.94533 h 2.476679 v 0.94533 z"
         id="path3702" /><path
         d="m 36.52655,153.69483 v 0.96462 q -0.09405,-0.053 -0.171221,-0.053 -0.24598,0 -0.24598,0.3762 v 1.14068 h -0.901926 v -1.31431 q 0,-0.5209 0.284565,-0.82958 0.284564,-0.31109 0.759643,-0.31109 0.106109,0 0.274919,0.0265 z"
         id="path3704" /><path
         d="m 38.127831,155.22135 v 0.93328 q -0.110932,0.0193 -0.202572,0.0193 -0.542602,0 -0.904337,-0.35691 -0.361735,-0.35692 -0.361735,-0.89469 0,-0.52331 0.364146,-0.88746 0.366558,-0.36415 0.889869,-0.36415 0.583599,0 0.918807,0.34244 0.337619,0.34004 0.337619,0.93087 v 1.17926 h -0.901926 v -1.11415 q 0,-0.19051 -0.09405,-0.30386 -0.09164,-0.11334 -0.248392,-0.11334 -0.142282,0 -0.245979,0.1037 -0.103698,0.1037 -0.103698,0.24598 0,0.14951 0.09405,0.24598 0.09405,0.0965 0.238745,0.0965 0.118167,0 0.219453,-0.0627 z"
         id="path3706" /><path
         d="m 41.839232,156.12328 h -0.901926 v -1.35772 q 0,-0.20739 -0.171221,-0.20739 -0.16881,0 -0.16881,0.20739 v 1.35772 h -0.901926 v -1.34084 q 0,-0.47025 0.311092,-0.79099 0.311092,-0.32315 0.762056,-0.32315 0.516075,0 0.827167,0.37379 0.243568,0.2918 0.243568,0.8127 z"
         id="path3708" /><path
         d="m 43.840834,155.01637 0.894691,-0.0338 q -0.03859,0.5209 -0.388262,0.85611 -0.349678,0.33521 -0.851284,0.33521 -0.530544,0 -0.897103,-0.36897 -0.364146,-0.36897 -0.364146,-0.90434 0,-0.50884 0.368969,-0.87057 0.36897,-0.36174 0.885046,-0.36174 0.450963,0 0.795817,0.28457 0.344854,0.28456 0.429259,0.72588 l -0.913984,0.0338 q -0.118167,-0.15434 -0.299034,-0.15434 -0.154341,0 -0.253215,0.10128 -0.09887,0.10129 -0.09887,0.25563 0,0.15675 0.103697,0.26286 0.106109,0.10611 0.262861,0.10611 0.229099,0 0.325562,-0.26768 z"
         id="path3710" /><path
         d="m 47.491947,155.06701 h -1.367359 q -0.03135,-0.1037 -0.03135,-0.19051 0,-0.12058 0.04341,-0.23634 h 0.458198 q -0.04823,-0.26768 -0.301446,-0.26768 -0.16881,0 -0.274919,0.14469 -0.106109,0.14228 -0.106109,0.36656 0,0.23392 0.101286,0.37862 0.103698,0.14469 0.270096,0.14469 0.135047,0 0.260449,-0.13505 l 0.513664,0.61736 q -0.359324,0.28216 -0.798229,0.28216 -0.535368,0 -0.899515,-0.35933 -0.364146,-0.35932 -0.364146,-0.88986 0,-0.52814 0.366558,-0.89228 0.36897,-0.36415 0.904338,-0.36415 0.52331,0 0.87781,0.35691 0.356912,0.3545 0.356912,0.8754 0,0.053 -0.0096,0.16881 z"
         id="path3712" /><path
         d="m 48.767666,153.71894 v 2.40434 H 47.86574 v -2.40434 z m -0.448551,-1.07314 q 0.183279,0 0.315915,0.13022 0.135048,0.12781 0.135048,0.30386 0,0.1881 -0.127813,0.30868 -0.125402,0.12058 -0.32315,0.12058 -0.197749,0 -0.325562,-0.12058 -0.125401,-0.12058 -0.125401,-0.30868 0,-0.17605 0.132636,-0.30386 0.135048,-0.13022 0.318327,-0.13022 z"
         id="path3714" /><path
         d="m 51.104473,153.71894 -1.123791,2.49839 -1.109321,-2.49839 h 0.86093 l 0.255626,0.64871 0.279742,-0.64871 z"
         id="path3716" /><path
         d="m 53.564274,155.06701 h -1.367359 q -0.03135,-0.1037 -0.03135,-0.19051 0,-0.12058 0.04341,-0.23634 h 0.458198 q -0.04823,-0.26768 -0.301446,-0.26768 -0.16881,0 -0.274919,0.14469 -0.106109,0.14228 -0.106109,0.36656 0,0.23392 0.101286,0.37862 0.103697,0.14469 0.270095,0.14469 0.135048,0 0.26045,-0.13505 l 0.513663,0.61736 q -0.359323,0.28216 -0.798228,0.28216 -0.535368,0 -0.899515,-0.35933 -0.364147,-0.35932 -0.364147,-0.88986 0,-0.52814 0.366559,-0.89228 0.368969,-0.36415 0.904337,-0.36415 0.523311,0 0.877811,0.35691 0.356912,0.3545 0.356912,0.8754 0,0.053 -0.0096,0.16881 z"
         id="path3718" /><path
         d="m 55.257194,153.69483 v 0.96462 q -0.09405,-0.053 -0.171221,-0.053 -0.24598,0 -0.24598,0.3762 v 1.14068 h -0.901926 v -1.31431 q 0,-0.5209 0.284565,-0.82958 0.284565,-0.31109 0.759643,-0.31109 0.106109,0 0.274919,0.0265 z"
         id="path3720" /></g><g
       aria-label="R16FR"
       id="text4286"
       style="font-size:4.93889px;line-height:1.25;font-family:'Bauhaus 93';-inkscape-font-specification:'Bauhaus 93, ';text-align:center;letter-spacing:0px;word-spacing:0px;text-anchor:middle;stroke-width:0.264583"><g
         id="g4304"
         transform="matrix(-1,0,0,1,-188.20726,27.941728)"><path
           d="M -165.64066,47.593256 V 50 h -0.97909 v -3.291789 h 1.25642 q 0.57396,0 0.88987,0.284564 0.35209,0.318327 0.35209,0.807876 0,0.499194 -0.43649,0.841637 L -163.99356,50 h -1.02732 l -0.47508,-1.06109 v -0.84646 h 0.0772 q 0.30868,0 0.30868,-0.265272 0,-0.233922 -0.35691,-0.233922 z"
           id="path4288" /><path
           d="M -162.12459,46.708211 V 50 h -0.93328 v -3.291789 z"
           id="path4290" /><path
           d="m -160.31109,46.611748 0.86575,0.306269 -0.64148,1.799029 q -0.0289,0.07717 -0.0289,0.137459 0,0.130225 0.0965,0.224276 0.0965,0.09405 0.2291,0.09405 0.13263,0 0.22427,-0.09405 0.0941,-0.09646 0.0941,-0.23151 0,-0.135048 -0.0941,-0.229099 -0.0916,-0.09405 -0.22427,-0.09405 -0.0314,0 -0.0941,0.0096 l 0.39308,-0.945334 q 0.51125,0.221864 0.73553,0.511252 0.22669,0.286976 0.22669,0.713824 0,0.535368 -0.36656,0.901926 -0.36415,0.366558 -0.89469,0.366558 -0.50161,0 -0.87781,-0.366558 -0.3738,-0.36897 -0.3738,-0.86093 0,-0.226687 0.17605,-0.713823 z"
           id="path4292" /><path
           d="m -156.81432,48.258848 v 0.882634 h -0.32556 V 50 h -0.9791 v -2.042598 q 0,-0.576364 0.3545,-0.952569 0.35692,-0.378616 0.89711,-0.378616 0.59565,0 0.99597,0.513664 l -0.80305,0.586011 q -0.0675,-0.188102 -0.23874,-0.188102 -0.22669,0 -0.22669,0.313503 v 0.407555 z"
           id="path4294" /><path
           d="M -154.69455,47.593256 V 50 h -0.9791 v -3.291789 h 1.25643 q 0.57395,0 0.88987,0.284564 0.35209,0.318327 0.35209,0.807876 0,0.499194 -0.4365,0.841637 L -153.04745,50 h -1.02733 l -0.47508,-1.06109 v -0.84646 h 0.0772 q 0.30868,0 0.30868,-0.265272 0,-0.233922 -0.35691,-0.233922 z"
           id="path4296" /></g></g></g></svg>
