<?xml version="1.0" encoding="UTF-8" standalone="no"?>
<svg
   width="72.100006mm"
   height="57.099998mm"
   viewBox="0 0 72.100006 57.099998"
   version="1.1"
   id="svg922"
   inkscape:version="1.2.2 (732a01da63, 2022-12-09)"
   sodipodi:docname="FTR105_BOT_V1.svg"
   xml:space="preserve"
   xmlns:inkscape="http://www.inkscape.org/namespaces/inkscape"
   xmlns:sodipodi="http://sodipodi.sourceforge.net/DTD/sodipodi-0.dtd"
   xmlns="http://www.w3.org/2000/svg"
   xmlns:svg="http://www.w3.org/2000/svg"
   xmlns:rdf="http://www.w3.org/1999/02/22-rdf-syntax-ns#"
   xmlns:cc="http://creativecommons.org/ns#"
   xmlns:dc="http://purl.org/dc/elements/1.1/"><defs
     id="defs916"><marker
       id="DistanceX"
       orient="auto"
       refX="0"
       refY="0"
       style="overflow:visible"><path
         d="M 3,-3 -3,3 M 0,-5 V 5"
         style="stroke:#000000;stroke-width:0.5"
         id="path133" /></marker><pattern
       id="Hatch"
       patternUnits="userSpaceOnUse"
       width="8"
       height="8"
       x="0"
       y="0"><path
         d="M8 4 l-4,4"
         stroke="#000000"
         stroke-width="0.25"
         linecap="square"
         id="path136" /><path
         d="M6 2 l-4,4"
         stroke="#000000"
         stroke-width="0.25"
         linecap="square"
         id="path138" /><path
         d="M4 0 l-4,4"
         stroke="#000000"
         stroke-width="0.25"
         linecap="square"
         id="path140" /></pattern><symbol
       id="*MODEL_SPACE" /><symbol
       id="*PAPER_SPACE" /></defs><sodipodi:namedview
     id="base"
     pagecolor="#ffffff"
     bordercolor="#666666"
     borderopacity="1.0"
     inkscape:pageopacity="0.0"
     inkscape:pageshadow="2"
     inkscape:zoom="1.979899"
     inkscape:cx="54.800775"
     inkscape:cy="-8.0812203"
     inkscape:document-units="mm"
     inkscape:current-layer="layer1"
     inkscape:document-rotation="0"
     showgrid="true"
     showguides="true"
     inkscape:lockguides="true"
     inkscape:window-width="1920"
     inkscape:window-height="1017"
     inkscape:window-x="-8"
     inkscape:window-y="-8"
     inkscape:window-maximized="1"
     inkscape:showpageshadow="2"
     inkscape:pagecheckerboard="0"
     inkscape:deskcolor="#d1d1d1"><inkscape:grid
       type="xygrid"
       id="grid1495"
       units="mm"
       spacingx="10"
       spacingy="10"
       empspacing="10"
       dotted="false"
       originx="92.170211"
       originy="-86.93101" /></sodipodi:namedview><metadata
     id="metadata919"><rdf:RDF><cc:Work
         rdf:about=""><dc:format>image/svg+xml</dc:format><dc:type
           rdf:resource="http://purl.org/dc/dcmitype/StillImage" /></cc:Work></rdf:RDF></metadata><g
     inkscape:label="レイヤー 1"
     inkscape:groupmode="layer"
     id="layer1"
     transform="translate(92.170217,-86.931014)"><g
       id="g3015"><g
         id="g1922"
         transform="rotate(90,-36.011872,65.480955)"><path
           d="m 42.488186,51.589308 a 1.9999999,1.9999999 0 0 0 -1.999999,-2.000012 h -52.999999 a 1.9999999,1.9999999 0 0 0 -2.000001,2.000012 v 67.999982 a 1.9999999,1.9999999 0 0 0 2.000001,2.00001 h 52.999999 a 1.9999999,1.9999999 0 0 0 1.999999,-2.00001 V 64.589293 Z"
           style="fill:none;stroke:#ff0000;stroke-width:0.1;stroke-dasharray:none;stroke-opacity:1"
           id="path435" /><path
           d="m 0.08818617,52.589301 a 1.6000002,1.6000002 0 0 0 -3.20000047,0 1.6000002,1.6000002 0 0 0 3.20000047,0 z"
           style="fill:none;stroke:#ff0000;stroke-width:0.1;stroke-dasharray:none;stroke-opacity:1"
           id="path449" /><path
           d="m 0.08818617,118.5893 a 1.6000002,1.6000002 0 0 0 -3.20000047,0 1.6000002,1.6000002 0 0 0 3.20000047,0 z"
           style="fill:none;stroke:#ff0000;stroke-width:0.1;stroke-dasharray:none;stroke-opacity:1"
           id="path489" /><path
           d="m 41.088186,52.589301 a 1.6,1.6 0 0 0 -3.199998,0 1.6,1.6 0 0 0 3.199998,0 z"
           style="fill:none;stroke:#ff0000;stroke-width:0.1;stroke-dasharray:none;stroke-opacity:1"
           id="path497" /><path
           d="m 41.088186,118.5893 a 1.6,1.6 0 0 0 -3.199998,0 1.6,1.6 0 0 0 3.199998,0 z"
           style="fill:none;stroke:#ff0000;stroke-width:0.1;stroke-dasharray:none;stroke-opacity:1"
           id="path523" /></g></g></g></svg>
